<svg xmlns="http://www.w3.org/2000/svg" width="80" height="81" fill="none" viewBox="0 0 80 81"><path stroke="#1f2937" stroke-linecap="round" stroke-width="4" d="M53.354 49.718c-2.423 8.033-9.406 14.255-17.896 15.49a22.13 22.13 0 0 1-14.133-2.592l-7.24 1.814c-1.846.458-3.522-1.204-3.066-3.05l1.815-7.255a22.17 22.17 0 0 1-2.592-14.117c1.434-9.71 9.346-17.47 19.087-18.66 5.06-.625 9.847.458 13.827 2.76"/><path stroke="#1f2937" stroke-linecap="round" stroke-width="4" d="M59.993 16.051c7.563.934 13.72 6.952 14.823 14.494.57 3.78-.14 7.641-2.013 10.973l1.41 5.628a1.955 1.955 0 0 1-2.372 2.372l-5.63-1.408a17.17 17.17 0 0 1-10.973 2.012c-7.542-1.104-13.562-7.26-14.492-14.826a17.21 17.21 0 0 1 19.247-19.245Z"/></svg>