<?xml version="1.0" standalone="no"?><!DOCTYPE svg><svg xmlns="http://www.w3.org/2000/svg" width="247" height="150" viewBox="0 0 247 150" fill="none">
<mask id="path-1-inside-1_117_1813" fill="white">
<path d="M193.806 5.92102C200.791 5.92103 206.886 9.68199 210.126 15.2638C212.513 14.1801 215.171 13.5764 217.971 13.5763C227.923 13.5763 236.068 21.2101 236.723 30.8683C242.523 31.9513 246.909 36.978 246.909 43.0167C246.909 49.1674 242.358 54.2678 236.398 55.2208C234.674 63.7086 227.079 70.1027 217.971 70.1027C215.17 70.1026 212.514 69.497 210.126 68.4132C206.886 73.9956 200.792 77.757 193.806 77.757C186.864 77.757 180.802 74.0429 177.547 68.5187C175.221 69.5362 172.647 70.1027 169.938 70.1027C160.83 70.1026 153.235 63.7087 151.511 55.2208C145.551 54.2676 141 49.1672 141 43.0167C141 36.9782 145.387 31.9515 151.187 30.8683C151.841 21.2101 159.986 13.5763 169.938 13.5763C172.647 13.5763 175.221 14.1418 177.547 15.1593C180.802 9.63521 186.864 5.92102 193.806 5.92102Z"/>
</mask>
<path d="M193.806 5.92102C200.791 5.92103 206.886 9.68199 210.126 15.2638C212.513 14.1801 215.171 13.5764 217.971 13.5763C227.923 13.5763 236.068 21.2101 236.723 30.8683C242.523 31.9513 246.909 36.978 246.909 43.0167C246.909 49.1674 242.358 54.2678 236.398 55.2208C234.674 63.7086 227.079 70.1027 217.971 70.1027C215.17 70.1026 212.514 69.497 210.126 68.4132C206.886 73.9956 200.792 77.757 193.806 77.757C186.864 77.757 180.802 74.0429 177.547 68.5187C175.221 69.5362 172.647 70.1027 169.938 70.1027C160.83 70.1026 153.235 63.7087 151.511 55.2208C145.551 54.2676 141 49.1672 141 43.0167C141 36.9782 145.387 31.9515 151.187 30.8683C151.841 21.2101 159.986 13.5763 169.938 13.5763C172.647 13.5763 175.221 14.1418 177.547 15.1593C180.802 9.63521 186.864 5.92102 193.806 5.92102Z" fill="white"/>
<path d="M193.806 5.92102V3.92102V5.92102ZM210.126 15.2638L208.396 16.2678L209.305 17.833L210.953 17.085L210.126 15.2638ZM217.971 13.5763V11.5763H217.971L217.971 13.5763ZM236.723 30.8683L234.727 31.0034L234.832 32.5498L236.356 32.8343L236.723 30.8683ZM246.909 43.0167L248.909 43.0167V43.0167H246.909ZM236.398 55.2208L236.083 53.2459L234.714 53.4647L234.438 54.8226L236.398 55.2208ZM217.971 70.1027L217.971 72.1027H217.971V70.1027ZM210.126 68.4132L210.953 66.5921L209.305 65.8439L208.396 67.4093L210.126 68.4132ZM193.806 77.757V79.757V77.757ZM177.547 68.5187L179.27 67.5034L178.37 65.9757L176.745 66.6863L177.547 68.5187ZM169.938 70.1027L169.938 72.1027H169.938V70.1027ZM151.511 55.2208L153.471 54.8226L153.195 53.4648L151.827 53.2459L151.511 55.2208ZM141 43.0167H139V43.0167L141 43.0167ZM151.187 30.8683L151.554 32.8343L153.077 32.5498L153.182 31.0034L151.187 30.8683ZM169.938 13.5763V11.5763H169.938L169.938 13.5763ZM177.547 15.1593L176.745 16.9917L178.37 17.7022L179.27 16.1746L177.547 15.1593ZM193.806 5.92102V7.92102C200.058 7.92103 205.504 11.285 208.396 16.2678L210.126 15.2638L211.856 14.2598C208.268 8.07901 201.524 3.92103 193.806 3.92102V5.92102ZM210.126 15.2638L210.953 17.085C213.085 16.1172 215.461 15.5764 217.971 15.5763L217.971 13.5763L217.971 11.5763C214.881 11.5764 211.942 12.2431 209.299 13.4426L210.126 15.2638ZM217.971 13.5763V15.5763C226.887 15.5763 234.145 22.4102 234.727 31.0034L236.723 30.8683L238.718 30.7331C237.992 20.0099 228.96 11.5763 217.971 11.5763V13.5763ZM236.723 30.8683L236.356 32.8343C241.245 33.7473 244.909 37.9773 244.909 43.0167H246.909H248.909C248.909 35.9788 243.8 30.1553 237.09 28.9023L236.723 30.8683ZM246.909 43.0167L244.909 43.0167C244.909 48.1496 241.107 52.4424 236.083 53.2459L236.398 55.2208L236.714 57.1957C243.609 56.0932 248.909 50.1852 248.909 43.0167L246.909 43.0167ZM236.398 55.2208L234.438 54.8226C232.903 62.3791 226.127 68.1027 217.971 68.1027V70.1027V72.1027C228.031 72.1027 236.445 65.0382 238.358 55.619L236.398 55.2208ZM217.971 70.1027L217.971 68.1027C215.461 68.1026 213.086 67.5604 210.953 66.5921L210.126 68.4132L209.299 70.2344C211.941 71.4337 214.879 72.1026 217.971 72.1027L217.971 70.1027ZM210.126 68.4132L208.396 67.4093C205.504 72.3927 200.059 75.757 193.806 75.757V77.757V79.757C201.525 79.757 208.269 75.5984 211.856 69.4171L210.126 68.4132ZM193.806 77.757V75.757C187.592 75.757 182.176 72.4351 179.27 67.5034L177.547 68.5187L175.824 69.534C179.428 75.6508 186.135 79.757 193.806 79.757V77.757ZM177.547 68.5187L176.745 66.6863C174.667 67.5954 172.366 68.1027 169.938 68.1027V70.1027V72.1027C172.928 72.1027 175.774 71.477 178.348 70.351L177.547 68.5187ZM169.938 70.1027L169.938 68.1027C161.782 68.1026 155.006 62.3791 153.471 54.8226L151.511 55.2208L149.551 55.619C151.464 65.0382 159.878 72.1026 169.938 72.1027L169.938 70.1027ZM151.511 55.2208L151.827 53.2459C146.802 52.4423 143 48.1493 143 43.0167L141 43.0167L139 43.0167C139 50.1851 144.3 56.093 151.195 57.1957L151.511 55.2208ZM141 43.0167H143C143 37.9775 146.664 33.7474 151.554 32.8343L151.187 30.8683L150.819 28.9023C144.109 30.1555 139 35.9789 139 43.0167H141ZM151.187 30.8683L153.182 31.0034C153.764 22.4102 161.022 15.5763 169.938 15.5763L169.938 13.5763L169.938 11.5763C158.949 11.5763 149.917 20.0099 149.191 30.7331L151.187 30.8683ZM169.938 13.5763V15.5763C172.366 15.5763 174.668 16.0828 176.745 16.9917L177.547 15.1593L178.348 13.3269C175.774 12.2009 172.927 11.5763 169.938 11.5763V13.5763ZM177.547 15.1593L179.27 16.1746C182.176 11.243 187.592 7.92102 193.806 7.92102V5.92102V3.92102C186.135 3.92102 179.428 8.02738 175.824 14.144L177.547 15.1593Z" fill="#E43F6F" mask="url(#path-1-inside-1_117_1813)"/>
<path d="M174.129 73.8262C176.861 73.8264 179.057 76.0089 179.057 78.6787C179.057 81.3487 176.861 83.532 174.129 83.5322C171.398 83.5322 169.201 81.3488 169.201 78.6787C169.201 76.0088 171.398 73.8262 174.129 73.8262Z" fill="white" stroke="#E43F6F" stroke-width="1.6"/>
<path d="M162.983 83.3529C164.091 83.3529 164.967 84.236 164.967 85.2972C164.967 86.3584 164.091 87.2416 162.983 87.2416C161.876 87.2416 161 86.3584 161 85.2972C161 84.236 161.875 83.3529 162.983 83.3529Z" fill="white" stroke="#E43F6F" stroke-width="2"/>
<path d="M218.433 24.362C216.268 23.967 215.974 23.6775 215.574 21.5395C215.555 21.4375 215.5 21.3453 215.419 21.279C215.338 21.2127 215.236 21.1764 215.131 21.1764C215.025 21.1764 214.923 21.2127 214.842 21.279C214.761 21.3453 214.706 21.4375 214.687 21.5395C214.287 23.6759 213.993 23.9662 211.827 24.3612C211.724 24.3803 211.63 24.4346 211.563 24.5145C211.496 24.5944 211.459 24.695 211.459 24.7988C211.459 24.9027 211.496 25.0032 211.563 25.0832C211.63 25.1631 211.724 25.2173 211.827 25.2365C213.992 25.6315 214.286 25.921 214.686 28.0589C214.706 28.161 214.761 28.2531 214.842 28.3194C214.923 28.3858 215.024 28.422 215.13 28.422C215.235 28.422 215.337 28.3858 215.418 28.3194C215.499 28.2531 215.554 28.161 215.573 28.0589C215.973 25.9226 216.267 25.6323 218.433 25.2373C218.537 25.2181 218.63 25.1639 218.697 25.084C218.764 25.004 218.801 24.9035 218.801 24.7996C218.801 24.6958 218.764 24.5952 218.697 24.5153C218.63 24.4354 218.537 24.3811 218.433 24.362ZM215.128 26.4875C215.011 26.0867 214.792 25.7217 214.493 25.4267C214.194 25.1316 213.824 24.9159 213.418 24.7996C213.824 24.6834 214.194 24.4677 214.493 24.1726C214.792 23.8775 215.011 23.5126 215.128 23.1118C215.246 23.5126 215.465 23.8776 215.764 24.1727C216.063 24.4678 216.433 24.6834 216.839 24.7996C216.433 24.9158 216.063 25.1315 215.764 25.4266C215.465 25.7217 215.246 26.0866 215.128 26.4875Z" fill="#E43F6F"/>
<circle cx="116" cy="108.277" r="41.7228" fill="#E43F6F"/>
<path fill-rule="evenodd" clip-rule="evenodd" d="M121.329 109.355V111.911C131.058 117.507 136.031 114.709 136.031 127.351H96.2735C96.2735 114.226 101.132 117.507 110.861 111.911V109.723C109.157 108.503 108.801 106.315 108.191 104C107.949 104 107.695 103.631 107.695 103.148V102.906C107.58 102.665 107.338 102.296 107.211 101.813C106.97 101.088 106.359 99.6251 106.97 99.0146C107.453 98.6457 107.822 99.0146 107.822 99.0146C107.097 95.3644 106.118 90.5059 111.218 89.0433C111.218 85.8764 123.262 87.2246 124.712 92.3247C125.437 94.3851 124.47 99.0146 124.47 99.0146C124.712 98.6457 124.954 98.6457 125.195 98.7729C125.806 99.2562 125.195 101.202 124.954 101.813C124.839 102.296 124.585 102.665 124.47 103.021V103.148C124.47 103.517 124.229 104 123.987 104C123.504 105.946 123.02 108.261 121.316 109.355H121.329Z" fill="white"/>
<path d="M146.703 16.2434C143.095 15.5851 142.605 15.1026 141.938 11.5393C141.906 11.3692 141.814 11.2156 141.679 11.1051C141.544 10.9946 141.374 10.9341 141.199 10.9341C141.023 10.9341 140.854 10.9946 140.719 11.1051C140.584 11.2156 140.492 11.3692 140.46 11.5393C139.793 15.0999 139.304 15.5837 135.693 16.242C135.52 16.274 135.365 16.3644 135.253 16.4976C135.141 16.6308 135.08 16.7984 135.08 16.9715C135.08 17.1445 135.141 17.3122 135.253 17.4454C135.365 17.5786 135.52 17.6689 135.693 17.7009C139.301 18.3592 139.791 18.8417 140.458 22.405C140.491 22.5751 140.582 22.7287 140.717 22.8392C140.852 22.9497 141.022 23.0102 141.197 23.0102C141.373 23.0102 141.543 22.9497 141.678 22.8392C141.813 22.7287 141.904 22.5751 141.937 22.405C142.604 18.8444 143.093 18.3605 146.703 17.7022C146.876 17.6703 147.031 17.5799 147.143 17.4467C147.255 17.3135 147.317 17.1459 147.317 16.9728C147.317 16.7997 147.255 16.6321 147.143 16.4989C147.031 16.3657 146.876 16.2753 146.703 16.2434ZM141.195 19.7859C140.999 19.1179 140.635 18.5097 140.136 18.0179C139.638 17.526 139.022 17.1666 138.345 16.9728C139.022 16.779 139.638 16.4196 140.136 15.9277C140.635 15.4359 140.999 14.8277 141.195 14.1597C141.392 14.8278 141.756 15.436 142.254 15.9279C142.753 16.4197 143.369 16.7792 144.046 16.9728C143.369 17.1664 142.753 17.5259 142.254 18.0177C141.756 18.5096 141.392 19.1178 141.195 19.7859Z" fill="#E43F6F"/>
<path d="M169.273 42.4125C167.947 42.1705 167.767 41.9931 167.521 40.6831C167.51 40.6205 167.476 40.5641 167.426 40.5234C167.377 40.4828 167.314 40.4606 167.25 40.4606C167.185 40.4606 167.123 40.4828 167.073 40.5234C167.024 40.5641 166.99 40.6205 166.978 40.6831C166.733 41.9921 166.553 42.17 165.225 42.412C165.162 42.4238 165.105 42.457 165.064 42.506C165.023 42.5549 165 42.6166 165 42.6802C165 42.7438 165.023 42.8055 165.064 42.8544C165.105 42.9034 165.162 42.9366 165.225 42.9484C166.552 43.1904 166.732 43.3678 166.977 44.6778C166.989 44.7403 167.023 44.7968 167.073 44.8374C167.122 44.8781 167.185 44.9003 167.249 44.9003C167.314 44.9003 167.376 44.8781 167.426 44.8374C167.475 44.7968 167.509 44.7403 167.521 44.6778C167.766 43.3688 167.946 43.1909 169.273 42.9489C169.337 42.9371 169.394 42.9039 169.435 42.8549C169.476 42.8059 169.499 42.7443 169.499 42.6807C169.499 42.6171 169.476 42.5554 169.435 42.5065C169.394 42.4575 169.337 42.4243 169.273 42.4125ZM167.248 43.7149C167.176 43.4693 167.042 43.2457 166.859 43.0649C166.676 42.8841 166.449 42.7519 166.2 42.6807C166.449 42.6095 166.676 42.4773 166.859 42.2965C167.042 42.1157 167.176 41.8921 167.248 41.6465C167.321 41.8921 167.455 42.1157 167.638 42.2965C167.821 42.4773 168.048 42.6095 168.296 42.6807C168.048 42.7519 167.821 42.884 167.638 43.0649C167.455 43.2457 167.321 43.4693 167.248 43.7149Z" fill="#E43F6F"/>
<path d="M167.555 37.077C165.831 36.7623 165.597 36.5317 165.278 34.8287C165.262 34.7474 165.219 34.674 165.154 34.6212C165.09 34.5683 165.008 34.5394 164.925 34.5394C164.841 34.5394 164.76 34.5683 164.695 34.6212C164.631 34.674 164.587 34.7474 164.571 34.8287C164.253 36.5304 164.019 36.7617 162.293 37.0763C162.211 37.0916 162.136 37.1348 162.083 37.1984C162.029 37.2621 162 37.3422 162 37.4249C162 37.5077 162.029 37.5878 162.083 37.6514C162.136 37.7151 162.211 37.7583 162.293 37.7736C164.018 38.0882 164.252 38.3188 164.571 40.0218C164.586 40.1031 164.63 40.1765 164.694 40.2294C164.759 40.2822 164.84 40.3111 164.924 40.3111C165.008 40.3111 165.089 40.2822 165.153 40.2294C165.218 40.1765 165.262 40.1031 165.277 40.0218C165.596 38.3201 165.83 38.0888 167.555 37.7742C167.638 37.7589 167.712 37.7157 167.766 37.6521C167.819 37.5884 167.849 37.5083 167.849 37.4256C167.849 37.3429 167.819 37.2627 167.766 37.1991C167.712 37.1354 167.638 37.0922 167.555 37.077ZM164.923 38.7701C164.829 38.4508 164.655 38.1601 164.417 37.9251C164.179 37.69 163.884 37.5182 163.561 37.4256C163.884 37.333 164.179 37.1612 164.417 36.9261C164.655 36.691 164.829 36.4004 164.923 36.0811C165.017 36.4004 165.191 36.6911 165.429 36.9262C165.667 37.1612 165.962 37.333 166.285 37.4256C165.962 37.5181 165.667 37.6899 165.429 37.925C165.191 38.1601 165.017 38.4508 164.923 38.7701Z" fill="#E43F6F"/>
<path d="M222.15 81.0797C218.689 80.4483 218.219 79.9854 217.579 76.5674C217.548 76.4042 217.46 76.2569 217.33 76.1508C217.201 76.0448 217.038 75.9868 216.87 75.9868C216.702 75.9868 216.539 76.0448 216.409 76.1508C216.28 76.2569 216.192 76.4042 216.161 76.5674C215.521 79.9829 215.052 80.447 211.588 81.0784C211.423 81.1091 211.274 81.1958 211.166 81.3236C211.059 81.4513 211 81.6121 211 81.7782C211 81.9442 211.059 82.105 211.166 82.2327C211.274 82.3605 211.423 82.4472 211.588 82.4779C215.049 83.1093 215.52 83.5722 216.16 86.9902C216.191 87.1534 216.278 87.3007 216.408 87.4067C216.537 87.5128 216.7 87.5708 216.869 87.5708C217.037 87.5708 217.2 87.5128 217.329 87.4067C217.459 87.3007 217.547 87.1534 217.578 86.9902C218.217 83.5747 218.686 83.1106 222.15 82.4791C222.315 82.4485 222.465 82.3618 222.572 82.234C222.68 82.1063 222.738 81.9455 222.738 81.7794C222.738 81.6134 222.68 81.4526 222.572 81.3248C222.465 81.1971 222.315 81.1104 222.15 81.0797ZM216.867 84.4779C216.678 83.8371 216.329 83.2537 215.851 82.7819C215.373 82.3101 214.782 81.9653 214.132 81.7794C214.782 81.5936 215.373 81.2487 215.851 80.777C216.329 80.3052 216.678 79.7218 216.867 79.081C217.055 79.7219 217.404 80.3053 217.882 80.7771C218.36 81.2489 218.952 81.5937 219.601 81.7794C218.952 81.9652 218.36 82.31 217.882 82.7818C217.404 83.2536 217.055 83.837 216.867 84.4779Z" fill="#E43F6F"/>
<path d="M240.646 6.6897C236.1 5.86024 235.482 5.2523 234.642 0.762559C234.601 0.54823 234.485 0.354709 234.315 0.215462C234.145 0.0762148 233.931 0 233.71 0C233.489 0 233.275 0.0762148 233.105 0.215462C232.935 0.354709 232.82 0.54823 232.779 0.762559C231.938 5.24892 231.322 5.85855 226.773 6.68801C226.556 6.72825 226.359 6.84214 226.218 7.00997C226.077 7.1778 226 7.38902 226 7.60709C226 7.82517 226.077 8.03639 226.218 8.20422C226.359 8.37204 226.556 8.48593 226.773 8.52618C231.319 9.35564 231.937 9.96358 232.777 14.4533C232.818 14.6677 232.933 14.8612 233.103 15.0004C233.273 15.1397 233.488 15.2159 233.709 15.2159C233.929 15.2159 234.144 15.1397 234.314 15.0004C234.484 14.8612 234.599 14.6677 234.64 14.4533C235.48 9.96696 236.096 9.35734 240.646 8.52787C240.863 8.48763 241.059 8.37374 241.2 8.20591C241.342 8.03808 241.419 7.82686 241.419 7.60878C241.419 7.39071 241.342 7.17949 241.2 7.01166C241.059 6.84383 240.863 6.72994 240.646 6.6897ZM233.706 11.1532C233.459 10.3116 233 9.54525 232.372 8.92556C231.744 8.30587 230.967 7.85291 230.114 7.60878C230.967 7.36466 231.744 6.9117 232.372 6.29201C233 5.67232 233.459 4.90602 233.706 4.06434C233.953 4.90609 234.412 5.67247 235.04 6.29218C235.668 6.91188 236.445 7.3648 237.298 7.60878C236.445 7.85277 235.668 8.30569 235.04 8.9254C234.412 9.5451 233.953 10.3115 233.706 11.1532Z" fill="#E43F6F"/>
<path d="M244.339 16.9337C242.066 16.519 241.757 16.215 241.337 13.9701C241.316 13.863 241.259 13.7662 241.174 13.6966C241.089 13.627 240.982 13.5889 240.871 13.5889C240.761 13.5889 240.654 13.627 240.569 13.6966C240.484 13.7662 240.426 13.863 240.406 13.9701C239.985 16.2133 239.677 16.5181 237.402 16.9329C237.294 16.953 237.196 17.0099 237.125 17.0939C237.055 17.1778 237.016 17.2834 237.016 17.3924C237.016 17.5015 237.055 17.6071 237.125 17.691C237.196 17.7749 237.294 17.8318 237.402 17.852C239.676 18.2667 239.984 18.5707 240.405 20.8155C240.425 20.9227 240.483 21.0195 240.568 21.0891C240.653 21.1587 240.76 21.1968 240.87 21.1968C240.981 21.1968 241.088 21.1587 241.173 21.0891C241.258 21.0195 241.316 20.9227 241.336 20.8155C241.756 18.5723 242.064 18.2675 244.339 17.8528C244.448 17.8327 244.546 17.7757 244.616 17.6918C244.687 17.6079 244.725 17.5023 244.725 17.3933C244.725 17.2842 244.687 17.1786 244.616 17.0947C244.546 17.0108 244.448 16.9538 244.339 16.9337ZM240.869 19.1655C240.745 18.7446 240.516 18.3615 240.202 18.0516C239.888 17.7418 239.5 17.5153 239.073 17.3933C239.5 17.2712 239.888 17.0447 240.202 16.7349C240.516 16.425 240.745 16.0419 240.869 15.621C240.993 16.0419 241.222 16.4251 241.536 16.735C241.85 17.0448 242.238 17.2713 242.665 17.3933C242.238 17.5153 241.85 17.7417 241.536 18.0516C241.222 18.3614 240.993 18.7446 240.869 19.1655Z" fill="#E43F6F"/>
<path fill-rule="evenodd" clip-rule="evenodd" d="M186.718 44.7924L177.149 47.9512C176.857 48.0509 176.666 48.3058 176.621 48.6494L175.015 61.4508C174.88 62.4927 175.689 63.3905 176.744 63.3905H190.514C189.368 62.2378 188.515 60.4533 187.908 57.9817C187.167 54.9005 186.774 50.5779 186.718 44.7924Z" fill="#E43F6F"/>
<path fill-rule="evenodd" clip-rule="evenodd" d="M214.201 61.4508L212.595 48.6494C212.55 48.3058 212.359 48.0509 212.067 47.9512L202.498 44.7924C202.442 50.5779 202.037 54.9005 201.296 57.9817C200.69 60.4533 199.836 62.2378 198.69 63.3905H212.46C213.527 63.3905 214.324 62.4927 214.201 61.4508Z" fill="#E43F6F"/>
<path fill-rule="evenodd" clip-rule="evenodd" d="M199.117 52.1185C198.96 52.4843 198.466 52.5619 198.207 52.2515L196.949 50.7885L196.107 52.307L197.488 63.0136C199.903 61.1073 201.127 55.9867 201.375 46.7985L199.117 52.1185Z" fill="#E43F6F"/>
<path fill-rule="evenodd" clip-rule="evenodd" d="M194.13 52.739L192.749 63.3903H196.466L195.096 52.739H194.13Z" fill="#E43F6F"/>
<path fill-rule="evenodd" clip-rule="evenodd" d="M192.255 50.7996L191.008 52.2626C190.75 52.5619 190.256 52.4954 190.098 52.1296L187.83 46.7985C188.077 55.9867 189.301 61.1073 191.716 63.0136L193.097 52.307L192.255 50.7996Z" fill="#E43F6F"/>
<path fill-rule="evenodd" clip-rule="evenodd" d="M195.242 51.6751L196.219 49.9239L194.613 48.0508L193.007 49.9239L193.973 51.6751H195.242Z" fill="#E43F6F"/>
<path fill-rule="evenodd" clip-rule="evenodd" d="M201.33 44.1826L199.892 42.7639L195.343 47.2527L198.466 50.9103L201.33 44.1826Z" fill="#E43F6F"/>
<path fill-rule="evenodd" clip-rule="evenodd" d="M199.353 41.7886V38.53C198.016 40.1593 196.332 41.046 194.602 41.0127C194.58 41.0127 194.546 41.0127 194.524 41.0127C192.828 41.0127 191.165 40.1371 189.863 38.53V41.7886L194.613 46.4769L199.353 41.7886Z" fill="#E43F6F"/>
<path fill-rule="evenodd" clip-rule="evenodd" d="M187.886 44.1826L190.75 50.9103L193.872 47.2527L189.323 42.7639L187.886 44.1826Z" fill="#E43F6F"/>
<path fill-rule="evenodd" clip-rule="evenodd" d="M198.946 24.6598C194.633 26.1561 191.814 26.1782 190.163 24.7263C187.659 25.9344 187.614 28.7385 187.984 31.0771C188.872 36.5856 191.444 40.1213 194.532 40.1213H194.701C197.789 40.1213 200.361 36.5856 201.249 31.0771C201.653 28.672 201.529 25.8125 198.946 24.6598Z" fill="#E43F6F"/>
<path fill-rule="evenodd" clip-rule="evenodd" d="M186.751 28.3666C186.897 25.906 188.009 24.2435 190.076 23.4233C190.289 23.3457 190.525 23.3901 190.671 23.5563C191.952 24.9307 194.602 24.8864 198.769 23.4122C198.892 23.3679 199.027 23.3679 199.151 23.4233C201.206 24.2435 202.318 25.8949 202.475 28.3666C202.913 28.3444 203.284 28.3998 203.587 28.4996C205.193 20.5527 199.533 17.9481 197.713 17.3274C194.692 16.2966 191.424 16.7621 190.705 18.3028C190.637 18.4468 190.514 18.5466 190.368 18.5909C188.369 19.1784 186.74 20.586 185.909 22.4701C185.157 24.1548 185.202 26.5378 185.977 28.4109C186.201 28.3777 186.459 28.3555 186.751 28.3666Z" fill="#E43F6F"/>
<path fill-rule="evenodd" clip-rule="evenodd" d="M203.823 29.9515C203.542 29.5192 202.969 29.3973 202.475 29.4306C202.453 29.9515 202.396 30.4946 202.307 31.0709C202.161 31.9687 201.97 32.8221 201.745 33.6201C202.655 33.5758 203.228 32.9219 203.463 32.6005C204.081 31.7249 204.238 30.5943 203.823 29.9515Z" fill="#E43F6F"/>
<path fill-rule="evenodd" clip-rule="evenodd" d="M187.47 33.6202C187.246 32.8222 187.055 31.9688 186.909 31.071C186.819 30.4947 186.763 29.9516 186.74 29.4307C186.235 29.3974 185.696 29.4972 185.393 29.9516C184.977 30.5944 185.134 31.7249 185.752 32.5895C185.988 32.922 186.561 33.5759 187.47 33.6202Z" fill="#E43F6F"/>
<path d="M98.9923 86.4947C99.2823 86.5989 99.6214 86.5048 99.8222 86.2399C100.07 85.9136 100.013 85.4518 99.6966 85.2083C98.8231 84.5368 98.0266 83.7624 97.329 82.9064C96.4548 81.8339 96.0656 81.3339 95.9632 80.8285C97.0359 81.003 98.5897 80.9789 100.398 80.1161C100.857 79.8972 101.215 79.5778 101.434 79.1925C101.698 78.7259 101.757 78.1478 101.59 77.646C101.36 76.9534 100.714 76.511 100.187 76.3276C99.4631 76.0765 98.6578 76.1218 97.7246 76.4662C96.927 76.7606 96.1338 77.3102 95.5482 77.9741C95.2828 78.275 95.0649 78.5905 94.8967 78.9154C94.2528 78.5237 93.1792 77.6991 93.0854 76.515C93.0777 76.4175 93.0781 76.3197 93.086 76.2218C93.1784 76.2259 93.2503 76.227 93.298 76.2271C93.8091 76.2281 94.4356 76.1625 95.1602 76.0323C96.1135 75.8609 96.8642 75.6103 97.4125 75.4273L97.4237 75.4235C97.5284 75.3885 97.6534 75.3493 97.7857 75.3078C98.8803 74.9642 100.535 74.4451 101.107 73.2593C101.355 72.746 101.368 72.1697 101.143 71.5927C100.915 71.0044 100.484 70.587 99.8987 70.3857C99.2589 70.1656 98.4405 70.205 97.4663 70.5029C96.5628 70.7791 95.8243 71.1819 95.5487 71.3422C94.6564 71.8614 92.9283 73.0192 92.0954 74.5995C91.1767 74.3907 89.9668 73.8985 89.212 72.7402C88.9481 72.335 88.7692 71.8903 88.677 71.4115C88.7401 71.4086 88.8024 71.4056 88.8633 71.4027C89.0401 71.3942 89.2071 71.3862 89.3612 71.381C91.6736 71.302 94.2761 70.6596 97.5512 69.3592C97.9756 69.1907 98.4023 69.0108 98.8194 68.8246C99.987 68.3032 101.595 67.4585 102.077 66.1479C102.293 65.5592 102.255 64.9371 101.967 64.3488C101.739 63.8823 101.33 63.503 100.785 63.2521C99.5546 62.6857 98.1863 62.5628 96.6018 62.876C95.2345 63.1463 93.9095 63.707 92.7937 64.2199C91.0411 65.0255 89.508 66.2963 88.3603 67.8949L88.3235 67.9461C87.9141 68.5157 87.4257 69.1954 87.2327 69.9596C86.229 69.9212 85.276 69.7204 84.8725 69.0375C84.2809 68.0364 85.5902 65.7123 87.0571 63.9765C90.0207 60.4697 94.4341 59.4174 97.6146 59.1522C98.0158 59.1188 98.3213 58.7627 98.2971 58.357C98.2729 57.9512 97.9281 57.6493 97.5269 57.6828C95.6017 57.8433 93.7906 58.2302 92.1439 58.8326C89.6133 59.7583 87.5329 61.1712 85.9603 63.032C85.6378 63.4136 84.8176 64.429 84.169 65.6121C83.2003 67.3791 83.0154 68.7933 83.6194 69.8153C84.3599 71.0684 85.819 71.3841 87.1997 71.4333C87.3047 72.2069 87.5699 72.9235 87.9918 73.5712C88.6972 74.6538 89.7959 75.453 91.1695 75.8831C91.3323 75.9341 91.4916 75.9775 91.6449 76.0146C91.6215 76.2266 91.617 76.4436 91.6346 76.6653C91.7115 77.6361 92.1648 78.527 92.9818 79.3132C93.3847 79.7009 93.8629 80.0477 94.4033 80.3437C94.4123 80.3486 94.4395 80.3633 94.4839 80.385C94.48 80.4581 94.4785 80.5313 94.4792 80.6046C94.4861 81.1743 94.6404 81.6792 94.9796 82.2417C95.2647 82.7146 95.6767 83.2201 96.1982 83.8601C96.9652 84.8011 97.8407 85.6523 98.8007 86.3902C98.8604 86.4361 98.925 86.4709 98.9923 86.4951L98.9923 86.4947ZM99.6985 77.7273C99.9408 77.8143 100.159 77.9919 100.21 78.1438C100.245 78.2492 100.232 78.3806 100.176 78.4785C100.112 78.5912 99.9789 78.7 99.8014 78.7847C98.671 79.3241 97.5413 79.5321 96.4438 79.4029C96.3926 79.3969 96.3428 79.3902 96.2942 79.3831C96.3993 79.2146 96.5151 79.0664 96.6241 78.9429C97.0436 78.4672 97.6313 78.0588 98.1962 77.8503C98.8018 77.6267 99.2898 77.5853 99.6879 77.7235C99.6914 77.7247 99.695 77.726 99.6986 77.7273L99.6985 77.7273ZM99.415 71.7867C99.6004 71.8533 99.7121 71.9652 99.7873 72.1587C99.8842 72.4079 99.8463 72.5441 99.8025 72.6349C99.7259 72.7934 99.5096 73.0434 98.9137 73.3339C98.4194 73.5749 97.8447 73.7552 97.383 73.9001C97.2441 73.9437 97.113 73.9849 96.9957 74.024L96.9845 74.0278C96.4504 74.2061 95.7859 74.428 94.9364 74.5807C94.4789 74.663 94.0725 74.716 93.7226 74.7392C94.3368 73.9185 95.3066 73.167 96.2524 72.6166C97.2566 72.0323 98.7023 71.5415 99.4037 71.7828C99.4075 71.7841 99.4113 71.7855 99.415 71.7868L99.415 71.7867ZM99.8125 64.455C99.9289 64.4968 100.044 64.5438 100.158 64.5965C100.401 64.708 100.579 64.8609 100.66 65.0268C100.773 65.258 100.79 65.4533 100.714 65.6602C100.569 66.0532 100.026 66.6875 98.2571 67.4774C97.8588 67.6552 97.4514 67.827 97.0462 67.9878C93.9321 69.2242 91.4847 69.8341 89.344 69.9073C89.1802 69.9128 89.0083 69.9211 88.8265 69.9298C88.8097 69.9305 88.7929 69.9314 88.776 69.9322C88.9551 69.5456 89.2437 69.1439 89.4937 68.7962L89.5309 68.7445C90.526 67.3584 91.8539 66.2571 93.3709 65.5599C95.5508 64.5578 97.8306 63.7431 99.8126 64.455L99.8125 64.455Z" fill="#1F2937"/>
<path d="M30.5 11.8552C46.8049 11.8552 60 24.8956 60 40.9539C60 57.0122 46.8049 70.0525 30.5 70.0525C14.1951 70.0525 1 57.0122 1 40.9539C1.00003 24.8956 14.1951 11.8552 30.5 11.8552Z" stroke="#626B77" stroke-width="2"/>
<path d="M53 60.1974L82 83.8816" stroke="#626B77" stroke-width="2"/>
<path d="M31.1736 33.498C34.6446 33.498 37.4585 30.7213 37.4585 27.2959C37.4585 23.8705 34.6446 21.0938 31.1736 21.0938C27.7026 21.0938 24.8888 23.8705 24.8888 27.2959C24.8888 30.7213 27.7026 33.498 31.1736 33.498Z" fill="#626B77"/>
<path d="M26.3114 40.6154C26.2906 40.7689 26.271 40.9224 26.2407 41.0724C26.2223 41.1638 26.195 41.2511 26.173 41.3414C26.1404 41.4738 26.1101 41.6068 26.0697 41.7357C26.0406 41.8295 26.0038 41.9191 25.9711 42.0111C25.9278 42.1324 25.8868 42.2549 25.837 42.3726C25.7984 42.4652 25.752 42.5531 25.7093 42.6433C25.6559 42.7564 25.6042 42.8695 25.5454 42.9791C25.4973 43.0687 25.4427 43.1543 25.3905 43.241C25.3281 43.3459 25.2664 43.4508 25.1987 43.5521C25.1411 43.6377 25.0787 43.7191 25.0176 43.8023C24.9463 43.899 24.8763 43.9963 24.8003 44.0888C24.7344 44.1691 24.6643 44.2453 24.5954 44.3226C24.5159 44.4117 24.4369 44.5008 24.3532 44.5857C24.2801 44.6601 24.203 44.7299 24.1264 44.8008C24.0391 44.8816 23.9524 44.9625 23.861 45.0386C23.7808 45.106 23.6971 45.1693 23.614 45.2332C23.5195 45.3053 23.4251 45.3773 23.3272 45.4447C23.2405 45.5045 23.1514 45.5607 23.0618 45.6164C22.9608 45.6797 22.8593 45.7418 22.7548 45.8004C22.6622 45.8525 22.5678 45.9006 22.4728 45.948C22.3659 46.0019 22.259 46.0535 22.1492 46.1021C22.0512 46.1455 21.9515 46.1853 21.8511 46.2246C21.7389 46.2679 21.6261 46.3095 21.5115 46.3476C21.4088 46.3816 21.3049 46.4127 21.1998 46.4426C21.0828 46.4754 20.9652 46.5053 20.8459 46.5328C20.739 46.5568 20.6315 46.5785 20.5229 46.5984C20.4018 46.6201 20.2795 46.6383 20.156 46.6541C20.0455 46.6681 19.9345 46.6799 19.8223 46.6886C19.7659 46.6933 19.7106 46.7027 19.6542 46.7062V53.9068H29.6975L26.6943 51.0603C26.5411 50.915 26.4782 50.7006 26.5293 50.4978L29.308 39.3668L28.1425 36.7054C27.3712 36.7476 26.6165 36.8806 25.891 37.1138C25.9023 37.142 25.91 37.1713 25.9207 37.2C25.9498 37.2761 25.9741 37.3535 26.0008 37.4302C26.0566 37.5914 26.1071 37.7543 26.1505 37.9189C26.173 38.0051 26.1938 38.0912 26.2128 38.1779C26.2502 38.3467 26.2799 38.5172 26.3042 38.6894C26.3155 38.7674 26.3292 38.8447 26.3375 38.9238C26.3642 39.1734 26.3814 39.4254 26.3814 39.6814C26.3814 39.9199 26.369 40.1554 26.3452 40.3881C26.3375 40.4654 26.3215 40.5404 26.3108 40.6172L26.3114 40.6154Z" fill="#626B77"/>
<path d="M31.1736 53.6801L34.5823 50.4487L31.949 39.9006H31.1736H30.3981L27.7649 50.4487L31.1736 53.6801Z" fill="#626B77"/>
<path d="M33.0386 39.3657L35.8173 50.4967C35.8684 50.7 35.8048 50.9145 35.6523 51.0592L32.6485 53.9057H42.6923V45.562C42.6923 40.8352 38.9256 36.9704 34.2011 36.7102L33.0392 39.3651L33.0386 39.3657Z" fill="#626B77"/>
<path d="M32.0238 38.7287L32.9186 36.6855H29.4286L30.3233 38.7287H31.1736H32.0238Z" fill="#626B77"/>
<path d="M19.0777 45.539C19.0997 45.5408 19.1128 45.5408 19.13 45.5414C19.1709 45.5449 19.2095 45.5455 19.2511 45.5443C22.5286 45.5443 25.1951 42.9129 25.1951 39.6791C25.1951 38.7469 24.9814 37.8609 24.5592 37.0453C23.5487 35.0508 21.5157 33.8138 19.2517 33.8138C15.9742 33.8138 13.3083 36.4447 13.3083 39.6791C13.3083 42.8256 15.8964 45.4541 19.0783 45.5385L19.0777 45.539ZM16.6932 37.9828C16.4611 37.7537 16.4611 37.3834 16.6932 37.1543C16.9254 36.9252 17.3006 36.9252 17.5328 37.1543L19.2511 38.85L20.9694 37.1543C21.2016 36.9252 21.5768 36.9252 21.809 37.1543C22.0411 37.3834 22.0411 37.7537 21.809 37.9828L20.0907 39.6785L21.809 41.3742C22.0411 41.6033 22.0411 41.9736 21.809 42.2027C21.6932 42.317 21.5412 42.3744 21.3892 42.3744C21.2372 42.3744 21.0852 42.317 20.9694 42.2027L19.2511 40.507L17.5328 42.2027C17.417 42.317 17.265 42.3744 17.113 42.3744C16.961 42.3744 16.809 42.317 16.6932 42.2027C16.4611 41.9736 16.4611 41.6033 16.6932 41.3742L18.4115 39.6785L16.6932 37.9828Z" fill="#E43F6F"/>
</svg>