<?xml version="1.0" standalone="no"?><!DOCTYPE svg><svg xmlns="http://www.w3.org/2000/svg" width="297" height="153" viewBox="0 0 297 153" fill="none">
<circle cx="42.0001" cy="42" r="42" fill="#E43F6F"/>
<g clip-path="url(#clip0_117_2426)">
<path fill-rule="evenodd" clip-rule="evenodd" d="M46.8281 42.9761V45.2922C55.6429 50.3621 60.1483 47.8272 60.1483 59.2807H24.1285C24.1285 47.3893 28.5302 50.3621 37.345 45.2922V43.3103C35.8009 42.2041 35.4783 40.2222 34.9252 38.1251C34.7063 38.1251 34.4758 37.791 34.4758 37.3531V37.1342C34.3721 36.9152 34.1532 36.5811 34.038 36.1432C33.819 35.4864 33.266 34.1613 33.819 33.6082C34.2569 33.2741 34.5911 33.6082 34.5911 33.6082C33.9343 30.3012 33.047 25.8996 37.6676 24.5745C37.6676 21.7054 48.5795 22.9268 49.8931 27.5473C50.5499 29.414 49.6742 33.6082 49.6742 33.6082C49.8931 33.2741 50.1121 33.2741 50.331 33.3893C50.8841 33.8272 50.331 35.5901 50.1121 36.1432C50.0084 36.5811 49.7779 36.9152 49.6742 37.2379V37.3531C49.6742 37.6873 49.4553 38.1251 49.2363 38.1251C48.7985 39.8881 48.3606 41.9852 46.8166 42.9761H46.8281Z" fill="white"/>
</g>
<circle cx="154.261" cy="123.261" r="28.1775" stroke="#4B5563" stroke-width="2.1675"/>
<path fill-rule="evenodd" clip-rule="evenodd" d="M156.744 124.458V125.982C162.47 129.318 165.396 127.65 165.396 135.186H142C142 127.362 144.859 129.318 150.585 125.982V124.678C149.582 123.95 149.372 122.646 149.013 121.266C148.871 121.266 148.721 121.046 148.721 120.758V120.614C148.654 120.47 148.511 120.25 148.437 119.962C148.294 119.53 147.935 118.658 148.294 118.294C148.579 118.074 148.796 118.294 148.796 118.294C148.369 116.118 147.793 113.222 150.794 112.35C150.794 110.462 157.882 111.266 158.735 114.306C159.162 115.534 158.593 118.294 158.593 118.294C158.735 118.074 158.877 118.074 159.019 118.15C159.379 118.438 159.019 119.598 158.877 119.962C158.81 120.25 158.66 120.47 158.593 120.682V120.758C158.593 120.978 158.451 121.266 158.308 121.266C158.024 122.426 157.74 123.806 156.737 124.458H156.744Z" fill="#4B5563"/>
<path d="M189.931 123.152C189.931 123.622 190.312 124.002 190.781 124.002L198.431 124.002C198.901 124.002 199.281 123.622 199.281 123.152C199.281 122.683 198.901 122.302 198.431 122.302L191.631 122.302L191.631 115.502C191.631 115.033 191.251 114.652 190.781 114.652C190.312 114.652 189.931 115.033 189.931 115.502L189.931 123.152ZM246.781 67.1523L246.18 66.5513L190.18 122.551L190.781 123.152L191.383 123.753L247.383 67.7534L246.781 67.1523Z" fill="#4B5563"/>
<path d="M238.865 59.1523C238.865 58.7381 238.529 58.4023 238.115 58.4023L231.365 58.4023C230.951 58.4023 230.615 58.7381 230.615 59.1523C230.615 59.5666 230.951 59.9023 231.365 59.9023L237.365 59.9023L237.365 65.9023C237.365 66.3166 237.701 66.6523 238.115 66.6523C238.529 66.6523 238.865 66.3166 238.865 65.9023L238.865 59.1523ZM238.115 59.1523L237.585 58.622L236.38 59.8266L236.91 60.3569L237.441 60.8872L238.645 59.6827L238.115 59.1523ZM234.501 62.766L233.971 62.2357L231.562 64.6447L232.092 65.1751L232.623 65.7054L235.032 63.2963L234.501 62.766ZM229.683 67.5842L229.153 67.0538L226.744 69.4629L227.274 69.9933L227.804 70.5236L230.214 68.1145L229.683 67.5842ZM224.865 72.4023L224.335 71.872L221.926 74.2811L222.456 74.8114L222.986 75.3418L225.395 72.9327L224.865 72.4023ZM220.047 77.2205L219.516 76.6902L217.107 79.0993L217.638 79.6296L218.168 80.1599L220.577 77.7509L220.047 77.2205ZM215.229 82.0387L214.698 81.5084L212.289 83.9175L212.82 84.4478L213.35 84.9781L215.759 82.569L215.229 82.0387ZM210.41 86.8569L209.88 86.3266L207.471 88.7357L208.001 89.266L208.532 89.7963L210.941 87.3872L210.41 86.8569ZM205.592 91.6751L205.062 91.1447L202.653 93.5538L203.183 94.0842L203.713 94.6145L206.123 92.2054L205.592 91.6751ZM200.774 96.4933L200.244 95.9629L197.835 98.372L198.365 98.9024L198.895 99.4327L201.304 97.0236L200.774 96.4933ZM195.956 101.311L195.426 100.781L193.016 103.19L193.547 103.721L194.077 104.251L196.486 101.842L195.956 101.311ZM191.138 106.13L190.607 105.599L188.198 108.008L188.729 108.539L189.259 109.069L191.668 106.66L191.138 106.13ZM186.32 110.948L185.789 110.417L184.585 111.622L185.115 112.152L185.645 112.683L186.85 111.478L186.32 110.948Z" fill="#4B5563"/>
<circle cx="267.043" cy="37.4136" r="28.1775" stroke="#4B5563" stroke-width="2.1675"/>
<g clip-path="url(#clip1_117_2426)">
<path d="M261.697 50.1039H266.428V45.0022H261.697V50.1039ZM266.967 45.0022V50.1039H271.698V45.0022H266.967ZM277.176 50.1039H278.613V50.6424H254.781V50.1039H256.218V24.1855H277.176V50.1039ZM274.02 41.8356V38.3287H269.911V41.8356H274.02ZM274.02 37.1142V33.6077H269.911V37.1142H274.02ZM274.02 32.3895V28.8831H269.911V32.3895H274.02ZM268.66 41.8356V38.3287H264.547V41.8356H268.66ZM268.66 37.1142V33.6077H264.547V37.1142H268.66ZM268.66 32.3895V28.8831H264.547V32.3895H268.66ZM263.484 41.8356V38.3287H259.375V41.8356H263.484ZM263.484 37.1142V33.6077H259.375V37.1142H263.484ZM263.484 32.3895V28.8831H259.375V32.3895H263.484Z" fill="#4B5563"/>
</g>
<path d="M231.767 31.8043C232.127 31.4442 232.127 30.8605 231.767 30.5004L225.9 24.6331C225.54 24.2731 224.956 24.2731 224.596 24.6331C224.236 24.9932 224.236 25.5769 224.596 25.937L229.811 31.1523L224.596 36.3677C224.236 36.7278 224.236 37.3115 224.596 37.6715C224.956 38.0316 225.54 38.0316 225.9 37.6715L231.767 31.8043ZM84.115 31.1523V32.0743L231.115 32.0743V31.1523V30.2304L84.115 30.2304V31.1523Z" fill="#4B5563"/>
<path d="M83.5847 42.6827C83.2918 42.3898 83.2918 41.9149 83.5847 41.622L88.3576 36.849C88.6505 36.5561 89.1254 36.5561 89.4183 36.849C89.7112 37.1419 89.7112 37.6168 89.4183 37.9097L85.1757 42.1523L89.4183 46.395C89.7112 46.6879 89.7112 47.1628 89.4183 47.4556C89.1254 47.7485 88.6505 47.7485 88.3576 47.4556L83.5847 42.6827ZM84.115 42.1523V41.4023H85.9525V42.1523V42.9023H84.115V42.1523ZM89.6275 42.1523V41.4023H93.3025V42.1523V42.9023H89.6275V42.1523ZM96.9775 42.1523V41.4023H100.652V42.1523V42.9023H96.9775V42.1523ZM104.327 42.1523V41.4023H108.002V42.1523V42.9023H104.327V42.1523ZM111.677 42.1523V41.4023H115.352V42.1523V42.9023H111.677V42.1523ZM119.027 42.1523V41.4023H122.702V42.1523V42.9023H119.027V42.1523ZM126.377 42.1523V41.4023H130.052V42.1523V42.9023H126.377V42.1523ZM133.727 42.1523V41.4023H137.402V42.1523V42.9023H133.727V42.1523ZM141.077 42.1523V41.4023L144.752 41.4023V42.1523V42.9023L141.077 42.9023V42.1523ZM148.427 42.1523V41.4023H152.102V42.1523V42.9023H148.427V42.1523ZM155.777 42.1523V41.4023H159.452V42.1523V42.9023H155.777V42.1523ZM163.127 42.1523V41.4023H166.802V42.1523V42.9023H163.127V42.1523ZM170.478 42.1523V41.4023H174.152V42.1523V42.9023H170.478V42.1523ZM177.828 42.1523V41.4023H181.503V42.1523V42.9023H177.828V42.1523ZM185.178 42.1523V41.4023H188.853V42.1523V42.9023H185.178V42.1523ZM192.528 42.1523V41.4023H196.203V42.1523V42.9023H192.528V42.1523ZM199.878 42.1523V41.4023H203.553V42.1523V42.9023H199.878V42.1523ZM207.228 42.1523V41.4023H210.903V42.1523V42.9023H207.228V42.1523ZM214.578 42.1523V41.4023H218.253V42.1523V42.9023H214.578V42.1523ZM221.928 42.1523V41.4023H225.603V42.1523V42.9023H221.928V42.1523ZM229.278 42.1523V41.4023H231.115V42.1523V42.9023H229.278V42.1523Z" fill="#4B5563"/>
<path d="M19.8093 26.7413C20.0676 26.7868 20.3374 26.6569 20.4659 26.4027C20.6242 26.0893 20.508 25.7059 20.2064 25.5461C19.3748 25.1055 18.5923 24.5661 17.8803 23.943C16.9881 23.1623 16.5875 22.7956 16.4262 22.382C17.3503 22.3717 18.6473 22.1219 20.0316 21.1232C20.3831 20.8697 20.6352 20.5459 20.7606 20.1868C20.9126 19.752 20.8752 19.2529 20.6605 18.8519C20.3643 18.2984 19.7569 18.0185 19.2883 17.9408C18.6452 17.8345 17.9779 17.9918 17.2482 18.4218C16.6246 18.7892 16.0427 19.3724 15.6519 20.022C15.4747 20.3165 15.3395 20.6162 15.2474 20.9167C14.6498 20.6794 13.6277 20.1384 13.3721 19.1478C13.3511 19.0663 13.3367 18.9833 13.3288 18.8991C13.4067 18.8889 13.4671 18.8792 13.507 18.8723C13.935 18.7977 14.4496 18.6496 15.0366 18.4322C15.809 18.1461 16.4 17.8227 16.8315 17.5865L16.8404 17.5817C16.9228 17.5365 17.0215 17.4848 17.1261 17.4301C17.991 16.9771 19.2981 16.2925 19.6001 15.2022C19.7308 14.7302 19.655 14.2396 19.3809 13.7832C19.1015 13.318 18.6786 13.0274 18.1586 12.943C17.5901 12.8508 16.9109 13.005 16.14 13.4015C15.4251 13.7691 14.8671 14.2198 14.6604 14.3964C13.9911 14.9686 12.7177 16.2057 12.2568 17.6692C11.4566 17.6276 10.3702 17.3888 9.56514 16.5176C9.28359 16.2129 9.06735 15.862 8.91851 15.4695C8.9709 15.4577 9.02259 15.446 9.07317 15.4345C9.21991 15.4012 9.35852 15.3698 9.48667 15.3426C11.4105 14.9343 13.493 14.0052 16.0401 12.4188C16.3701 12.2132 16.7004 11.9977 17.0217 11.7781C17.9211 11.1635 19.1406 10.2097 19.3478 9.02693C19.4409 8.49563 19.3161 7.97352 18.987 7.51697C18.7261 7.15495 18.3271 6.8936 17.8332 6.76121C16.7189 6.46237 15.5552 6.56001 14.2756 7.05958C13.1715 7.49065 12.1462 8.16187 11.2889 8.76161C9.94234 9.70362 8.84908 11.0079 8.12747 12.5333L8.1043 12.5821C7.84684 13.1258 7.5396 13.7744 7.4924 14.4511C6.64645 14.5667 5.8187 14.5371 5.37877 14.0173C4.73381 13.2554 5.48215 11.0908 6.4505 9.4019C8.40679 5.98984 11.9438 4.44582 14.5665 3.75139C14.8973 3.66382 15.0998 3.31668 15.0189 2.97609C14.9379 2.63549 14.6041 2.4303 14.2733 2.51795C12.6857 2.93826 11.2276 3.53371 9.93921 4.28775C7.95931 5.4465 6.42915 6.95207 5.39107 8.76258C5.1782 9.13387 4.64351 10.1163 4.27755 11.2156C3.73095 12.8574 3.78767 14.0843 4.44614 14.862C5.25345 15.8157 6.52203 15.8681 7.68512 15.706C7.88877 16.3468 8.21791 16.9155 8.66803 17.4026C9.4204 18.2168 10.4597 18.7326 11.6738 18.8947C11.8177 18.9138 11.9575 18.9272 12.0914 18.936C12.1035 19.1193 12.1323 19.304 12.1801 19.4895C12.3897 20.3016 12.9024 20.9904 13.7039 21.5367C14.0992 21.8061 14.5513 22.0297 15.0479 22.201C15.0562 22.2039 15.0812 22.2123 15.1216 22.2241C15.1292 22.2867 15.1389 22.349 15.1505 22.4111C15.2414 22.8934 15.4462 23.2989 15.8142 23.726C16.1236 24.085 16.544 24.4529 17.0764 24.9188C17.8591 25.6039 18.7194 26.1966 19.6333 26.6809C19.6901 26.711 19.7494 26.731 19.8094 26.7416L19.8093 26.7413ZM19.0892 19.2001C19.3049 19.2381 19.5145 19.3565 19.5795 19.4779C19.6246 19.5621 19.633 19.6755 19.6012 19.7668C19.5645 19.8719 19.4693 19.9838 19.3334 20.0818C18.4678 20.7062 17.5533 21.0494 16.6153 21.1018C16.5716 21.1042 16.5288 21.1059 16.4871 21.1071C16.5498 20.9487 16.6247 20.8058 16.6974 20.685C16.9774 20.2196 17.4083 19.7864 17.8499 19.5261C18.3235 19.2471 18.7258 19.14 19.0797 19.1984C19.0828 19.199 19.086 19.1995 19.0892 19.2001L19.0892 19.2001ZM17.9633 14.2029C18.1284 14.232 18.2387 14.3104 18.3306 14.4634C18.449 14.6605 18.4376 14.7817 18.4145 14.8651C18.3741 15.0109 18.2304 15.2548 17.775 15.5892C17.3973 15.8666 16.9433 16.1044 16.5784 16.2955C16.4687 16.3529 16.3651 16.4072 16.2728 16.4577L16.2639 16.4626C15.8436 16.6926 15.3205 16.979 14.6322 17.2339C14.2616 17.3712 13.9293 17.4761 13.6399 17.5475C14.0313 16.7606 14.7306 15.98 15.4401 15.3736C16.1932 14.7298 17.33 14.1 17.9533 14.2012C17.9566 14.2017 17.96 14.2023 17.9633 14.2029L17.9633 14.2029ZM17.1994 7.92507C17.3031 7.94336 17.4066 7.9662 17.5102 7.99401C17.7297 8.05287 17.9018 8.15623 17.9946 8.28499C18.1239 8.46437 18.167 8.62763 18.1342 8.81433C18.0721 9.169 17.712 9.78729 16.3494 10.7184C16.0427 10.928 15.7273 11.1338 15.4122 11.3301C12.9904 12.8385 11.0329 13.7171 9.25191 14.0951C9.11557 14.124 8.97296 14.1563 8.82202 14.1906C8.80813 14.1937 8.79417 14.1969 8.78014 14.2C8.87225 13.8457 9.05379 13.4623 9.21101 13.1306L9.23439 13.0812C9.86012 11.7586 10.8069 10.6284 11.9725 9.8131C13.6474 8.64134 15.434 7.61371 17.1995 7.92502L17.1994 7.92507Z" fill="#1F2937"/>
<defs>
<clipPath id="clip0_117_2426">
<rect x="11.4651" y="23.042" width="61.5654" height="36.2272" rx="8.5" fill="white"/>
</clipPath>
<clipPath id="clip1_117_2426">
<rect width="23.8314" height="26.4563" fill="white" transform="translate(254.781 24.1855)"/>
</clipPath>
</defs>
</svg>