<svg xmlns="http://www.w3.org/2000/svg" width="329" height="150" fill="none" viewBox="0 0 329 150"><circle cx="66.5" cy="76.908" r="42" fill="#e43f6f"/><g clip-path="url(#clip0_117_2167)"><path fill="#fff" fill-rule="evenodd" d="M71.328 77.884V80.2c8.815 5.07 13.32 2.535 13.32 13.989h-36.02c0-11.891 4.402-8.919 13.217-13.989v-1.982c-1.544-1.106-1.867-3.088-2.42-5.185-.219 0-.45-.334-.45-.772v-.219c-.103-.219-.322-.553-.437-.99-.219-.657-.772-1.983-.219-2.536.438-.334.772 0 .772.00039999999999906777-.657-3.307-1.544-7.708 3.077-9.033 0-2.87 10.911-1.648 12.225 2.973.657 1.866-.219 6.06-.219 6.06.22-.334.438-.334.657-.219.553.438 0 2.201-.219 2.754-.104.438-.334.772-.438 1.095v.115c0 .335-.219.772-.438.772-.438 1.763-.875 3.86-2.42 4.851Z" clip-rule="evenodd"/></g><g fill-rule="evenodd" clip-path="url(#clip1_117_2167)" clip-rule="evenodd"><path fill="#e43f6f" d="M126.11 46.09a.584.584 0 0 1-.583.584H103.29a.584.584 0 0 1-.584-.584V33.86c0-.323.262-.584.584-.584h22.237c.322 0 .583.261.583.583Zm-18.409-7.258A1.142 1.142 0 1 0 107.702 41.117 1.142 1.142 0 0 0 107.701 38.832m0 1.518A.377.377 0 1 0 107.70131166726726 39.596.377.377 0 0 0 107.701 40.35m13.414-1.518A1.142 1.142 0 1 0 121.116 41.117 1.142 1.142 0 0 0 121.115 38.832m0 1.518a.376.376 0 1 0 .001-.753.376.376 0 0 0-.001.753m-6.707-4.747c-2.182 0-3.958 1.96-3.958 4.372 0 2.41 1.776 4.371 3.958 4.371s3.958-1.961 3.958-4.371-1.775-4.372-3.958-4.372m0 7.977c1.759 0 3.191-1.617 3.191-3.605s-1.432-3.606-3.191-3.606-3.191 1.618-3.191 3.606 1.432 3.605 3.191 3.605m10.241-7.668a1.326 1.326 0 0 1-1.175-1.176.865.865 0 0 0-.862-.777h-16.408a.864.864 0 0 0-.861.777 1.33 1.33 0 0 1-1.176 1.176.865.865 0 0 0-.778.861v6.402c0 .444.336.817.778.862a1.325 1.325 0 0 1 1.176 1.175.864.864 0 0 0 .861.777h16.408a.865.865 0 0 0 .862-.777 1.324 1.324 0 0 1 1.175-1.175.864.864 0 0 0 .777-.862v-6.402a.863.863 0 0 0-.777-.861m.011 7.263v-6.402a.1.1 0 0 0-.09-.1 2.094 2.094 0 0 1-1.858-1.858.1.1 0 0 0-.1-.09h-16.408a.1.1 0 0 0-.099.09 2.095 2.095 0 0 1-1.859 1.858.1.1 0 0 0-.09.1v6.402a.1.1 0 0 0 .09.1c.98.106 1.753.879 1.859 1.858.004.051.048.09.099.09h16.408a.1.1 0 0 0 .1-.09 2.095 2.095 0 0 1 1.858-1.858.1.1 0 0 0 .09-.1m-9.547-4.288a.383.383 0 0 0 .766.01v-.01a1.47 1.47 0 0 0-1.088-1.42v-.32A.383.383 0 1 0 114.025 37.146v.321a1.471 1.471 0 0 0-.001 2.84v1.346a.7.7 0 0 1-.322-.59.383.383 0 1 0-.765-.01v.01a1.47 1.47 0 0 0 1.088 1.42v.32a.382.382 0 1 0 .766 0v-.32a1.471 1.471 0 0 0 .286-2.73 1.3 1.3 0 0 0-.286-.108v-1.347c.2.129.321.351.321.59Zm-1.41 0c0 .239.122.462.322.592v-1.182a.7.7 0 0 0-.322.59m1.41 2.175a.7.7 0 0 0-.321-.59v1.18c.2-.129.321-.351.321-.59"/><path fill="#444c58" d="M126.11 67.488a.584.584 0 0 1-.583.584H103.29a.584.584 0 0 1-.584-.584v-12.23c0-.323.262-.584.584-.585h22.237c.322 0 .583.262.583.584Zm-18.409-7.258A1.142 1.142 0 1 0 107.702 62.515 1.142 1.142 0 0 0 107.701 60.23m0 1.518A.377.377 0 1 0 107.7013541310814 60.994.377.377 0 0 0 107.701 61.748m13.414-1.518A1.142 1.142 0 1 0 121.116 62.515 1.142 1.142 0 0 0 121.115 60.23m0 1.518a.376.376 0 1 0 .001-.753.376.376 0 0 0-.001.753m-6.707-4.747c-2.182 0-3.958 1.96-3.958 4.372 0 2.41 1.776 4.37 3.958 4.37s3.958-1.96 3.958-4.37S116.591 57 114.408 57m0 7.977c1.759 0 3.191-1.618 3.191-3.605s-1.432-3.606-3.191-3.606-3.191 1.618-3.191 3.606 1.432 3.605 3.191 3.605m10.241-7.668a1.326 1.326 0 0 1-1.175-1.176.865.865 0 0 0-.862-.777h-16.408a.864.864 0 0 0-.861.777 1.33 1.33 0 0 1-1.176 1.176.865.865 0 0 0-.778.861v6.402c0 .444.336.817.778.862a1.325 1.325 0 0 1 1.176 1.175.864.864 0 0 0 .861.777h16.408a.865.865 0 0 0 .862-.777 1.324 1.324 0 0 1 1.175-1.175.863.863 0 0 0 .777-.862V58.17a.864.864 0 0 0-.777-.861m.011 7.263V58.17a.1.1 0 0 0-.09-.1 2.094 2.094 0 0 1-1.858-1.858.1.1 0 0 0-.1-.09h-16.408a.1.1 0 0 0-.099.09 2.095 2.095 0 0 1-1.859 1.858.1.1 0 0 0-.09.1v6.402a.1.1 0 0 0 .09.1c.98.105 1.753.879 1.859 1.858.004.05.048.09.099.09h16.408a.1.1 0 0 0 .1-.09 2.095 2.095 0 0 1 1.858-1.858.1.1 0 0 0 .09-.1m-9.547-4.289a.383.383 0 0 0 .766.01v-.01a1.47 1.47 0 0 0-1.088-1.42v-.32A.383.383 0 1 0 114.025 58.544v.321a1.471 1.471 0 0 0-.001 2.84v1.346a.7.7 0 0 1-.322-.59.383.383 0 1 0-.765-.01v.01a1.47 1.47 0 0 0 1.088 1.42v.32a.382.382 0 1 0 .766 0v-.32a1.471 1.471 0 0 0 .286-2.73 1.3 1.3 0 0 0-.286-.108v-1.348c.2.13.321.353.321.59Zm-1.41 0c0 .24.122.463.322.593v-1.182a.7.7 0 0 0-.322.59m1.41 2.176a.7.7 0 0 0-.321-.59v1.18c.2-.13.321-.351.321-.59"/></g><path fill="#444c58" fill-rule="evenodd" d="M231.145 58.544a.585.585 0 0 1-.584.584h-22.237a.584.584 0 0 1-.584-.584v-12.23c0-.323.262-.584.584-.584h22.237c.322 0 .583.261.584.583Zm-18.41-7.258A1.142 1.142 0 1 0 212.736 53.57 1.142 1.142 0 0 0 212.735 51.286m0 1.518A.377.377 0 1 0 212.73531166726727 52.05.377.377 0 0 0 212.735 52.805m13.415-1.518A1.143 1.143 0 1 0 226.1492613381759 53.57 1.143 1.143 0 0 0 226.15 51.286m0 1.518a.376.376 0 1 0 0-.753.376.376 0 1 0 0 .753m-6.708-4.747c-2.182 0-3.958 1.961-3.958 4.372s1.776 4.371 3.958 4.371 3.958-1.961 3.958-4.371-1.775-4.372-3.958-4.372m0 7.977c1.759 0 3.191-1.617 3.191-3.605s-1.432-3.606-3.191-3.606-3.191 1.618-3.191 3.606 1.432 3.605 3.191 3.605m10.241-7.668a1.324 1.324 0 0 1-1.174-1.176.866.866 0 0 0-.863-.777h-16.408a.864.864 0 0 0-.861.777 1.33 1.33 0 0 1-1.176 1.176.863.863 0 0 0-.777.861v6.402a.865.865 0 0 0 .777.863 1.325 1.325 0 0 1 1.176 1.175.864.864 0 0 0 .861.777h16.408a.866.866 0 0 0 .863-.777 1.32 1.32 0 0 1 1.174-1.175.864.864 0 0 0 .777-.863v-6.402a.863.863 0 0 0-.777-.861m.011 7.263v-6.402a.1.1 0 0 0-.09-.1 2.094 2.094 0 0 1-1.858-1.858.1.1 0 0 0-.1-.09h-16.408a.1.1 0 0 0-.099.09 2.095 2.095 0 0 1-1.858 1.858.1.1 0 0 0-.09.1v6.402a.1.1 0 0 0 .09.1 2.095 2.095 0 0 1 1.858 1.858c.004.051.048.09.099.09h16.408a.1.1 0 0 0 .1-.09 2.095 2.095 0 0 1 1.858-1.858.1.1 0 0 0 .09-.1m-9.547-4.288a.383.383 0 0 0 .766.01v-.01a1.47 1.47 0 0 0-1.088-1.42v-.32A.383.383 0 1 0 219.059 49.6v.321a1.47 1.47 0 0 0-.001 2.84v1.346a.7.7 0 0 1-.322-.59.382.382 0 1 0-.765-.01v.01a1.47 1.47 0 0 0 1.088 1.42v.32a.383.383 0 0 0 .766 0v-.32a1.47 1.47 0 0 0 0-2.837v-1.347c.2.128.322.35.322.588m-1.409 0c0 .239.121.462.322.592V50.75a.7.7 0 0 0-.322.59m1.409 2.175a.7.7 0 0 0-.321-.59v1.18c.2-.129.321-.35.321-.59" clip-rule="evenodd"/><circle cx="167.817" cy="70.537" r="28.177" stroke="#4b5563" stroke-width="2.167"/><g clip-path="url(#clip2_117_2167)"><path fill="#4b5563" d="M162.471 83.227h4.731v-5.102h-4.731Zm5.27-5.102v5.102h4.731v-5.102Zm10.209 5.102h1.437v.538h-23.831v-.538h1.437V57.309h20.957Zm-3.156-8.268v-3.507h-4.109v3.507Zm0-4.722v-3.506h-4.109v3.506Zm0-4.724v-3.506h-4.109v3.506Zm-5.36 9.446v-3.507h-4.113v3.507Zm0-4.722v-3.506h-4.113v3.506Zm0-4.724v-3.506h-4.113v3.506Zm-5.176 9.446v-3.507h-4.109v3.507Zm0-4.722v-3.506h-4.109v3.506Zm0-4.724v-3.506h-4.109v3.506Z"/></g><circle cx="276.036" cy="70.537" r="28.177" stroke="#4b5563" stroke-width="2.167"/><path fill="#4b5563" fill-rule="evenodd" d="M278.518 71.734v1.524c5.726 3.335 8.652 1.667 8.652 9.204h-23.396c0-7.825 2.859-5.869 8.585-9.205v-1.304c-1.003-.728-1.213-2.032-1.572-3.411-.142 0-.292-.22-.292-.508v-.144c-.067-.144-.209-.364-.284-.653-.142-.432-.502-1.304-.142-1.667.284-.22.501 0 .501-.0004999999999881766-.426-2.176-1.003-5.073 1.998-5.945 0-1.888 7.088-1.084 7.941 1.956.427 1.229-.142 3.989-.142 3.989.142-.22.285-.22.427-.145.359.288 0 1.449-.142 1.813-.068.288-.218.508-.285.72v.076c0 .22-.142.508-.284.508-.285 1.16-.569 2.54-1.572 3.192Z" clip-rule="evenodd"/><path fill="#4b5563" d="M137.208 70.624c.36.36.36.943 0 1.303l-5.868 5.868a.922.922 0 0 1-1.304-1.304l5.216-5.216-5.216-5.215a.922.922 0 0 1 1.304-1.304Zm-44.652.651v-.922h44v1.844h-44ZM245.208 70.624c.36.36.36.943 0 1.303l-5.868 5.868a.922.922 0 0 1-1.304-1.304l5.216-5.216-5.216-5.215a.922.922 0 0 1 1.304-1.304Zm-44.652.651v-.922h44v1.844h-44Z"/><path fill="#1f2937" d="M42.265 56.833a.62.62 0 0 0 .657-.339.64.64 0 0 0-.26-.857 12.2 12.2 0 0 1-2.326-1.603c-.892-.78-1.293-1.146-1.454-1.56.924-.01 2.22-.26 3.605-1.259.352-.253.604-.577.73-.936a1.7 1.7 0 0 0-.1-1.335c-.297-.554-.905-.834-1.373-.911-.643-.107-1.31.05-2.04.48a4.75 4.75 0 0 0-1.596 1.6 4 4 0 0 0-.404.895c-.599-.237-1.62-.778-1.877-1.768a2 2 0 0 1-.043-.249q.118-.016.178-.027a9 9 0 0 0 1.53-.44c.772-.286 1.363-.61 1.795-.846l.009-.004c.082-.045.181-.097.285-.152.865-.453 2.172-1.137 2.474-2.228.131-.472.055-.962-.219-1.419a1.71 1.71 0 0 0-1.222-.84c-.569-.092-1.248.062-2.018.458a8 8 0 0 0-1.48.995c-.67.572-1.943 1.81-2.404 3.273-.8-.041-1.886-.28-2.691-1.152a3.2 3.2 0 0 1-.647-1.048l.155-.035.413-.092c1.924-.408 4.006-1.337 6.554-2.923.33-.206.66-.421.981-.641.9-.615 2.119-1.568 2.326-2.751a1.96 1.96 0 0 0-.36-1.51c-.261-.362-.66-.624-1.154-.756-1.115-.299-2.278-.201-3.558.298-1.104.432-2.13 1.103-2.987 1.702a9.6 9.6 0 0 0-3.162 3.772l-.022.05c-.258.543-.565 1.191-.612 1.868-.846.116-1.674.086-2.114-.434-.645-.762.104-2.926 1.072-4.615 1.956-3.412 5.493-4.956 8.116-5.65a.647.647 0 0 0 .452-.775.61.61 0 0 0-.746-.458c-1.587.42-3.045 1.015-4.333 1.769-1.98 1.158-3.51 2.664-4.549 4.474a14.4 14.4 0 0 0-1.113 2.453c-.547 1.642-.49 2.87.169 3.647.807.954 2.075 1.006 3.238.844.204.64.533 1.21.983 1.697.753.814 1.792 1.33 3.006 1.492q.216.028.418.04.017.276.089.554c.21.813.722 1.501 1.523 2.048a5.7 5.7 0 0 0 1.418.687q.012.094.029.187c.09.482.296.888.664 1.315.309.359.73.727 1.262 1.193a13.5 13.5 0 0 0 2.557 1.762q.085.045.176.06m-.72-7.541c.215.038.425.157.49.278a.38.38 0 0 1 .022.289.7.7 0 0 1-.268.315c-.866.624-1.78.967-2.718 1.02l-.128.005c.062-.158.137-.301.21-.422.28-.465.71-.899 1.152-1.159.474-.279.876-.386 1.23-.328Zm-1.126-4.997c.165.029.275.107.367.26.118.197.107.319.084.402-.04.146-.184.39-.64.724-.377.278-.831.515-1.196.706q-.166.087-.306.163l-.009.005c-.42.23-.943.516-1.631.77q-.557.207-.993.314c.392-.786 1.091-1.567 1.8-2.174.754-.643 1.89-1.273 2.514-1.172Zm-.764-6.278q.155.027.31.069c.22.059.392.162.485.29.13.18.172.344.14.53-.063.355-.423.973-1.785 1.904q-.463.317-.937.612c-2.422 1.508-4.38 2.387-6.16 2.765q-.205.044-.43.096l-.042.009c.092-.354.273-.738.43-1.07l.024-.049a8.33 8.33 0 0 1 2.738-3.268c1.675-1.172 3.461-2.2 5.227-1.888"/><defs><clipPath id="clip0_117_2167"><rect width="61.565" height="36.227" x="35.965" y="57.95" fill="#fff" rx="7.225"/></clipPath><clipPath id="clip1_117_2167"><path fill="#fff" d="M94.706 33.276h40.691v34.796H94.706Z"/></clipPath><clipPath id="clip2_117_2167"><path fill="#fff" d="M155.556 57.309h23.831v26.456h-23.831Z"/></clipPath></defs></svg>