<svg xmlns="http://www.w3.org/2000/svg" width="297" height="153" fill="none" viewBox="0 0 297 153"><circle cx="42" cy="42" r="42" fill="#e43f6f"/><g clip-path="url(#clip0_117_2426)"><path fill="#fff" fill-rule="evenodd" d="M46.828 42.976v2.316c8.815 5.07 13.32 2.535 13.32 13.989h-36.02c0-11.892 4.402-8.919 13.217-13.989V43.31c-1.544-1.106-1.867-3.088-2.42-5.185-.219 0-.45-.334-.45-.772v-.219c-.103-.219-.322-.553-.437-.99-.219-.658-.772-1.983-.219-2.536.438-.334.772 0 .772.00019999999999953388-.657-3.307-1.544-7.708 3.077-9.033 0-2.87 10.912-1.648 12.225 2.972.657 1.867-.219 6.061-.219 6.061.22-.334.438-.334.657-.219.553.438 0 2.201-.219 2.754-.104.438-.334.772-.438 1.095v.115c0 .334-.219.772-.438.772-.438 1.763-.875 3.86-2.42 4.851Z" clip-rule="evenodd"/></g><circle cx="154.261" cy="123.261" r="28.177" stroke="#4b5563" stroke-width="2.167"/><path fill="#4b5563" fill-rule="evenodd" d="M156.744 124.458v1.524c5.726 3.336 8.652 1.668 8.652 9.204H142c0-7.824 2.859-5.868 8.585-9.204v-1.304c-1.003-.728-1.213-2.032-1.572-3.412-.142 0-.292-.22-.292-.508v-.144c-.067-.144-.21-.364-.284-.652-.143-.432-.502-1.304-.143-1.668a.37.37 0 0 1 .502 0c-.427-2.176-1.003-5.072 1.998-5.944 0-1.888 7.088-1.084 7.941 1.956.427 1.228-.142 3.988-.142 3.988.142-.22.284-.22.426-.144.36.288 0 1.448-.142 1.812-.067.288-.217.508-.284.72v.076c0 .22-.142.508-.285.508-.284 1.16-.568 2.54-1.571 3.192Z" clip-rule="evenodd"/><path fill="#4b5563" d="M189.931 123.152c0 .47.381.85.85.85h7.65a.85.85 0 1 0 0-1.7h-6.8v-6.8a.85.85 0 1 0-1.7 0Zm56.85-56-.601-.6-56 55.999.601.601.602.601 56-56ZM238.865 59.152a.75.75 0 0 0-.75-.75h-6.75a.75.75 0 0 0 0 1.5h6v6a.75.75 0 0 0 1.5 0Zm-.75 0-.53-.53-1.205 1.205.53.53.531.53 1.204-1.204Zm-3.614 3.614-.53-.53-2.409 2.409.53.53.531.53 2.409-2.409Zm-4.818 4.818-.53-.53-2.409 2.409.53.53.53.53 2.41-2.408Zm-4.818 4.818-.53-.53-2.409 2.41.53.53.53.53 2.409-2.41Zm-4.818 4.819-.531-.53-2.409 2.408.531.53.53.53 2.409-2.408Zm-4.818 4.818-.531-.53-2.409 2.409.531.53.53.53 2.409-2.409Zm-4.819 4.818-.53-.53-2.409 2.409.53.53.531.53 2.409-2.409Zm-4.818 4.818-.53-.53-2.409 2.409.53.53.53.53 2.41-2.409Zm-4.818 4.818-.53-.53-2.409 2.409.53.53.53.53 2.409-2.408Zm-4.818 4.818-.53-.53-2.41 2.409.531.531.53.53 2.409-2.409Zm-4.818 4.819-.531-.531-2.409 2.409.531.531.53.53 2.409-2.409Zm-4.818 4.818-.531-.531-1.204 1.205.53.53.53.531 1.205-1.205Z"/><circle cx="267.043" cy="37.414" r="28.177" stroke="#4b5563" stroke-width="2.167"/><g clip-path="url(#clip1_117_2426)"><path fill="#4b5563" d="M261.697 50.104h4.731v-5.102h-4.731Zm5.27-5.102v5.102h4.731v-5.102Zm10.209 5.102h1.437v.538h-23.832v-.538h1.437V24.186h20.958Zm-3.156-8.268v-3.507h-4.109v3.507Zm0-4.722v-3.506h-4.109v3.506Zm0-4.724v-3.506h-4.109v3.506Zm-5.36 9.446v-3.507h-4.113v3.507Zm0-4.722v-3.506h-4.113v3.506Zm0-4.724v-3.506h-4.113v3.506Zm-5.176 9.446v-3.507h-4.109v3.507Zm0-4.722v-3.506h-4.109v3.506Zm0-4.724v-3.506h-4.109v3.506Z"/></g><path fill="#4b5563" d="M231.767 31.804a.92.92 0 0 0 0-1.304l-5.867-5.867a.922.922 0 0 0-1.304 1.304l5.215 5.215-5.215 5.216a.922.922 0 1 0 1.304 1.304Zm-147.652-.652v.922h147V30.23h-147ZM83.585 42.683a.75.75 0 0 1 0-1.06l4.773-4.774a.75.75 0 0 1 1.06 1.06l-4.242 4.243 4.242 4.243a.75.75 0 1 1-1.06 1.06Zm.53-.53v-.75h1.838v1.5h-1.838Zm5.513 0v-.75h3.675v1.5h-3.675Zm7.35 0v-.75h3.674v1.5h-3.674Zm7.349 0v-.75h3.675v1.5h-3.675Zm7.35 0v-.75h3.675v1.5h-3.675Zm7.35 0v-.75h3.675v1.5h-3.675Zm7.35 0v-.75h3.675v1.5h-3.675Zm7.35 0v-.75h3.675v1.5h-3.675Zm7.35 0v-.75h3.675v1.5h-3.675Zm7.35 0v-.75h3.675v1.5h-3.675Zm7.35 0v-.75h3.675v1.5h-3.675Zm7.35 0v-.75h3.675v1.5h-3.675Zm7.351 0v-.75h3.674v1.5h-3.674Zm7.35 0v-.75h3.675v1.5h-3.675Zm7.35 0v-.75h3.675v1.5h-3.675Zm7.35 0v-.75h3.675v1.5h-3.675Zm7.35 0v-.75h3.675v1.5h-3.675Zm7.35 0v-.75h3.675v1.5h-3.675Zm7.35 0v-.75h3.675v1.5h-3.675Zm7.35 0v-.75h3.675v1.5h-3.675Zm7.35 0v-.75h1.837v1.5h-1.837Z"/><path fill="#1f2937" d="M19.81 26.741a.62.62 0 0 0 .657-.339.64.64 0 0 0-.26-.857c-.832-.44-1.615-.979-2.327-1.602-.892-.78-1.293-1.147-1.454-1.561.924-.01 2.221-.26 3.606-1.259.351-.253.603-.577.729-.936a1.7 1.7 0 0 0-.1-1.335c-.297-.554-.904-.834-1.373-.911-.643-.107-1.31.05-2.04.48a4.75 4.75 0 0 0-1.596 1.6 4 4 0 0 0-.404.895c-.598-.237-1.62-.778-1.876-1.768a1.6 1.6 0 0 1-.043-.249q.117-.016.178-.027a9 9 0 0 0 1.53-.44c.772-.286 1.363-.61 1.794-.845l.01-.005c.082-.046.18-.097.285-.152.865-.453 2.172-1.137 2.474-2.228.13-.472.055-.962-.22-1.419a1.71 1.71 0 0 0-1.222-.84c-.568-.092-1.247.062-2.018.459a8 8 0 0 0-1.48.995c-.669.572-1.942 1.809-2.403 3.272-.8-.041-1.887-.28-2.692-1.151a3.2 3.2 0 0 1-.647-1.048l.155-.036q.221-.05.414-.091c1.924-.409 4.006-1.338 6.553-2.924q.497-.31.982-.64c.9-.615 2.119-1.57 2.326-2.752a1.96 1.96 0 0 0-.36-1.51c-.262-.362-.66-.623-1.155-.756-1.114-.299-2.278-.201-3.557.299-1.104.43-2.13 1.102-2.987 1.702a9.6 9.6 0 0 0-3.161 3.772l-.024.048c-.257.544-.564 1.192-.612 1.87-.846.115-1.673.085-2.113-.435-.645-.762.103-2.926 1.072-4.615 1.956-3.412 5.493-4.956 8.116-5.65a.647.647 0 0 0 .452-.775.61.61 0 0 0-.746-.458c-1.587.42-3.045 1.015-4.334 1.769-1.98 1.159-3.51 2.664-4.548 4.475a14.4 14.4 0 0 0-1.114 2.453c-.546 1.641-.49 2.868.17 3.646.806.954 2.075 1.006 3.238.844.204.64.533 1.21.983 1.697.752.814 1.792 1.33 3.006 1.492q.217.028.417.041.018.275.09.553c.209.813.721 1.501 1.523 2.048a5.7 5.7 0 0 0 1.418.687q.011.094.028.187c.091.482.296.888.664 1.315.31.359.73.727 1.262 1.193a13.5 13.5 0 0 0 2.557 1.762q.086.045.176.06m-.72-7.54c.215.037.425.155.49.277a.38.38 0 0 1 .022.289.7.7 0 0 1-.268.315c-.866.624-1.78.967-2.719 1.02l-.128.005c.063-.158.138-.301.21-.422.28-.465.711-.899 1.153-1.159.473-.279.876-.386 1.23-.328Zm-1.127-4.998c.165.029.276.107.368.26.118.198.107.319.084.402-.04.146-.185.39-.64.724-.378.278-.832.515-1.197.707q-.166.085-.305.162l-.01.005c-.42.23-.943.516-1.63.77a9 9 0 0 1-.992.314c.39-.786 1.09-1.567 1.8-2.173.752-.644 1.889-1.274 2.512-1.173ZM17.2 7.925q.156.027.311.069c.22.059.392.162.485.291.129.18.172.343.14.53-.063.354-.423.972-1.786 1.903-.306.21-.622.416-.937.612-2.422 1.508-4.38 2.387-6.16 2.765q-.204.043-.43.096l-.042.009c.092-.354.274-.738.431-1.07l.023-.049a8.33 8.33 0 0 1 2.738-3.268c1.675-1.172 3.462-2.2 5.228-1.888"/><defs><clipPath id="clip0_117_2426"><rect width="61.565" height="36.227" x="11.465" y="23.042" fill="#fff" rx="8.5"/></clipPath><clipPath id="clip1_117_2426"><path fill="#fff" d="M254.781 24.185h23.831v26.456h-23.831Z"/></clipPath></defs></svg>