<svg xmlns="http://www.w3.org/2000/svg" width="247" height="150" fill="none" viewBox="0 0 247 150"><mask id="path-1-inside-1_117_1813" fill="#fff"><path d="M193.806 5.921c6.985 0 13.08 3.761 16.32 9.343a18.9 18.9 0 0 1 7.845-1.688c9.952 0 18.097 7.634 18.752 17.292 5.8 1.083 10.186 6.11 10.186 12.149 0 6.15-4.551 11.25-10.511 12.204-1.724 8.488-9.319 14.882-18.427 14.882-2.801 0-5.457-.606-7.845-1.69a18.83 18.83 0 0 1-16.32 9.344 18.83 18.83 0 0 1-16.259-9.238 18.9 18.9 0 0 1-7.609 1.584c-9.108 0-16.703-6.394-18.427-14.882-5.96-.953-10.511-6.054-10.511-12.204 0-6.039 4.387-11.066 10.187-12.149.654-9.658 8.799-17.292 18.751-17.292 2.709 0 5.283.566 7.609 1.583a18.83 18.83 0 0 1 16.259-9.238"/></mask><path fill="#fff" d="M193.806 5.921c6.985 0 13.08 3.761 16.32 9.343a18.9 18.9 0 0 1 7.845-1.688c9.952 0 18.097 7.634 18.752 17.292 5.8 1.083 10.186 6.11 10.186 12.149 0 6.15-4.551 11.25-10.511 12.204-1.724 8.488-9.319 14.882-18.427 14.882-2.801 0-5.457-.606-7.845-1.69a18.83 18.83 0 0 1-16.32 9.344 18.83 18.83 0 0 1-16.259-9.238 18.9 18.9 0 0 1-7.609 1.584c-9.108 0-16.703-6.394-18.427-14.882-5.96-.953-10.511-6.054-10.511-12.204 0-6.039 4.387-11.066 10.187-12.149.654-9.658 8.799-17.292 18.751-17.292 2.709 0 5.283.566 7.609 1.583a18.83 18.83 0 0 1 16.259-9.238"/><path fill="#e43f6f" d="M193.806 5.921v-2Zm16.32 9.343-1.73 1.004.909 1.565 1.648-.748Zm7.845-1.688v-2Zm18.752 17.292-1.996.135.105 1.547 1.524.284Zm10.186 12.149h2ZM236.398 55.22l-.315-1.975-1.369.219-.276 1.358Zm-18.427 14.882v2Zm-7.845-1.69.827-1.82-1.648-.75-.909 1.566Zm-16.32 9.344v2Zm-16.259-9.238 1.723-1.016-.9-1.527-1.625.71Zm-7.609 1.584v2ZM151.511 55.22l1.96-.398-.276-1.358-1.368-.22ZM141 43.017h-2Zm10.187-12.149.367 1.966 1.523-.284.105-1.547Zm18.751-17.292v-2Zm7.609 1.583-.802 1.833 1.625.71.9-1.527Zm16.259-9.238v2c6.252 0 11.698 3.364 14.59 8.347l1.73-1.004 1.73-1.004a20.83 20.83 0 0 0-18.05-10.339Zm16.32 9.343.827 1.821a16.9 16.9 0 0 1 7.018-1.509v-4c-3.09 0-6.029.667-8.672 1.867Zm7.845-1.688v2c8.916 0 16.174 6.834 16.756 15.427l1.996-.135 1.995-.135c-.726-10.723-9.758-19.157-20.747-19.157Zm18.752 17.292-.367 1.966c4.889.913 8.553 5.143 8.553 10.183h4c0-7.038-5.109-12.862-11.819-14.115Zm10.186 12.149h-2c0 5.133-3.802 9.425-8.826 10.229l.315 1.975.316 1.975c6.895-1.103 12.195-7.01 12.195-14.18ZM236.398 55.22l-1.96-.398c-1.535 7.556-8.311 13.28-16.467 13.28v4c10.06 0 18.474-7.065 20.387-16.484Zm-18.427 14.882v-2c-2.51 0-4.885-.543-7.018-1.51l-.827 1.82-.827 1.821a20.9 20.9 0 0 0 8.672 1.868Zm-7.845-1.69-1.73-1.004c-2.892 4.984-8.337 8.348-14.59 8.348v4a20.83 20.83 0 0 0 18.05-10.34Zm-16.32 9.344v-2c-6.214 0-11.63-3.322-14.536-8.254l-1.723 1.016-1.723 1.015a20.83 20.83 0 0 0 17.982 10.223Zm-16.259-9.238-.802-1.833a16.9 16.9 0 0 1-6.807 1.416v4c2.99 0 5.836-.625 8.41-1.751Zm-7.609 1.584v-2c-8.156 0-14.932-5.724-16.467-13.28l-1.96.398-1.96.398c1.913 9.42 10.327 16.484 20.387 16.484ZM151.511 55.22l.316-1.975c-5.025-.804-8.827-5.097-8.827-10.23h-4c0 7.17 5.3 13.077 12.195 14.18ZM141 43.017h2c0-5.04 3.664-9.27 8.554-10.183l-.367-1.966-.368-1.966C144.109 30.155 139 35.98 139 43.017Zm10.187-12.149 1.995.135c.582-8.593 7.84-15.427 16.756-15.427v-4c-10.989 0-20.021 8.434-20.747 19.157Zm18.751-17.292v2c2.428 0 4.73.507 6.807 1.416l.802-1.833.801-1.832a20.9 20.9 0 0 0-8.41-1.75Zm7.609 1.583 1.723 1.016c2.906-4.932 8.322-8.254 14.536-8.254v-4a20.83 20.83 0 0 0-17.982 10.223Z" mask="url(#path-1-inside-1_117_1813)"/><path fill="#fff" stroke="#e43f6f" stroke-width="1.6" d="M174.129 73.826c2.732 0 4.928 2.183 4.928 4.853s-2.196 4.853-4.928 4.853c-2.731 0-4.928-2.183-4.928-4.853s2.197-4.853 4.928-4.853Z"/><path fill="#fff" stroke="#e43f6f" stroke-width="2" d="M162.983 83.353c1.108 0 1.984.883 1.984 1.944s-.876 1.945-1.984 1.945S161 86.358 161 85.297s.875-1.944 1.983-1.944Z"/><path fill="#e43f6f" d="M218.433 24.362c-2.165-.395-2.459-.684-2.859-2.822a.44.44 0 0 0-.155-.26.455.455 0 0 0-.732.26c-.4 2.136-.694 2.426-2.86 2.821a.443.443 0 0 0 0 .875c2.165.395 2.459.685 2.859 2.823a.45.45 0 0 0 .444.363.46.46 0 0 0 .288-.103.44.44 0 0 0 .155-.26c.4-2.136.694-2.427 2.86-2.822a.45.45 0 0 0 .368-.438.44.44 0 0 0-.368-.438m-3.305 2.126a2.46 2.46 0 0 0-.635-1.06 2.5 2.5 0 0 0-1.075-.627 2.5 2.5 0 0 0 1.075-.627 2.46 2.46 0 0 0 .635-1.06c.118.399.337.764.636 1.059s.669.51 1.075.627a2.5 2.5 0 0 0-1.075.627c-.299.295-.518.66-.636 1.06"/><circle cx="116" cy="108.277" r="41.723" fill="#e43f6f"/><path fill="#fff" fill-rule="evenodd" d="M121.329 109.355v2.556c9.729 5.596 14.702 2.798 14.702 15.44H96.273c0-13.125 4.859-9.844 14.588-15.44v-2.188c-1.704-1.22-2.06-3.408-2.67-5.723-.242 0-.496-.369-.496-.852v-.242c-.115-.241-.357-.61-.484-1.093-.241-.725-.852-2.188-.241-2.798.483-.37.852 0 .852-.00039999999999906777-.725-3.65-1.704-8.51 3.396-9.972 0-3.167 12.044-1.818 13.494 3.282.725 2.06-.242 6.69-.242 6.69.242-.37.484-.37.725-.242.611.483 0 2.429-.241 3.04-.115.483-.369.852-.484 1.208v.127c0 .369-.241.852-.483.852-.483 1.946-.967 4.261-2.671 5.355Z" clip-rule="evenodd"/><path fill="#e43f6f" d="M146.703 16.243c-3.608-.658-4.098-1.14-4.765-4.704a.74.74 0 0 0-.259-.434.76.76 0 0 0-.96 0 .74.74 0 0 0-.259.434c-.667 3.56-1.156 4.045-4.767 4.703a.75.75 0 0 0-.44.256.736.736 0 0 0 0 .948.75.75 0 0 0 .44.256c3.608.657 4.098 1.14 4.765 4.703.033.17.124.324.259.434a.76.76 0 0 0 .961 0 .74.74 0 0 0 .259-.434c.667-3.56 1.156-4.045 4.766-4.703a.75.75 0 0 0 .44-.256.737.737 0 0 0-.44-1.203m-5.508 3.543a4.1 4.1 0 0 0-1.059-1.768 4.2 4.2 0 0 0-1.791-1.045 4.2 4.2 0 0 0 1.791-1.045c.499-.492.863-1.1 1.059-1.768a4.1 4.1 0 0 0 1.059 1.768 4.2 4.2 0 0 0 1.792 1.045 4.2 4.2 0 0 0-1.792 1.045 4.1 4.1 0 0 0-1.059 1.768M169.273 42.413c-1.326-.242-1.506-.42-1.752-1.73a.277.277 0 0 0-.543 0c-.245 1.31-.425 1.487-1.753 1.729a.276.276 0 0 0-.225.268.276.276 0 0 0 .225.268c1.327.242 1.507.42 1.752 1.73a.277.277 0 0 0 .544 0c.245-1.31.425-1.487 1.752-1.73a.276.276 0 0 0 .226-.268.27.27 0 0 0-.226-.268m-2.025 1.302a1.5 1.5 0 0 0-.389-.65 1.54 1.54 0 0 0-.659-.384 1.54 1.54 0 0 0 .659-.384c.183-.181.317-.405.389-.65a1.52 1.52 0 0 0 1.048 1.034 1.524 1.524 0 0 0-1.048 1.034M167.555 37.077c-1.724-.315-1.958-.545-2.277-2.248a.361.361 0 0 0-.707 0c-.318 1.701-.552 1.933-2.278 2.247a.36.36 0 0 0-.293.349.36.36 0 0 0 .293.349c1.725.314 1.959.545 2.278 2.248a.35.35 0 0 0 .353.29.36.36 0 0 0 .353-.29c.319-1.702.553-1.933 2.278-2.248a.355.355 0 0 0 .294-.349.355.355 0 0 0-.294-.349m-2.632 1.693a2 2 0 0 0-.506-.845 2 2 0 0 0-.856-.5c.323-.092.618-.264.856-.499a2 2 0 0 0 .506-.845c.094.32.268.61.506.845s.533.407.856.5a2 2 0 0 0-.856.5 2 2 0 0 0-.506.845M222.15 81.08c-3.461-.632-3.931-1.095-4.571-4.513a.725.725 0 0 0-1.418 0c-.64 3.416-1.109 3.88-4.573 4.511a.73.73 0 0 0-.422.245.708.708 0 0 0 .422 1.154c3.461.632 3.932 1.095 4.572 4.513.031.163.118.31.248.417a.725.725 0 0 0 1.17-.416c.639-3.416 1.108-3.88 4.572-4.512a.72.72 0 0 0 .422-.245.7.7 0 0 0 0-.91.72.72 0 0 0-.422-.245m-5.283 3.398a3.96 3.96 0 0 0-1.016-1.696 4 4 0 0 0-1.719-1.002 4 4 0 0 0 1.719-1.002 3.96 3.96 0 0 0 1.016-1.696c.188.64.537 1.223 1.015 1.695s1.07.817 1.719 1.002a4 4 0 0 0-1.719 1.002 3.94 3.94 0 0 0-1.015 1.696M240.646 6.69c-4.546-.83-5.164-1.438-6.004-5.927a.94.94 0 0 0-.327-.547A.955.955 0 0 0 233.105.215a.93.93 0 0 0-.326.547c-.841 4.486-1.457 5.096-6.006 5.925a.95.95 0 0 0-.555.322.93.93 0 0 0 0 1.194.95.95 0 0 0 .555.322c4.546.83 5.164 1.438 6.004 5.927a.93.93 0 0 0 .326.547.96.96 0 0 0 1.211 0 .93.93 0 0 0 .326-.547c.84-4.486 1.456-5.096 6.006-5.925a.95.95 0 0 0 .554-.322.92.92 0 0 0 0-1.194.95.95 0 0 0-.554-.322m-6.94 4.463a5.2 5.2 0 0 0-1.334-2.228 5.3 5.3 0 0 0-2.258-1.317 5.3 5.3 0 0 0 2.258-1.317 5.2 5.2 0 0 0 1.334-2.228 5.2 5.2 0 0 0 1.334 2.228 5.3 5.3 0 0 0 2.258 1.317 5.3 5.3 0 0 0-2.258 1.317 5.2 5.2 0 0 0-1.334 2.228M244.339 16.934c-2.273-.415-2.582-.719-3.002-2.964a.47.47 0 0 0-.466-.381.48.48 0 0 0-.302.108.46.46 0 0 0-.163.274c-.421 2.242-.729 2.547-3.004 2.962a.467.467 0 0 0 0 .92c2.274.414 2.582.718 3.003 2.962.02.108.078.204.163.274a.477.477 0 0 0 .768-.274c.42-2.243.728-2.548 3.003-2.962a.47.47 0 0 0 .386-.46.472.472 0 0 0-.386-.46m-3.47 2.232a2.6 2.6 0 0 0-.667-1.114 2.64 2.64 0 0 0-1.129-.658 2.64 2.64 0 0 0 1.129-.658c.314-.311.543-.694.667-1.115.124.42.353.804.667 1.114s.702.536 1.129.658a2.64 2.64 0 0 0-1.129.658c-.314.31-.543.694-.667 1.115"/><path fill="#e43f6f" fill-rule="evenodd" d="m186.718 44.792-9.569 3.16c-.292.099-.483.354-.528.697l-1.606 12.802c-.135 1.042.674 1.94 1.729 1.94h13.77c-1.146-1.153-1.999-2.938-2.606-5.41-.741-3.08-1.134-7.403-1.19-13.189M214.201 61.45l-1.606-12.8c-.045-.344-.236-.6-.528-.699l-9.569-3.159c-.056 5.786-.461 10.109-1.202 13.19-.606 2.471-1.46 4.256-2.606 5.409h13.77a1.728 1.728 0 0 0 1.741-1.94" clip-rule="evenodd"/><path fill="#e43f6f" fill-rule="evenodd" d="M199.117 52.119a.54.54 0 0 1-.91.133l-1.258-1.464-.842 1.519 1.381 10.707c2.415-1.907 3.639-7.027 3.887-16.216ZM194.13 52.739l-1.381 10.651h3.717l-1.37-10.651ZM192.255 50.8l-1.247 1.463a.545.545 0 0 1-.91-.133l-2.268-5.332c.247 9.189 1.471 14.31 3.886 16.216l1.381-10.707ZM195.242 51.675l.977-1.751-1.606-1.873-1.606 1.873.966 1.751Z" clip-rule="evenodd"/><path fill="#e43f6f" fill-rule="evenodd" d="m201.33 44.183-1.438-1.42-4.549 4.49 3.123 3.657ZM199.353 41.789V38.53c-1.337 1.63-3.021 2.516-4.751 2.483h-.078c-1.696 0-3.359-.876-4.661-2.483v3.259l4.75 4.688ZM187.886 44.183l2.864 6.727 3.122-3.657-4.549-4.49Z" clip-rule="evenodd"/><path fill="#e43f6f" fill-rule="evenodd" d="M198.946 24.66c-4.313 1.496-7.132 1.518-8.783.066-2.504 1.208-2.549 4.012-2.179 6.351.888 5.509 3.46 9.044 6.548 9.044h.169c3.088 0 5.66-3.535 6.548-9.044.404-2.405.28-5.265-2.303-6.417" clip-rule="evenodd"/><path fill="#e43f6f" fill-rule="evenodd" d="M186.751 28.367c.146-2.461 1.258-4.124 3.325-4.944a.54.54 0 0 1 .595.133c1.281 1.375 3.931 1.33 8.098-.144a.5.5 0 0 1 .382.011c2.055.82 3.167 2.472 3.324 4.944.438-.023.809.033 1.112.133 1.606-7.947-4.054-10.552-5.874-11.173-3.021-1.03-6.289-.565-7.008.976a.54.54 0 0 1-.337.288c-1.999.587-3.628 1.995-4.459 3.88-.752 1.684-.707 4.067.068 5.94.224-.033.482-.056.774-.044M203.823 29.952c-.281-.433-.854-.555-1.348-.521q-.034.778-.168 1.64a23 23 0 0 1-.562 2.55c.91-.045 1.483-.7 1.718-1.02.618-.876.775-2.007.36-2.65M187.47 33.62a23 23 0 0 1-.561-2.55c-.09-.575-.146-1.118-.169-1.64-.505-.033-1.044.067-1.347.522-.416.642-.259 1.773.359 2.637.236.333.809.987 1.718 1.031" clip-rule="evenodd"/><path fill="#1f2937" d="M98.992 86.495c.29.104.63.01.83-.255a.74.74 0 0 0-.126-1.032 14.3 14.3 0 0 1-2.368-2.302c-.873-1.072-1.262-1.572-1.365-2.078 1.073.175 2.627.15 4.435-.712.459-.219.817-.538 1.036-.924a1.94 1.94 0 0 0 .156-1.546c-.23-.693-.876-1.135-1.403-1.318-.724-.252-1.53-.206-2.462.138a5.6 5.6 0 0 0-2.176 1.508q-.4.453-.652.941c-.644-.391-1.718-1.216-1.812-2.4q-.01-.146.001-.293.139.006.212.005c.511.001 1.138-.065 1.862-.195.954-.171 1.704-.422 2.252-.605l.012-.004c.104-.035.23-.074.362-.115 1.094-.344 2.749-.863 3.321-2.049.248-.513.261-1.09.036-1.666a2 2 0 0 0-1.244-1.207c-.64-.22-1.459-.181-2.433.117a9.6 9.6 0 0 0-1.918.84c-.892.518-2.62 1.676-3.453 3.257-.918-.21-2.128-.701-2.883-1.86a3.7 3.7 0 0 1-.535-1.329l.186-.008q.266-.014.498-.022c2.313-.079 4.915-.721 8.19-2.022.425-.168.851-.348 1.268-.534 1.168-.522 2.776-1.367 3.258-2.677.216-.589.178-1.21-.11-1.8-.228-.466-.637-.845-1.182-1.096-1.23-.566-2.599-.69-4.183-.376-1.368.27-2.693.831-3.808 1.344a11.3 11.3 0 0 0-4.433 3.675l-.038.051c-.409.57-.897 1.25-1.09 2.014-1.004-.039-1.957-.24-2.36-.922-.592-1.002.717-3.326 2.184-5.061 2.964-3.507 7.377-4.56 10.558-4.825a.754.754 0 0 0 .683-.795.71.71 0 0 0-.77-.674c-1.926.16-3.737.547-5.384 1.15-2.53.925-4.611 2.338-6.184 4.199-.322.382-1.142 1.397-1.791 2.58-.969 1.767-1.154 3.181-.55 4.203.74 1.253 2.2 1.57 3.58 1.618.106.774.37 1.49.793 2.138.705 1.083 1.804 1.882 3.177 2.312q.245.076.476.132a3.4 3.4 0 0 0-.01.65c.076.971.53 1.862 1.347 2.648a6.7 6.7 0 0 0 1.502 1.072 4 4 0 0 0-.005.22c.007.57.161 1.074.5 1.637.286.473.698.978 1.22 1.618a15.7 15.7 0 0 0 2.603 2.53q.088.068.19.105m.706-8.768c.243.087.461.265.512.417a.43.43 0 0 1-.034.335c-.064.112-.197.221-.375.306-1.13.54-2.26.747-3.357.618l-.15-.02c.105-.168.221-.317.33-.44a4.1 4.1 0 0 1 1.572-1.093c.606-.223 1.094-.265 1.492-.126Zm-.283-5.94a.58.58 0 0 1 .372.372c.097.249.06.385.015.476-.076.158-.292.408-.888.699-.495.24-1.07.421-1.531.566q-.21.066-.387.124l-.011.004c-.535.178-1.2.4-2.049.553-.457.082-.864.135-1.213.158.614-.82 1.584-1.572 2.53-2.122 1.004-.585 2.45-1.076 3.15-.834Zm.397-7.332q.175.063.346.142c.243.111.421.264.502.43.113.231.13.426.054.633-.145.393-.688 1.028-2.457 1.817-.398.178-.806.35-1.21.51-3.115 1.237-5.562 1.847-7.703 1.92q-.246.01-.517.023l-.051.002c.18-.386.468-.788.718-1.136l.037-.052a9.77 9.77 0 0 1 3.84-3.185c2.18-1.001 4.46-1.816 6.442-1.104"/><path stroke="#626b77" stroke-width="2" d="M30.5 11.855c16.305 0 29.5 13.04 29.5 29.099 0 16.058-13.195 29.098-29.5 29.098S1 57.012 1 40.954s13.195-29.099 29.5-29.099ZM53 60.197l29 23.685"/><path fill="#626b77" d="M31.174 33.498c3.47 0 6.285-2.777 6.285-6.202s-2.814-6.202-6.285-6.202-6.285 2.776-6.285 6.202c0 3.425 2.814 6.202 6.285 6.202"/><path fill="#626b77" d="M26.311 40.615c-.02.154-.04.307-.07.457-.019.092-.046.18-.068.27-.033.132-.063.265-.103.394-.03.094-.066.183-.099.275-.043.121-.084.244-.134.362-.039.092-.085.18-.128.27-.053.113-.105.227-.164.336q-.074.133-.155.262-.092.159-.191.311-.088.127-.181.25-.106.146-.218.287-.1.118-.205.234-.118.135-.242.263-.11.11-.227.215-.13.121-.265.238-.121.1-.247.194a7 7 0 0 1-.287.212q-.131.09-.265.171a6.4 6.4 0 0 1-.589.332 7 7 0 0 1-.961.4 8 8 0 0 1-.989.25 7 7 0 0 1-.7.09c-.057.005-.112.015-.169.018v7.2h10.043l-3.003-2.846a.58.58 0 0 1-.165-.563l2.779-11.13-1.166-2.662a9 9 0 0 0-2.252.408q.017.044.03.087c.03.076.054.153.08.23a7 7 0 0 1 .212.748q.057.254.092.511.02.117.034.235a6.94 6.94 0 0 1 .008 1.464c-.009.077-.024.152-.035.23Z"/><path fill="#626b77" d="m31.174 53.68 3.408-3.231L31.95 39.9h-1.551l-2.633 10.548Z"/><path fill="#626b77" d="m33.039 39.366 2.778 11.13a.58.58 0 0 1-.165.563l-3.004 2.847h10.044v-8.344c0-4.727-3.766-8.592-8.49-8.852ZM32.024 38.729l.895-2.044h-3.49l.894 2.044h1.7"/><path fill="#e43f6f" d="M19.078 45.539c.022.002.035.002.052.002q.06.006.121.003c3.278 0 5.944-2.631 5.944-5.865 0-.932-.214-1.818-.636-2.634-1.01-1.994-3.043-3.231-5.307-3.231-3.278 0-5.944 2.63-5.944 5.865 0 3.147 2.588 5.775 5.77 5.86m-2.385-7.556a.58.58 0 0 1 0-.828.6.6 0 0 1 .84 0l1.718 1.695 1.718-1.696a.6.6 0 0 1 .84 0 .58.58 0 0 1 0 .828l-1.718 1.697 1.718 1.695a.58.58 0 0 1 0 .828.596.596 0 0 1-.84 0l-1.718-1.695-1.718 1.696a.596.596 0 0 1-.84 0 .58.58 0 0 1 0-.828l1.718-1.697Z"/></svg>