<svg xmlns="http://www.w3.org/2000/svg" xmlns:xlink="http://www.w3.org/1999/xlink" width="500" zoomAndPan="magnify" viewBox="0 0 375.12 383.03998" height="500" preserveAspectRatio="xMidYMid meet" version="1.0"><defs><clipPath id="de5aadcc7a"><path d="M 194 2.308594 L 337 2.308594 L 337 144 L 194 144 Z M 194 2.308594 " clip-rule="nonzero"/></clipPath><clipPath id="138df7ec11"><path d="M 35.566406 20 L 319 20 L 319 374.0625 L 35.566406 374.0625 Z M 35.566406 20 " clip-rule="nonzero"/></clipPath></defs><g clip-path="url(#de5aadcc7a)"><path fill="#00afcc" d="M 265.785156 143.925781 C 266.945312 143.925781 268.101562 143.898438 269.261719 143.84375 C 270.417969 143.785156 271.574219 143.699219 272.726562 143.585938 C 273.878906 143.472656 275.03125 143.332031 276.175781 143.160156 C 277.324219 142.992188 278.464844 142.792969 279.601562 142.566406 C 280.738281 142.339844 281.867188 142.085938 282.992188 141.804688 C 284.117188 141.523438 285.230469 141.214844 286.339844 140.878906 C 287.449219 140.542969 288.550781 140.179688 289.640625 139.789062 C 290.730469 139.398438 291.8125 138.980469 292.882812 138.539062 C 293.953125 138.09375 295.011719 137.625 296.0625 137.128906 C 297.109375 136.632812 298.144531 136.113281 299.164062 135.566406 C 300.1875 135.019531 301.195312 134.449219 302.191406 133.851562 C 303.183594 133.257812 304.164062 132.636719 305.125 131.992188 C 306.089844 131.351562 307.035156 130.683594 307.96875 129.992188 C 308.898438 129.300781 309.8125 128.589844 310.707031 127.855469 C 311.601562 127.121094 312.480469 126.363281 313.339844 125.585938 C 314.199219 124.804688 315.035156 124.007812 315.855469 123.1875 C 316.675781 122.367188 317.472656 121.53125 318.253906 120.671875 C 319.03125 119.8125 319.789062 118.933594 320.523438 118.039062 C 321.257812 117.144531 321.96875 116.230469 322.660156 115.300781 C 323.351562 114.367188 324.019531 113.421875 324.660156 112.457031 C 325.304688 111.492188 325.925781 110.515625 326.519531 109.519531 C 327.117188 108.527344 327.6875 107.519531 328.234375 106.496094 C 328.78125 105.476562 329.300781 104.441406 329.796875 103.394531 C 330.292969 102.34375 330.761719 101.285156 331.207031 100.214844 C 331.648438 99.144531 332.066406 98.0625 332.457031 96.972656 C 332.847656 95.882812 333.210938 94.78125 333.546875 93.671875 C 333.882812 92.5625 334.191406 91.449219 334.472656 90.324219 C 334.753906 89.199219 335.007812 88.070312 335.234375 86.933594 C 335.460938 85.796875 335.660156 84.65625 335.828125 83.507812 C 336 82.363281 336.140625 81.210938 336.253906 80.058594 C 336.367188 78.90625 336.453125 77.75 336.511719 76.59375 C 336.566406 75.433594 336.59375 74.277344 336.59375 73.117188 C 336.59375 71.960938 336.566406 70.800781 336.511719 69.644531 C 336.453125 68.484375 336.367188 67.332031 336.253906 66.175781 C 336.140625 65.023438 336 63.875 335.828125 62.726562 C 335.660156 61.582031 335.460938 60.441406 335.234375 59.304688 C 335.007812 58.167969 334.753906 57.035156 334.472656 55.914062 C 334.191406 54.789062 333.882812 53.671875 333.546875 52.5625 C 333.210938 51.453125 332.847656 50.355469 332.457031 49.261719 C 332.066406 48.171875 331.648438 47.089844 331.207031 46.019531 C 330.761719 44.949219 330.292969 43.890625 329.796875 42.84375 C 329.300781 41.796875 328.78125 40.761719 328.234375 39.738281 C 327.6875 38.71875 327.117188 37.707031 326.519531 36.714844 C 325.925781 35.722656 325.304688 34.742188 324.660156 33.777344 C 324.019531 32.816406 323.351562 31.867188 322.660156 30.9375 C 321.96875 30.007812 321.257812 29.09375 320.523438 28.199219 C 319.789062 27.300781 319.03125 26.425781 318.253906 25.566406 C 317.472656 24.707031 316.675781 23.867188 315.855469 23.046875 C 315.035156 22.230469 314.199219 21.429688 313.339844 20.652344 C 312.480469 19.875 311.601562 19.117188 310.707031 18.382812 C 309.8125 17.648438 308.898438 16.933594 307.96875 16.242188 C 307.035156 15.554688 306.089844 14.886719 305.125 14.242188 C 304.164062 13.597656 303.183594 12.980469 302.191406 12.382812 C 301.195312 11.789062 300.1875 11.214844 299.164062 10.671875 C 298.144531 10.125 297.109375 9.601562 296.0625 9.109375 C 295.011719 8.613281 293.953125 8.140625 292.882812 7.699219 C 291.8125 7.253906 290.730469 6.839844 289.640625 6.449219 C 288.550781 6.058594 287.449219 5.695312 286.339844 5.359375 C 285.230469 5.023438 284.117188 4.710938 282.992188 4.429688 C 281.867188 4.148438 280.738281 3.894531 279.601562 3.667969 C 278.464844 3.445312 277.324219 3.246094 276.175781 3.074219 C 275.03125 2.90625 273.878906 2.761719 272.726562 2.648438 C 271.574219 2.535156 270.417969 2.453125 269.261719 2.394531 C 268.101562 2.335938 266.945312 2.308594 265.785156 2.308594 C 264.628906 2.308594 263.46875 2.335938 262.3125 2.394531 C 261.15625 2.453125 260 2.535156 258.847656 2.648438 C 257.691406 2.761719 256.542969 2.90625 255.394531 3.074219 C 254.25 3.246094 253.109375 3.445312 251.972656 3.667969 C 250.835938 3.894531 249.707031 4.148438 248.582031 4.429688 C 247.457031 4.710938 246.339844 5.023438 245.230469 5.359375 C 244.121094 5.695312 243.023438 6.058594 241.929688 6.449219 C 240.839844 6.839844 239.757812 7.253906 238.6875 7.699219 C 237.617188 8.140625 236.558594 8.613281 235.511719 9.109375 C 234.464844 9.601562 233.429688 10.125 232.40625 10.671875 C 231.386719 11.214844 230.378906 11.789062 229.382812 12.382812 C 228.390625 12.980469 227.410156 13.597656 226.445312 14.242188 C 225.484375 14.886719 224.535156 15.554688 223.605469 16.242188 C 222.675781 16.933594 221.761719 17.648438 220.867188 18.382812 C 219.96875 19.117188 219.09375 19.875 218.234375 20.652344 C 217.375 21.429688 216.535156 22.230469 215.714844 23.046875 C 214.898438 23.867188 214.097656 24.707031 213.320312 25.566406 C 212.542969 26.425781 211.785156 27.300781 211.050781 28.199219 C 210.316406 29.09375 209.601562 30.007812 208.910156 30.9375 C 208.222656 31.867188 207.554688 32.816406 206.910156 33.777344 C 206.265625 34.742188 205.648438 35.722656 205.050781 36.714844 C 204.457031 37.707031 203.882812 38.71875 203.339844 39.738281 C 202.792969 40.761719 202.269531 41.796875 201.777344 42.84375 C 201.28125 43.890625 200.8125 44.949219 200.367188 46.019531 C 199.921875 47.089844 199.507812 48.171875 199.117188 49.261719 C 198.726562 50.355469 198.363281 51.453125 198.027344 52.5625 C 197.691406 53.671875 197.378906 54.789062 197.097656 55.914062 C 196.816406 57.035156 196.5625 58.167969 196.335938 59.304688 C 196.113281 60.441406 195.914062 61.582031 195.742188 62.726562 C 195.574219 63.875 195.433594 65.023438 195.316406 66.175781 C 195.203125 67.332031 195.121094 68.484375 195.0625 69.644531 C 195.003906 70.800781 194.976562 71.960938 194.976562 73.117188 C 194.980469 74.277344 195.007812 75.433594 195.066406 76.589844 C 195.125 77.75 195.210938 78.902344 195.324219 80.054688 C 195.441406 81.207031 195.582031 82.359375 195.753906 83.503906 C 195.925781 84.648438 196.125 85.789062 196.351562 86.925781 C 196.578125 88.0625 196.832031 89.191406 197.113281 90.316406 C 197.398438 91.441406 197.707031 92.554688 198.042969 93.664062 C 198.382812 94.773438 198.746094 95.871094 199.136719 96.960938 C 199.527344 98.054688 199.945312 99.132812 200.386719 100.203125 C 200.832031 101.273438 201.300781 102.332031 201.796875 103.378906 C 202.292969 104.425781 202.816406 105.460938 203.363281 106.480469 C 203.910156 107.503906 204.480469 108.511719 205.074219 109.503906 C 205.671875 110.496094 206.292969 111.476562 206.933594 112.4375 C 207.578125 113.402344 208.246094 114.347656 208.9375 115.277344 C 209.625 116.210938 210.339844 117.121094 211.074219 118.019531 C 211.808594 118.914062 212.566406 119.789062 213.34375 120.648438 C 214.121094 121.507812 214.921875 122.34375 215.738281 123.164062 C 216.558594 123.984375 217.398438 124.78125 218.257812 125.558594 C 219.113281 126.339844 219.992188 127.09375 220.886719 127.828125 C 221.78125 128.566406 222.695312 129.277344 223.625 129.96875 C 224.554688 130.660156 225.503906 131.324219 226.464844 131.96875 C 227.429688 132.613281 228.40625 133.234375 229.402344 133.828125 C 230.394531 134.425781 231.402344 134.996094 232.421875 135.542969 C 233.445312 136.089844 234.480469 136.609375 235.527344 137.105469 C 236.574219 137.601562 237.632812 138.070312 238.703125 138.515625 C 239.769531 138.960938 240.851562 139.378906 241.941406 139.769531 C 243.03125 140.160156 244.132812 140.523438 245.242188 140.859375 C 246.347656 141.199219 247.464844 141.507812 248.589844 141.789062 C 249.710938 142.070312 250.839844 142.328125 251.976562 142.554688 C 253.113281 142.78125 254.253906 142.980469 255.402344 143.152344 C 256.546875 143.320312 257.695312 143.464844 258.847656 143.578125 C 260 143.695312 261.15625 143.78125 262.3125 143.839844 C 263.46875 143.894531 264.628906 143.925781 265.785156 143.925781 Z M 265.785156 20.011719 C 267.527344 20.011719 269.261719 20.097656 270.992188 20.265625 C 272.722656 20.4375 274.441406 20.691406 276.148438 21.03125 C 277.851562 21.371094 279.539062 21.792969 281.203125 22.296875 C 282.867188 22.804688 284.503906 23.386719 286.109375 24.054688 C 287.714844 24.71875 289.285156 25.460938 290.820312 26.28125 C 292.355469 27.101562 293.84375 27.996094 295.289062 28.960938 C 296.738281 29.929688 298.132812 30.960938 299.476562 32.066406 C 300.820312 33.167969 302.109375 34.335938 303.339844 35.566406 C 304.570312 36.796875 305.734375 38.082031 306.839844 39.425781 C 307.941406 40.773438 308.976562 42.167969 309.941406 43.613281 C 310.910156 45.058594 311.800781 46.550781 312.621094 48.082031 C 313.441406 49.617188 314.183594 51.1875 314.851562 52.796875 C 315.515625 54.402344 316.101562 56.039062 316.605469 57.703125 C 317.109375 59.367188 317.535156 61.050781 317.871094 62.757812 C 318.210938 64.464844 318.46875 66.183594 318.636719 67.914062 C 318.808594 69.644531 318.894531 71.378906 318.894531 73.117188 C 318.894531 74.859375 318.808594 76.59375 318.636719 78.324219 C 318.46875 80.054688 318.210938 81.773438 317.871094 83.480469 C 317.535156 85.183594 317.109375 86.871094 316.605469 88.535156 C 316.101562 90.199219 315.515625 91.835938 314.851562 93.441406 C 314.183594 95.046875 313.441406 96.617188 312.621094 98.152344 C 311.800781 99.6875 310.910156 101.175781 309.941406 102.621094 C 308.976562 104.070312 307.941406 105.464844 306.839844 106.808594 C 305.734375 108.152344 304.570312 109.441406 303.339844 110.671875 C 302.109375 111.898438 300.820312 113.066406 299.476562 114.171875 C 298.132812 115.273438 296.738281 116.308594 295.289062 117.273438 C 293.84375 118.242188 292.355469 119.132812 290.820312 119.953125 C 289.285156 120.773438 287.714844 121.515625 286.109375 122.183594 C 284.503906 122.847656 282.867188 123.433594 281.203125 123.9375 C 279.539062 124.441406 277.851562 124.863281 276.148438 125.203125 C 274.441406 125.542969 272.722656 125.796875 270.992188 125.96875 C 269.261719 126.140625 267.527344 126.226562 265.785156 126.226562 C 264.046875 126.226562 262.3125 126.140625 260.582031 125.96875 C 258.851562 125.796875 257.132812 125.542969 255.425781 125.203125 C 253.71875 124.863281 252.035156 124.441406 250.371094 123.9375 C 248.707031 123.433594 247.070312 122.847656 245.464844 122.183594 C 243.855469 121.515625 242.285156 120.773438 240.75 119.953125 C 239.21875 119.132812 237.726562 118.242188 236.28125 117.273438 C 234.835938 116.308594 233.441406 115.273438 232.09375 114.171875 C 230.75 113.066406 229.464844 111.898438 228.234375 110.671875 C 227.003906 109.441406 225.835938 108.152344 224.734375 106.808594 C 223.628906 105.464844 222.597656 104.070312 221.628906 102.621094 C 220.664062 101.175781 219.769531 99.6875 218.949219 98.152344 C 218.128906 96.617188 217.386719 95.046875 216.722656 93.441406 C 216.054688 91.835938 215.472656 90.199219 214.964844 88.535156 C 214.460938 86.871094 214.039062 85.183594 213.699219 83.480469 C 213.359375 81.773438 213.105469 80.054688 212.933594 78.324219 C 212.765625 76.59375 212.679688 74.859375 212.679688 73.117188 C 212.679688 71.378906 212.769531 69.644531 212.941406 67.914062 C 213.113281 66.183594 213.367188 64.464844 213.710938 62.761719 C 214.050781 61.054688 214.472656 59.371094 214.980469 57.707031 C 215.484375 56.042969 216.070312 54.410156 216.738281 52.804688 C 217.402344 51.199219 218.148438 49.628906 218.96875 48.09375 C 219.789062 46.5625 220.679688 45.074219 221.648438 43.628906 C 222.613281 42.183594 223.648438 40.785156 224.75 39.441406 C 225.855469 38.097656 227.019531 36.8125 228.25 35.582031 C 229.480469 34.351562 230.765625 33.1875 232.109375 32.082031 C 233.453125 30.980469 234.851562 29.945312 236.296875 28.980469 C 237.742188 28.011719 239.230469 27.121094 240.761719 26.300781 C 242.296875 25.480469 243.867188 24.734375 245.472656 24.070312 C 247.078125 23.402344 248.714844 22.816406 250.375 22.3125 C 252.039062 21.804688 253.722656 21.382812 255.429688 21.042969 C 257.132812 20.699219 258.851562 20.445312 260.582031 20.273438 C 262.3125 20.101562 264.046875 20.011719 265.785156 20.011719 Z M 265.785156 20.011719 " fill-opacity="1" fill-rule="nonzero"/></g><path fill="#00afcc" d="M 255.042969 92.660156 C 255.453125 93.070312 255.898438 93.4375 256.382812 93.757812 C 256.863281 94.082031 257.371094 94.351562 257.910156 94.574219 C 258.445312 94.796875 258.996094 94.964844 259.566406 95.078125 C 260.136719 95.191406 260.710938 95.246094 261.289062 95.246094 C 261.871094 95.246094 262.445312 95.191406 263.015625 95.078125 C 263.582031 94.964844 264.136719 94.796875 264.671875 94.574219 C 265.207031 94.351562 265.71875 94.082031 266.199219 93.757812 C 266.683594 93.4375 267.128906 93.070312 267.539062 92.660156 L 294.164062 66.109375 C 294.5625 65.695312 294.921875 65.25 295.234375 64.765625 C 295.550781 64.285156 295.8125 63.777344 296.027344 63.242188 C 296.242188 62.707031 296.40625 62.15625 296.511719 61.59375 C 296.621094 61.027344 296.671875 60.457031 296.667969 59.882812 C 296.664062 59.304688 296.605469 58.734375 296.492188 58.171875 C 296.378906 57.609375 296.210938 57.058594 295.988281 56.527344 C 295.765625 55.996094 295.496094 55.492188 295.175781 55.015625 C 294.855469 54.535156 294.492188 54.09375 294.085938 53.6875 C 293.679688 53.277344 293.238281 52.914062 292.757812 52.59375 C 292.28125 52.269531 291.777344 52 291.246094 51.777344 C 290.71875 51.554688 290.167969 51.382812 289.605469 51.265625 C 289.042969 51.152344 288.472656 51.089844 287.898438 51.085938 C 287.320312 51.078125 286.75 51.128906 286.183594 51.238281 C 285.621094 51.34375 285.070312 51.503906 284.535156 51.714844 C 284 51.929688 283.492188 52.191406 283.007812 52.503906 C 282.527344 52.816406 282.078125 53.175781 281.664062 53.574219 L 261.289062 73.894531 L 249.90625 62.546875 C 249.492188 62.144531 249.042969 61.789062 248.5625 61.476562 C 248.078125 61.160156 247.570312 60.898438 247.035156 60.683594 C 246.5 60.46875 245.949219 60.308594 245.382812 60.203125 C 244.816406 60.097656 244.246094 60.046875 243.671875 60.050781 C 243.09375 60.054688 242.523438 60.113281 241.960938 60.230469 C 241.394531 60.347656 240.847656 60.515625 240.316406 60.738281 C 239.785156 60.964844 239.28125 61.234375 238.804688 61.558594 C 238.324219 61.878906 237.882812 62.242188 237.476562 62.652344 C 237.070312 63.058594 236.707031 63.5 236.386719 63.980469 C 236.066406 64.460938 235.796875 64.964844 235.574219 65.496094 C 235.351562 66.027344 235.183594 66.578125 235.070312 67.140625 C 234.957031 67.707031 234.898438 68.277344 234.894531 68.851562 C 234.890625 69.425781 234.941406 70 235.050781 70.5625 C 235.160156 71.128906 235.320312 71.679688 235.535156 72.214844 C 235.753906 72.746094 236.015625 73.257812 236.332031 73.738281 C 236.648438 74.222656 237.003906 74.667969 237.40625 75.082031 Z M 255.042969 92.660156 " fill-opacity="1" fill-rule="nonzero"/><g clip-path="url(#138df7ec11)"><path fill="#00afcc" d="M 310.042969 161.628906 C 309.460938 161.628906 308.886719 161.6875 308.316406 161.796875 C 307.746094 161.910156 307.191406 162.078125 306.652344 162.300781 C 306.117188 162.523438 305.605469 162.796875 305.125 163.121094 C 304.640625 163.441406 304.191406 163.808594 303.78125 164.21875 C 303.371094 164.632812 303.003906 165.078125 302.679688 165.5625 C 302.359375 166.046875 302.085938 166.554688 301.863281 167.09375 C 301.640625 167.628906 301.472656 168.183594 301.359375 168.753906 C 301.246094 169.324219 301.191406 169.898438 301.191406 170.480469 L 301.191406 356.355469 L 53.359375 356.355469 L 53.359375 37.714844 L 168.421875 37.714844 C 169.003906 37.714844 169.582031 37.65625 170.152344 37.542969 C 170.71875 37.429688 171.273438 37.261719 171.8125 37.039062 C 172.347656 36.816406 172.859375 36.542969 173.339844 36.222656 C 173.824219 35.898438 174.273438 35.53125 174.683594 35.121094 C 175.09375 34.710938 175.460938 34.261719 175.785156 33.78125 C 176.105469 33.296875 176.378906 32.785156 176.601562 32.25 C 176.824219 31.710938 176.992188 31.160156 177.105469 30.589844 C 177.21875 30.019531 177.273438 29.445312 177.273438 28.863281 C 177.273438 28.28125 177.21875 27.707031 177.105469 27.136719 C 176.992188 26.566406 176.824219 26.011719 176.601562 25.476562 C 176.378906 24.9375 176.105469 24.429688 175.785156 23.945312 C 175.460938 23.460938 175.09375 23.015625 174.683594 22.605469 C 174.273438 22.191406 173.824219 21.824219 173.339844 21.503906 C 172.859375 21.179688 172.347656 20.90625 171.8125 20.683594 C 171.273438 20.460938 170.71875 20.292969 170.152344 20.179688 C 169.582031 20.066406 169.003906 20.011719 168.421875 20.011719 L 44.507812 20.011719 C 43.925781 20.011719 43.351562 20.066406 42.78125 20.179688 C 42.210938 20.292969 41.65625 20.460938 41.121094 20.683594 C 40.582031 20.90625 40.074219 21.179688 39.589844 21.5 C 39.105469 21.824219 38.660156 22.191406 38.246094 22.601562 C 37.835938 23.011719 37.46875 23.460938 37.148438 23.945312 C 36.824219 24.425781 36.550781 24.9375 36.328125 25.472656 C 36.105469 26.011719 35.9375 26.566406 35.824219 27.136719 C 35.710938 27.707031 35.65625 28.28125 35.65625 28.863281 L 35.65625 365.207031 C 35.65625 365.785156 35.710938 366.363281 35.824219 366.933594 C 35.9375 367.503906 36.105469 368.058594 36.328125 368.59375 C 36.550781 369.132812 36.824219 369.640625 37.148438 370.125 C 37.46875 370.609375 37.835938 371.054688 38.246094 371.464844 C 38.660156 371.878906 39.105469 372.242188 39.589844 372.566406 C 40.074219 372.890625 40.582031 373.164062 41.121094 373.382812 C 41.65625 373.605469 42.210938 373.773438 42.78125 373.886719 C 43.351562 374 43.925781 374.058594 44.507812 374.058594 L 310.042969 374.058594 C 310.625 374.058594 311.199219 374 311.769531 373.886719 C 312.339844 373.773438 312.894531 373.605469 313.429688 373.382812 C 313.96875 373.164062 314.476562 372.890625 314.960938 372.566406 C 315.445312 372.242188 315.890625 371.878906 316.300781 371.464844 C 316.714844 371.054688 317.082031 370.609375 317.402344 370.125 C 317.726562 369.640625 318 369.132812 318.222656 368.59375 C 318.441406 368.058594 318.609375 367.503906 318.722656 366.933594 C 318.835938 366.363281 318.894531 365.785156 318.894531 365.207031 L 318.894531 170.480469 C 318.894531 169.898438 318.835938 169.324219 318.722656 168.753906 C 318.609375 168.183594 318.441406 167.628906 318.222656 167.09375 C 318 166.554688 317.726562 166.046875 317.402344 165.5625 C 317.082031 165.078125 316.714844 164.632812 316.300781 164.21875 C 315.890625 163.808594 315.445312 163.441406 314.960938 163.121094 C 314.476562 162.796875 313.96875 162.523438 313.429688 162.300781 C 312.894531 162.078125 312.339844 161.910156 311.769531 161.796875 C 311.199219 161.6875 310.625 161.628906 310.042969 161.628906 Z M 310.042969 161.628906 " fill-opacity="1" fill-rule="nonzero"/></g><path fill="#00afcc" d="M 97.613281 108.523438 L 150.722656 108.523438 C 151.300781 108.523438 151.878906 108.464844 152.449219 108.351562 C 153.019531 108.238281 153.570312 108.070312 154.109375 107.847656 C 154.644531 107.625 155.15625 107.355469 155.640625 107.03125 C 156.121094 106.707031 156.570312 106.339844 156.980469 105.929688 C 157.390625 105.519531 157.757812 105.070312 158.082031 104.589844 C 158.402344 104.105469 158.675781 103.59375 158.898438 103.058594 C 159.121094 102.523438 159.289062 101.96875 159.402344 101.398438 C 159.515625 100.828125 159.574219 100.253906 159.574219 99.671875 C 159.574219 99.089844 159.515625 98.515625 159.402344 97.945312 C 159.289062 97.375 159.121094 96.820312 158.898438 96.285156 C 158.675781 95.746094 158.402344 95.238281 158.082031 94.753906 C 157.757812 94.269531 157.390625 93.824219 156.980469 93.414062 C 156.570312 93 156.121094 92.636719 155.640625 92.3125 C 155.15625 91.988281 154.644531 91.714844 154.109375 91.496094 C 153.570312 91.273438 153.019531 91.105469 152.449219 90.992188 C 151.878906 90.878906 151.300781 90.820312 150.722656 90.820312 L 97.613281 90.820312 C 97.035156 90.820312 96.457031 90.878906 95.886719 90.992188 C 95.316406 91.105469 94.765625 91.273438 94.226562 91.496094 C 93.691406 91.714844 93.179688 91.988281 92.695312 92.3125 C 92.214844 92.636719 91.765625 93 91.355469 93.414062 C 90.945312 93.824219 90.578125 94.269531 90.253906 94.753906 C 89.933594 95.238281 89.660156 95.746094 89.4375 96.285156 C 89.214844 96.820312 89.046875 97.375 88.933594 97.945312 C 88.820312 98.515625 88.761719 99.089844 88.761719 99.671875 C 88.761719 100.253906 88.820312 100.828125 88.933594 101.398438 C 89.046875 101.96875 89.214844 102.523438 89.4375 103.058594 C 89.660156 103.59375 89.933594 104.105469 90.253906 104.589844 C 90.578125 105.070312 90.945312 105.519531 91.355469 105.929688 C 91.765625 106.339844 92.214844 106.707031 92.695312 107.03125 C 93.179688 107.355469 93.691406 107.625 94.226562 107.847656 C 94.765625 108.070312 95.316406 108.238281 95.886719 108.351562 C 96.457031 108.464844 97.035156 108.523438 97.613281 108.523438 Z M 97.613281 108.523438 " fill-opacity="1" fill-rule="nonzero"/><path fill="#00afcc" d="M 97.613281 152.777344 L 168.421875 152.777344 C 169.003906 152.777344 169.582031 152.722656 170.152344 152.609375 C 170.71875 152.496094 171.273438 152.328125 171.8125 152.105469 C 172.347656 151.882812 172.859375 151.609375 173.339844 151.285156 C 173.824219 150.964844 174.273438 150.597656 174.683594 150.1875 C 175.09375 149.773438 175.460938 149.328125 175.785156 148.84375 C 176.105469 148.363281 176.378906 147.851562 176.601562 147.3125 C 176.824219 146.777344 176.992188 146.222656 177.105469 145.652344 C 177.21875 145.085938 177.273438 144.507812 177.273438 143.925781 C 177.273438 143.347656 177.21875 142.769531 177.105469 142.199219 C 176.992188 141.628906 176.824219 141.078125 176.601562 140.539062 C 176.378906 140.003906 176.105469 139.492188 175.785156 139.011719 C 175.460938 138.527344 175.09375 138.078125 174.683594 137.667969 C 174.273438 137.257812 173.824219 136.890625 173.339844 136.566406 C 172.859375 136.246094 172.347656 135.972656 171.8125 135.75 C 171.273438 135.527344 170.71875 135.359375 170.152344 135.246094 C 169.582031 135.132812 169.003906 135.074219 168.421875 135.074219 L 97.613281 135.074219 C 97.035156 135.074219 96.457031 135.132812 95.886719 135.246094 C 95.316406 135.359375 94.765625 135.527344 94.226562 135.75 C 93.691406 135.972656 93.179688 136.246094 92.695312 136.566406 C 92.214844 136.890625 91.765625 137.257812 91.355469 137.667969 C 90.945312 138.078125 90.578125 138.527344 90.253906 139.011719 C 89.933594 139.492188 89.660156 140.003906 89.4375 140.539062 C 89.214844 141.078125 89.046875 141.628906 88.933594 142.199219 C 88.820312 142.769531 88.761719 143.347656 88.761719 143.925781 C 88.761719 144.507812 88.820312 145.085938 88.933594 145.652344 C 89.046875 146.222656 89.214844 146.777344 89.4375 147.3125 C 89.660156 147.851562 89.933594 148.363281 90.253906 148.84375 C 90.578125 149.328125 90.945312 149.773438 91.355469 150.1875 C 91.765625 150.597656 92.214844 150.964844 92.695312 151.285156 C 93.179688 151.609375 93.691406 151.882812 94.226562 152.105469 C 94.765625 152.328125 95.316406 152.496094 95.886719 152.609375 C 96.457031 152.722656 97.035156 152.777344 97.613281 152.777344 Z M 97.613281 152.777344 " fill-opacity="1" fill-rule="nonzero"/><path fill="#00afcc" d="M 256.933594 179.332031 L 97.613281 179.332031 C 97.035156 179.332031 96.457031 179.386719 95.886719 179.5 C 95.316406 179.617188 94.765625 179.78125 94.226562 180.003906 C 93.691406 180.226562 93.179688 180.5 92.695312 180.824219 C 92.214844 181.144531 91.765625 181.511719 91.355469 181.925781 C 90.945312 182.335938 90.578125 182.78125 90.253906 183.265625 C 89.933594 183.75 89.660156 184.257812 89.4375 184.796875 C 89.214844 185.332031 89.046875 185.886719 88.933594 186.457031 C 88.820312 187.027344 88.761719 187.601562 88.761719 188.183594 C 88.761719 188.765625 88.820312 189.339844 88.933594 189.910156 C 89.046875 190.480469 89.214844 191.035156 89.4375 191.570312 C 89.660156 192.105469 89.933594 192.617188 90.253906 193.101562 C 90.578125 193.582031 90.945312 194.03125 91.355469 194.441406 C 91.765625 194.851562 92.214844 195.21875 92.695312 195.542969 C 93.179688 195.867188 93.691406 196.136719 94.226562 196.359375 C 94.765625 196.582031 95.316406 196.75 95.886719 196.863281 C 96.457031 196.976562 97.035156 197.035156 97.613281 197.035156 L 256.933594 197.035156 C 257.515625 197.035156 258.09375 196.976562 258.660156 196.863281 C 259.230469 196.75 259.785156 196.582031 260.324219 196.359375 C 260.859375 196.136719 261.371094 195.867188 261.851562 195.542969 C 262.335938 195.21875 262.78125 194.851562 263.195312 194.441406 C 263.605469 194.03125 263.972656 193.582031 264.292969 193.101562 C 264.617188 192.617188 264.890625 192.105469 265.113281 191.570312 C 265.335938 191.035156 265.503906 190.480469 265.617188 189.910156 C 265.730469 189.339844 265.785156 188.765625 265.785156 188.183594 C 265.785156 187.601562 265.730469 187.027344 265.617188 186.457031 C 265.503906 185.886719 265.335938 185.332031 265.113281 184.796875 C 264.890625 184.257812 264.617188 183.75 264.292969 183.265625 C 263.972656 182.78125 263.605469 182.335938 263.195312 181.925781 C 262.78125 181.511719 262.335938 181.144531 261.851562 180.824219 C 261.371094 180.5 260.859375 180.226562 260.324219 180.003906 C 259.785156 179.78125 259.230469 179.617188 258.660156 179.5 C 258.09375 179.386719 257.515625 179.332031 256.933594 179.332031 Z M 256.933594 179.332031 " fill-opacity="1" fill-rule="nonzero"/><path fill="#00afcc" d="M 256.933594 223.585938 L 97.613281 223.585938 C 97.035156 223.585938 96.457031 223.644531 95.886719 223.757812 C 95.316406 223.871094 94.765625 224.039062 94.226562 224.261719 C 93.691406 224.484375 93.179688 224.757812 92.695312 225.078125 C 92.214844 225.402344 91.765625 225.769531 91.355469 226.179688 C 90.945312 226.589844 90.578125 227.039062 90.253906 227.519531 C 89.933594 228.003906 89.660156 228.515625 89.4375 229.050781 C 89.214844 229.589844 89.046875 230.140625 88.933594 230.710938 C 88.820312 231.28125 88.761719 231.859375 88.761719 232.4375 C 88.761719 233.019531 88.820312 233.59375 88.933594 234.164062 C 89.046875 234.734375 89.214844 235.289062 89.4375 235.824219 C 89.660156 236.363281 89.933594 236.871094 90.253906 237.355469 C 90.578125 237.839844 90.945312 238.285156 91.355469 238.699219 C 91.765625 239.109375 92.214844 239.476562 92.695312 239.796875 C 93.179688 240.121094 93.691406 240.394531 94.226562 240.617188 C 94.765625 240.839844 95.316406 241.007812 95.886719 241.121094 C 96.457031 241.234375 97.035156 241.289062 97.613281 241.289062 L 256.933594 241.289062 C 257.515625 241.289062 258.09375 241.234375 258.660156 241.121094 C 259.230469 241.007812 259.785156 240.839844 260.324219 240.617188 C 260.859375 240.394531 261.371094 240.121094 261.851562 239.796875 C 262.335938 239.476562 262.78125 239.109375 263.195312 238.699219 C 263.605469 238.285156 263.972656 237.839844 264.292969 237.355469 C 264.617188 236.871094 264.890625 236.363281 265.113281 235.824219 C 265.335938 235.289062 265.503906 234.734375 265.617188 234.164062 C 265.730469 233.59375 265.785156 233.019531 265.785156 232.4375 C 265.785156 231.859375 265.730469 231.28125 265.617188 230.710938 C 265.503906 230.140625 265.335938 229.589844 265.113281 229.050781 C 264.890625 228.515625 264.617188 228.003906 264.292969 227.519531 C 263.972656 227.039062 263.605469 226.589844 263.195312 226.179688 C 262.78125 225.769531 262.335938 225.402344 261.851562 225.078125 C 261.371094 224.757812 260.859375 224.484375 260.324219 224.261719 C 259.785156 224.039062 259.230469 223.871094 258.660156 223.757812 C 258.09375 223.644531 257.515625 223.585938 256.933594 223.585938 Z M 256.933594 223.585938 " fill-opacity="1" fill-rule="nonzero"/><path fill="#00afcc" d="M 256.933594 267.84375 L 97.613281 267.84375 C 97.035156 267.84375 96.457031 267.898438 95.886719 268.011719 C 95.316406 268.125 94.765625 268.292969 94.226562 268.515625 C 93.691406 268.738281 93.179688 269.011719 92.695312 269.335938 C 92.214844 269.65625 91.765625 270.023438 91.355469 270.4375 C 90.945312 270.847656 90.578125 271.292969 90.253906 271.777344 C 89.933594 272.261719 89.660156 272.769531 89.4375 273.308594 C 89.214844 273.84375 89.046875 274.398438 88.933594 274.96875 C 88.820312 275.539062 88.761719 276.113281 88.761719 276.695312 C 88.761719 277.277344 88.820312 277.851562 88.933594 278.421875 C 89.046875 278.992188 89.214844 279.542969 89.4375 280.082031 C 89.660156 280.617188 89.933594 281.128906 90.253906 281.613281 C 90.578125 282.09375 90.945312 282.542969 91.355469 282.953125 C 91.765625 283.363281 92.214844 283.730469 92.695312 284.054688 C 93.179688 284.375 93.691406 284.648438 94.226562 284.871094 C 94.765625 285.09375 95.316406 285.261719 95.886719 285.375 C 96.457031 285.488281 97.035156 285.546875 97.613281 285.546875 L 256.933594 285.546875 C 257.515625 285.546875 258.09375 285.488281 258.660156 285.375 C 259.230469 285.261719 259.785156 285.09375 260.324219 284.871094 C 260.859375 284.648438 261.371094 284.375 261.851562 284.054688 C 262.335938 283.730469 262.78125 283.363281 263.195312 282.953125 C 263.605469 282.542969 263.972656 282.09375 264.292969 281.613281 C 264.617188 281.128906 264.890625 280.617188 265.113281 280.082031 C 265.335938 279.542969 265.503906 278.992188 265.617188 278.421875 C 265.730469 277.851562 265.785156 277.277344 265.785156 276.695312 C 265.785156 276.113281 265.730469 275.539062 265.617188 274.96875 C 265.503906 274.398438 265.335938 273.84375 265.113281 273.308594 C 264.890625 272.769531 264.617188 272.261719 264.292969 271.777344 C 263.972656 271.292969 263.605469 270.847656 263.195312 270.4375 C 262.78125 270.023438 262.335938 269.65625 261.851562 269.335938 C 261.371094 269.011719 260.859375 268.738281 260.324219 268.515625 C 259.785156 268.292969 259.230469 268.125 258.660156 268.011719 C 258.09375 267.898438 257.515625 267.84375 256.933594 267.84375 Z M 256.933594 267.84375 " fill-opacity="1" fill-rule="nonzero"/></svg>