<svg xmlns="http://www.w3.org/2000/svg" width="248" height="100" viewBox="0 0 186 72.75"><defs><clipPath id="944f8aa12c"><path d="M17 35h38.406v37.5H17Zm0 0"/></clipPath><clipPath id="b6f2fc8d15"><path d="M68.406 10H123v22.195H68.406Zm0 0"/></clipPath><clipPath id="f555a30f11"><path d="M115 2.664h12.48V20H115Zm0 0"/></clipPath></defs><g clip-path="url(#944f8aa12c)"><path fill="#4b5563" d="M36.543 54.188q-3.84.002-6.57-2.727-2.73-2.725-2.73-6.559c0-2.55.91-4.738 2.73-6.554q2.73-2.728 6.57-2.727c2.559 0 4.746.906 6.566 2.727 1.825 1.816 2.735 4.004 2.735 6.554q.001 3.834-2.735 6.559-2.729 2.728-6.566 2.727m-18.602 13.93v-1.86q0-1.974 1.02-3.625a6.76 6.76 0 0 1 2.7-2.523q3.602-1.802 7.323-2.7 3.72-.897 7.559-.898a31.7 31.7 0 0 1 7.555.898q3.72.901 7.324 2.7a6.8 6.8 0 0 1 2.707 2.523 6.8 6.8 0 0 1 1.016 3.625v1.86q-.002 1.91-1.368 3.277-1.364 1.364-3.285 1.363H22.59q-1.916.001-3.281-1.363-1.367-1.36-1.368-3.278m0 0"/></g><path fill="#00afcc" d="M110.176 39.031c-.274.574.504 1.446 1.09 2.32.582.872.593.883 1.93 2.872-7.485.004-14.95-.262-22.434-.239-.77-.004-.766 0-1.008-.203-1.684-1.664-3.34-3.355-5.04-5.004-.632-.53-1.237-.52-2.257-.5-1.227.106-5.95-.609-4.43 1.996.516.735 1.278 1.25 1.868 1.918.605.602 1.203 1.207 1.816 1.801-.957.043-2.2-.137-2.996.024-.797.16-.922.539-.918 1.09.004.554.172 1.265.879 1.308.71.04 2.215.012 3.097.012-1.03 1.043-2.101 2.05-3.101 3.125-.473.496-1.117 1.46-.57 1.941.695.469 1.902.348 2.957.367 1.054.02 2.226.094 3.355-.03.82-.196 1.297-.985 1.902-1.509 1.22-1.21 2.426-2.437 3.649-3.644 7.441-.028 14.89.008 22.332-.028q.414.001.824-.015c-.953 1-1.95 1.96-2.914 2.949-.441.453-.64 1.254-.144 1.738.417.52 1.265.602 1.726.094a359 359 0 0 0 5.176-5.176c.484-.422-.36-1.82-1.906-4.195-1.211-1.766-3.004-5.508-4.883-3.012m-26.059 2.485s1.461 1.804 2.317 2.664c-.465-.02-.97.062-1.41-.024-1.047-.988-2.016-2.285-3.04-3.297.473.004 1.637.168 1.637.168Zm1.36 6.187c-.594.567-1.16 1.192-1.77 1.727-.46.027-.918.03-1.379.02.969-.942 1.914-1.915 2.875-2.864.465-.063.942-.035 1.41-.023Zm0 0"/><path fill="#00afcc" d="M84.656 55.375c.274.574-.508 1.45-1.09 2.32-.586.871-.597.883-1.933 2.871 7.484.004 14.953-.261 22.437-.238.766 0 .766 0 1.008-.2 1.684-1.663 3.34-3.358 5.035-5.007.637-.527 1.242-.52 2.262-.5 1.227.106 5.95-.605 4.43 2-.516.734-1.278 1.246-1.868 1.914-.605.602-1.203 1.211-1.82 1.8.957.044 2.2-.132 3 .024.797.16.922.54.918 1.094-.008.55-.176 1.266-.883 1.305-.707.043-2.21.015-3.097.012 1.035 1.042 2.105 2.05 3.105 3.125.473.5 1.117 1.464.57 1.94-.695.47-1.902.349-2.957.368-1.054.02-2.226.094-3.355-.027-.824-.2-1.297-.989-1.902-1.512-1.223-1.21-2.426-2.434-3.649-3.644-7.441-.028-14.89.007-22.336-.028-.273.004-.547-.004-.824-.015.953 1.003 1.953 1.96 2.918 2.953.438.453.64 1.25.14 1.738-.413.516-1.261.598-1.722.094a340 340 0 0 1-5.176-5.176c-.488-.426.36-1.824 1.906-4.2 1.207-1.761 3.004-5.503 4.883-3.011m26.059 2.488s-1.461 1.801-2.317 2.664c.465-.023.97.059 1.407-.027 1.05-.988 2.015-2.281 3.043-3.297-.477.004-1.637.168-1.637.168Zm-1.363 6.184c.597.57 1.16 1.195 1.773 1.73q.686.035 1.379.016c-.973-.941-1.914-1.91-2.875-2.863-.469-.063-.942-.035-1.41-.024Zm0 0"/><path fill="#4b5563" d="M167.324 58.832h-3.097v3.094h3.097m0-9.285h-3.097v3.093h3.097m3.102 9.286h-12.403v-3.094h3.102v-3.094h-3.102v-3.098h3.102v-3.093h-3.102v-3.094h12.403m-15.5-3.094h-3.102v-3.098h3.102m0 9.286h-3.102v-3.094h3.102m0 9.285h-3.102v-3.098h3.102m0 9.286h-3.102v-3.094h3.102m-6.203-15.473h-3.098v-3.098h3.098m0 9.286h-3.098v-3.094h3.098m0 9.285h-3.098v-3.098h3.098m0 9.286h-3.098v-3.094h3.098m9.3-15.473v-6.191h-15.5v27.855h31.004V46.453Zm0 0"/><g clip-path="url(#b6f2fc8d15)"><path fill="#00accc" d="M120.648 19.883a2.5 2.5 0 0 1-1.96.934q-.586 0-1.079-.25a2.49 2.49 0 0 1-1.387-2.7l.692-3.73h-.156a2.49 2.49 0 0 1-2.125-1.176c-.445-.645-.52-1.57-.16-2.356l.27-.601H71.718a3.31 3.31 0 0 0-3.313 3.305v9.824a3.32 3.32 0 0 0 3.313 3.309h11.636l-.265 4.78c0 .337.203.637.52.77a.8.8 0 0 0 .316.066c.219 0 .437-.09.594-.25l2.523-5.367h32.18a3.31 3.31 0 0 0 3.313-3.309v-5.597l-1.891 2.348Zm0 0"/></g><g clip-path="url(#f555a30f11)"><path fill="#00accc" d="M127.398 8.191a.83.83 0 0 0-.754-.465h-2.308l1.488-3.933a.84.84 0 0 0-.098-.77.83.83 0 0 0-.688-.36l-4.573.001a.83.83 0 0 0-.762.492l-3.707 8.27a.81.81 0 0 0 .059.793.83.83 0 0 0 .703.383h2.168l-1.055 5.695a.834.834 0 0 0 .477.91c.109.059.222.078.343.078.25 0 .493-.11.653-.312l7.953-9.895a.83.83 0 0 0 .102-.887m0 0"/></g><path fill="#fff" d="M73.508 22.746h7.957v.887h-7.957Zm-.945-7.004h8.812v.875h-8.813Zm.488 1.86h.926v6.527h-.926Zm2.8 1.71V20h3.5v-.688Zm0 1.336v.688h3.5v-.688Zm0-2.648v.668h3.5V18Zm-.898-.684h5.332v4.704h-5.332Zm1.656-2.48 1.098.05q-.052.5-.133 1.016c-.05.336-.105.664-.156.973q-.084.47-.16.828l-.926-.082q.06-.376.117-.863.06-.486.102-.996.046-.504.058-.926m11.344.031h.953v1.352h-.953Zm-2.305 1.016h5.602v.805h-5.602Zm-.359 2.308h6.23v.805h-6.23Zm1.285-1.433.809-.16c.066.168.129.343.191.539q.09.276.149.547.058.258.07.464l-.848.2a3 3 0 0 0-.07-.484 8 8 0 0 0-.129-.57 4 4 0 0 0-.172-.535m2.89-.168.919.11q-.149.425-.32.863-.158.436-.297.757l-.809-.12q.093-.228.191-.509.099-.286.18-.574.09-.299.137-.527m-4.112 3.273h6.136v.805h-6.136Zm2.191-1.066.937.18c-.175.382-.363.793-.57 1.222q-.3.638-.605 1.235-.3.597-.559 1.066l-.816-.281q.246-.444.535-1.035.291-.585.57-1.211.29-.638.508-1.176m-1.027 3.351.558-.625c.364.106.742.23 1.137.38q.596.205 1.176.464.577.264 1.086.528.51.262.867.507l-.598.72a8 8 0 0 0-.828-.527q-.487-.27-1.066-.529c-.383-.18-.778-.347-1.176-.507q-.599-.24-1.156-.41m2.949-1.73.91.11q-.194.856-.55 1.472a3.3 3.3 0 0 1-.945 1.027c-.388.278-.864.504-1.439.676q-.844.26-2.011.418a1.6 1.6 0 0 0-.148-.418 1.7 1.7 0 0 0-.21-.36 11.6 11.6 0 0 0 1.816-.297q.763-.199 1.272-.538.517-.346.828-.856a4 4 0 0 0 .477-1.234m-7.293-.336q.616-.142 1.484-.371c.578-.156 1.16-.32 1.742-.484l.122.843c-.543.16-1.094.32-1.645.489q-.816.239-1.496.437Zm.187-3.254h3.059v.875h-3.059Zm1.278-1.941h.894v8.129c0 .246-.023.437-.078.578a.6.6 0 0 1-.3.328 1.4 1.4 0 0 1-.555.148c-.223.028-.5.035-.84.032a3 3 0 0 0-.098-.45 3 3 0 0 0-.172-.457q.321.01.59.008h.367q.1 0 .14-.039.053-.048.052-.148Zm8.86 5.789h8.8v.808h-8.8Zm.058-5.063h3.996v.727h-3.996Zm4.226-.308h3.887v.804h-3.887Zm-4.086 1.832h3.727v.726h-3.727Zm4.766 3.89a2.96 2.96 0 0 0 1.434 1.559q1.007.52 2.671.648a1.4 1.4 0 0 0-.219.258 8 8 0 0 0-.21.32q-.09.17-.149.31-1.194-.152-2.054-.5a3.95 3.95 0 0 1-1.426-.945q-.57-.606-.926-1.52Zm2.879-5.722h.887v.23q-.001.09-.008.149a52 52 0 0 1-.113 1.988q-.049.757-.137 1.156-.082.398-.211.555a.7.7 0 0 1-.29.238 1.2 1.2 0 0 1-.36.102 8 8 0 0 1-.477.031q-.297 0-.627-.012a2 2 0 0 0-.078-.438 1.3 1.3 0 0 0-.172-.406q.3.029.55.04h.356a.8.8 0 0 0 .191-.02.35.35 0 0 0 .129-.102q.09-.11.149-.457c.043-.23.078-.582.11-1.043q.05-.709.1-1.851Zm-7.965 3.75a81.182 81.182 0 0 0 2.672-.309 103 103 0 0 1 1.535-.188l.031.735c-.746.11-1.484.21-2.222.309q-1.094.139-1.926.25Zm5.742-3.461h.88a11.3 11.3 0 0 1-.21 1.832 3.95 3.95 0 0 1-.566 1.43q-.414.607-1.229 1.027a1.7 1.7 0 0 0-.23-.348 1.6 1.6 0 0 0-.309-.32q.697-.345 1.035-.856c.235-.34.39-.738.469-1.203q.121-.696.16-1.562m-3.957-.715h.88v4.168l-.88.11Zm2.172 5.133h.969v.883c0 .242-.035.484-.102.738q-.098.376-.367.746-.259.359-.758.687c-.332.22-.77.418-1.304.598q-.8.277-1.973.465a6 6 0 0 0-.25-.406 4 4 0 0 0-.3-.387q1.077-.163 1.804-.379a6.3 6.3 0 0 0 1.188-.48q.457-.258.687-.528.24-.276.316-.547c.063-.183.09-.359.09-.527Zm10.555-.766.758-.379a10 10 0 0 1 1.027 1.55q.216.399.34.72l-.828.437a4.2 4.2 0 0 0-.309-.719q-.21-.406-.469-.824a8 8 0 0 0-.52-.785m.172-2.617h3.707v.883h-3.707Zm3.308 0h.906v.457q-.059 1.664-.128 2.824-.06 1.154-.141 1.91-.082.749-.188 1.176-.11.416-.261.606a1 1 0 0 1-.398.34 1.9 1.9 0 0 1-.496.129q-.253.03-.68.03-.43 0-.876-.019a2 2 0 0 0-.102-.48 1.7 1.7 0 0 0-.21-.465 24.474 24.474 0 0 0 1.508.059 1 1 0 0 0 .25-.031.44.44 0 0 0 .176-.137c.09-.09.16-.266.222-.528a8 8 0 0 0 .168-1.125c.055-.492.098-1.11.14-1.852q.059-1.125.11-2.695Zm-3.07-1.762.965.219c-.133.476-.297.953-.496 1.422a12 12 0 0 1-.648 1.305 8 8 0 0 1-.727 1.063 4.6 4.6 0 0 0-.57-.395 3 3 0 0 0-.27-.172q.391-.416.719-.965.327-.546.59-1.184.256-.637.437-1.293m-3.547.012.836.305-.418.777q-.211.398-.43.766-.21.368-.41.636l-.637-.265q.19-.3.38-.688c.132-.258.257-.523.378-.785q.18-.41.301-.746m1.195 1.152.817.34q-.36.564-.79 1.192-.416.616-.855 1.203-.428.579-.816.996l-.59-.297q.292-.34.598-.758.31-.427.609-.895.3-.468.559-.925.27-.457.468-.856m-2.75 1.055.457-.637q.271.228.547.508.292.277.52.547.239.269.367.496l-.488.727a3.3 3.3 0 0 0-.36-.527 8 8 0 0 0-.508-.578 9 9 0 0 0-.535-.535m2.47 1.293.679-.29c.14.216.273.446.398.7q.2.364.348.723.15.362.219.636l-.727.34a5 5 0 0 0-.219-.637 10 10 0 0 0-.328-.758 9 9 0 0 0-.371-.715m-2.493.914q.689-.017 1.637-.059c.636-.027 1.289-.05 1.953-.078l-.012.754c-.621.043-1.242.082-1.852.121q-.919.061-1.644.098Zm2.703 1.516.707-.23q.21.456.398.995.188.527.27.914l-.758.258a7 7 0 0 0-.25-.934 10 10 0 0 0-.367-1.004m-2.203-.172.797.14a10.5 10.5 0 0 1-.27 1.39q-.17.691-.398 1.169a3 3 0 0 0-.207-.121 2 2 0 0 0-.281-.129 1.5 1.5 0 0 0-.238-.102q.238-.456.378-1.082.148-.627.219-1.265m1.156-.946h.836v4.438h-.836Zm0 0"/></svg>