<svg xmlns="http://www.w3.org/2000/svg" width="248" height="100" viewBox="0 0 186 72.75"><defs><clipPath id="47e2c5c639"><path d="M79.86 13H143v26.324H79.86Zm0 0"/></clipPath><clipPath id="e665c4b4bf"><path d="M134 5.262h13.906V25H134Zm0 0"/></clipPath></defs><path fill="#4b5563" d="M25.625 47.48q-4.417 0-7.563-3.148-3.15-3.146-3.148-7.562-.002-4.417 3.149-7.563 3.145-3.148 7.562-3.148c2.95 0 5.469 1.05 7.566 3.148q3.148 3.145 3.149 7.563 0 4.416-3.149 7.562-3.144 3.148-7.566 3.148M4.199 63.543v-2.14c0-1.52.395-2.91 1.176-4.184q1.173-1.907 3.11-2.91a39.7 39.7 0 0 1 8.438-3.113 37 37 0 0 1 8.703-1.04c2.948 0 5.847.344 8.706 1.04a40 40 0 0 1 8.434 3.113 7.8 7.8 0 0 1 3.117 2.91 7.8 7.8 0 0 1 1.168 4.184v2.14q0 2.209-1.57 3.785c-1.047 1.047-2.31 1.574-3.786 1.57H9.56q-2.21 0-3.782-1.57-1.574-1.57-1.578-3.785m0 0"/><path fill="#00afcc" d="M110.441 40.535c-.316.664.582 1.672 1.254 2.676.672 1.008.688 1.023 2.223 3.312-8.621.008-17.223-.3-25.84-.273-.883 0-.883 0-1.16-.23-1.938-1.922-3.848-3.875-5.8-5.778-.731-.61-1.434-.597-2.606-.574-1.414.121-6.852-.703-5.102 2.305.594.847 1.469 1.437 2.153 2.21.695.692 1.386 1.395 2.093 2.079-1.101.047-2.535-.157-3.453.027-.918.18-1.062.621-1.058 1.258.007.637.199 1.46 1.015 1.508.817.047 2.547.015 3.567.011-1.192 1.204-2.422 2.368-3.575 3.606-.547.574-1.285 1.687-.656 2.238.8.543 2.192.403 3.406.426 1.215.02 2.563.105 3.864-.035.949-.227 1.496-1.137 2.191-1.742 1.406-1.395 2.797-2.809 4.203-4.204 8.57-.03 17.149.008 25.723-.03q.475.001.949-.02c-1.094 1.156-2.242 2.265-3.355 3.406-.508.52-.739 1.441-.165 2.004.477.597 1.454.691 1.989.11a430 430 0 0 0 5.96-5.973c.56-.489-.417-2.098-2.195-4.84-1.394-2.035-3.46-6.352-5.625-3.477m-30.02 2.871s1.684 2.078 2.673 3.074c-.535-.027-1.117.067-1.625-.03-1.207-1.141-2.32-2.634-3.5-3.805.547.003 1.886.195 1.886.195Zm1.571 7.133c-.683.656-1.336 1.379-2.039 1.996-.531.031-1.062.031-1.59.02 1.117-1.086 2.203-2.207 3.313-3.301.539-.074 1.082-.043 1.625-.027Zm0 0"/><path fill="#4b5563" d="M176.266 52.832h-3.57v3.57h3.57m0-10.707h-3.57v3.57h3.57m3.574 10.708h-14.285v-3.57h3.57v-3.571h-3.57v-3.566h3.57v-3.57h-3.57v-3.571h14.285m-17.856-3.57h-3.57v-3.57h3.57m0 10.71h-3.57v-3.57h3.57m0 10.707h-3.57v-3.566h3.57m0 10.707h-3.57v-3.57h3.57m-7.144-17.848h-3.57v-3.57h3.57m0 10.71h-3.57v-3.57h3.57m0 10.707h-3.57v-3.566h3.57m0 10.707h-3.57v-3.57h3.57m10.715-17.848v-7.14h-17.856v32.128h35.711V38.555Zm0 0"/><g clip-path="url(#47e2c5c639)"><path fill="#00accc" d="M140.031 25.121a2.86 2.86 0 0 1-2.254 1.078q-.68.002-1.242-.289a2.876 2.876 0 0 1-1.602-3.11l.801-4.304h-.183a2.87 2.87 0 0 1-2.445-1.36c-.512-.741-.602-1.812-.184-2.714l.308-.695H83.676a3.816 3.816 0 0 0-3.816 3.813V28.87a3.824 3.824 0 0 0 3.816 3.816h13.402l-.305 5.516c0 .387.23.734.598.887.117.05.242.078.367.078.25 0 .5-.105.684-.29l2.906-6.19h37.067a3.816 3.816 0 0 0 3.813-3.816l-.001-6.458Zm0 0"/></g><g clip-path="url(#e665c4b4bf)"><path fill="#00accc" d="M147.809 11.637a.96.96 0 0 0-.867-.54h-2.66l1.714-4.534a.98.98 0 0 0-.113-.887.95.95 0 0 0-.793-.414h-5.27a.96.96 0 0 0-.875.566l-4.27 9.535a.95.95 0 0 0 .066.918.96.96 0 0 0 .809.441h2.497l-1.215 6.571a.97.97 0 0 0 .55 1.05.8.8 0 0 0 .395.086c.29 0 .57-.124.754-.355l9.16-11.414a.96.96 0 0 0 .117-1.023m0 0"/></g><path fill="#fff" d="M101.219 22.242h1.066v4.27q0 .298.094.39c.058.055.183.078.375.078h1.266q.203.002.308-.136.103-.146.149-.563.045-.41.07-1.238c.074.066.172.133.285.195.117.055.234.102.36.149q.18.072.32.113-.06.954-.196 1.492-.139.541-.425.746c-.184.149-.446.219-.793.219h-1.505q-.549-.001-.847-.137a.74.74 0 0 1-.414-.45c-.078-.206-.113-.491-.113-.858Zm-1.61.942.989.218q-.072.64-.196 1.332c-.078.457-.175.895-.297 1.305a4.8 4.8 0 0 1-.473 1.094l-.952-.438q.262-.447.449-1.023.192-.581.308-1.227c.079-.43.133-.847.172-1.261m1.735-2.262.734-.711q.46.216.977.516.514.286.988.597c.312.2.574.39.777.574l-.789.805a6 6 0 0 0-.734-.586q-.45-.322-.965-.633a11 11 0 0 0-.988-.563m3.594 2.375.976-.379q.364.585.7 1.266.345.675.585 1.328.24.645.344 1.172l-1.066.437a7 7 0 0 0-.313-1.172 14 14 0 0 0-.55-1.355 12 12 0 0 0-.676-1.297m-3.079-5.774h1.125v2.024h-1.125Zm-3.671 1.426h9.101v1.031h-9.102Zm-.516 0h1.09v2.938q0 .676-.047 1.492-.048.815-.172 1.664a11.4 11.4 0 0 1-.355 1.664 6.6 6.6 0 0 1-.61 1.469 2.3 2.3 0 0 0-.266-.219 6 6 0 0 0-.355-.242 6 6 0 0 0-.309-.16c.239-.41.426-.86.563-1.34q.207-.726.297-1.48.105-.773.129-1.493c.023-.492.035-.941.035-1.355Zm17.621 6.356h6.039v.793h-6.039Zm-1.7-1.79h10.255v.86h-10.254Zm3.505-.804 1.066.164q-.527 1.078-1.55 1.96-1.02.873-2.696 1.47a2 2 0 0 0-.16-.273 3 3 0 0 0-.23-.29 2 2 0 0 0-.23-.219q1.043-.32 1.8-.757a5.6 5.6 0 0 0 1.254-.973q.49-.53.746-1.082m3.832 1.07q.334.388.851.735.528.34 1.149.617.628.265 1.261.426c-.078.07-.16.156-.254.265q-.124.148-.25.309a4 4 0 0 0-.195.285 8 8 0 0 1-1.297-.563 8.3 8.3 0 0 1-1.184-.8q-.54-.45-.917-.953Zm.011 1.524h1.047l-.011.152c0 .09-.008.172-.024.238-.062.645-.133 1.125-.207 1.45q-.117.48-.308.675a.85.85 0 0 1-.336.207c-.122.04-.262.063-.422.078q-.223.012-.586.012-.37 0-.793-.012a1.7 1.7 0 0 0-.094-.445 1.8 1.8 0 0 0-.172-.426q.38.048.703.047.33.012.48.012.252 0 .368-.094c.086-.074.152-.246.207-.515q.08-.403.148-1.25Zm-3.02-.735h1.048a5.7 5.7 0 0 1-.313 1.309 3.1 3.1 0 0 1-.652 1.035q-.427.447-1.137.77-.712.328-1.8.55a2.3 2.3 0 0 0-.23-.45q-.163-.238-.314-.39c.668-.105 1.207-.246 1.622-.414q.629-.253.988-.593.363-.346.539-.793c.113-.305.195-.649.25-1.024m-4.175-6.343h9.942v.87h-9.942Zm2.512-.704h1.058v2.079h-1.058Zm3.824 0h1.066v2.079h-1.066Zm-4.144 4.157v.62h5.578v-.62Zm0-1.239v.594h5.578v-.594Zm-1.047-.668h7.714v3.192h-7.714Zm0 0"/></svg>