<svg xmlns="http://www.w3.org/2000/svg" width="248" height="100" viewBox="0 0 186 72.75"><defs><clipPath id="ee67787809"><path d="M64.875 13H122v23.684H64.875Zm0 0"/></clipPath><clipPath id="cbe8300f58"><path d="M114 5.945h12.363V24H114Zm0 0"/></clipPath></defs><path fill="#4b5563" d="M32.406 52.402h-3.21v3.203h3.21m0-9.617h-3.21v3.207h3.21m3.211 9.618H22.773v-3.208h3.211v-3.203h-3.21v-3.207h3.21v-3.207h-3.21v-3.203h12.843m-16.054-3.207h-3.211v-3.203h3.21m0 9.613h-3.21v-3.203h3.21m0 9.617h-3.21v-3.207h3.21m0 9.618h-3.21v-3.208h3.21m-6.421-16.027H9.93v-3.203h3.21m0 9.613H9.93v-3.203h3.21m0 9.617H9.93v-3.207h3.21m0 9.618H9.93v-3.208h3.21m9.633-16.027v-6.41H6.72v28.848h32.11V39.578Zm0 0"/><path fill="#00afcc" d="M98.762 41.36c-.282.593.523 1.5 1.129 2.402s.617.918 2 2.972c-7.75.008-15.485-.27-23.235-.246-.797 0-.797 0-1.047-.207-1.742-1.722-3.457-3.476-5.214-5.183-.657-.551-1.286-.54-2.344-.52-1.27.11-6.16-.629-4.586 2.07.535.758 1.324 1.293 1.933 1.985.63.625 1.25 1.25 1.883 1.867-.988.043-2.277-.14-3.101.023-.828.164-.957.559-.953 1.13.007.574.18 1.312.914 1.355.73.039 2.289.012 3.207.012-1.07 1.078-2.18 2.125-3.215 3.234-.492.52-1.156 1.516-.59 2.012.719.484 1.969.359 3.062.379 1.094.02 2.305.097 3.473-.028.856-.207 1.344-1.023 1.973-1.566 1.265-1.254 2.511-2.524 3.777-3.774 7.707-.027 15.422.008 23.133-.027.285 0 .566-.004.852-.016-.985 1.036-2.02 2.032-3.02 3.055-.453.469-.66 1.297-.148 1.8.433.536 1.308.622 1.789.099a347 347 0 0 0 5.36-5.363c.503-.438-.372-1.884-1.974-4.345-1.254-1.828-3.11-5.703-5.058-3.12m-26.989 2.574s1.512 1.867 2.399 2.761c-.48-.023-1.004.063-1.461-.027-1.082-1.023-2.086-2.367-3.148-3.414.492.004 1.699.172 1.699.172Zm1.41 6.406c-.617.59-1.203 1.238-1.835 1.793-.477.027-.953.031-1.43.02 1.008-.977 1.984-1.981 2.98-2.97.485-.062.973-.035 1.461-.023Zm0 0"/><path fill="#4b5563" d="M158.914 47.594q-3.971 0-6.8-2.824-2.832-2.829-2.833-6.793.001-3.968 2.832-6.793t6.801-2.825q3.976 0 6.805 2.825 2.829 2.824 2.828 6.793 0 3.964-2.828 6.793-2.829 2.823-6.805 2.824m-19.266 14.422v-1.922q0-2.045 1.055-3.754a7.05 7.05 0 0 1 2.8-2.617 35.8 35.8 0 0 1 7.586-2.793 33.4 33.4 0 0 1 7.824-.934c2.653 0 5.259.309 7.83.934a36.2 36.2 0 0 1 7.586 2.793 7 7 0 0 1 2.8 2.617 7 7 0 0 1 1.05 3.754v1.922c0 1.324-.468 2.457-1.413 3.398-.942.941-2.075 1.414-3.403 1.41h-28.898q-1.986 0-3.399-1.41-1.412-1.412-1.418-3.398m0 0"/><g clip-path="url(#ee67787809)"><path fill="#00accc" d="M119.25 23.867a2.59 2.59 0 0 1-2.04.973 2.4 2.4 0 0 1-1.125-.262 2.6 2.6 0 0 1-1.445-2.805l.723-3.886h-.164c-.906 0-1.734-.461-2.21-1.227-.462-.668-.54-1.633-.165-2.45l.278-.624H68.32a3.44 3.44 0 0 0-3.445 3.441V27.25a3.45 3.45 0 0 0 3.445 3.441h12.114l-.274 4.98c0 .349.207.661.54.802.1.043.218.07.327.07a.9.9 0 0 0 .621-.262l2.625-5.59h33.497a3.445 3.445 0 0 0 3.445-3.441v-5.824l-1.969 2.441Zm0 0"/></g><g clip-path="url(#cbe8300f58)"><path fill="#00accc" d="M126.273 11.7a.86.86 0 0 0-.781-.484l-2.402-.001 1.55-4.094a.88.88 0 0 0-.105-.8.86.86 0 0 0-.715-.375h-4.761c-.34 0-.657.199-.793.511l-3.86 8.606a.86.86 0 0 0 .063.828c.156.25.437.398.73.398h2.258l-1.098 5.93c-.07.39.13.781.496.945a.7.7 0 0 0 .355.078.87.87 0 0 0 .68-.32l8.282-10.3a.87.87 0 0 0 .102-.922m0 0"/></g><path fill="#fff" d="M78.516 19.164a1.5 1.5 0 0 0-.156.238q-.094.165-.145.301c-.145.332-.328.7-.54 1.11q-.311.609-.718 1.218-.394.604-.828 1.102c-.379.433-.805.86-1.266 1.273q-.685.621-1.453 1.149a12 12 0 0 1-1.586.902l-.84-.883a10 10 0 0 0 1.617-.816q.787-.486 1.462-1.067.68-.579 1.183-1.152c.234-.262.465-.55.684-.867q.335-.486.593-.977.259-.486.372-.89H73.09q-.199 0-.438.023a7 7 0 0 0-.426.031q-.18.007-.269.008V18.7q.106.01.313.031c.136.008.285.016.437.032q.223.007.383.008h3.847a3.7 3.7 0 0 0 .902-.102Zm-2.254 3.285q.416.339.875.766c.3.281.601.574.89.879q.435.444.809.86c.254.276.473.523.644.733l-.914.81q-.383-.518-.882-1.087a26 26 0 0 0-1.059-1.14 20 20 0 0 0-1.117-1.078Zm9.547-4.527-.032.433q-.01.251-.023.438-.05 1.57-.277 2.766a9.3 9.3 0 0 1-.645 2.09 6.3 6.3 0 0 1-1.016 1.594 8 8 0 0 1-1.41 1.254l-.957-.778a5 5 0 0 0 .602-.371q.323-.229.594-.496.496-.468.87-1.047c.247-.387.458-.82.622-1.297.172-.48.304-1.028.394-1.633q.136-.926.137-2.063 0-.11-.012-.28-.001-.165-.02-.329-.021-.17-.042-.281Zm3.578 2.176q-.022.136-.043.277-.02.146-.031.25-.007.311-.032.816-.017.51-.07 1.11-.04.602-.117 1.191c-.047.395-.102.758-.164 1.098a3.4 3.4 0 0 1-.238.809 1.08 1.08 0 0 1-.445.527q-.283.176-.759.176-.413-.001-.863-.02c-.29-.016-.566-.031-.828-.055l-.125-1.086q.407.054.789.094.393.03.715.031a.8.8 0 0 0 .375-.074.6.6 0 0 0 .219-.277 3 3 0 0 0 .184-.602c.058-.261.1-.55.136-.86.043-.316.07-.64.094-.972q.04-.509.05-.953.022-.457.02-.797h-5.29q-.291.001-.632.008-.334.013-.633.031v-1.074q.3.02.633.04.334.02.633.019h4.98q.207.002.383-.008.175-.023.332-.05Zm7.168-2.332c-.02.187-.04.347-.051.476a6 6 0 0 0-.012.383v1.43h-1.12v-1.43q-.001-.195-.009-.383a5 5 0 0 0-.063-.477Zm3.527 2.093q-.052.135-.105.352a3 3 0 0 0-.07.352 11 11 0 0 1-.355 1.492q-.125.392-.29.785a8 8 0 0 1-.352.758q-.405.713-1.02 1.304a6.3 6.3 0 0 1-1.41 1.023 8.4 8.4 0 0 1-1.73.684l-.852-.984c.2-.031.41-.082.633-.145q.333-.092.614-.195.473-.165.964-.445c.325-.188.63-.406.91-.664q.429-.383.739-.836.27-.416.457-.902a8 8 0 0 0 .496-1.957h-5.52v1.699a6 6 0 0 0 .043.684h-1.129q.019-.17.032-.376.007-.205.008-.37v-1.813q-.001-.17-.008-.414a8 8 0 0 0-.031-.426q.235.02.476.043.246.007.527.008h5.477q.314.002.488-.032.176-.03.293-.07Zm4.492 5.32v-5.984q0-.247-.023-.57a4 4 0 0 0-.07-.59h1.273q-.017.25-.05.57-.02.321-.02.59v5.985q0 .168.011.406c.004.156.016.32.032.484.011.16.027.305.039.438h-1.278q.046-.27.063-.645.023-.38.023-.683m.871-4.44q.51.145 1.14.363.635.205 1.278.457c.426.156.836.316 1.223.472q.58.24.984.438l-.465 1.129q-.438-.24-.988-.477a24.874 24.874 0 0 0-2.219-.89q-.528-.188-.953-.32Zm0 0"/></svg>