<?xml version="1.0" standalone="no"?><!DOCTYPE svg><svg xmlns="http://www.w3.org/2000/svg" width="124" height="124" viewBox="0 0 124 124" fill="none">
<rect x="1.675" y="1.60859" width="120.65" height="120.65" rx="60.325" stroke="#00AFCC" stroke-width="2.85"/>
<path d="M41.9167 94.2572H35.1567V30.2572H67.3901C67.9878 30.258 68.5816 30.3525 69.1501 30.5372C69.3767 44.6038 66.8501 42.0105 80.8701 42.2505C81.5367 42.1505 80.9901 65.5838 81.1567 66.2505C81.1567 66.5157 81.2621 66.7701 81.4496 66.9576C81.6372 67.1452 81.8915 67.2505 82.1567 67.2505C82.422 67.2505 82.6763 67.1452 82.8639 66.9576C83.0514 66.7701 83.1567 66.5157 83.1567 66.2505V44.0172C83.1518 41.985 82.3443 40.037 80.9101 38.5972L72.8167 30.5172C71.3757 29.0807 69.4248 28.273 67.3901 28.2705H34.1567C33.8915 28.2705 33.6372 28.3759 33.4496 28.5634C33.2621 28.7509 33.1567 29.0053 33.1567 29.2705V95.2705C33.1567 95.5357 33.2621 95.7901 33.4496 95.9776C33.6372 96.1652 33.8915 96.2705 34.1567 96.2705H41.9167C42.1837 96.2705 42.4398 96.1645 42.6286 95.9757C42.8173 95.7869 42.9234 95.5308 42.9234 95.2638C42.9234 94.9969 42.8173 94.7408 42.6286 94.552C42.4398 94.3632 42.1837 94.2572 41.9167 94.2572ZM79.4967 40.0105L79.7167 40.2505H71.4834C71.395 40.2505 71.3102 40.2154 71.2477 40.1529C71.1852 40.0904 71.1501 40.0056 71.1501 39.9172V31.6905C71.237 31.7608 71.3194 31.8365 71.3967 31.9172L79.4967 40.0105Z" fill="#00AFCC" stroke="#00AFCC" stroke-width="0.3"/>
<path d="M62.1567 35.2571C62.1567 34.9919 62.0514 34.7375 61.8638 34.55C61.6763 34.3624 61.422 34.2571 61.1567 34.2571H40.1567C39.8915 34.2571 39.6372 34.3624 39.4496 34.55C39.2621 34.7375 39.1567 34.9919 39.1567 35.2571C39.1567 35.5223 39.2621 35.7767 39.4496 35.9642C39.6372 36.1517 39.8915 36.2571 40.1567 36.2571H61.1567C61.422 36.2571 61.6763 36.1517 61.8638 35.9642C62.0514 35.7767 62.1567 35.5223 62.1567 35.2571Z" fill="#00AFCC" stroke="#00AFCC" stroke-width="0.3"/>
<path d="M40.1567 42.2504H46.7701C47.0353 42.2504 47.2896 42.1451 47.4772 41.9575C47.6647 41.77 47.7701 41.5156 47.7701 41.2504C47.7701 40.9852 47.6647 40.7309 47.4772 40.5433C47.2896 40.3558 47.0353 40.2504 46.7701 40.2504H40.1567C39.8915 40.2504 39.6372 40.3558 39.4496 40.5433C39.2621 40.7309 39.1567 40.9852 39.1567 41.2504C39.1567 41.5156 39.2621 41.77 39.4496 41.9575C39.6372 42.1451 39.8915 42.2504 40.1567 42.2504Z" fill="#00AFCC" stroke="#00AFCC" stroke-width="0.3"/>
<path d="M50.8301 40.2504C50.5649 40.2504 50.3105 40.3557 50.123 40.5433C49.9354 40.7308 49.8301 40.9852 49.8301 41.2504C49.8301 41.5156 49.9354 41.77 50.123 41.9575C50.3105 42.145 50.5649 42.2504 50.8301 42.2504C51.6501 42.2504 52.8701 42.4104 52.8967 41.2504C52.9234 40.0904 51.6501 40.2437 50.8301 40.2504Z" fill="#00AFCC" stroke="#00AFCC" stroke-width="0.3"/>
<path d="M76.1569 60.2571C76.4222 60.2571 76.6765 60.1517 76.864 59.9642C77.0516 59.7767 77.1569 59.5223 77.1569 59.2571V53.2571C77.1542 53.1265 77.1271 52.9976 77.0769 52.8771C77.0027 52.6939 76.8755 52.5371 76.7116 52.4267C76.5477 52.3162 76.3546 52.2572 76.1569 52.2571H70.1569C69.8917 52.2571 69.6374 52.3624 69.4498 52.55C69.2623 52.7375 69.1569 52.9919 69.1569 53.2571C69.1569 53.5223 69.2623 53.7767 69.4498 53.9642C69.6374 54.1517 69.8917 54.2571 70.1569 54.2571H73.7436L66.7436 61.2571H52.1569C51.8918 61.2573 51.6376 61.3628 51.4503 61.5504L39.4503 73.5504C39.3567 73.6428 39.2825 73.7528 39.2318 73.8741C39.1811 73.9955 39.155 74.1256 39.155 74.2571C39.155 74.3885 39.1811 74.5187 39.2318 74.64C39.2825 74.7613 39.3567 74.8714 39.4503 74.9637C39.6386 75.1494 39.8925 75.2535 40.1569 75.2535C40.4214 75.2535 40.6753 75.1494 40.8636 74.9637L52.5836 63.2571H67.1569C67.4218 63.2554 67.6754 63.1501 67.8636 62.9637L75.1569 55.6704V59.2571C75.1569 59.5223 75.2623 59.7767 75.4498 59.9642C75.6374 60.1517 75.8917 60.2571 76.1569 60.2571Z" fill="#00AFCC" stroke="#00AFCC" stroke-width="0.3"/>
<path d="M65.5635 75.2171C61.7235 74.0571 45.2368 73.2171 44.5168 78.2704V88.8637V94.1971C44.9435 97.8437 53.2702 98.0237 57.1168 98.1437C60.9568 98.0304 69.2835 97.8371 69.7102 94.1971C69.7102 91.5304 69.7102 86.2437 69.7102 83.6037V78.2704C69.6102 76.7971 68.3235 75.9571 65.5635 75.2171ZM67.7102 85.8837V88.8037C65.6235 91.4104 48.5502 91.3904 46.5168 88.8037V85.8971C52.5168 88.1304 61.7102 88.1304 67.7102 85.8971V85.8837ZM67.7102 80.5837V83.5104C64.6635 86.1771 49.5835 86.1771 46.5168 83.5104V80.5971C52.5168 82.8371 61.7102 82.8371 67.7102 80.5971V80.5837ZM57.1168 76.3237C63.3168 76.3237 67.1168 77.5304 67.6768 78.2704C64.3435 80.8904 49.9368 80.8971 46.5568 78.2704C47.1168 77.5304 50.9102 76.3237 57.1168 76.3237ZM67.7102 94.1171C65.6302 96.7237 48.5502 96.7037 46.5168 94.1171V91.1837C52.5168 93.4237 61.7102 93.4237 67.7102 91.1837V94.1171Z" fill="#00AFCC" stroke="#00AFCC" stroke-width="0.3"/>
<path d="M97.3167 72.7438C95.9834 67.9638 80.3167 68.7438 76.3034 69.9238C73.5434 70.6638 72.2634 71.5038 72.1567 72.9771V78.2704V88.8638V94.1971C72.1567 95.5304 73.4901 96.5371 76.3034 97.2504C80.1301 98.4104 96.6767 99.2504 97.3434 94.1971C97.3167 87.4371 97.4034 79.4571 97.3167 72.7438ZM84.7501 71.0304C90.9501 71.0304 94.7501 72.2371 95.3101 72.9704C91.9767 75.5971 77.5701 75.6038 74.1901 72.9704C74.7501 72.2371 78.5834 71.0304 84.7501 71.0304ZM95.3434 94.1171C93.2634 96.7238 76.1901 96.7038 74.1567 94.1171V91.1838C80.1567 93.4238 89.3767 93.4238 95.3434 91.1838V94.1171ZM95.3434 88.7838C92.2501 91.4504 77.2567 91.4504 74.1567 88.7838V85.8971C80.1567 88.1371 89.3434 88.1371 95.3434 85.8971V88.7838ZM95.3434 83.4904C93.2634 86.0971 76.1834 86.0771 74.1567 83.4904V80.5971C80.1567 82.8371 89.3434 82.8371 95.3434 80.5971V83.4904ZM95.3434 78.1571C92.2767 80.8238 77.2434 80.8238 74.1567 78.1571V75.3038C80.1567 77.5438 89.3434 77.5438 95.3434 75.3038V78.1571Z" fill="#00AFCC" stroke="#00AFCC" stroke-width="0.3"/>
</svg>