<svg xmlns="http://www.w3.org/2000/svg" width="124" height="124" fill="none" viewBox="0 0 124 124"><rect width="120.65" height="120.65" x="1.675" y="1.609" stroke="#00afcc" stroke-width="2.85" rx="60.325"/><path fill="#00afcc" stroke="#00afcc" stroke-width=".3" d="M41.917 94.257h-6.76v-64H67.39a5.7 5.7 0 0 1 1.76.28c.227 14.067-2.3 11.474 11.72 11.714.667-.1.12 23.333.287 24a1 1 0 0 0 2 0V44.018a7.7 7.7 0 0 0-2.247-5.42l-8.093-8.08a7.7 7.7 0 0 0-5.427-2.247H34.157a1 1 0 0 0-1 1v66a1 1 0 0 0 1 1h7.76a1.007 1.007 0 1 0 0-2.013Zm37.58-54.247.22.24h-8.233a.333.333 0 0 1-.333-.333V31.69q.129.105.246.227Z"/><path fill="#00afcc" stroke="#00afcc" stroke-width=".3" d="M62.157 35.257a1 1 0 0 0-1-1h-21a1 1 0 1 0 0 2h21a1 1 0 0 0 1-1ZM40.157 42.25h6.613a1 1 0 1 0 0-2h-6.613a1 1 0 0 0 0 2ZM50.83 40.25a1 1 0 1 0 0 2c.82 0 2.04.16 2.067-1 .026-1.16-1.247-1.006-2.067-1ZM76.157 60.257a1 1 0 0 0 1-1v-6c-.003-.13-.03-.26-.08-.38a.99.99 0 0 0-.92-.62h-6a1 1 0 1 0 0 2h3.587l-7 7H52.157a1 1 0 0 0-.707.293l-12 12a.993.993 0 0 0 0 1.413 1.006 1.006 0 0 0 1.413 0l11.72-11.706h14.573c.266-.002.52-.107.708-.293l7.293-7.294v3.587a1 1 0 0 0 1 1ZM65.564 75.217c-3.84-1.16-20.327-2-21.047 3.053v15.926c.426 3.648 8.753 3.828 12.6 3.948 3.84-.114 12.167-.307 12.593-3.947V78.271c-.1-1.474-1.386-2.314-4.146-3.054Zm2.146 10.667v2.92C65.624 91.41 48.55 91.39 46.517 88.803v-2.907C52.517 88.13 61.71 88.13 67.71 85.897Zm0-5.3v2.927C64.664 86.176 49.584 86.176 46.517 83.51v-2.913C52.517 82.837 61.71 82.837 67.71 80.597Zm-10.593-4.26c6.2 0 10 1.206 10.56 1.946C64.343 80.89 49.937 80.897 46.557 78.27c.56-.74 4.353-1.946 10.56-1.946ZM67.71 94.117C65.63 96.724 48.55 96.704 46.517 94.117v-2.933C52.517 93.424 61.71 93.424 67.71 91.183ZM97.317 72.744c-1.334-4.78-17-4-21.014-2.82-2.76.74-4.04 1.58-4.146 3.053v21.219c0 1.334 1.333 2.341 4.146 3.054 3.827 1.16 20.374 2 21.04-3.053-.026-6.76.06-14.74-.026-21.453ZM84.75 71.03c6.2 0 10 1.207 10.56 1.94C91.977 75.597 77.57 75.604 74.19 72.97c.56-.733 4.393-1.94 10.56-1.94Zm10.593 23.087C93.263 96.724 76.19 96.704 74.157 94.117v-2.933C80.157 93.424 89.377 93.424 95.343 91.184Zm0-5.333C92.25 91.45 77.257 91.45 74.157 88.784v-2.887C80.157 88.137 89.343 88.137 95.343 85.897Zm0-5.294C93.263 86.097 76.183 86.077 74.157 83.49v-2.893C80.157 82.837 89.343 82.837 95.343 80.597Zm0-5.333C92.277 80.824 77.243 80.824 74.157 78.157v-2.853C80.157 77.544 89.343 77.544 95.343 75.304Z"/></svg>