<svg xmlns="http://www.w3.org/2000/svg" xmlns:xlink="http://www.w3.org/1999/xlink" width="500" zoomAndPan="magnify" viewBox="0 0 375.12 383.03998" height="500" preserveAspectRatio="xMidYMid meet" version="1.0"><defs><clipPath id="888bfc4623"><path d="M 0.03125 4.179688 L 374.09375 4.179688 L 374.09375 374.0625 L 0.03125 374.0625 Z M 0.03125 4.179688 " clip-rule="nonzero"/></clipPath></defs><path fill="#f97316" d="M 164.664062 174.269531 C 164.140625 173.128906 163.410156 172.238281 162.472656 171.621094 C 161.535156 170.980469 160.417969 170.6875 159.160156 170.6875 L 144.046875 170.6875 L 144.046875 185.824219 L 159.160156 185.824219 C 160.394531 185.824219 161.492188 185.527344 162.425781 184.886719 C 163.386719 184.292969 164.117188 183.402344 164.617188 182.238281 C 165.144531 181.097656 165.417969 179.75 165.441406 178.265625 C 165.441406 176.757812 165.1875 175.410156 164.664062 174.269531 " fill-opacity="1" fill-rule="nonzero"/><g clip-path="url(#888bfc4623)"><path fill="#f97316" d="M 297.449219 170.730469 L 266.445312 170.730469 L 266.445312 185.59375 L 292.5625 185.59375 L 292.5625 197.304688 L 266.445312 197.304688 L 266.445312 211.734375 L 297.449219 211.734375 L 297.449219 223.425781 L 254.320312 223.425781 L 254.320312 159.042969 L 297.449219 159.042969 Z M 238.703125 170.730469 L 207.699219 170.730469 L 207.699219 185.59375 L 233.84375 185.59375 L 233.84375 197.304688 L 207.699219 197.304688 L 207.699219 211.734375 L 238.703125 211.734375 L 238.703125 223.425781 L 195.578125 223.425781 L 195.578125 159.042969 L 238.703125 159.042969 Z M 165.917969 223.425781 L 151.421875 197.535156 L 144.046875 197.535156 L 144.046875 223.425781 L 131.925781 223.425781 L 131.925781 158.996094 L 160.121094 158.996094 C 163.660156 158.996094 166.789062 159.796875 169.457031 161.394531 C 172.152344 162.96875 174.230469 165.230469 175.714844 168.128906 C 177.199219 171.050781 177.929688 174.429688 177.929688 178.265625 C 177.929688 182.101562 177.199219 185.480469 175.714844 188.378906 C 174.230469 191.277344 172.152344 193.539062 169.4375 195.136719 C 168.132812 195.890625 166.742188 196.484375 165.234375 196.871094 L 180.621094 223.425781 Z M 118.957031 170.730469 L 88.820312 170.730469 L 88.820312 186.1875 L 114.09375 186.1875 L 114.09375 197.878906 L 88.820312 197.878906 L 88.820312 223.425781 L 76.671875 223.425781 L 76.671875 159.042969 L 118.957031 159.042969 Z M 374.09375 191.210938 C 374.09375 179.839844 346.992188 171.027344 344.753906 159.816406 C 342.5625 148.722656 364.273438 130.207031 359.890625 119.636719 C 355.597656 109.203125 327.199219 111.460938 320.78125 101.875 C 314.550781 92.582031 327.515625 67.171875 319.320312 58.949219 C 311.101562 50.753906 285.691406 63.722656 276.398438 57.488281 C 266.808594 51.074219 269.070312 22.671875 258.636719 18.378906 C 248.066406 13.996094 229.550781 35.707031 218.453125 33.515625 C 207.265625 31.28125 198.429688 4.179688 187.0625 4.179688 C 175.691406 4.179688 166.878906 31.28125 155.667969 33.515625 C 144.574219 35.707031 126.058594 13.996094 115.484375 18.378906 C 105.050781 22.671875 107.3125 51.074219 97.722656 57.488281 C 88.429688 63.722656 63.019531 50.753906 54.800781 58.949219 C 46.605469 67.171875 59.574219 92.582031 53.339844 101.875 C 46.925781 111.460938 18.523438 109.203125 14.230469 119.636719 C 9.847656 130.207031 31.558594 148.722656 29.34375 159.816406 C 27.128906 171.003906 0.03125 179.839844 0.03125 191.210938 C 0.03125 202.582031 27.128906 211.394531 29.34375 222.601562 C 31.558594 233.699219 9.847656 252.214844 14.230469 262.785156 C 18.523438 273.21875 46.925781 270.960938 53.339844 280.546875 C 59.574219 289.839844 46.605469 315.25 54.800781 323.46875 C 63.019531 331.667969 88.429688 318.699219 97.722656 324.929688 C 107.3125 331.347656 105.050781 359.75 115.464844 364.039062 C 126.058594 368.425781 144.574219 346.710938 155.667969 348.902344 C 166.878906 351.140625 175.691406 378.242188 187.0625 378.242188 C 198.429688 378.242188 207.242188 351.140625 218.453125 348.902344 C 229.550781 346.710938 248.066406 368.425781 258.636719 364.039062 C 269.070312 359.75 266.808594 331.347656 276.398438 324.929688 C 285.691406 318.699219 311.101562 331.667969 319.320312 323.46875 C 327.515625 315.25 314.550781 289.839844 320.78125 280.546875 C 327.199219 270.960938 355.597656 273.21875 359.890625 262.785156 C 364.273438 252.214844 342.5625 233.699219 344.753906 222.601562 C 346.992188 211.417969 374.09375 202.582031 374.09375 191.210938 " fill-opacity="1" fill-rule="nonzero"/></g></svg>