<svg xmlns="http://www.w3.org/2000/svg" width="124" height="124" fill="none" viewBox="0 0 124 124"><rect width="120.65" height="120.65" x="1.675" y="1.609" stroke="#00afcc" stroke-width="2.85" rx="60.325"/><path fill="#00afcc" d="M95.505 27.893h-67.01a3.167 3.167 0 0 0-3.163 3.163V82.3a3.167 3.167 0 0 0 3.163 3.163h25.196v4.977l-3.55 1.848-.314.16c-.99.5-2.345 1.187-2.345 2.82 0 1.699 1.382 3.082 3.08 3.082H73.44a3.085 3.085 0 0 0 3.08-3.083c-.001-1.634-1.357-2.319-2.346-2.82q-.156-.077-.313-.159L70.31 90.44v-4.977h25.196A3.167 3.167 0 0 0 98.67 82.3V31.056a3.17 3.17 0 0 0-3.165-3.163m-67.01 1.826h67.01c.74 0 1.339.6 1.339 1.337v42.462H27.159V31.056c0-.738.599-1.337 1.336-1.337m40.481 62.084 4.043 2.104q.166.087.331.169c1.024.519 1.344.75 1.344 1.191 0 .694-.563 1.257-1.254 1.257H50.561c-.69 0-1.253-.564-1.253-1.257 0-.44.32-.672 1.343-1.19q.167-.083.332-.17l4.043-2.104a.91.91 0 0 0 .491-.81v-5.53h12.968v5.53c0 .34.188.652.491.81m26.529-8.166h-67.01c-.738 0-1.337-.6-1.337-1.337v-6.956h69.684V82.3c0 .737-.6 1.337-1.337 1.337m-49.082-15.96v3.726c0 .503.41.913.913.913h7.454c.503 0 .913-.41.913-.913v-9.001a2.72 2.72 0 0 0-.726-1.981l-4.7-5.087a2.77 2.77 0 0 0-2.05-.91c-.745 0-1.442.294-1.974.831v-8.443c0-1.667-1.285-3.024-2.864-3.024-1.58 0-2.863 1.357-2.863 3.025v12.609c0 1.24.414 2.32 1.23 3.203Zm-4.071-20.865c0-.65.474-1.198 1.037-1.198s1.038.549 1.038 1.199v8.98c0 1.24.414 2.32 1.23 3.204l4.011 4.34a.913.913 0 0 0 1.342-1.24l-3.484-3.771-.007-.008c-.439-.473-.439-1.273 0-1.748a.96.96 0 0 1 .709-.322.96.96 0 0 1 .709.322l4.7 5.086a.9.9 0 0 1 .242.69v8.142H48.25v-3.17c0-.23-.087-.45-.242-.62l-4.91-5.313c-.502-.543-.747-1.186-.747-1.964Zm33.419 7.611c-.78 0-1.508.322-2.05.91l-4.7 5.086a2.72 2.72 0 0 0-.726 1.98v9.001c0 .505.41.914.914.914h7.454c.503 0 .913-.41.913-.913v-3.726l4.666-5.051c.817-.884 1.23-1.963 1.23-3.205V46.81c0-1.666-1.283-3.024-2.863-3.024s-2.863 1.358-2.863 3.025v8.443a2.76 2.76 0 0 0-1.975-.83Zm.717 3.889-3.5 3.787a.914.914 0 0 0 1.342 1.24l3.484-3.772q.004-.003.006-.008l.01-.012.51-.549c.816-.884 1.23-1.963 1.23-3.204v-8.98c0-.65.475-1.199 1.038-1.199s1.037.55 1.037 1.199v12.609c0 .779-.245 1.42-.747 1.964L75.99 66.7a.92.92 0 0 0-.242.62v3.17H70.12v-8.143a.9.9 0 0 1 .242-.69l4.7-5.086a.96.96 0 0 1 .709-.322.96.96 0 0 1 .709.322c.435.472.438 1.266.008 1.74M49.08 47.849h2.199q.316 1.037.825 1.996l-1.555 1.558a.91.91 0 0 0-.105 1.164c.974 1.41 2.18 2.62 3.588 3.593a.91.91 0 0 0 1.166-.105L56.75 54.5q.956.51 1.99.826v2.203c0 .442.315.819.749.898a14.2 14.2 0 0 0 5.076 0 .91.91 0 0 0 .749-.898v-2.203q1.033-.316 1.989-.826l1.553 1.556a.91.91 0 0 0 1.165.105 14.1 14.1 0 0 0 3.588-3.594.915.915 0 0 0-.105-1.164l-1.554-1.557c.339-.638.616-1.306.826-1.996h2.199a.91.91 0 0 0 .898-.75 14.2 14.2 0 0 0 0-5.082.91.91 0 0 0-.898-.75h-2.199q-.316-1.038-.826-1.997l1.555-1.558a.91.91 0 0 0 .105-1.164 14.1 14.1 0 0 0-3.588-3.594.91.91 0 0 0-1.165.105l-1.554 1.557a11 11 0 0 0-1.99-.826v-2.202a.91.91 0 0 0-.749-.898 14.2 14.2 0 0 0-5.074 0 .91.91 0 0 0-.749.898v2.203q-1.035.317-1.99.827L55.2 33.06a.91.91 0 0 0-1.165-.105 14.1 14.1 0 0 0-3.588 3.594.915.915 0 0 0 .105 1.164l1.555 1.558q-.51.959-.826 1.996H49.08a.91.91 0 0 0-.898.75 14.2 14.2 0 0 0 0 5.082.91.91 0 0 0 .896.749m.786-4.755h2.112a.91.91 0 0 0 .889-.704 9.4 9.4 0 0 1 1.155-2.789.91.91 0 0 0-.13-1.124l-1.496-1.498a12.3 12.3 0 0 1 2.066-2.07l1.493 1.495c.3.3.767.355 1.128.13a9.4 9.4 0 0 1 2.783-1.156.91.91 0 0 0 .703-.889v-2.116a12.4 12.4 0 0 1 2.921 0v2.116c0 .424.29.792.702.89.983.23 1.92.62 2.783 1.156a.914.914 0 0 0 1.127-.13l1.493-1.497c.77.606 1.46 1.3 2.067 2.071l-1.495 1.497a.916.916 0 0 0-.13 1.126 9.4 9.4 0 0 1 1.155 2.789.914.914 0 0 0 .889.704h2.112a12.4 12.4 0 0 1 0 2.927H72.08a.91.91 0 0 0-.889.704 9.3 9.3 0 0 1-1.155 2.789.91.91 0 0 0 .13 1.124l1.495 1.499a12.3 12.3 0 0 1-2.066 2.07l-1.493-1.495a.914.914 0 0 0-1.127-.13 9.3 9.3 0 0 1-2.783 1.156.91.91 0 0 0-.703.889v2.116C62.522 56.858 61.536 56.858 60.568 56.743v-2.116a.915.915 0 0 0-.703-.889 9.3 9.3 0 0 1-2.783-1.156.914.914 0 0 0-1.127.13l-1.492 1.496c-.77-.605-1.461-1.299-2.067-2.07l1.495-1.497a.916.916 0 0 0 .13-1.126 9.4 9.4 0 0 1-1.155-2.789.914.914 0 0 0-.889-.704h-2.112a12.4 12.4 0 0 1 0-2.927m12.163 9.804c4.592 0 8.327-3.74 8.327-8.339s-3.735-8.339-8.327-8.339-8.327 3.741-8.327 8.34c0 4.597 3.735 8.338 8.327 8.338m-5.51-4.888h1.11c.19.704.44 1.352.736 1.928a6.6 6.6 0 0 1-1.847-1.928m-.991-3.45c0-.562.071-1.107.205-1.626h1.547a14 14 0 0 0-.093 1.625q0 .84.093 1.625h-1.549a6.5 6.5 0 0 1-.204-1.625m13.002 0c0 .56-.071 1.105-.205 1.624h-1.547q.091-.786.092-1.625 0-.838-.093-1.625h1.547a6.5 6.5 0 0 1 .205 1.625m-3.486 0q-.001.856-.106 1.624H62.94v-3.25h1.998q.106.769.106 1.625m-3.928 5.979c-.618-.45-1.194-1.333-1.587-2.53h1.587Zm1.826 0V48.01h1.587c-.394 1.194-.971 2.078-1.587 2.529m0-9.432v-2.529c.618.45 1.194 1.333 1.587 2.529Zm-1.826-2.529v2.529H59.53c.393-1.194.97-2.078 1.587-2.529m0 4.355v3.25h-1.998a12 12 0 0 1-.107-1.625c0-.57.039-1.114.107-1.625Zm4.575 7.003a9.7 9.7 0 0 0 .738-1.928h1.11a6.5 6.5 0 0 1-1.847 1.928m1.847-8.829h-1.11a10 10 0 0 0-.738-1.928 6.6 6.6 0 0 1 1.847 1.928m-9.171-1.926a10 10 0 0 0-.738 1.928h-1.11a6.5 6.5 0 0 1 1.847-1.928m7.995 40.308c0 .504-.41.913-.913.913h-6.898a.913.913 0 0 1 0-1.826h6.898c.504 0 .913.41.913.913"/><path stroke="#00afcc" stroke-width=".475" d="M75.771 54.423c-.78 0-1.508.322-2.05.91l-4.7 5.086a2.72 2.72 0 0 0-.726 1.98v9.001c0 .505.41.914.914.914h7.454c.503 0 .913-.41.913-.913v-3.726l4.666-5.051c.817-.884 1.23-1.963 1.23-3.205V46.81c0-1.666-1.283-3.024-2.863-3.024s-2.863 1.358-2.863 3.025v8.443a2.76 2.76 0 0 0-1.975-.83Zm0 0q.002 0 0 0Zm19.734-26.53h-67.01a3.167 3.167 0 0 0-3.163 3.163V82.3a3.167 3.167 0 0 0 3.163 3.163h25.196v4.977l-3.55 1.848-.314.16c-.99.5-2.345 1.187-2.345 2.82 0 1.699 1.382 3.082 3.08 3.082H73.44a3.085 3.085 0 0 0 3.08-3.083c-.001-1.634-1.357-2.319-2.346-2.82q-.156-.077-.313-.159L70.31 90.44v-4.977h25.196A3.167 3.167 0 0 0 98.67 82.3V31.056a3.17 3.17 0 0 0-3.165-3.163Zm-67.01 1.826h67.01c.74 0 1.339.6 1.339 1.337v42.462H27.159V31.056c0-.738.599-1.337 1.336-1.337Zm40.481 62.084 4.043 2.104q.166.087.331.169c1.024.519 1.344.75 1.344 1.191 0 .694-.563 1.257-1.254 1.257H50.561c-.69 0-1.253-.564-1.253-1.257 0-.44.32-.672 1.343-1.19q.167-.083.332-.17l4.043-2.104a.91.91 0 0 0 .491-.81v-5.53h12.968v5.53c0 .34.188.652.491.81Zm26.529-8.166h-67.01c-.738 0-1.337-.6-1.337-1.337v-6.956h69.684V82.3c0 .737-.6 1.337-1.337 1.337Zm-49.082-15.96v3.726c0 .503.41.913.913.913h7.454c.503 0 .913-.41.913-.913v-9.001a2.72 2.72 0 0 0-.726-1.981l-4.7-5.087a2.77 2.77 0 0 0-2.05-.91c-.745 0-1.442.294-1.974.831v-8.443c0-1.667-1.284-3.024-2.864-3.024s-2.863 1.357-2.863 3.025v12.609c0 1.24.414 2.32 1.23 3.203Zm-4.071-20.865c0-.65.474-1.198 1.037-1.198s1.038.549 1.038 1.199v8.98c0 1.24.414 2.32 1.23 3.204l4.011 4.34a.913.913 0 0 0 1.342-1.24l-3.484-3.771-.007-.008c-.439-.473-.439-1.273 0-1.748a.96.96 0 0 1 .709-.322.96.96 0 0 1 .709.322l4.7 5.086a.9.9 0 0 1 .242.69v8.142H48.25v-3.17c0-.23-.087-.45-.242-.62l-4.91-5.313c-.502-.543-.747-1.186-.747-1.964Zm34.136 11.5-3.5 3.787a.914.914 0 0 0 1.342 1.24l3.484-3.772q.004-.003.006-.008l.01-.012.51-.549c.816-.884 1.23-1.963 1.23-3.204v-8.98c0-.65.475-1.199 1.038-1.199s1.037.55 1.037 1.199v12.609c0 .779-.245 1.42-.747 1.964L75.99 66.7a.92.92 0 0 0-.242.62v3.17H70.12v-8.143a.9.9 0 0 1 .242-.69l4.7-5.086a.96.96 0 0 1 .709-.322.96.96 0 0 1 .709.322c.435.472.438 1.266.008 1.74ZM49.08 47.849h2.199q.316 1.037.825 1.996l-1.555 1.558a.91.91 0 0 0-.105 1.164c.974 1.41 2.18 2.62 3.588 3.593a.91.91 0 0 0 1.166-.105L56.75 54.5q.956.51 1.99.826v2.203c0 .442.315.819.749.898a14.2 14.2 0 0 0 5.076 0 .91.91 0 0 0 .749-.898v-2.203q1.033-.316 1.989-.826l1.553 1.556a.91.91 0 0 0 1.165.105 14.1 14.1 0 0 0 3.588-3.594.915.915 0 0 0-.105-1.164l-1.554-1.557c.339-.638.616-1.306.826-1.996h2.199a.91.91 0 0 0 .898-.75 14.2 14.2 0 0 0 0-5.082.91.91 0 0 0-.898-.75h-2.199q-.316-1.038-.826-1.997l1.555-1.558a.91.91 0 0 0 .105-1.164 14.1 14.1 0 0 0-3.588-3.594.91.91 0 0 0-1.165.105l-1.554 1.557a11 11 0 0 0-1.99-.826v-2.202a.91.91 0 0 0-.749-.898 14.2 14.2 0 0 0-5.074 0 .91.91 0 0 0-.749.898v2.203q-1.035.317-1.99.827L55.2 33.06a.91.91 0 0 0-1.165-.105 14.1 14.1 0 0 0-3.588 3.594.915.915 0 0 0 .105 1.164l1.555 1.558q-.51.959-.826 1.996H49.08a.91.91 0 0 0-.898.75 14.2 14.2 0 0 0 0 5.082.91.91 0 0 0 .896.749Zm.786-4.755h2.112a.91.91 0 0 0 .889-.704 9.4 9.4 0 0 1 1.155-2.789.91.91 0 0 0-.13-1.124l-1.496-1.498a12.3 12.3 0 0 1 2.066-2.07l1.493 1.495c.3.3.767.355 1.128.13a9.4 9.4 0 0 1 2.783-1.156.91.91 0 0 0 .703-.889v-2.116a12.4 12.4 0 0 1 2.921 0v2.116c0 .424.29.792.702.89.983.23 1.92.62 2.783 1.156a.914.914 0 0 0 1.127-.13l1.493-1.497c.77.606 1.46 1.3 2.067 2.071l-1.495 1.497a.916.916 0 0 0-.13 1.126 9.4 9.4 0 0 1 1.155 2.789.914.914 0 0 0 .889.704h2.112a12.4 12.4 0 0 1 0 2.927H72.08a.91.91 0 0 0-.889.704 9.3 9.3 0 0 1-1.155 2.789.91.91 0 0 0 .13 1.124l1.495 1.499a12.3 12.3 0 0 1-2.066 2.07l-1.493-1.495a.914.914 0 0 0-1.127-.13 9.3 9.3 0 0 1-2.783 1.156.91.91 0 0 0-.703.889v2.116C62.522 56.858 61.536 56.858 60.568 56.743v-2.116a.915.915 0 0 0-.703-.889 9.3 9.3 0 0 1-2.783-1.156.914.914 0 0 0-1.127.13l-1.492 1.496c-.77-.605-1.461-1.299-2.067-2.07l1.495-1.497a.916.916 0 0 0 .13-1.126 9.4 9.4 0 0 1-1.155-2.789.914.914 0 0 0-.889-.704h-2.112a12.4 12.4 0 0 1 0-2.927Zm12.163 9.804c4.592 0 8.327-3.74 8.327-8.339s-3.735-8.339-8.327-8.339-8.327 3.741-8.327 8.34c0 4.597 3.735 8.338 8.327 8.338Zm-5.51-4.888h1.11c.19.704.44 1.352.736 1.928a6.6 6.6 0 0 1-1.847-1.928Zm-.991-3.45c0-.562.071-1.107.205-1.626h1.547a14 14 0 0 0-.093 1.625q0 .84.093 1.625h-1.549a6.5 6.5 0 0 1-.204-1.625Zm13.002 0c0 .56-.071 1.105-.205 1.624h-1.547q.091-.786.092-1.625 0-.838-.093-1.625h1.547a6.5 6.5 0 0 1 .205 1.625Zm-3.486 0q-.001.856-.106 1.624H62.94v-3.25h1.998q.106.769.106 1.625Zm-3.928 5.979c-.618-.45-1.194-1.333-1.587-2.53h1.587Zm1.826 0V48.01h1.587c-.394 1.194-.971 2.078-1.587 2.529Zm0-9.432v-2.529c.618.45 1.194 1.333 1.587 2.529Zm-1.826-2.529v2.529H59.53c.393-1.194.97-2.078 1.587-2.529Zm0 4.355v3.25h-1.998a12 12 0 0 1-.107-1.625c0-.57.039-1.114.107-1.625Zm4.575 7.003a9.7 9.7 0 0 0 .738-1.928h1.11a6.5 6.5 0 0 1-1.847 1.928Zm1.847-8.829h-1.11a10 10 0 0 0-.738-1.928 6.6 6.6 0 0 1 1.847 1.928Zm-9.171-1.926a10 10 0 0 0-.738 1.928h-1.11a6.5 6.5 0 0 1 1.847-1.928Zm7.995 40.308c0 .504-.41.913-.913.913h-6.898a.913.913 0 0 1 0-1.826h6.898c.504 0 .913.41.913.913Z"/></svg>