<svg xmlns="http://www.w3.org/2000/svg" xmlns:xlink="http://www.w3.org/1999/xlink" width="500" zoomAndPan="magnify" viewBox="0 0 375.12 383.03998" height="500" preserveAspectRatio="xMidYMid meet" version="1.0"><defs><clipPath id="e91ab9cb4b"><path d="M 151 5.640625 L 222 5.640625 L 222 95 L 151 95 Z M 151 5.640625 " clip-rule="nonzero"/></clipPath><clipPath id="f4c5d60530"><path d="M 117 101 L 257 101 L 257 176.214844 L 117 176.214844 Z M 117 101 " clip-rule="nonzero"/></clipPath><clipPath id="26e3c5f803"><path d="M 240 197.476562 L 311 197.476562 L 311 287 L 240 287 Z M 240 197.476562 " clip-rule="nonzero"/></clipPath><clipPath id="9efa5ee818"><path d="M 238 197.476562 L 312 197.476562 L 312 289 L 238 289 Z M 238 197.476562 " clip-rule="nonzero"/></clipPath><clipPath id="4b713521f5"><path d="M 206 292 L 345 292 L 345 368.050781 L 206 368.050781 Z M 206 292 " clip-rule="nonzero"/></clipPath><clipPath id="2d4c76d329"><path d="M 204 291 L 347 291 L 347 368.050781 L 204 368.050781 Z M 204 291 " clip-rule="nonzero"/></clipPath><clipPath id="1c84042fe1"><path d="M 63 197.476562 L 134 197.476562 L 134 287 L 63 287 Z M 63 197.476562 " clip-rule="nonzero"/></clipPath><clipPath id="4130bf74af"><path d="M 61 197.476562 L 136 197.476562 L 136 289 L 61 289 Z M 61 197.476562 " clip-rule="nonzero"/></clipPath><clipPath id="dc8e5175eb"><path d="M 29 292 L 168 292 L 168 368.050781 L 29 368.050781 Z M 29 292 " clip-rule="nonzero"/></clipPath><clipPath id="7291393e5a"><path d="M 27 291 L 170 291 L 170 368.050781 L 27 368.050781 Z M 27 291 " clip-rule="nonzero"/></clipPath></defs><g clip-path="url(#e91ab9cb4b)"><path fill="#4b5563" d="M 154.605469 62.183594 C 156.480469 81.621094 169.054688 94.457031 186.878906 94.457031 C 204.703125 94.457031 217.269531 81.617188 219.148438 62.183594 L 221.8125 41.1875 C 223.460938 20.554688 206.628906 5.640625 186.878906 5.640625 C 167.128906 5.640625 150.292969 20.554688 151.945312 41.1875 Z M 154.605469 62.183594 " fill-opacity="1" fill-rule="nonzero"/></g><path fill="#4b5563" d="M 186.878906 151.570312 L 194.457031 130.878906 L 190.230469 109.335938 L 193.625 107.074219 L 193.625 102.292969 L 180.128906 102.292969 L 180.128906 107.074219 L 183.527344 109.335938 L 179.296875 130.878906 Z M 186.878906 151.570312 " fill-opacity="1" fill-rule="nonzero"/><g clip-path="url(#f4c5d60530)"><path fill="#4b5563" d="M 255.910156 146.421875 L 254.636719 138.308594 C 253.570312 131.507812 249.292969 125.632812 243.152344 122.53125 L 216.34375 108.972656 C 212.738281 107.152344 211.785156 101.5625 211.785156 101.5625 C 211.558594 101.199219 211.140625 101 210.714844 101.066406 C 210.289062 101.128906 209.945312 101.4375 209.835938 101.851562 L 206.695312 113.929688 L 186.878906 168.035156 L 167.0625 113.929688 L 163.917969 101.851562 C 163.808594 101.4375 163.464844 101.128906 163.039062 101.066406 C 162.617188 101 162.195312 101.199219 161.96875 101.5625 C 161.96875 101.5625 161.015625 107.152344 157.414062 108.972656 L 130.605469 122.53125 C 124.460938 125.632812 120.1875 131.507812 119.117188 138.308594 L 117.84375 146.421875 C 117.390625 149.316406 117.988281 153.566406 120.585938 155.691406 C 124.050781 158.527344 136.863281 176.214844 186.878906 176.214844 C 236.890625 176.214844 249.703125 158.527344 253.171875 155.691406 C 255.765625 153.566406 256.363281 149.316406 255.910156 146.421875 Z M 255.910156 146.421875 " fill-opacity="1" fill-rule="nonzero"/></g><g clip-path="url(#26e3c5f803)"><path fill="#f4f4f4" d="M 242.949219 254.019531 C 244.824219 273.457031 257.394531 286.292969 275.21875 286.292969 C 293.042969 286.292969 305.613281 273.457031 307.492188 254.019531 L 310.152344 233.023438 C 311.804688 212.390625 294.96875 197.476562 275.21875 197.476562 C 255.46875 197.476562 238.636719 212.390625 240.285156 233.023438 Z M 242.949219 254.019531 " fill-opacity="1" fill-rule="nonzero"/></g><g clip-path="url(#9efa5ee818)"><path fill="#4b5563" d="M 254.1875 275.933594 C 257.453125 279.285156 261.324219 281.664062 265.796875 283.066406 L 264.703125 286.566406 C 259.636719 284.980469 255.253906 282.289062 251.558594 278.488281 Z M 276.082031 284.445312 C 280.949219 284.328125 285.375 283.210938 289.363281 281.101562 L 291.078125 284.34375 C 286.582031 286.722656 281.613281 287.980469 276.171875 288.113281 Z M 297.382812 274.699219 C 300.308594 271.320312 302.5 267.273438 303.953125 262.554688 L 307.457031 263.636719 C 305.851562 268.84375 303.417969 273.332031 300.152344 277.101562 Z M 305.898438 252.011719 L 307.742188 237.457031 L 311.382812 237.917969 L 309.535156 252.472656 Z M 308.253906 226.90625 C 307.753906 222.21875 306.234375 217.921875 303.691406 214.011719 L 306.769531 212.011719 C 309.628906 216.414062 311.339844 221.25 311.902344 226.515625 Z M 296.664062 206.429688 C 293 203.601562 288.847656 201.601562 284.207031 200.425781 L 285.109375 196.871094 C 290.242188 198.171875 294.839844 200.386719 298.90625 203.523438 Z M 273.804688 199.339844 C 269.035156 199.519531 264.53125 200.578125 260.296875 202.507812 L 258.777344 199.171875 C 263.449219 197.039062 268.410156 195.875 273.664062 195.671875 Z M 251.636719 208.230469 C 248.140625 211.457031 245.570312 215.234375 243.929688 219.5625 L 240.5 218.261719 C 242.347656 213.390625 245.230469 209.148438 249.152344 205.535156 Z M 242.011719 229.699219 C 241.996094 230.75 242.027344 231.808594 242.113281 232.875 L 240.285156 233.023438 L 242.105469 232.792969 L 243.53125 244.027344 L 239.890625 244.488281 L 238.460938 233.210938 L 238.457031 233.167969 C 238.363281 231.984375 238.324219 230.804688 238.34375 229.640625 Z M 244.773438 253.84375 C 245.253906 258.828125 246.445312 263.34375 248.347656 267.390625 L 245.027344 268.953125 C 242.945312 264.519531 241.644531 259.601562 241.121094 254.195312 Z M 244.773438 253.84375 " fill-opacity="1" fill-rule="nonzero"/></g><path fill="#f4f4f4" d="M 275.21875 343.40625 L 282.800781 322.714844 L 278.570312 301.175781 L 281.96875 298.910156 L 281.96875 294.128906 L 268.472656 294.128906 L 268.472656 298.910156 L 271.867188 301.171875 L 267.640625 322.714844 Z M 275.21875 343.40625 " fill-opacity="1" fill-rule="nonzero"/><path fill="#4b5563" d="M 280.296875 319.496094 L 277.472656 305.097656 L 281.070312 304.390625 L 283.898438 318.789062 Z M 280.132812 295.625 L 280.132812 294.128906 L 281.96875 294.128906 L 281.96875 295.964844 L 268.789062 295.964844 L 268.789062 292.292969 L 283.800781 292.292969 L 283.800781 295.625 Z M 273.316406 303.316406 L 270.492188 317.714844 L 266.890625 317.007812 L 269.71875 302.609375 Z M 271.269531 327.292969 L 276.316406 341.070312 L 272.875 342.332031 L 267.828125 328.554688 Z M 273.5 342.777344 L 278.542969 329 L 281.988281 330.261719 L 276.941406 344.039062 Z M 273.5 342.777344 " fill-opacity="1" fill-rule="nonzero"/><g clip-path="url(#4b713521f5)"><path fill="#f4f4f4" d="M 344.253906 338.257812 L 342.976562 330.144531 C 341.910156 323.34375 337.636719 317.46875 331.492188 314.367188 L 304.683594 300.808594 C 301.082031 298.988281 300.125 293.398438 300.125 293.398438 C 299.902344 293.035156 299.480469 292.835938 299.054688 292.902344 C 298.632812 292.964844 298.289062 293.273438 298.179688 293.6875 L 295.035156 305.765625 L 275.21875 359.871094 L 255.402344 305.765625 L 252.261719 293.6875 C 252.152344 293.273438 251.808594 292.964844 251.382812 292.902344 C 250.957031 292.835938 250.535156 293.035156 250.3125 293.398438 C 250.3125 293.398438 249.359375 298.988281 245.753906 300.808594 L 218.945312 314.367188 C 212.800781 317.46875 208.527344 323.34375 207.460938 330.144531 L 206.1875 338.257812 C 205.734375 341.152344 206.332031 345.402344 208.925781 347.527344 C 212.394531 350.363281 225.207031 368.050781 275.21875 368.050781 C 325.234375 368.050781 338.042969 350.363281 341.511719 347.527344 C 344.109375 345.402344 344.707031 341.152344 344.253906 338.257812 Z M 344.253906 338.257812 " fill-opacity="1" fill-rule="nonzero"/></g><g clip-path="url(#2d4c76d329)"><path fill="#4b5563" d="M 332.859375 317.296875 C 332.15625 316.820312 331.425781 316.386719 330.664062 316.003906 L 320.042969 310.632812 L 321.699219 307.359375 L 332.320312 312.730469 C 333.222656 313.183594 334.089844 313.699219 334.925781 314.265625 Z M 310.222656 305.664062 L 303.855469 302.445312 C 301.460938 301.234375 299.734375 298.824219 298.683594 295.210938 L 302.203125 294.183594 C 302.960938 296.777344 304.0625 298.441406 305.511719 299.171875 L 311.878906 302.390625 Z M 298.160156 301.039062 L 296.789062 306.316406 L 293.554688 315.140625 L 290.113281 313.878906 L 293.3125 305.136719 L 295.035156 305.765625 L 293.261719 305.304688 L 294.609375 300.117188 Z M 289.773438 325.472656 L 284.726562 339.25 L 281.28125 337.992188 L 286.328125 324.210938 Z M 280.941406 349.585938 L 275.222656 365.207031 L 272.449219 357.644531 L 275.894531 356.382812 L 276.941406 359.242188 L 275.21875 359.871094 L 273.5 359.242188 L 277.496094 348.324219 Z M 268.664062 347.308594 L 263.621094 333.53125 L 267.0625 332.269531 L 272.109375 346.046875 Z M 259.835938 323.199219 L 254.789062 309.421875 L 258.234375 308.160156 L 263.277344 321.9375 Z M 251.667969 298.695312 L 250.484375 294.152344 C 250.574219 294.480469 250.78125 294.667969 251.117188 294.71875 C 251.445312 294.769531 251.695312 294.648438 251.875 294.359375 L 250.3125 293.398438 L 252.121094 293.707031 C 251.976562 294.542969 251.714844 295.46875 251.332031 296.484375 C 250.542969 298.59375 249.484375 300.226562 248.160156 301.378906 L 245.75 298.613281 C 246.609375 297.863281 247.324219 296.726562 247.898438 295.199219 C 248.199219 294.398438 248.402344 293.695312 248.503906 293.089844 L 248.5625 292.742188 L 248.75 292.4375 C 249.421875 291.34375 250.390625 290.894531 251.648438 291.089844 C 252.914062 291.273438 253.710938 291.988281 254.035156 293.226562 L 255.21875 297.769531 Z M 238.054688 306.757812 L 224.960938 313.378906 L 223.304688 310.105469 L 236.398438 303.484375 Z M 215.828125 318.640625 C 212.296875 321.683594 210.132812 325.5 209.328125 330.089844 L 205.714844 329.460938 C 206.667969 324.007812 209.242188 319.476562 213.433594 315.863281 Z M 207.890625 340.59375 C 208.003906 343.160156 208.734375 345 210.089844 346.105469 C 210.351562 346.320312 210.816406 346.757812 211.488281 347.410156 C 212.902344 348.792969 214.164062 349.933594 215.273438 350.835938 L 212.957031 353.683594 C 211.761719 352.710938 210.417969 351.496094 208.925781 350.035156 C 208.332031 349.457031 207.945312 349.09375 207.765625 348.945312 C 205.5625 347.144531 204.382812 344.410156 204.226562 340.753906 Z M 224.164062 356.578125 C 228.121094 358.605469 232.566406 360.316406 237.496094 361.714844 L 236.496094 365.246094 C 231.332031 363.78125 226.664062 361.980469 222.492188 359.84375 Z M 248.011719 364.089844 C 252.515625 364.871094 257.300781 365.441406 262.378906 365.789062 L 262.125 369.449219 C 256.921875 369.089844 252.007812 368.507812 247.382812 367.703125 Z M 273.28125 366.207031 L 275.230469 366.214844 C 279.65625 366.214844 283.90625 366.078125 287.980469 365.796875 L 288.234375 369.457031 C 284.074219 369.742188 279.734375 369.882812 275.210938 369.882812 L 273.265625 369.875 Z M 298.722656 364.675781 C 303.789062 363.949219 308.503906 362.96875 312.863281 361.738281 L 313.863281 365.269531 C 309.34375 366.546875 304.472656 367.558594 299.242188 368.308594 Z M 322.992188 358.136719 C 327.628906 356.09375 331.664062 353.679688 335.109375 350.882812 L 337.417969 353.734375 C 333.722656 356.734375 329.40625 359.320312 324.472656 361.492188 Z M 341.945312 343.714844 C 342.558594 342.074219 342.722656 340.347656 342.441406 338.539062 L 341.167969 330.429688 C 340.859375 328.464844 340.265625 326.59375 339.386719 324.8125 L 342.679688 323.191406 C 343.71875 325.304688 344.425781 327.527344 344.789062 329.859375 L 346.0625 337.972656 C 346.445312 340.410156 346.21875 342.753906 345.382812 344.996094 Z M 341.945312 343.714844 " fill-opacity="1" fill-rule="nonzero"/></g><g clip-path="url(#1c84042fe1)"><path fill="#f4f4f4" d="M 66.261719 254.019531 C 68.136719 273.457031 80.707031 286.292969 98.535156 286.292969 C 116.355469 286.292969 128.925781 273.457031 130.804688 254.019531 L 133.464844 233.023438 C 135.117188 212.390625 118.28125 197.476562 98.535156 197.476562 C 78.785156 197.476562 61.949219 212.390625 63.597656 233.023438 Z M 66.261719 254.019531 " fill-opacity="1" fill-rule="nonzero"/></g><g clip-path="url(#4130bf74af)"><path fill="#4b5563" d="M 77.5 275.933594 C 80.765625 279.285156 84.636719 281.664062 89.109375 283.066406 L 88.015625 286.566406 C 82.949219 284.980469 78.566406 282.289062 74.871094 278.488281 Z M 99.394531 284.445312 C 104.261719 284.328125 108.6875 283.210938 112.675781 281.101562 L 114.390625 284.34375 C 109.894531 286.722656 104.925781 287.980469 99.484375 288.113281 Z M 120.695312 274.699219 C 123.621094 271.320312 125.8125 267.273438 127.265625 262.554688 L 130.773438 263.636719 C 129.164062 268.84375 126.730469 273.332031 123.46875 277.101562 Z M 129.210938 252.011719 L 131.054688 237.457031 L 134.695312 237.917969 L 132.847656 252.472656 Z M 131.566406 226.90625 C 131.066406 222.21875 129.546875 217.921875 127.003906 214.011719 L 130.082031 212.011719 C 132.941406 216.414062 134.652344 221.25 135.214844 226.515625 Z M 119.976562 206.429688 C 116.3125 203.601562 112.160156 201.601562 107.519531 200.425781 L 108.421875 196.871094 C 113.554688 198.171875 118.152344 200.386719 122.21875 203.523438 Z M 97.117188 199.339844 C 92.347656 199.519531 87.84375 200.578125 83.609375 202.507812 L 82.089844 199.171875 C 86.761719 197.039062 91.722656 195.875 96.976562 195.671875 Z M 74.949219 208.230469 C 71.453125 211.457031 68.882812 215.234375 67.242188 219.5625 L 63.8125 218.261719 C 65.660156 213.390625 68.542969 209.148438 72.464844 205.535156 Z M 65.324219 229.699219 C 65.308594 230.75 65.34375 231.808594 65.425781 232.875 L 63.597656 233.023438 L 65.417969 232.792969 L 66.84375 244.027344 L 63.203125 244.488281 L 61.773438 233.210938 L 61.769531 233.167969 C 61.675781 231.984375 61.636719 230.804688 61.65625 229.640625 Z M 68.085938 253.84375 C 68.566406 258.828125 69.757812 263.34375 71.660156 267.390625 L 68.339844 268.953125 C 66.257812 264.519531 64.957031 259.601562 64.433594 254.195312 Z M 68.085938 253.84375 " fill-opacity="1" fill-rule="nonzero"/></g><path fill="#f4f4f4" d="M 98.535156 343.40625 L 106.113281 322.714844 L 101.882812 301.175781 L 105.28125 298.910156 L 105.28125 294.128906 L 91.785156 294.128906 L 91.785156 298.910156 L 95.179688 301.171875 L 90.953125 322.714844 Z M 98.535156 343.40625 " fill-opacity="1" fill-rule="nonzero"/><path fill="#4b5563" d="M 103.609375 319.496094 L 100.785156 305.097656 L 104.382812 304.390625 L 107.210938 318.789062 Z M 103.445312 295.625 L 103.445312 294.128906 L 105.28125 294.128906 L 105.28125 295.964844 L 92.105469 295.964844 L 92.105469 292.292969 L 107.113281 292.292969 L 107.113281 295.625 Z M 96.628906 303.316406 L 93.804688 317.714844 L 90.203125 317.007812 L 93.03125 302.609375 Z M 94.582031 327.292969 L 99.628906 341.070312 L 96.1875 342.332031 L 91.140625 328.554688 Z M 96.8125 342.777344 L 101.855469 329 L 105.300781 330.261719 L 100.253906 344.039062 Z M 96.8125 342.777344 " fill-opacity="1" fill-rule="nonzero"/><g clip-path="url(#dc8e5175eb)"><path fill="#f4f4f4" d="M 167.566406 338.257812 L 166.292969 330.144531 C 165.222656 323.34375 160.949219 317.46875 154.804688 314.367188 L 127.996094 300.808594 C 124.394531 298.988281 123.441406 293.398438 123.441406 293.398438 C 123.214844 293.035156 122.792969 292.835938 122.371094 292.902344 C 121.945312 292.964844 121.601562 293.273438 121.492188 293.6875 L 118.347656 305.765625 L 98.535156 359.871094 L 78.714844 305.765625 L 75.574219 293.6875 C 75.464844 293.273438 75.121094 292.964844 74.695312 292.902344 C 74.273438 292.835938 73.851562 293.035156 73.625 293.398438 C 73.625 293.398438 72.671875 298.988281 69.070312 300.808594 L 42.257812 314.367188 C 36.113281 317.46875 31.839844 323.34375 30.773438 330.144531 L 29.5 338.257812 C 29.046875 341.152344 29.644531 345.402344 32.238281 347.527344 C 35.707031 350.363281 48.519531 368.050781 98.535156 368.050781 C 148.546875 368.050781 161.355469 350.363281 164.824219 347.527344 C 167.421875 345.402344 168.019531 341.152344 167.566406 338.257812 Z M 167.566406 338.257812 " fill-opacity="1" fill-rule="nonzero"/></g><g clip-path="url(#7291393e5a)"><path fill="#4b5563" d="M 156.171875 317.296875 C 155.46875 316.820312 154.738281 316.386719 153.976562 316.003906 L 143.355469 310.632812 L 145.011719 307.359375 L 155.632812 312.730469 C 156.535156 313.183594 157.40625 313.699219 158.238281 314.265625 Z M 133.535156 305.664062 L 127.167969 302.445312 C 124.773438 301.234375 123.046875 298.824219 121.996094 295.210938 L 125.515625 294.183594 C 126.273438 296.777344 127.375 298.441406 128.824219 299.171875 L 135.191406 302.390625 Z M 121.472656 301.039062 L 120.101562 306.316406 L 116.867188 315.140625 L 113.425781 313.878906 L 116.625 305.136719 L 118.347656 305.765625 L 116.574219 305.304688 L 117.921875 300.117188 Z M 113.085938 325.472656 L 108.039062 339.25 L 104.59375 337.992188 L 109.640625 324.210938 Z M 104.253906 349.585938 L 98.535156 365.207031 L 95.761719 357.644531 L 99.207031 356.382812 L 100.253906 359.242188 L 98.535156 359.871094 L 96.8125 359.242188 L 100.808594 348.324219 Z M 91.980469 347.308594 L 86.933594 333.53125 L 90.375 332.269531 L 95.421875 346.046875 Z M 83.148438 323.199219 L 78.101562 309.421875 L 81.546875 308.160156 L 86.59375 321.9375 Z M 74.980469 298.695312 L 73.800781 294.152344 C 73.886719 294.480469 74.097656 294.667969 74.429688 294.71875 C 74.757812 294.769531 75.007812 294.648438 75.1875 294.359375 L 73.625 293.398438 L 75.433594 293.707031 C 75.289062 294.542969 75.027344 295.46875 74.644531 296.484375 C 73.855469 298.59375 72.796875 300.226562 71.472656 301.378906 L 69.0625 298.613281 C 69.921875 297.863281 70.636719 296.726562 71.210938 295.199219 C 71.511719 294.398438 71.714844 293.695312 71.816406 293.089844 L 71.875 292.742188 L 72.0625 292.4375 C 72.734375 291.34375 73.703125 290.894531 74.960938 291.089844 C 76.226562 291.273438 77.023438 291.988281 77.347656 293.226562 L 78.53125 297.769531 Z M 61.367188 306.757812 L 48.273438 313.378906 L 46.617188 310.105469 L 59.710938 303.484375 Z M 39.140625 318.640625 C 35.609375 321.683594 33.445312 325.5 32.640625 330.089844 L 29.027344 329.460938 C 29.980469 324.007812 32.554688 319.476562 36.746094 315.863281 Z M 31.207031 340.59375 C 31.316406 343.160156 32.046875 345 33.402344 346.105469 C 33.664062 346.320312 34.128906 346.757812 34.800781 347.410156 C 36.214844 348.792969 37.476562 349.933594 38.585938 350.835938 L 36.269531 353.683594 C 35.074219 352.710938 33.730469 351.496094 32.238281 350.035156 C 31.644531 349.457031 31.257812 349.09375 31.078125 348.945312 C 28.875 347.144531 27.695312 344.410156 27.539062 340.753906 Z M 47.476562 356.578125 C 51.433594 358.605469 55.878906 360.316406 60.808594 361.714844 L 59.808594 365.246094 C 54.644531 363.78125 49.976562 361.980469 45.804688 359.84375 Z M 71.324219 364.089844 C 75.828125 364.871094 80.613281 365.441406 85.691406 365.789062 L 85.4375 369.449219 C 80.234375 369.089844 75.324219 368.507812 70.695312 367.703125 Z M 96.59375 366.207031 L 98.542969 366.214844 C 102.96875 366.214844 107.21875 366.078125 111.292969 365.796875 L 111.546875 369.457031 C 107.386719 369.742188 103.046875 369.882812 98.523438 369.882812 L 96.578125 369.875 Z M 122.035156 364.675781 C 127.101562 363.949219 131.816406 362.96875 136.175781 361.738281 L 137.175781 365.269531 C 132.65625 366.546875 127.785156 367.558594 122.554688 368.308594 Z M 146.308594 358.136719 C 150.941406 356.09375 154.976562 353.679688 158.421875 350.882812 L 160.730469 353.734375 C 157.035156 356.734375 152.71875 359.320312 147.785156 361.492188 Z M 165.257812 343.714844 C 165.871094 342.074219 166.035156 340.347656 165.753906 338.539062 L 164.480469 330.429688 C 164.171875 328.464844 163.578125 326.59375 162.699219 324.8125 L 165.992188 323.191406 C 167.035156 325.304688 167.738281 327.527344 168.101562 329.859375 L 169.378906 337.972656 C 169.761719 340.410156 169.53125 342.753906 168.695312 344.996094 Z M 165.257812 343.714844 " fill-opacity="1" fill-rule="nonzero"/></g></svg>