<svg xmlns="http://www.w3.org/2000/svg" xmlns:xlink="http://www.w3.org/1999/xlink" width="500" zoomAndPan="magnify" viewBox="0 0 375.12 383.03998" height="500" preserveAspectRatio="xMidYMid meet" version="1.0"><path fill="#4b5563" d="M 182.75 157.117188 C 167.945312 144.222656 147.683594 143.390625 137.472656 155.246094 C 127.265625 167.105469 130.980469 187.171875 145.773438 200.058594 C 160.570312 212.941406 180.84375 213.785156 191.050781 201.925781 C 201.261719 190.070312 197.542969 170.007812 182.75 157.117188 Z M 182.75 157.117188 " fill-opacity="1" fill-rule="nonzero"/><path fill="#4b5563" d="M 209.117188 98.582031 C 203.46875 93.996094 195.175781 94.855469 190.585938 100.5 C 186.820312 106.742188 188.757812 114.851562 194.941406 118.71875 C 200.585938 123.300781 208.878906 122.441406 213.46875 116.800781 C 217.234375 110.558594 215.296875 102.449219 209.117188 98.582031 Z M 209.117188 98.582031 " fill-opacity="1" fill-rule="nonzero"/><path fill="#4b5563" d="M 146.261719 241.289062 C 140.898438 236.375 132.570312 236.738281 127.652344 242.097656 C 123.527344 248.105469 124.980469 256.316406 130.921875 260.542969 C 136.28125 265.457031 144.613281 265.097656 149.53125 259.734375 C 153.660156 253.726562 152.203125 245.515625 146.261719 241.289062 Z M 146.261719 241.289062 " fill-opacity="1" fill-rule="nonzero"/><path fill="#4b5563" d="M 327.648438 232.066406 C 299.246094 206.78125 298.746094 191.519531 278.535156 185.277344 C 261.664062 180.066406 245.996094 188.5 230.15625 200.53125 C 233.09375 194.097656 236.425781 187.851562 240.132812 181.828125 C 263.28125 144.058594 310.988281 108.480469 310.988281 108.480469 L 188.484375 19.480469 C 151.261719 43.8125 122.269531 78.835938 105.320312 119.949219 C 105.0625 120.574219 104.828125 121.152344 104.582031 121.761719 C 104.425781 110.785156 102.015625 101.15625 94.773438 94.097656 C 82.410156 82.015625 71.785156 88.410156 43.132812 78.742188 C 31.683594 74.882812 19.398438 69.089844 14.136719 57.921875 C 7.902344 69.222656 5.023438 88.175781 11.441406 98.671875 C 17.714844 109.136719 35.601562 113.210938 35.601562 113.210938 C 35.601562 113.210938 24.894531 119.058594 28.394531 130.222656 C 30.464844 136.824219 39.414062 144.769531 56.0625 144.691406 C 50.4375 149.402344 48.515625 155.046875 53.332031 159.046875 C 61.277344 165.625 79.136719 162.011719 79.136719 162.011719 C 81.121094 166.335938 84.199219 170.070312 88.066406 172.84375 C 83.386719 192.839844 75.339844 211.894531 64.269531 229.195312 C 58.28125 238.960938 50.226562 247.300781 40.671875 253.621094 L 152.332031 353.28125 C 152.332031 353.28125 185.277344 341.292969 202.230469 293.015625 C 207.785156 276.875 212.492188 260.453125 216.328125 243.820312 C 217.757812 243.363281 219.160156 242.824219 220.527344 242.203125 C 220.527344 242.203125 231.324219 264.144531 240.339844 268.351562 C 247.355469 271.625 251.929688 265.8125 252.988281 256.953125 C 263.691406 276.304688 276.027344 282.359375 286.328125 281.242188 C 300.089844 279.746094 297.960938 260.539062 297.960938 260.539062 C 297.960938 260.539062 313.714844 277.46875 328.324219 278.074219 C 343.050781 278.828125 359.046875 264.75 366.316406 251.367188 C 351.667969 252.253906 338.996094 242.171875 327.648438 232.066406 Z M 180.171875 285.257812 C 177.253906 293.765625 173.222656 301.847656 168.179688 309.292969 L 144.386719 314.855469 L 89.054688 265.46875 L 86.222656 237.992188 C 97.933594 218.976562 106.410156 198.152344 111.3125 176.363281 C 115.203125 160.148438 120.417969 144.28125 126.898438 128.917969 C 137.078125 104.664062 151.886719 82.628906 170.496094 64.042969 L 201.878906 58.125 L 254.597656 96.425781 L 256.546875 125.195312 C 242.765625 138.5625 230.566406 153.464844 220.183594 169.613281 C 203.964844 196.082031 199.019531 216.210938 193.300781 239.519531 C 189.726562 254.984375 185.34375 270.25 180.171875 285.257812 Z M 180.171875 285.257812 " fill-opacity="1" fill-rule="nonzero"/></svg>