<svg xmlns="http://www.w3.org/2000/svg" xmlns:xlink="http://www.w3.org/1999/xlink" width="500" zoomAndPan="magnify" viewBox="0 0 375.12 383.03998" height="500" preserveAspectRatio="xMidYMid meet" version="1.0">
  <path fill="#4b5563" d="M 323.046875 152.351562 C 321.878906 152.351562 320.710938 152.351562 319.542969 152.351562 L 309.410156 125.078125 C 332.789062 111.828125 340.972656 82.214844 328.113281 58.835938 C 314.867188 35.457031 285.253906 27.273438 261.875 40.132812 C 250.574219 46.367188 242 57.277344 238.882812 69.746094 L 202.648438 65.851562 C 199.917969 48.707031 183.945312 36.625 166.800781 39.355469 C 151.214844 41.691406 139.914062 54.941406 139.914062 70.527344 C 139.914062 75.980469 141.472656 81.4375 144.199219 86.503906 L 100.558594 129.363281 C 92.375 123.128906 82.246094 119.621094 71.726562 119.621094 C 44.839844 119.621094 23.019531 141.441406 23.019531 168.328125 C 23.019531 195.214844 44.839844 217.035156 71.726562 217.035156 L 81.464844 275.480469 C 65.492188 282.496094 58.085938 301.199219 65.101562 317.175781 C 72.113281 333.148438 90.816406 340.554688 106.792969 333.539062 C 121.601562 327.304688 129.003906 310.941406 124.71875 295.355469 L 159.007812 277.429688 C 181.214844 301.976562 219.402344 303.925781 244.339844 281.714844 C 256.808594 270.417969 264.210938 254.050781 264.210938 237.296875 C 264.210938 233.007812 263.820312 228.332031 262.652344 224.046875 L 300.449219 204.566406 C 312.136719 217.8125 332.011719 218.980469 345.257812 207.292969 C 358.507812 195.605469 359.675781 175.730469 347.984375 162.484375 C 340.582031 156.25 332.011719 152.351562 323.046875 152.351562 Z M 323.046875 164.042969 C 328.113281 164.042969 332.011719 167.9375 332.011719 173.003906 C 332.011719 178.070312 328.113281 181.964844 323.046875 181.964844 C 317.984375 181.964844 314.085938 178.070312 314.085938 173.003906 C 314.085938 167.9375 317.984375 164.042969 323.046875 164.042969 Z M 285.640625 52.992188 C 293.046875 52.992188 299.28125 59.226562 299.28125 66.628906 C 299.28125 74.03125 293.046875 80.265625 285.640625 80.265625 C 278.238281 80.265625 272.003906 74.03125 272.003906 66.628906 C 272.003906 59.226562 277.847656 52.992188 285.640625 52.992188 Z M 257.976562 97.410156 C 257.976562 95.464844 259.144531 93.125 260.703125 91.957031 C 264.601562 89.230469 269.277344 86.890625 273.953125 85.722656 C 277.460938 84.554688 281.355469 84.164062 285.253906 84.164062 C 289.148438 84.164062 293.046875 84.941406 296.550781 85.722656 C 301.226562 86.890625 305.902344 89.230469 309.800781 92.347656 C 311.359375 93.515625 312.527344 95.851562 312.527344 97.800781 L 312.527344 108.320312 L 257.976562 108.320312 Z M 171.085938 50.652344 C 176.152344 50.652344 180.046875 54.550781 180.046875 59.617188 C 180.046875 64.683594 176.152344 68.578125 171.085938 68.578125 C 166.019531 68.578125 162.125 64.683594 162.125 59.617188 C 162.125 54.941406 166.019531 50.652344 171.085938 50.652344 Z M 152.773438 79.878906 C 152.773438 78.320312 153.550781 77.148438 154.71875 76.371094 C 157.449219 74.421875 160.566406 73.253906 163.683594 72.472656 C 166.019531 71.695312 168.746094 71.304688 171.085938 71.304688 C 173.421875 71.304688 176.152344 71.695312 178.488281 72.472656 C 181.605469 73.253906 184.332031 74.8125 187.0625 76.761719 C 188.230469 77.539062 189.007812 79.097656 189.007812 80.265625 L 189.007812 87.28125 L 153.160156 87.28125 L 153.160156 79.878906 Z M 70.945312 138.714844 C 78.347656 138.714844 84.582031 144.949219 84.582031 152.351562 C 84.582031 159.753906 78.347656 165.988281 70.945312 165.988281 C 63.542969 165.988281 57.308594 159.753906 57.308594 152.351562 C 57.699219 144.949219 63.542969 138.714844 70.945312 138.714844 Z M 43.671875 193.65625 L 43.671875 183.132812 C 43.671875 181.1875 44.839844 178.847656 46.398438 177.679688 C 50.292969 174.953125 54.96875 172.613281 59.644531 171.445312 C 63.152344 170.277344 67.050781 169.886719 70.945312 169.886719 C 74.84375 169.886719 78.738281 170.664062 82.246094 171.445312 C 86.921875 172.613281 91.597656 174.953125 95.492188 178.070312 C 97.050781 179.238281 98.222656 181.574219 98.222656 183.523438 L 98.222656 194.042969 Z M 111.078125 320.679688 L 74.84375 320.679688 L 74.84375 313.667969 C 74.84375 312.109375 75.621094 310.941406 76.789062 310.160156 C 79.519531 308.210938 82.636719 306.652344 85.753906 305.875 C 88.089844 305.09375 90.816406 304.703125 93.15625 304.703125 C 95.492188 304.703125 98.222656 305.09375 100.558594 305.875 C 103.675781 306.652344 106.402344 308.210938 109.132812 310.160156 C 110.300781 310.941406 111.078125 312.496094 111.078125 313.667969 Z M 83.804688 293.40625 C 83.804688 288.339844 87.699219 284.441406 92.765625 284.441406 C 97.832031 284.441406 101.726562 288.339844 101.726562 293.40625 C 101.726562 298.46875 97.832031 302.367188 92.765625 302.367188 C 88.089844 302.757812 84.195312 298.46875 83.804688 293.40625 Z M 114.976562 282.496094 C 109.910156 277.429688 102.898438 274.3125 95.882812 273.53125 L 86.140625 215.085938 C 95.492188 211.96875 103.675781 206.125 109.519531 198.332031 L 145.757812 217.421875 C 139.914062 233.007812 141.082031 250.542969 148.875 265.351562 Z M 153.160156 203.007812 L 117.3125 184.304688 C 118.871094 179.238281 119.652344 174.171875 119.652344 168.71875 C 119.652344 158.585938 116.535156 148.847656 110.691406 140.664062 L 154.332031 98.191406 C 169.136719 107.152344 188.621094 102.867188 197.582031 88.058594 C 198.75 86.113281 199.53125 84.164062 200.308594 82.214844 L 236.546875 86.113281 C 237.324219 100.140625 244.339844 113.386719 255.640625 121.960938 L 223.6875 181.574219 C 198.359375 171.445312 169.136719 180.40625 153.160156 203.007812 Z M 219.402344 217.421875 C 219.402344 226.773438 211.609375 234.179688 202.257812 234.179688 C 192.90625 234.179688 185.503906 226.773438 185.503906 217.421875 C 185.503906 208.074219 192.90625 200.667969 202.257812 200.667969 C 202.257812 200.667969 202.257812 200.667969 202.648438 200.667969 C 212 200.667969 219.402344 208.074219 219.402344 217.421875 Z M 236.15625 268.46875 L 168.746094 268.46875 L 168.746094 255.609375 C 168.746094 252.882812 169.917969 250.542969 172.253906 248.984375 C 177.320312 245.476562 182.773438 242.75 188.621094 240.800781 C 193.296875 239.632812 197.972656 238.855469 202.648438 238.855469 C 207.324219 238.855469 212 239.632812 216.675781 240.800781 C 222.519531 242.359375 228.363281 245.089844 233.039062 248.984375 C 234.988281 250.542969 236.546875 253.269531 236.546875 255.609375 Z M 291.488281 184.304688 C 291.488281 186.640625 291.875 188.980469 292.65625 191.316406 L 256.808594 210.019531 C 252.523438 201.449219 245.898438 194.433594 238.105469 188.980469 L 270.054688 129.363281 C 275.121094 131.3125 280.578125 132.089844 286.03125 132.089844 C 289.148438 132.089844 292.265625 131.699219 295.382812 131.3125 L 305.515625 158.585938 C 296.164062 164.042969 291.097656 173.78125 291.488281 184.304688 Z M 340.972656 199.890625 L 304.734375 199.890625 L 304.734375 192.875 C 304.734375 191.316406 305.515625 190.148438 306.683594 189.367188 C 309.410156 187.421875 312.527344 185.863281 315.644531 185.082031 C 317.984375 184.304688 320.710938 183.914062 323.046875 183.914062 C 325.386719 183.914062 328.113281 184.304688 330.453125 185.082031 C 333.570312 185.863281 336.296875 187.421875 339.023438 189.367188 C 340.191406 190.148438 340.972656 191.707031 340.972656 192.875 Z M 340.972656 199.890625 " fill-opacity="1" fill-rule="nonzero"/>
</svg>