<svg xmlns="http://www.w3.org/2000/svg" width="30" height="34" fill="none" viewBox="0 0 30 34"><path fill="#d1d5db" d="M27.847.186C26.11.25 24.37.166 22.635.23c-.7.045-1.278.91-.968 1.655.197.618.814.827 1.35.804 1.063-.031 2.128-.017 3.193-.049-4.869 5.448-9.757 10.874-14.613 16.334-.229.249-.4.691-.786.588-2.18.011-4.364-.015-6.543.014-.758.077-1.186.873-1.704 1.392-.781.99-1.79 1.761-2.421 2.892-.392.657.077 1.58.748 1.674.813.16 1.644-.014 2.464.039.786-.002 1.572.006 2.358-.009-.595.727-1.343 1.307-1.83 2.138-.345.561-.12 1.33.38 1.665.402.386.98.218 1.325-.17.628-.582 1.177-1.26 1.752-1.905.006 1.511-.031 3.025.017 4.535.018.708.526 1.403 1.194 1.353.758-.164 1.17-1 1.714-1.53.714-.85 1.516-1.617 2.17-2.526.407-.743.201-1.664.255-2.486.005-1.77-.01-3.54-.002-5.309.692-.905 1.53-1.659 2.255-2.531 4.091-4.576 8.195-9.137 12.264-13.737q.27-.298.527-.61c.033 1.424.01 2.848.027 4.271.01.65.4 1.378 1.04 1.371.608.074 1.213-.483 1.185-1.186a417 417 0 0 0-.007-7.538c.04-.662-.542-1.063-1.065-1.12-.352-.071-.711-.07-1.067-.064M5.405 22.056c1.12 0 2.239.015 3.359.021-.318.322-.593.75-.935 1.007-1.327.041-2.655-.011-3.982-.005.31-.342.61-.71.954-1.004.2-.015.402-.012.604-.018m5.032 3.286c-.015.847.023 1.713-.025 2.549-.282.352-.58.69-.886 1.016.017-1.393-.002-2.786.004-4.179.263-.386.588-.71.902-1.043Z"/></svg>