<svg xmlns="http://www.w3.org/2000/svg" xmlns:xlink="http://www.w3.org/1999/xlink" width="500" zoomAndPan="magnify" viewBox="0 0 375.12 383.03998" height="500" preserveAspectRatio="xMidYMid meet" version="1.0"><defs><clipPath id="9cb2cd0203"><path d="M 0.03125 139 L 155 139 L 155 350.824219 L 0.03125 350.824219 Z M 0.03125 139 " clip-rule="nonzero"/></clipPath><clipPath id="b40e6d5cb9"><path d="M 219 138 L 374 138 L 374 350.824219 L 219 350.824219 Z M 219 138 " clip-rule="nonzero"/></clipPath><clipPath id="f580df399b"><path d="M 0.03125 218 L 374.09375 218 L 374.09375 350.824219 L 0.03125 350.824219 Z M 0.03125 218 " clip-rule="nonzero"/></clipPath><clipPath id="b720903b99"><path d="M 0.03125 108 L 61 108 L 61 151 L 0.03125 151 Z M 0.03125 108 " clip-rule="nonzero"/></clipPath><clipPath id="2e8e78e056"><path d="M 49 23.144531 L 325 23.144531 L 325 185 L 49 185 Z M 49 23.144531 " clip-rule="nonzero"/></clipPath></defs><g clip-path="url(#9cb2cd0203)"><path fill="#00afcc" d="M 5.671875 350.65625 C 2.554688 350.65625 0.03125 348.132812 0.03125 345.015625 L 0.03125 144.726562 C 0.03125 142.621094 1.207031 140.683594 3.0625 139.671875 C 4.914062 138.664062 7.1875 138.832031 8.953125 140.09375 L 151.996094 240.28125 C 154.519531 242.050781 155.195312 245.585938 153.425781 248.195312 C 151.660156 250.722656 148.121094 251.394531 145.511719 249.628906 L 11.3125 155.585938 L 11.3125 345.015625 C 11.3125 348.132812 8.785156 350.65625 5.671875 350.65625 Z M 5.671875 350.65625 " fill-opacity="1" fill-rule="evenodd"/></g><g clip-path="url(#b40e6d5cb9)"><path fill="#00afcc" d="M 368.367188 350.65625 C 365.253906 350.65625 362.726562 348.132812 362.726562 345.015625 L 362.726562 155.585938 L 228.527344 249.460938 C 226 251.226562 222.464844 250.636719 220.613281 248.113281 C 218.84375 245.585938 219.433594 242.050781 221.957031 240.199219 L 233.578125 232.03125 L 365 140.011719 C 366.769531 138.832031 368.957031 138.664062 370.894531 139.589844 C 372.746094 140.601562 373.925781 142.535156 373.925781 144.640625 L 373.925781 344.933594 C 374.007812 348.132812 371.484375 350.65625 368.367188 350.65625 Z M 368.367188 350.65625 " fill-opacity="1" fill-rule="evenodd"/></g><g clip-path="url(#f580df399b)"><path fill="#00afcc" d="M 23.605469 339.292969 L 350.351562 339.292969 L 222.042969 249.460938 L 200.238281 234.136719 C 192.324219 228.578125 181.632812 228.578125 173.71875 234.136719 L 151.910156 249.460938 Z M 368.367188 350.65625 L 5.671875 350.65625 C 3.230469 350.65625 1.039062 349.058594 0.28125 346.699219 C -0.476562 344.34375 0.367188 341.734375 2.472656 340.386719 L 145.511719 240.199219 L 167.316406 224.875 C 179.105469 216.625 195.015625 216.625 206.804688 224.875 L 228.609375 240.199219 L 371.652344 340.386719 C 373.671875 341.816406 374.511719 344.34375 373.839844 346.699219 C 372.996094 349.058594 370.808594 350.65625 368.367188 350.65625 Z M 368.367188 350.65625 " fill-opacity="1" fill-rule="evenodd"/></g><g clip-path="url(#b720903b99)"><path fill="#00afcc" d="M 5.671875 150.367188 C 3.820312 150.367188 1.964844 149.441406 0.871094 147.671875 C -0.8125 144.976562 0.03125 141.527344 2.640625 139.84375 L 51.808594 109.027344 C 54.417969 107.34375 57.953125 108.1875 59.636719 110.796875 C 61.320312 113.40625 60.480469 116.941406 57.871094 118.625 L 8.703125 149.441406 C 7.691406 150.027344 6.679688 150.367188 5.671875 150.367188 Z M 5.671875 150.367188 " fill-opacity="1" fill-rule="evenodd"/></g><path fill="#00afcc" d="M 368.113281 150.367188 C 367.105469 150.367188 366.011719 150.113281 365.085938 149.523438 L 316.167969 118.878906 C 313.558594 117.195312 312.71875 113.742188 314.402344 111.046875 C 316.085938 108.355469 319.535156 107.597656 322.230469 109.28125 L 371.144531 139.925781 C 373.753906 141.609375 374.597656 145.0625 372.914062 147.757812 C 371.820312 149.355469 369.96875 150.367188 368.113281 150.367188 Z M 368.113281 150.367188 " fill-opacity="1" fill-rule="evenodd"/><g clip-path="url(#2e8e78e056)"><path fill="#00afcc" d="M 319.199219 184.714844 C 316.085938 184.714844 313.558594 182.191406 313.558594 179.074219 L 313.558594 34.6875 L 60.480469 34.6875 L 60.480469 179.074219 C 60.480469 182.191406 57.953125 184.714844 54.839844 184.714844 C 51.722656 184.714844 49.199219 182.191406 49.199219 179.074219 L 49.199219 29.046875 C 49.199219 25.929688 51.722656 23.40625 54.839844 23.40625 L 319.199219 23.40625 C 322.316406 23.40625 324.839844 25.929688 324.839844 29.046875 L 324.839844 179.074219 C 324.839844 182.191406 322.316406 184.714844 319.199219 184.714844 Z M 319.199219 184.714844 " fill-opacity="1" fill-rule="evenodd"/></g><path fill="#00afcc" d="M 176.328125 126.792969 C 176.578125 126.792969 176.746094 126.792969 177 126.792969 C 210.84375 130.664062 229.03125 149.609375 238.292969 164.761719 C 240.058594 167.710938 241.574219 170.570312 242.921875 173.351562 C 244.605469 151.964844 240.398438 134.789062 230.292969 121.992188 C 211.183594 97.660156 176.664062 97.15625 176.328125 97.15625 C 173.210938 97.15625 170.6875 94.632812 170.6875 91.515625 L 170.6875 71.5625 L 132.882812 109.871094 L 170.6875 151.714844 L 170.6875 132.515625 C 170.6875 130.917969 171.359375 129.402344 172.539062 128.308594 C 173.632812 127.296875 174.980469 126.792969 176.328125 126.792969 Z M 244.691406 203.492188 C 244.605469 203.492188 244.523438 203.492188 244.351562 203.492188 C 241.660156 203.320312 239.386719 201.21875 239.050781 198.523438 C 239.050781 198.355469 237.195312 184.632812 228.355469 170.402344 C 217.832031 153.398438 202.257812 142.871094 181.96875 139.085938 L 181.96875 166.53125 C 181.96875 168.886719 180.535156 170.992188 178.347656 171.835938 C 176.160156 172.675781 173.71875 172.085938 172.117188 170.320312 L 120.84375 113.574219 C 118.824219 111.386719 118.910156 107.933594 121.011719 105.828125 L 172.285156 53.796875 C 173.886719 52.199219 176.328125 51.695312 178.429688 52.535156 C 180.535156 53.378906 181.96875 55.480469 181.96875 57.753906 L 181.96875 86.210938 C 193.839844 87.390625 221.453125 92.527344 239.132812 115.003906 C 254.878906 134.957031 258.582031 163.332031 250.164062 199.113281 C 249.65625 201.636719 247.300781 203.492188 244.691406 203.492188 Z M 244.691406 203.492188 " fill-opacity="1" fill-rule="evenodd"/></svg>