<svg xmlns="http://www.w3.org/2000/svg" width="44" height="44" fill="none" viewBox="0 0 44 44"><path fill="#1f2937" d="M24.139 4.904c-.256 0-.502.092-.683.258a.85.85 0 0 0-.283.624v16.753h-3.864V9.313a.85.85 0 0 0-.283-.624 1.01 1.01 0 0 0-.683-.258c-.257 0-.502.093-.684.258a.85.85 0 0 0-.283.624v16.753h-3.864c-.734-2.857-2.624-4.515-4.647-4.723a150 150 0 0 0 3.035 6.663c1.662 3.46 3.334 6.035 5.484 7.757 2.075 1.663 4.744 2.648 8.687 2.648 2.819 0 5.522-1.022 7.515-2.841s3.112-4.287 3.112-6.859v-14.99a.84.84 0 0 0-.283-.624 1.01 1.01 0 0 0-.683-.258c-.256 0-.502.093-.683.259a.85.85 0 0 0-.283.624v8.818h-3.864V8.43a.84.84 0 0 0-.283-.623 1.01 1.01 0 0 0-.683-.258c-.257-.002-.502.09-.684.256a.84.84 0 0 0-.283.623v14.108h-3.864V5.786a.85.85 0 0 0-.283-.624 1.01 1.01 0 0 0-.683-.258M40.563 28.71c0 3.508-1.527 6.872-4.245 9.353s-6.403 3.874-10.247 3.874c-4.75 0-8.362-1.22-11.237-3.524-2.802-2.247-4.752-5.403-6.473-8.994-1.797-3.751-2.79-6.035-3.331-7.368-.69-1.7.263-4.077 2.852-4.243 2.043-.147 4.066.449 5.63 1.658V9.313c0-.66.162-1.312.474-1.907a4.5 4.5 0 0 1 1.331-1.532 5 5 0 0 1 1.926-.856 5.3 5.3 0 0 1 2.142-.012c.187-.946.706-1.81 1.48-2.462a5.06 5.06 0 0 1 2.807-1.148 5.2 5.2 0 0 1 2.997.632c.897.502 1.59 1.259 1.972 2.154a5.3 5.3 0 0 1 2.203-.08 5.1 5.1 0 0 1 2.013.82 4.5 4.5 0 0 1 1.405 1.55 4.1 4.1 0 0 1 .505 1.959v.97q.468-.09.965-.089c1.281 0 2.51.465 3.416 1.292s1.414 1.948 1.414 3.117Z"/></svg>