<svg xmlns="http://www.w3.org/2000/svg" xmlns:xlink="http://www.w3.org/1999/xlink" width="500" zoomAndPan="magnify" viewBox="0 0 375.12 383.03998" height="500" preserveAspectRatio="xMidYMid meet" version="1.0"><path fill="#00AFCC" d="M 250.574219 269.246094 C 244.730469 263.402344 241.222656 255.21875 241.222656 247.039062 L 238.882812 244.699219 C 203.425781 266.519531 158.226562 264.183594 125.105469 238.855469 L 123.9375 239.632812 C 119.652344 242.75 116.925781 247.816406 116.925781 253.269531 L 116.925781 288.339844 L 257.199219 288.339844 L 257.199219 275.871094 Z M 250.574219 269.246094 " fill-opacity="1" fill-rule="nonzero"/><path fill="#00AFCC" d="M 286.421875 153.910156 C 305.515625 150.792969 318.371094 132.480469 315.253906 113.386719 C 312.136719 94.296875 293.824219 81.4375 274.730469 84.554688 C 269.277344 85.332031 264.210938 87.671875 259.925781 90.789062 C 275.902344 107.933594 285.253906 130.144531 286.421875 153.910156 Z M 286.421875 153.910156 " fill-opacity="1" fill-rule="nonzero"/><path fill="#00AFCC" d="M 343.699219 184.695312 C 333.570312 176.902344 321.878906 171.054688 309.410156 168.328125 C 302.007812 165.988281 294.214844 164.820312 286.421875 164.042969 C 285.640625 180.796875 280.578125 197.160156 271.613281 211.578125 L 273.953125 213.917969 C 282.136719 213.917969 290.316406 217.421875 296.164062 223.269531 L 306.683594 233.789062 L 350.714844 233.789062 L 350.714844 198.71875 C 350.714844 193.265625 348.375 187.8125 343.699219 184.695312 Z M 343.699219 184.695312 " fill-opacity="1" fill-rule="nonzero"/><path fill="#00AFCC" d="M 324.996094 268.46875 L 288.371094 231.453125 C 283.304688 226.773438 276.679688 224.4375 269.667969 225.996094 L 256.417969 213.136719 C 268.496094 197.550781 274.730469 178.847656 274.730469 159.367188 C 275.121094 110.269531 235.378906 70.136719 185.890625 69.746094 C 136.40625 69.355469 97.050781 109.101562 97.050781 158.195312 C 97.050781 207.292969 136.40625 247.425781 185.890625 247.816406 C 205.375 247.816406 224.46875 241.582031 240.441406 229.503906 L 253.691406 242.359375 C 252.523438 248.984375 254.46875 256 259.144531 261.0625 L 296.164062 298.082031 C 303.957031 306.261719 317.203125 306.652344 325.386719 298.859375 C 333.570312 291.066406 333.957031 277.820312 326.164062 269.636719 C 325.777344 269.246094 325.386719 268.855469 324.996094 268.46875 Z M 186.28125 88.058594 C 225.636719 88.058594 257.199219 119.621094 257.199219 158.976562 C 257.199219 175.730469 251.351562 192.097656 240.441406 204.566406 C 233.039062 201.058594 225.636719 198.332031 217.84375 196.382812 C 207.324219 193.265625 196.414062 191.316406 185.503906 191.316406 C 174.59375 191.316406 163.683594 193.265625 153.160156 196.382812 C 145.757812 198.332031 138.746094 201.058594 132.121094 204.953125 C 106.792969 175.339844 110.300781 130.53125 139.914062 105.203125 C 152.773438 93.90625 169.136719 88.058594 186.28125 88.058594 Z M 186.28125 88.058594 " fill-opacity="1" fill-rule="nonzero"/><path fill="#00AFCC" d="M 224.855469 143.390625 C 224.855469 144.679688 224.792969 145.964844 224.667969 147.246094 C 224.542969 148.53125 224.351562 149.804688 224.101562 151.066406 C 223.847656 152.332031 223.535156 153.582031 223.164062 154.816406 C 222.789062 156.046875 222.355469 157.261719 221.863281 158.449219 C 221.367188 159.640625 220.816406 160.804688 220.210938 161.941406 C 219.601562 163.078125 218.941406 164.183594 218.226562 165.253906 C 217.507812 166.328125 216.742188 167.359375 215.925781 168.355469 C 215.105469 169.351562 214.242188 170.308594 213.332031 171.21875 C 212.417969 172.128906 211.464844 172.996094 210.46875 173.8125 C 209.472656 174.628906 208.4375 175.398438 207.367188 176.113281 C 206.296875 176.828125 205.191406 177.492188 204.054688 178.097656 C 202.917969 178.707031 201.753906 179.257812 200.5625 179.75 C 199.371094 180.242188 198.160156 180.675781 196.925781 181.050781 C 195.691406 181.425781 194.445312 181.738281 193.179688 181.988281 C 191.917969 182.242188 190.644531 182.429688 189.359375 182.554688 C 188.078125 182.683594 186.792969 182.746094 185.503906 182.746094 C 184.214844 182.746094 182.929688 182.683594 181.644531 182.554688 C 180.363281 182.429688 179.089844 182.242188 177.824219 181.988281 C 176.5625 181.738281 175.3125 181.425781 174.078125 181.050781 C 172.84375 180.675781 171.632812 180.242188 170.441406 179.75 C 169.25 179.257812 168.085938 178.707031 166.949219 178.097656 C 165.8125 177.492188 164.710938 176.828125 163.636719 176.113281 C 162.566406 175.398438 161.53125 174.628906 160.535156 173.8125 C 159.539062 172.996094 158.585938 172.128906 157.675781 171.21875 C 156.761719 170.308594 155.898438 169.351562 155.082031 168.355469 C 154.261719 167.359375 153.496094 166.328125 152.78125 165.253906 C 152.066406 164.183594 151.402344 163.078125 150.796875 161.941406 C 150.1875 160.804688 149.636719 159.640625 149.144531 158.449219 C 148.652344 157.261719 148.21875 156.046875 147.84375 154.816406 C 147.46875 153.582031 147.15625 152.332031 146.90625 151.066406 C 146.652344 149.804688 146.464844 148.53125 146.335938 147.246094 C 146.210938 145.964844 146.148438 144.679688 146.148438 143.390625 C 146.148438 142.101562 146.210938 140.816406 146.335938 139.535156 C 146.464844 138.25 146.652344 136.976562 146.90625 135.714844 C 147.15625 134.449219 147.46875 133.199219 147.84375 131.964844 C 148.21875 130.734375 148.652344 129.519531 149.144531 128.332031 C 149.636719 127.140625 150.1875 125.976562 150.796875 124.839844 C 151.402344 123.703125 152.066406 122.597656 152.78125 121.527344 C 153.496094 120.453125 154.261719 119.421875 155.082031 118.425781 C 155.898438 117.429688 156.761719 116.472656 157.675781 115.5625 C 158.585938 114.652344 159.539062 113.785156 160.535156 112.96875 C 161.53125 112.152344 162.566406 111.382812 163.636719 110.667969 C 164.710938 109.953125 165.8125 109.289062 166.949219 108.683594 C 168.085938 108.074219 169.25 107.523438 170.441406 107.03125 C 171.632812 106.539062 172.84375 106.105469 174.078125 105.730469 C 175.3125 105.355469 176.5625 105.042969 177.824219 104.792969 C 179.089844 104.539062 180.363281 104.351562 181.644531 104.226562 C 182.929688 104.097656 184.214844 104.035156 185.503906 104.035156 C 186.792969 104.035156 188.078125 104.097656 189.359375 104.226562 C 190.644531 104.351562 191.917969 104.539062 193.179688 104.792969 C 194.445312 105.042969 195.691406 105.355469 196.925781 105.730469 C 198.160156 106.105469 199.371094 106.539062 200.5625 107.03125 C 201.753906 107.523438 202.917969 108.074219 204.054688 108.683594 C 205.191406 109.289062 206.296875 109.953125 207.367188 110.667969 C 208.4375 111.382812 209.472656 112.152344 210.46875 112.96875 C 211.464844 113.785156 212.417969 114.652344 213.332031 115.5625 C 214.242188 116.472656 215.105469 117.429688 215.925781 118.425781 C 216.742188 119.421875 217.507812 120.453125 218.226562 121.527344 C 218.941406 122.597656 219.601562 123.703125 220.210938 124.839844 C 220.816406 125.976562 221.367188 127.140625 221.863281 128.332031 C 222.355469 129.519531 222.789062 130.734375 223.164062 131.964844 C 223.535156 133.199219 223.847656 134.449219 224.101562 135.714844 C 224.351562 136.976562 224.542969 138.25 224.667969 139.535156 C 224.792969 140.816406 224.855469 142.101562 224.855469 143.390625 Z M 224.855469 143.390625 " fill-opacity="1" fill-rule="nonzero"/><path fill="#00AFCC" d="M 85.753906 164.042969 C 78.738281 164.820312 71.726562 165.988281 64.710938 168.328125 C 52.632812 171.835938 40.941406 177.679688 30.421875 184.695312 C 25.746094 187.8125 23.410156 193.265625 23.410156 198.71875 L 23.410156 233.789062 L 107.574219 233.789062 C 109.132812 231.453125 111.078125 229.503906 113.417969 227.945312 C 96.664062 210.410156 86.921875 187.8125 85.753906 164.042969 Z M 85.753906 164.042969 " fill-opacity="1" fill-rule="nonzero"/><path fill="#00AFCC" d="M 85.753906 153.523438 C 86.921875 129.753906 96.664062 107.542969 113.027344 90.007812 C 97.050781 79.097656 75.230469 83.382812 64.320312 99.75 C 53.410156 116.113281 57.699219 137.546875 74.0625 148.457031 C 77.570312 150.792969 81.464844 152.351562 85.753906 153.523438 Z M 85.753906 153.523438 " fill-opacity="1" fill-rule="nonzero"/></svg>