<svg xmlns="http://www.w3.org/2000/svg" xmlns:xlink="http://www.w3.org/1999/xlink" width="500" zoomAndPan="magnify" viewBox="0 0 375 374.999991" height="500" preserveAspectRatio="xMidYMid meet" version="1.0"><defs><clipPath id="ed94581278"><path d="M 59 159 L 295.804688 159 L 295.804688 334 L 59 334 Z M 59 159 " clip-rule="nonzero"/></clipPath><clipPath id="85af8253d5"><path d="M 42.058594 20.394531 L 128.757812 20.394531 L 128.757812 107.195312 L 42.058594 107.195312 Z M 42.058594 20.394531 " clip-rule="nonzero"/></clipPath><clipPath id="8739869a4e"><path d="M 29.007812 0 L 64 0 L 64 35 L 29.007812 35 Z M 29.007812 0 " clip-rule="nonzero"/></clipPath><clipPath id="215c91e3c2"><path d="M 259.183594 288.167969 L 345.886719 288.167969 L 345.886719 374.96875 L 259.183594 374.96875 Z M 259.183594 288.167969 " clip-rule="nonzero"/></clipPath><clipPath id="77c57db394"><path d="M 246.136719 267.773438 L 281 267.773438 L 281 303 L 246.136719 303 Z M 246.136719 267.773438 " clip-rule="nonzero"/></clipPath></defs><g clip-path="url(#ed94581278)"><path fill="#d9d9d9" d="M 63.640625 328.347656 C 63.46875 328.472656 63.191406 325.859375 63.171875 325.707031 C 63.007812 324.238281 62.855469 322.769531 62.6875 321.300781 C 62.214844 317.101562 61.628906 312.910156 61.089844 308.714844 C 59.445312 295.839844 58.792969 282.921875 59.3125 269.949219 C 59.707031 260.109375 60.589844 250.296875 61.152344 240.46875 C 61.40625 236.046875 60.695312 229.847656 62.96875 225.824219 C 65.960938 220.527344 74.695312 217.492188 79.496094 214.207031 C 90.757812 206.5 101.929688 197.859375 111.621094 188.246094 C 118.472656 181.445312 124.835938 174.226562 131.199219 166.96875 C 131.972656 166.082031 136.410156 159.65625 137.761719 159.65625 C 137.929688 159.65625 139.574219 163.421875 139.703125 163.65625 C 141.90625 167.675781 144.320312 171.578125 146.492188 175.617188 C 156.074219 193.429688 166.011719 210.957031 175.402344 228.894531 C 178.960938 235.691406 183.171875 242.050781 187.101562 248.632812 C 188.488281 250.957031 189.75 253.324219 190.878906 255.785156 C 191.207031 256.503906 191.527344 257.226562 191.847656 257.945312 C 192.011719 258.3125 192.4375 259.4375 192.3125 259.054688 C 187.585938 244.882812 191.816406 230.046875 189.121094 215.800781 C 188.257812 211.226562 184.480469 208.398438 182.957031 204.242188 C 182.152344 202.050781 183.914062 194.800781 186.699219 194.46875 C 189.539062 194.125 192.386719 194.691406 195.300781 194.246094 C 196.078125 194.125 197.972656 193.410156 198.695312 194.003906 C 200.242188 195.265625 201.335938 198.828125 202.394531 200.546875 C 203.535156 202.398438 204.996094 204.539062 204.675781 206.828125 C 204.136719 210.714844 200.730469 213.417969 200.617188 217.558594 C 200.464844 222.988281 203.386719 228.417969 205.023438 233.460938 C 206.59375 238.3125 208.015625 243.195312 209.242188 248.148438 C 209.636719 249.734375 210.042969 251.3125 210.457031 252.894531 C 210.511719 253.101562 211.160156 255.074219 211.183594 255.035156 C 213.175781 251.902344 212.742188 244.488281 213.34375 240.914062 C 215.4375 228.492188 217.847656 216.6875 215.605469 204.082031 C 214.484375 197.773438 212.820312 191.566406 211.929688 185.210938 C 211.886719 184.886719 211.125 179.316406 211.425781 179.355469 C 213.402344 179.601562 215.820312 181.585938 217.527344 182.484375 C 221.785156 184.730469 226.078125 186.890625 230.515625 188.769531 C 236.808594 191.433594 243.28125 193.679688 249.832031 195.617188 C 253.335938 196.652344 257.75 197.117188 260.742188 199.394531 C 266.601562 203.859375 268.695312 214.511719 270.457031 221.09375 C 275.179688 238.679688 278.191406 256.761719 282.058594 274.550781 C 284.988281 288.039062 288.003906 301.511719 290.726562 315.039062 C 291.585938 319.320312 292.261719 323.683594 293.53125 327.871094 C 293.964844 329.296875 294.527344 330.664062 295.109375 332.03125 C 295.191406 332.222656 296.015625 334.363281 295.734375 333.726562 " fill-opacity="1" fill-rule="evenodd"/></g><path fill="#d9d9d9" d="M 188.257812 189.566406 C 176.324219 186.851562 160.8125 183.351562 153.417969 172.410156 C 150.3125 167.820312 150.8125 162.816406 149.917969 157.644531 C 149.453125 154.945312 147.183594 153.179688 146.316406 150.613281 C 145.183594 147.246094 145.628906 143.496094 144.269531 140.199219 C 141.078125 132.449219 135.089844 126.285156 134.6875 117.394531 C 134.476562 112.703125 136.71875 111.089844 138.21875 107.316406 C 139.136719 104.996094 139.167969 102.152344 139.207031 99.699219 C 139.328125 92.445312 137.359375 84.761719 139.527344 77.675781 C 141.003906 72.851562 144.46875 69.472656 147.113281 65.335938 C 148.417969 63.296875 149.34375 61.085938 149.75 58.699219 C 149.835938 58.199219 149.753906 56.738281 150.460938 56.605469 C 152.839844 56.167969 156.128906 57.492188 158.617188 57.457031 C 164.179688 57.375 169.652344 55.90625 175.160156 55.28125 C 182 54.503906 189.246094 53.644531 196.050781 55.171875 C 210.835938 58.484375 220.941406 71.617188 221.960938 86.589844 C 222.210938 90.257812 221.796875 93.996094 220.609375 97.480469 C 219.621094 100.382812 217.457031 103.554688 217.457031 106.699219 C 217.457031 109.863281 219.621094 112.734375 220.859375 115.515625 C 222.152344 118.414062 222.488281 122 221.921875 125.121094 C 221.117188 129.53125 215.953125 131.449219 215.253906 135.789062 C 214.476562 140.605469 215.667969 145.167969 213.679688 149.875 C 210.824219 156.632812 205.042969 161.878906 203.859375 169.429688 C 202.949219 175.242188 205.5625 185.492188 199.707031 189.398438 " fill-opacity="1" fill-rule="evenodd"/><g clip-path="url(#85af8253d5)"><path fill="#4b5563" d="M 100.195312 20.492188 L 97.839844 36.972656 C 95.910156 50.449219 102.460938 63.726562 114.328125 70.394531 L 128.839844 78.550781 L 112.359375 76.195312 C 98.886719 74.265625 85.609375 80.816406 78.941406 92.683594 L 70.78125 107.195312 L 73.140625 90.714844 C 75.066406 77.238281 68.519531 63.964844 56.652344 57.292969 L 42.136719 49.136719 L 58.621094 51.496094 C 72.09375 53.421875 85.371094 46.875 92.039062 35.007812 L 100.195312 20.492188 " fill-opacity="1" fill-rule="nonzero"/></g><g clip-path="url(#8739869a4e)"><path fill="#4b5563" d="M 46.394531 0.0273438 L 47.558594 6.242188 C 48.507812 11.324219 52.484375 15.300781 57.566406 16.25 L 63.78125 17.414062 L 57.566406 18.574219 C 52.484375 19.527344 48.507812 23.503906 47.558594 28.582031 L 46.394531 34.796875 L 45.230469 28.582031 C 44.28125 23.503906 40.304688 19.527344 35.226562 18.574219 L 29.007812 17.414062 L 35.226562 16.25 C 40.304688 15.300781 44.28125 11.324219 45.230469 6.242188 L 46.394531 0.0273438 " fill-opacity="1" fill-rule="nonzero"/></g><path fill="#4b5563" d="M 70.644531 17.414062 L 71.101562 19.867188 C 71.480469 21.871094 73.046875 23.441406 75.054688 23.816406 L 77.507812 24.273438 L 75.054688 24.734375 C 73.046875 25.109375 71.480469 26.679688 71.101562 28.683594 L 70.644531 31.136719 L 70.183594 28.683594 C 69.808594 26.679688 68.238281 25.109375 66.234375 24.734375 L 63.78125 24.273438 L 66.234375 23.816406 C 68.238281 23.441406 69.808594 21.871094 70.183594 19.867188 L 70.644531 17.414062 " fill-opacity="1" fill-rule="nonzero"/><path fill="#4b5563" d="M 119.34375 10.550781 L 119.800781 13.003906 C 120.175781 15.007812 121.746094 16.578125 123.753906 16.953125 L 126.203125 17.414062 L 123.753906 17.871094 C 121.746094 18.246094 120.175781 19.816406 119.800781 21.824219 L 119.34375 24.273438 L 118.882812 21.824219 C 118.507812 19.816406 116.9375 18.246094 114.933594 17.871094 L 112.480469 17.414062 L 114.933594 16.953125 C 116.9375 16.578125 118.507812 15.007812 118.882812 13.003906 L 119.34375 10.550781 " fill-opacity="1" fill-rule="nonzero"/><g clip-path="url(#215c91e3c2)"><path fill="#4b5563" d="M 317.324219 288.265625 L 314.964844 304.746094 C 313.039062 318.222656 319.585938 331.5 331.453125 338.167969 L 345.96875 346.324219 L 329.488281 343.96875 C 316.011719 342.039062 302.734375 348.589844 296.066406 360.457031 L 287.910156 374.96875 L 290.265625 358.488281 C 292.195312 345.011719 285.644531 331.738281 273.777344 325.066406 L 259.265625 316.910156 L 275.746094 319.269531 C 289.222656 321.195312 302.496094 314.648438 309.164062 302.78125 L 317.324219 288.265625 " fill-opacity="1" fill-rule="nonzero"/></g><g clip-path="url(#77c57db394)"><path fill="#4b5563" d="M 263.523438 267.800781 L 264.683594 274.015625 C 265.636719 279.097656 269.609375 283.074219 274.691406 284.023438 L 280.90625 285.1875 L 274.691406 286.347656 C 269.609375 287.300781 265.636719 291.277344 264.683594 296.355469 L 263.523438 302.570312 L 262.359375 296.355469 C 261.40625 291.277344 257.433594 287.300781 252.351562 286.347656 L 246.136719 285.1875 L 252.351562 284.023438 C 257.433594 283.074219 261.40625 279.097656 262.359375 274.015625 L 263.523438 267.800781 " fill-opacity="1" fill-rule="nonzero"/></g><path fill="#4b5563" d="M 287.769531 285.1875 L 288.230469 287.640625 C 288.605469 289.644531 290.171875 291.214844 292.179688 291.589844 L 294.632812 292.050781 L 292.179688 292.507812 C 290.171875 292.882812 288.605469 294.453125 288.230469 296.457031 L 287.769531 298.910156 L 287.308594 296.457031 C 286.933594 294.453125 285.367188 292.882812 283.359375 292.507812 L 280.90625 292.050781 L 283.359375 291.589844 C 285.367188 291.214844 286.933594 289.644531 287.308594 287.640625 L 287.769531 285.1875 " fill-opacity="1" fill-rule="nonzero"/><path fill="#4b5563" d="M 336.46875 278.324219 L 336.929688 280.777344 C 337.300781 282.78125 338.871094 284.351562 340.878906 284.726562 L 343.332031 285.1875 L 340.878906 285.644531 C 338.871094 286.019531 337.300781 287.589844 336.929688 289.597656 L 336.46875 292.050781 L 336.007812 289.597656 C 335.632812 287.589844 334.066406 286.019531 332.058594 285.644531 L 329.605469 285.1875 L 332.058594 284.726562 C 334.066406 284.351562 335.632812 282.78125 336.007812 280.777344 L 336.46875 278.324219 " fill-opacity="1" fill-rule="nonzero"/></svg>