<svg xmlns="http://www.w3.org/2000/svg" width="124" height="125" fill="none" viewBox="0 0 124 125"><rect width="120.65" height="120.65" x="1.675" y="2.109" stroke="#00afcc" stroke-width="2.85" rx="60.325"/><g fill="#00afcc" clip-path="url(#clip0_39_4713)"><path d="M95.3 62.434H68.167a3.7 3.7 0 0 0-3.7 3.7v16.033a3.7 3.7 0 0 0 3.7 3.7h9.867v3.7H73.1v2.467H62v-6.685a8.67 8.67 0 0 0-6.36-8.331l-7.208-1.96v-1.85a8.62 8.62 0 0 0 3.7-7.074V64.9c.681 0 1.234-.553 1.234-1.234v-3.7c-.006-5.446-4.42-9.86-9.867-9.867H32.4a2.467 2.467 0 0 0-2.467 2.467v6.167a6.14 6.14 0 0 0 4.6 5.96c.109.031.223.045.334.069v1.371a8.62 8.62 0 0 0 3.7 7.074v1.85l-7.21 1.961A8.67 8.67 0 0 0 25 85.35V98.2c-.001.682.551 1.234 1.232 1.234h71.533c.682 0 1.234-.552 1.234-1.233v-4.933c0-.682-.552-1.234-1.233-1.234h-7.4v-2.467h-4.933v-3.7H95.3a3.7 3.7 0 0 0 3.7-3.7V66.134a3.7 3.7 0 0 0-3.7-3.7m-62.9-3.7v-6.167h11.1a7.407 7.407 0 0 1 7.4 7.4v2.467h-.814a2.474 2.474 0 0 1-2.393-1.864l-.53-2.134a1.235 1.235 0 0 0-2.183-.443l-.74.988c-.44.58-.95 1.105-1.518 1.562a8.6 8.6 0 0 1-5.389 1.891H36.1a3.3 3.3 0 0 1-.929-.123 3.684 3.684 0 0 1-2.771-3.576m4.933 7.4V64.9a11.09 11.09 0 0 0 8.045-3.461 4.93 4.93 0 0 0 4.288 3.427v1.268a6.167 6.167 0 0 1-12.333 0m6.167 8.633a8.6 8.6 0 0 0 2.467-.37V76c.004.354.16.688.43.917L43.5 79.331l-2.897-2.413a1.22 1.22 0 0 0 .43-.918v-1.603c.8.243 1.631.368 2.467.37m-11.49 4.631 5.817-1.583 4.884 4.07C43.168 82.265 43.83 82.265 44.289 81.884l4.884-4.07 5.814 1.582a6.2 6.2 0 0 1 4.546 5.952v6.685h-3.7v-6.167h-2.467v6.167H33.634v-6.167h-2.467v6.167h-3.7v-6.685a6.196 6.196 0 0 1 4.543-5.951m64.523 15.103v2.467H27.466V94.5ZM80.5 89.567V76h2.467v13.567Zm16.033-7.4c0 .681-.552 1.233-1.233 1.233h-9.867v-8.633c0-.681-.552-1.233-1.233-1.233h-4.933c-.681 0-1.234.552-1.234 1.233V83.4h-9.867a1.234 1.234 0 0 1-1.233-1.233V66.134c0-.681.553-1.234 1.234-1.234H95.3c.681 0 1.233.553 1.233 1.234Z"/><path d="M95.3 25.434H73.1a3.7 3.7 0 0 0-3.7 3.7v1.233h-1.233a3.7 3.7 0 0 0-3.7 3.7v17.267a3.7 3.7 0 0 0 3.7 3.7h22.2a3.7 3.7 0 0 0 3.7-3.7V50.1H95.3a3.7 3.7 0 0 0 3.7-3.7V29.133a3.7 3.7 0 0 0-3.7-3.7m-27.133 7.4h22.2c.68 0 1.233.552 1.233 1.233V35.3H66.933v-1.233c0-.681.552-1.233 1.234-1.233m22.2 19.733h-22.2a1.233 1.233 0 0 1-1.233-1.233V37.767H91.6v13.567c-.001.68-.553 1.233-1.234 1.233m6.166-6.167c0 .681-.552 1.234-1.233 1.234h-1.233V34.067a3.7 3.7 0 0 0-3.7-3.7h-18.5v-1.233c0-.681.552-1.234 1.233-1.234h22.2c.681 0 1.233.553 1.233 1.234Z"/><path d="M78.033 42.7H80.5v2.467h-2.467Z"/><path d="M82.967 42.7h2.467v2.467h-2.467Z"/><path d="M73.1 42.7h2.467v2.467H73.1Z"/><path d="M32.4 30.367h4.933v2.467H32.4Z"/><path d="M39.8 30.367h14.8v2.467H39.8Z"/><path d="M33.633 40.234h4.933V42.7h-4.933Z"/><path d="M41.033 40.234h14.8V42.7h-14.8Z"/><path d="M34.867 35.3H39.8v2.467h-4.933Z"/><path d="M42.267 35.3h14.8v2.467h-14.8Z"/></g><defs><clipPath id="clip0_39_4713"><path fill="#fff" d="M25 25.434h74v74H25Z"/></clipPath></defs></svg>