<svg xmlns="http://www.w3.org/2000/svg" width="54" height="68" fill="none" viewBox="0 0 54 68"><path fill="#1f2937" d="M10.333.35h33.333a10 10 0 0 1 10 10v46.667a10 10 0 0 1-10 10H10.334a10 10 0 0 1-10-10V10.35a10 10 0 0 1 10-10m0 6.667A3.333 3.333 0 0 0 7 10.35v46.667a3.333 3.333 0 0 0 3.333 3.333h33.333A3.333 3.333 0 0 0 47 57.017V10.35a3.333 3.333 0 0 0-3.333-3.333ZM17 10.35h20a3.333 3.333 0 1 1 0 6.667H17a3.333 3.333 0 0 1 0-6.667m0 40h6.667a3.333 3.333 0 1 1 0 6.667H17a3.333 3.333 0 0 1 0-6.667m0-13.333h20a3.333 3.333 0 1 1 0 6.667H17a3.333 3.333 0 0 1 0-6.667m0-13.333h20a3.333 3.333 0 1 1 0 6.667H17a3.333 3.333 0 0 1 0-6.667"/></svg>