<svg xmlns="http://www.w3.org/2000/svg" width="37" height="41" fill="none" viewBox="0 0 37 41"><path fill="#1f2937" d="M20.139 3.587c-.256 0-.502.093-.683.258a.85.85 0 0 0-.283.624v16.753h-3.864V7.996a.85.85 0 0 0-.283-.624 1.01 1.01 0 0 0-.683-.258c-.257 0-.502.093-.684.258a.85.85 0 0 0-.283.624v16.753H9.512c-.734-2.857-2.624-4.514-4.647-4.722A150 150 0 0 0 7.9 26.69c1.662 3.46 3.334 6.034 5.484 7.757 2.075 1.663 4.744 2.647 8.687 2.647 2.819 0 5.522-1.022 7.515-2.84 1.992-1.82 3.112-4.287 3.112-6.86v-14.99a.84.84 0 0 0-.283-.624 1.01 1.01 0 0 0-.683-.258c-.256.001-.502.094-.683.26a.85.85 0 0 0-.283.624v8.818h-3.864V7.114a.84.84 0 0 0-.283-.624 1.01 1.01 0 0 0-.683-.258c-.257-.002-.502.091-.684.257a.84.84 0 0 0-.283.624v14.108h-3.864V4.47a.85.85 0 0 0-.283-.624 1.01 1.01 0 0 0-.683-.258m16.424 23.808c0 3.508-1.527 6.872-4.245 9.352-2.717 2.48-6.403 3.874-10.247 3.874-4.75 0-8.362-1.22-11.237-3.523-2.802-2.247-4.752-5.404-6.473-8.994-1.797-3.751-2.79-6.035-3.331-7.368-.69-1.7.263-4.078 2.852-4.243 2.043-.147 4.066.449 5.63 1.657V7.996c0-.66.162-1.312.474-1.907a4.5 4.5 0 0 1 1.331-1.532 5 5 0 0 1 1.926-.856 5.3 5.3 0 0 1 2.142-.012c.187-.945.706-1.81 1.48-2.462A5.06 5.06 0 0 1 19.672.08a5.2 5.2 0 0 1 2.997.632c.897.503 1.59 1.26 1.972 2.155a5.3 5.3 0 0 1 2.203-.08 5.1 5.1 0 0 1 2.013.82 4.5 4.5 0 0 1 1.405 1.55 4.1 4.1 0 0 1 .504 1.959v.97q.47-.09.966-.089c1.281 0 2.51.464 3.416 1.291s1.414 1.948 1.414 3.118Z"/></svg>