<svg xmlns="http://www.w3.org/2000/svg" width="68" height="59" fill="none" viewBox="0 0 68 59"><path stroke="#1f2937" stroke-linecap="round" stroke-width="4" d="M44.667 18.112h10.667M44.666 29.684h10.667M44.666 41.255h10.667M34 45.112c-1.088-2.364-3.317-3.857-5.753-3.857H18.42c-2.435 0-4.664 1.493-5.752 3.857M5.556 2.684h56.889c.942 0 1.847.406 2.514 1.13A4.03 4.03 0 0 1 66 6.54v46.286a4.03 4.03 0 0 1-1.041 2.727c-.667.723-1.572 1.13-2.515 1.13H5.555c-.942 0-1.847-.407-2.514-1.13A4.03 4.03 0 0 1 2 52.827V6.54a4.03 4.03 0 0 1 1.041-2.727c.667-.724 1.572-1.13 2.515-1.13Zm24.888 19.285c0 2.046-.749 4.008-2.082 5.455-1.334 1.447-3.143 2.26-5.029 2.26s-3.694-.813-5.028-2.26-2.083-3.409-2.083-5.455.75-4.008 2.083-5.454c1.334-1.447 3.142-2.26 5.028-2.26s3.695.813 5.029 2.26c1.333 1.446 2.082 3.408 2.082 5.454Z"/></svg>