<svg xmlns="http://www.w3.org/2000/svg" width="78" height="77" fill="none" viewBox="0 0 78 77"><path fill="#00afcc" stroke="#00afcc" stroke-width=".306" d="M67.812 52.58 54.45 58.685a4.87 4.87 0 0 0-3.068-1.086H45.45c-2.027 0-3.723-.865-4.904-2.5a11.83 11.83 0 0 0-6.424-4.472 11.77 11.77 0 0 0-10.568 2.152h-3.498l.627-2.06a.94.94 0 0 0-.07-.72.94.94 0 0 0-.559-.46L8.504 46.036a.95.95 0 0 0-1.179.63L.412 69.335a.947.947 0 0 0 .63 1.18l8.598 2.613a4.02 4.02 0 0 0 5.037-2.686l.19-.628h7.88l22.894 6.268a8.2 8.2 0 0 0 2.183.306c1.626 0 3.193-.52 4.615-1.547l21.352-15.57a1 1 0 0 0 .218-.223c1.478-2.12.823-4.427-.483-5.772-1.298-1.337-3.56-2.063-5.714-.697Zm-57.62 18.74-3.404-1.034 2.79-9.187a.945.945 0 1 0-1.808-.55l-2.79 9.186-2.483-.754 6.362-20.86 9.739 2.953-5.73 18.815c-.337 1.1-1.556 1.775-2.676 1.431ZM72.54 57.844 51.329 73.31c-1.588 1.144-3.33 1.465-5.185.948l-23.02-6.302a1 1 0 0 0-.25-.033h-7.43L19.48 54.67h4.414c.224 0 .44-.08.612-.225a9.89 9.89 0 0 1 9.107-1.996 9.94 9.94 0 0 1 5.4 3.758c1.529 2.117 3.815 3.282 6.437 3.282h5.932c1.665 0 3.022 1.365 3.022 3.041s-1.357 3.04-3.023 3.04h-16.46a.944.944 0 1 0 0 1.89h16.46c2.71 0 4.912-2.211 4.912-4.93 0-.846-.214-1.643-.59-2.34l12.956-5.92a1 1 0 0 0 .125-.068c1.356-.887 2.672-.345 3.385.39.688.709 1.18 1.972.372 3.252Zm4.103-15.165h-3.688V13.708c0-1.882-1.521-3.411-3.392-3.411H59.277c-1.594-4.145-5.606-7.1-10.305-7.1-4.69 0-8.696 2.955-10.287 7.1H28.397c-1.88 0-3.41 1.53-3.41 3.41v28.971h-3.69a.944.944 0 0 0-.945.945v2.242a3.19 3.19 0 0 0 3.188 3.188h50.862a3.19 3.19 0 0 0 3.187-3.188v-2.242a.945.945 0 0 0-.946-.945ZM65.69 14.226c0-.084.092-.167.186-.167a.17.17 0 0 1 .166.167C66.043 14.428 65.69 14.452 65.69 14.227Zm-16.72-8.95c1.148.504 1.944 2.005 2.376 4.478A27 27 0 0 0 46.59 9.753c.42-2.467 1.219-3.97 2.38-4.477Zm.002 18.051c-1.369-.587-2.044-2.551-2.38-4.48.789.07 1.58.12 2.372.12.796 0 1.593-.05 2.384-.12-.432 2.486-1.229 3.99-2.376 4.48Zm-2.623-11.65a25 25 0 0 1 5.246.002c.185 1.745.185 3.499 0 5.244a24.8 24.8 0 0 1-5.247 0c-.184-1.734-.184-3.487 0-5.246Zm7.17.248c2.474.431 3.972 1.227 4.462 2.376-.491 1.159-1.986 1.955-4.462 2.38.142-1.583.142-3.175 0-4.757Zm-9.096 4.755c-2.474-.424-3.98-1.219-4.483-2.372.5-1.16 2.003-1.958 4.484-2.386-.142 1.592-.142 3.184 0 4.758Zm.22 1.948q.379 2.607 1.274 4.219a9.17 9.17 0 0 1-5.53-5.497q1.608.899 4.255 1.278Zm8.654.002q2.668-.389 4.29-1.322a9.18 9.18 0 0 1-5.555 5.538c.588-1.067 1.008-2.467 1.265-4.217Zm4.342-7.316c-1.08-.627-2.523-1.072-4.342-1.34-.272-1.845-.727-3.3-1.368-4.386a9.19 9.19 0 0 1 5.71 5.727ZM46.02 5.587q-.98 1.644-1.379 4.385c-1.802.262-3.233.7-4.312 1.32a9.18 9.18 0 0 1 5.69-5.704Zm-8.078 8.658c0 6.08 4.947 11.028 11.028 11.028 6.091 0 11.047-4.947 11.047-11.028 0-.704-.072-1.39-.199-2.057h5.868a2.07 2.07 0 0 0-1.644 1.093h-2.19a.945.945 0 1 0 0 1.89h2.185a2.07 2.07 0 0 0 1.838 1.131c.758 0 1.414-.42 1.77-1.038h.342v24.56H29.973v-24.56h.326a2.07 2.07 0 0 0 1.787 1.039 2.05 2.05 0 0 0 1.821-1.131h2.182a.945.945 0 1 0 0-1.891h-2.187a2.05 2.05 0 0 0-1.63-1.093h5.87c-.125.667-.198 1.353-.198 2.057Zm-5.858-.186c.09 0 .168.078.168.167 0 .191-.307.216-.341.027l-.005-.042a.19.19 0 0 1 .178-.152Zm-5.208-.352c0-.823.696-1.52 1.52-1.52h3.5a2.07 2.07 0 0 0-1.696 1.186h-1.174a.945.945 0 0 0-.946.945v26.45c0 .523.424.946.947.946h39.906a.944.944 0 0 0 .945-.945v-26.45a.945.945 0 0 0-.945-.945h-1.191a2.05 2.05 0 0 0-1.68-1.186h3.502c.828 0 1.501.681 1.501 1.52v28.971H26.877ZM41.37 44.57H56.59v.204a.21.21 0 0 1-.204.204h-14.81a.21.21 0 0 1-.205-.204ZM75.7 45.866a1.3 1.3 0 0 1-1.297 1.298H23.54a1.3 1.3 0 0 1-1.298-1.298V44.57h17.239v.204c0 1.155.939 2.094 2.094 2.094h14.81c1.155 0 2.094-.939 2.094-2.094v-.204H75.7v1.297ZM33.827 19.495l-.923 1.58c-.033-.001-.063-.009-.096-.009-1.145 0-2.076.931-2.076 2.076 0 1.134.931 2.057 2.077 2.057a2.07 2.07 0 0 0 2.076-2.058 2.06 2.06 0 0 0-.338-1.13l.639-1.093h1.684c2.399 4.365 7.085 7.155 12.101 7.155 5.09 0 9.68-2.727 12.12-7.155h1.685l.64 1.094a2.06 2.06 0 0 0-.338 1.13c0 1.134.93 2.057 2.075 2.057a2.06 2.06 0 0 0 2.057-2.058 2.07 2.07 0 0 0-2.057-2.075c-.032 0-.062.008-.095.01l-.924-1.581a.95.95 0 0 0-.816-.468h-2.8a.95.95 0 0 0-.846.524 11.89 11.89 0 0 1-10.702 6.631c-4.5 0-8.693-2.602-10.68-6.628a.95.95 0 0 0-.847-.527h-2.8a.95.95 0 0 0-.816.468Zm-1.019 3.814c-.093 0-.186-.083-.186-.168 0-.108.099-.184.186-.184.088 0 .186.076.186.184 0 .085-.092.168-.186.168Zm32.345 0c-.094 0-.186-.083-.186-.168 0-.108.099-.184.186-.184.093 0 .167.08.167.184a.17.17 0 0 1-.166.168ZM32.808 7.406c.033 0 .064-.009.095-.01l.924 1.58c.17.29.48.468.816.468h2.8c.36 0 .687-.204.846-.525a11.85 11.85 0 0 1 10.682-6.63c4.505 0 8.705 2.603 10.701 6.63.16.321.487.525.847.525h2.8a.95.95 0 0 0 .816-.468l.923-1.58c.032.001.062.01.095.01a2.06 2.06 0 0 0 2.057-2.058 2.07 2.07 0 0 0-2.057-2.076 2.08 2.08 0 0 0-2.076 2.076c0 .41.125.793.336 1.115l-.637 1.09h-1.684C58.682 3.19 53.99.4 48.97.4c-5.087 0-9.671 2.727-12.101 7.155h-1.684l-.637-1.091c.21-.322.336-.704.336-1.115a2.08 2.08 0 0 0-2.076-2.076 2.08 2.08 0 0 0-2.076 2.076c0 1.135.93 2.058 2.075 2.058Zm32.345-2.244c.093 0 .167.082.167.186a.17.17 0 0 1-.166.167c-.095 0-.187-.083-.187-.167 0-.11.099-.186.186-.186Zm-32.345 0c.088 0 .186.076.186.186 0 .084-.092.167-.186.167-.093 0-.186-.083-.186-.167 0-.11.099-.186.186-.186Z"/></svg>