<svg xmlns="http://www.w3.org/2000/svg" width="54" height="68" viewBox="0 0 54 68" fill="none">
<path d="M10.3333 0.35025H43.6666C46.3188 0.35025 48.8623 1.40382 50.7377 3.27918C52.613 5.15455 53.6666 7.69809 53.6666 10.3503V57.0169C53.6666 59.6691 52.613 62.2126 50.7377 64.088C48.8623 65.9633 46.3188 67.0169 43.6666 67.0169H10.3333C7.68109 67.0169 5.13755 65.9633 3.26218 64.088C1.38682 62.2126 0.333252 59.6691 0.333252 57.0169L0.333252 10.3503C0.333252 7.69809 1.38682 5.15455 3.26218 3.27918C5.13755 1.40382 7.68109 0.35025 10.3333 0.35025ZM10.3333 7.01692C9.4492 7.01692 8.60135 7.36811 7.97623 7.99323C7.35111 8.61835 6.99992 9.4662 6.99992 10.3503V57.0169C6.99992 57.901 7.35111 58.7488 7.97623 59.3739C8.60135 59.9991 9.4492 60.3503 10.3333 60.3503H43.6666C44.5506 60.3503 45.3985 59.9991 46.0236 59.3739C46.6487 58.7488 46.9999 57.901 46.9999 57.0169V10.3503C46.9999 9.4662 46.6487 8.61835 46.0236 7.99323C45.3985 7.36811 44.5506 7.01692 43.6666 7.01692H10.3333ZM16.9999 10.3503H36.9999C37.884 10.3503 38.7318 10.7014 39.3569 11.3266C39.9821 11.9517 40.3333 12.7995 40.3333 13.6836C40.3333 14.5676 39.9821 15.4155 39.3569 16.0406C38.7318 16.6657 37.884 17.0169 36.9999 17.0169H16.9999C16.1159 17.0169 15.268 16.6657 14.6429 16.0406C14.0178 15.4155 13.6666 14.5676 13.6666 13.6836C13.6666 12.7995 14.0178 11.9517 14.6429 11.3266C15.268 10.7014 16.1159 10.3503 16.9999 10.3503ZM16.9999 50.3503H23.6666C24.5506 50.3503 25.3985 50.7014 26.0236 51.3266C26.6487 51.9517 26.9999 52.7995 26.9999 53.6836C26.9999 54.5676 26.6487 55.4155 26.0236 56.0406C25.3985 56.6657 24.5506 57.0169 23.6666 57.0169H16.9999C16.1159 57.0169 15.268 56.6657 14.6429 56.0406C14.0178 55.4155 13.6666 54.5676 13.6666 53.6836C13.6666 52.7995 14.0178 51.9517 14.6429 51.3266C15.268 50.7014 16.1159 50.3503 16.9999 50.3503ZM16.9999 37.0169H36.9999C37.884 37.0169 38.7318 37.3681 39.3569 37.9932C39.9821 38.6183 40.3333 39.4662 40.3333 40.3503C40.3333 41.2343 39.9821 42.0821 39.3569 42.7073C38.7318 43.3324 37.884 43.6836 36.9999 43.6836H16.9999C16.1159 43.6836 15.268 43.3324 14.6429 42.7073C14.0178 42.0821 13.6666 41.2343 13.6666 40.3503C13.6666 39.4662 14.0178 38.6183 14.6429 37.9932C15.268 37.3681 16.1159 37.0169 16.9999 37.0169ZM16.9999 23.6836H36.9999C37.884 23.6836 38.7318 24.0348 39.3569 24.6599C39.9821 25.285 40.3333 26.1329 40.3333 27.0169C40.3333 27.901 39.9821 28.7488 39.3569 29.3739C38.7318 29.9991 37.884 30.3503 36.9999 30.3503H16.9999C16.1159 30.3503 15.268 29.9991 14.6429 29.3739C14.0178 28.7488 13.6666 27.901 13.6666 27.0169C13.6666 26.1329 14.0178 25.285 14.6429 24.6599C15.268 24.0348 16.1159 23.6836 16.9999 23.6836Z" fill="#1F2937"/>
</svg>