<svg xmlns="http://www.w3.org/2000/svg" width="80" height="56" viewBox="0 0 80 56" fill="none">
<path d="M79.4662 18.9059L71.4912 2.94964C71.1974 2.36235 70.7908 1.83868 70.2946 1.40854C69.7984 0.978404 69.2223 0.650222 68.5993 0.442736C67.9762 0.23525 67.3185 0.152526 66.6634 0.199287C66.0084 0.246048 65.369 0.421379 64.7818 0.715266L57.0099 4.59964L40.638 0.268391C40.218 0.159071 39.7769 0.159071 39.3568 0.268391L22.9849 4.59964L15.213 0.715266C14.6258 0.421379 13.9864 0.246048 13.3314 0.199287C12.6764 0.152526 12.0186 0.23525 11.3956 0.442736C10.7725 0.650222 10.1965 0.978404 9.70026 1.40854C9.20407 1.83868 8.79746 2.36235 8.50367 2.94964L0.528672 18.9028C0.234784 19.49 0.059454 20.1294 0.012693 20.7844C-0.034068 21.4394 0.0486565 22.0972 0.256142 22.7203C0.463628 23.3433 0.79181 23.9194 1.22195 24.4156C1.65209 24.9117 2.17575 25.3183 2.76305 25.6121L11.2005 29.834L28.5412 42.2184C28.7968 42.3999 29.084 42.5324 29.388 42.609L49.388 47.609C49.8069 47.7141 50.2458 47.7088 50.662 47.5938C51.0782 47.4788 51.4576 47.2579 51.763 46.9528L68.9724 29.7403L77.2287 25.6121C78.4139 25.0188 79.3151 23.9791 79.7341 22.7215C80.1531 21.464 80.0556 20.0916 79.463 18.9059H79.4662ZM62.313 29.334L51.5599 20.7215C51.0782 20.3357 50.4708 20.1418 49.8546 20.177C49.2385 20.2121 48.6571 20.474 48.2224 20.9121C42.6568 26.5184 36.4537 25.809 32.4974 23.309L46.0099 10.184H55.9505L64.4537 27.1871L62.313 29.334ZM12.9755 5.18402L19.3724 8.37777L11.3818 24.3309L4.99742 21.1403L12.9755 5.18402ZM49.2255 42.4121L31.0662 37.8746L15.6912 26.8934L24.4412 9.39339L39.9974 5.27152L43.0599 6.08089L28.9974 19.7309L28.9724 19.759C28.4431 20.2884 28.0393 20.9298 27.791 21.6361C27.5427 22.3423 27.4561 23.0953 27.5377 23.8395C27.6193 24.5836 27.867 25.3 28.2624 25.9356C28.6578 26.5713 29.1909 27.1101 29.8224 27.5121C36.2474 31.6153 44.0005 30.9496 50.1068 25.9496L58.7474 32.8903L49.2255 42.4121ZM68.6005 24.3278L60.6255 8.39027L67.0193 5.18402L74.9974 21.1403L68.6005 24.3278ZM41.1787 53.2871C41.0436 53.8275 40.732 54.3072 40.2932 54.6503C39.8545 54.9934 39.3138 55.1801 38.7568 55.1809C38.5514 55.181 38.3467 55.1558 38.1474 55.1059L25.1255 51.8496C24.821 51.7744 24.5336 51.6418 24.2787 51.459L16.0443 45.5778C15.538 45.1802 15.2045 44.6027 15.1134 43.9655C15.0222 43.3283 15.1804 42.6804 15.5549 42.1569C15.9294 41.6333 16.4915 41.2744 17.124 41.1549C17.7565 41.0354 18.4108 41.1645 18.9505 41.5153L26.7974 47.1215L39.3724 50.259C40.0155 50.4199 40.5684 50.8296 40.9095 51.398C41.2505 51.9665 41.3519 52.6471 41.1912 53.2903L41.1787 53.2871Z" fill="#1F2937"/>
</svg>