<svg xmlns="http://www.w3.org/2000/svg" xmlns:xlink="http://www.w3.org/1999/xlink" width="500" zoomAndPan="magnify" viewBox="0 0 375.12 383.03998" height="500" preserveAspectRatio="xMidYMid meet" version="1.0"><path fill="#00afcc" d="M 373.398438 350.625 L 349.496094 280.710938 C 350.691406 278.613281 351.828125 276.484375 352.902344 274.324219 C 353.976562 272.164062 354.992188 269.972656 355.945312 267.753906 C 356.898438 265.539062 357.785156 263.292969 358.613281 261.027344 C 359.441406 258.757812 360.203125 256.46875 360.902344 254.160156 C 361.601562 251.847656 362.238281 249.519531 362.804688 247.175781 C 363.375 244.828125 363.878906 242.46875 364.3125 240.09375 C 364.75 237.722656 365.121094 235.335938 365.425781 232.941406 C 365.726562 230.546875 365.964844 228.144531 366.132812 225.738281 C 366.300781 223.328125 366.402344 220.917969 366.4375 218.503906 C 366.472656 216.089844 366.4375 213.679688 366.335938 211.265625 C 366.234375 208.855469 366.066406 206.449219 365.832031 204.046875 C 365.597656 201.644531 365.292969 199.25 364.925781 196.863281 C 364.554688 194.476562 364.117188 192.105469 363.617188 189.742188 C 363.113281 187.382812 362.546875 185.039062 361.910156 182.707031 C 361.277344 180.378906 360.578125 178.070312 359.816406 175.777344 C 359.054688 173.488281 358.226562 171.222656 357.335938 168.976562 C 356.445312 166.734375 355.496094 164.515625 354.480469 162.324219 C 353.46875 160.136719 352.390625 157.976562 351.257812 155.84375 C 350.121094 153.714844 348.929688 151.617188 347.675781 149.554688 C 346.425781 147.488281 345.117188 145.460938 343.75 143.472656 C 342.382812 141.480469 340.964844 139.53125 339.488281 137.621094 C 338.015625 135.707031 336.488281 133.839844 334.90625 132.015625 C 333.328125 130.1875 331.699219 128.410156 330.019531 126.675781 C 328.339844 124.941406 326.613281 123.253906 324.839844 121.617188 C 323.066406 119.980469 321.25 118.390625 319.386719 116.855469 C 317.527344 115.320312 315.621094 113.835938 313.675781 112.410156 C 311.730469 110.980469 309.746094 109.605469 307.726562 108.285156 C 305.703125 106.96875 303.644531 105.707031 301.554688 104.503906 C 299.460938 103.300781 297.335938 102.15625 295.179688 101.074219 C 293.023438 99.988281 290.835938 98.964844 288.625 98.003906 C 286.410156 97.039062 284.171875 96.140625 281.90625 95.304688 C 279.640625 94.46875 277.355469 93.695312 275.046875 92.984375 C 276.324219 95.789062 277.511719 98.625 278.609375 101.5 C 279.710938 104.375 280.71875 107.28125 281.640625 110.21875 C 282.5625 113.15625 283.390625 116.117188 284.128906 119.105469 C 284.867188 122.09375 285.511719 125.101562 286.066406 128.128906 C 286.617188 131.15625 287.078125 134.199219 287.441406 137.253906 C 287.808594 140.3125 288.078125 143.375 288.253906 146.449219 C 288.429688 149.519531 288.511719 152.597656 288.5 155.675781 C 288.488281 158.753906 288.378906 161.828125 288.175781 164.898438 C 287.972656 167.96875 287.675781 171.03125 287.285156 174.085938 C 286.894531 177.136719 286.410156 180.175781 285.832031 183.199219 C 285.253906 186.222656 284.582031 189.222656 283.820312 192.207031 C 283.054688 195.1875 282.203125 198.140625 281.257812 201.070312 C 280.3125 204 279.277344 206.898438 278.152344 209.761719 C 277.027344 212.628906 275.816406 215.457031 274.519531 218.246094 C 273.222656 221.039062 271.839844 223.785156 270.371094 226.492188 C 268.902344 229.195312 267.355469 231.855469 265.722656 234.464844 C 264.089844 237.074219 262.382812 239.632812 260.59375 242.136719 C 258.804688 244.640625 256.9375 247.089844 255 249.476562 C 253.058594 251.867188 251.046875 254.195312 248.964844 256.460938 C 246.882812 258.726562 244.730469 260.925781 242.511719 263.0625 C 240.292969 265.195312 238.011719 267.257812 235.667969 269.25 C 233.320312 271.242188 230.914062 273.160156 228.453125 275.003906 C 225.988281 276.851562 223.46875 278.617188 220.898438 280.304688 C 218.324219 281.996094 215.703125 283.605469 213.03125 285.132812 C 210.359375 286.660156 207.640625 288.105469 204.878906 289.464844 C 202.121094 290.824219 199.320312 292.097656 196.480469 293.285156 C 193.640625 294.476562 190.765625 295.574219 187.859375 296.585938 C 184.953125 297.597656 182.019531 298.515625 179.054688 299.347656 C 176.089844 300.175781 173.101562 300.914062 170.09375 301.558594 C 167.085938 302.207031 164.058594 302.757812 161.015625 303.21875 C 157.972656 303.679688 154.917969 304.042969 151.851562 304.3125 C 148.785156 304.585938 145.714844 304.761719 142.636719 304.84375 C 145.066406 307.441406 147.597656 309.933594 150.234375 312.324219 C 152.867188 314.710938 155.597656 316.988281 158.417969 319.152344 C 161.242188 321.316406 164.148438 323.359375 167.140625 325.285156 C 170.132812 327.207031 173.195312 329.007812 176.335938 330.679688 C 179.476562 332.347656 182.679688 333.890625 185.945312 335.296875 C 189.210938 336.703125 192.53125 337.972656 195.902344 339.109375 C 199.273438 340.242188 202.683594 341.234375 206.136719 342.085938 C 209.589844 342.9375 213.070312 343.648438 216.582031 344.210938 C 220.09375 344.777344 223.625 345.199219 227.167969 345.472656 C 230.714844 345.746094 234.265625 345.875 237.824219 345.855469 C 241.378906 345.835938 244.929688 345.671875 248.472656 345.359375 C 252.015625 345.050781 255.539062 344.59375 259.042969 343.992188 C 262.550781 343.386719 266.023438 342.644531 269.46875 341.753906 C 272.910156 340.867188 276.3125 339.839844 279.671875 338.667969 C 283.03125 337.5 286.335938 336.195312 289.589844 334.753906 C 292.839844 333.3125 296.027344 331.738281 299.148438 330.035156 L 367.273438 356.519531 C 367.691406 356.675781 368.121094 356.773438 368.5625 356.808594 C 369.007812 356.84375 369.445312 356.816406 369.882812 356.730469 C 370.320312 356.640625 370.734375 356.492188 371.128906 356.285156 C 371.523438 356.078125 371.878906 355.820312 372.199219 355.511719 C 372.523438 355.203125 372.792969 354.855469 373.015625 354.46875 C 373.238281 354.082031 373.402344 353.675781 373.507812 353.242188 C 373.613281 352.808594 373.65625 352.371094 373.636719 351.925781 C 373.621094 351.480469 373.539062 351.046875 373.398438 350.625 Z M 373.398438 350.625 " fill-opacity="1" fill-rule="nonzero"/><path fill="#00afcc" d="M 267.832031 154.921875 C 267.824219 152.445312 267.742188 149.972656 267.589844 147.503906 C 267.4375 145.035156 267.21875 142.570312 266.921875 140.113281 C 266.628906 137.65625 266.265625 135.210938 265.832031 132.773438 C 265.398438 130.335938 264.894531 127.914062 264.320312 125.507812 C 263.75 123.101562 263.105469 120.710938 262.394531 118.339844 C 261.6875 115.972656 260.90625 113.621094 260.0625 111.296875 C 259.214844 108.972656 258.304688 106.671875 257.328125 104.398438 C 256.347656 102.125 255.308594 99.882812 254.199219 97.667969 C 253.09375 95.457031 251.921875 93.277344 250.691406 91.128906 C 249.460938 88.984375 248.167969 86.875 246.8125 84.804688 C 245.460938 82.730469 244.046875 80.699219 242.578125 78.710938 C 241.105469 76.71875 239.582031 74.773438 238 72.871094 C 236.417969 70.964844 234.78125 69.109375 233.09375 67.300781 C 231.402344 65.492188 229.664062 63.734375 227.875 62.027344 C 226.082031 60.316406 224.246094 58.660156 222.359375 57.058594 C 220.476562 55.457031 218.546875 53.90625 216.570312 52.414062 C 214.597656 50.921875 212.582031 49.488281 210.523438 48.113281 C 208.46875 46.738281 206.375 45.421875 204.242188 44.164062 C 202.109375 42.910156 199.941406 41.714844 197.742188 40.585938 C 195.539062 39.453125 193.308594 38.386719 191.046875 37.386719 C 188.785156 36.382812 186.492188 35.445312 184.179688 34.574219 C 181.863281 33.703125 179.523438 32.898438 177.160156 32.164062 C 174.796875 31.425781 172.414062 30.757812 170.015625 30.15625 C 167.613281 29.558594 165.199219 29.027344 162.765625 28.566406 C 160.335938 28.105469 157.890625 27.714844 155.4375 27.394531 C 152.984375 27.074219 150.523438 26.828125 148.054688 26.648438 C 145.585938 26.46875 143.117188 26.363281 140.640625 26.324219 C 138.167969 26.289062 135.695312 26.324219 133.222656 26.429688 C 130.75 26.535156 128.28125 26.710938 125.820312 26.957031 C 123.355469 27.207031 120.902344 27.523438 118.460938 27.914062 C 116.015625 28.300781 113.585938 28.757812 111.167969 29.289062 C 108.75 29.816406 106.347656 30.414062 103.964844 31.078125 C 101.582031 31.746094 99.222656 32.480469 96.878906 33.28125 C 94.539062 34.085938 92.222656 34.953125 89.933594 35.890625 C 87.640625 36.824219 85.378906 37.824219 83.144531 38.890625 C 80.910156 39.957031 78.710938 41.085938 76.542969 42.277344 C 74.375 43.46875 72.242188 44.722656 70.144531 46.039062 C 68.046875 47.351562 65.992188 48.726562 63.972656 50.160156 C 61.957031 51.589844 59.980469 53.082031 58.050781 54.628906 C 56.117188 56.175781 54.230469 57.773438 52.390625 59.429688 C 50.550781 61.085938 48.761719 62.792969 47.019531 64.550781 C 45.277344 66.308594 43.585938 68.113281 41.949219 69.96875 C 40.3125 71.824219 38.730469 73.726562 37.199219 75.671875 C 35.671875 77.617188 34.199219 79.605469 32.785156 81.636719 C 31.371094 83.667969 30.019531 85.738281 28.722656 87.847656 C 27.425781 89.953125 26.195312 92.097656 25.023438 94.277344 C 23.851562 96.457031 22.742188 98.667969 21.699219 100.914062 C 20.652344 103.15625 19.671875 105.429688 18.757812 107.726562 C 17.84375 110.027344 17 112.351562 16.21875 114.699219 C 15.4375 117.046875 14.726562 119.417969 14.082031 121.804688 C 13.4375 124.195312 12.863281 126.601562 12.355469 129.023438 C 11.851562 131.445312 11.414062 133.882812 11.050781 136.328125 C 10.683594 138.777344 10.386719 141.230469 10.164062 143.695312 C 9.9375 146.160156 9.785156 148.628906 9.703125 151.101562 C 9.621094 153.578125 9.609375 156.050781 9.667969 158.523438 C 9.726562 161 9.859375 163.46875 10.058594 165.933594 C 10.261719 168.402344 10.535156 170.859375 10.878906 173.308594 C 11.21875 175.761719 11.632812 178.199219 12.117188 180.628906 C 12.601562 183.054688 13.152344 185.464844 13.773438 187.859375 C 14.398438 190.253906 15.085938 192.632812 15.847656 194.988281 C 16.605469 197.34375 17.429688 199.671875 18.324219 201.980469 C 19.214844 204.289062 20.171875 206.570312 21.199219 208.824219 C 22.222656 211.078125 23.308594 213.296875 24.460938 215.488281 C 25.613281 217.679688 26.824219 219.835938 28.101562 221.953125 L 19.859375 246.121094 L 6.617188 284.984375 C 6.476562 285.40625 6.394531 285.839844 6.375 286.28125 C 6.359375 286.726562 6.402344 287.167969 6.507812 287.597656 C 6.613281 288.03125 6.777344 288.441406 7 288.824219 C 7.222656 289.210938 7.492188 289.558594 7.8125 289.867188 C 8.136719 290.175781 8.492188 290.433594 8.886719 290.640625 C 9.28125 290.847656 9.695312 290.996094 10.132812 291.085938 C 10.566406 291.175781 11.007812 291.203125 11.453125 291.164062 C 11.894531 291.128906 12.324219 291.03125 12.742188 290.875 L 50.644531 276.144531 L 74.113281 267.007812 C 82.179688 271.664062 90.648438 275.40625 99.523438 278.230469 C 108.398438 281.054688 117.472656 282.898438 126.746094 283.757812 C 130.6875 284.089844 134.691406 284.289062 138.730469 284.289062 C 140.847656 284.289062 142.960938 284.234375 145.074219 284.132812 C 147.1875 284.027344 149.296875 283.871094 151.402344 283.664062 C 153.507812 283.457031 155.605469 283.199219 157.699219 282.886719 C 159.792969 282.574219 161.875 282.214844 163.949219 281.800781 C 166.023438 281.386719 168.089844 280.921875 170.140625 280.410156 C 172.191406 279.894531 174.230469 279.328125 176.253906 278.714844 C 178.277344 278.097656 180.285156 277.433594 182.277344 276.722656 C 184.269531 276.007812 186.242188 275.246094 188.195312 274.433594 C 190.152344 273.625 192.085938 272.765625 193.996094 271.859375 C 195.910156 270.953125 197.796875 270.003906 199.660156 269.003906 C 201.527344 268.007812 203.367188 266.960938 205.179688 265.875 C 206.996094 264.785156 208.78125 263.652344 210.539062 262.476562 C 212.296875 261.296875 214.023438 260.078125 215.722656 258.816406 C 217.421875 257.554688 219.085938 256.253906 220.722656 254.910156 C 222.355469 253.566406 223.957031 252.183594 225.523438 250.761719 C 227.089844 249.339844 228.617188 247.878906 230.113281 246.382812 C 231.609375 244.882812 233.0625 243.351562 234.484375 241.78125 C 235.902344 240.210938 237.28125 238.609375 238.621094 236.972656 C 239.960938 235.335938 241.261719 233.667969 242.519531 231.964844 C 243.777344 230.265625 244.992188 228.535156 246.167969 226.773438 C 247.339844 225.011719 248.46875 223.222656 249.554688 221.410156 C 250.640625 219.59375 251.679688 217.75 252.675781 215.882812 C 253.667969 214.015625 254.617188 212.125 255.519531 210.210938 C 256.421875 208.296875 257.273438 206.363281 258.082031 204.40625 C 258.886719 202.453125 259.644531 200.476562 260.355469 198.484375 C 261.066406 196.492188 261.726562 194.480469 262.335938 192.457031 C 262.945312 190.429688 263.507812 188.390625 264.019531 186.339844 C 264.527344 184.285156 264.988281 182.222656 265.398438 180.144531 C 265.804688 178.070312 266.164062 175.984375 266.46875 173.890625 C 266.777344 171.796875 267.03125 169.699219 267.234375 167.59375 C 267.4375 165.488281 267.589844 163.378906 267.6875 161.265625 C 267.789062 159.152344 267.835938 157.035156 267.832031 154.921875 Z M 154.953125 184.714844 C 154.953125 185.386719 154.886719 186.054688 154.753906 186.714844 C 154.621094 187.375 154.429688 188.019531 154.171875 188.640625 C 153.914062 189.261719 153.597656 189.855469 153.222656 190.414062 C 152.847656 190.976562 152.421875 191.492188 151.945312 191.96875 C 151.46875 192.445312 150.949219 192.871094 150.390625 193.246094 C 149.832031 193.621094 149.238281 193.9375 148.617188 194.195312 C 147.992188 194.453125 147.351562 194.648438 146.691406 194.777344 C 146.03125 194.910156 145.363281 194.976562 144.691406 194.976562 L 79.3125 194.976562 C 78.644531 194.964844 77.984375 194.890625 77.332031 194.75 C 76.679688 194.613281 76.046875 194.410156 75.433594 194.148438 C 74.820312 193.886719 74.242188 193.566406 73.691406 193.191406 C 73.140625 192.8125 72.628906 192.386719 72.160156 191.914062 C 71.695312 191.4375 71.277344 190.921875 70.910156 190.363281 C 70.542969 189.808594 70.234375 189.21875 69.980469 188.601562 C 69.726562 187.984375 69.535156 187.351562 69.40625 186.695312 C 69.277344 186.042969 69.214844 185.382812 69.214844 184.714844 L 69.214844 183.722656 C 69.214844 183.046875 69.28125 182.382812 69.414062 181.722656 C 69.542969 181.0625 69.738281 180.421875 69.996094 179.800781 C 70.253906 179.175781 70.570312 178.585938 70.945312 178.027344 C 71.320312 177.46875 71.746094 176.953125 72.222656 176.476562 C 72.699219 176 73.21875 175.578125 73.777344 175.203125 C 74.339844 174.832031 74.929688 174.515625 75.550781 174.261719 C 76.175781 174.003906 76.816406 173.8125 77.476562 173.683594 C 78.136719 173.554688 78.804688 173.488281 79.476562 173.492188 L 144.691406 173.492188 C 145.363281 173.488281 146.03125 173.554688 146.691406 173.683594 C 147.351562 173.8125 147.992188 174.003906 148.613281 174.261719 C 149.238281 174.515625 149.828125 174.832031 150.386719 175.203125 C 150.949219 175.578125 151.46875 176 151.945312 176.476562 C 152.421875 176.953125 152.847656 177.46875 153.21875 178.027344 C 153.59375 178.585938 153.910156 179.175781 154.167969 179.800781 C 154.425781 180.421875 154.621094 181.0625 154.753906 181.722656 C 154.886719 182.382812 154.953125 183.046875 154.953125 183.722656 Z M 204.339844 139.59375 C 204.339844 140.269531 204.273438 140.9375 204.144531 141.597656 C 204.011719 142.257812 203.816406 142.898438 203.558594 143.523438 C 203.300781 144.144531 202.984375 144.734375 202.613281 145.296875 C 202.238281 145.855469 201.8125 146.375 201.335938 146.851562 C 200.859375 147.328125 200.339844 147.753906 199.78125 148.128906 C 199.21875 148.5 198.628906 148.816406 198.007812 149.074219 C 197.382812 149.332031 196.742188 149.527344 196.082031 149.660156 C 195.421875 149.789062 194.753906 149.855469 194.078125 149.855469 L 77.160156 149.855469 C 76.484375 149.855469 75.820312 149.789062 75.15625 149.660156 C 74.496094 149.527344 73.855469 149.332031 73.234375 149.074219 C 72.609375 148.816406 72.019531 148.5 71.457031 148.128906 C 70.898438 147.753906 70.378906 147.328125 69.902344 146.851562 C 69.425781 146.375 69 145.855469 68.628906 145.296875 C 68.253906 144.734375 67.9375 144.144531 67.679688 143.523438 C 67.421875 142.898438 67.226562 142.257812 67.09375 141.597656 C 66.964844 140.9375 66.898438 140.269531 66.898438 139.59375 L 66.898438 138.636719 C 66.902344 137.964844 66.972656 137.300781 67.105469 136.640625 C 67.242188 135.984375 67.4375 135.347656 67.699219 134.726562 C 67.957031 134.109375 68.273438 133.523438 68.648438 132.964844 C 69.023438 132.410156 69.449219 131.894531 69.925781 131.421875 C 70.402344 130.949219 70.921875 130.527344 71.480469 130.15625 C 72.039062 129.785156 72.628906 129.46875 73.246094 129.214844 C 73.867188 128.957031 74.507812 128.765625 75.164062 128.632812 C 75.824219 128.503906 76.488281 128.4375 77.160156 128.4375 L 194.078125 128.4375 C 194.753906 128.4375 195.421875 128.503906 196.082031 128.636719 C 196.742188 128.769531 197.382812 128.960938 198.007812 129.21875 C 198.628906 129.476562 199.21875 129.792969 199.78125 130.167969 C 200.339844 130.542969 200.859375 130.96875 201.335938 131.445312 C 201.8125 131.921875 202.238281 132.441406 202.613281 133 C 202.984375 133.558594 203.300781 134.152344 203.558594 134.773438 C 203.816406 135.398438 204.011719 136.039062 204.144531 136.699219 C 204.273438 137.359375 204.339844 138.027344 204.339844 138.699219 Z M 204.339844 139.59375 " fill-opacity="1" fill-rule="nonzero"/></svg>