<svg width="40" height="33" viewBox="0 0 40 33" fill="none" xmlns="http://www.w3.org/2000/svg">
<path d="M2.5 2.51697L19 13.517L24.4688 9.87047L35.5 2.51697M30 30.017L36.1417 23.9963C36.5183 23.6308 36.8179 23.1936 37.0227 22.7104C37.2276 22.2273 37.3336 21.708 37.3345 21.1832C37.3353 20.6583 37.231 20.1387 37.0277 19.6549C36.8244 19.171 36.5263 18.7328 36.1508 18.3661C35.3852 17.6161 34.3566 17.195 33.2848 17.193C32.213 17.1909 31.1828 17.608 30.4143 18.3551L30.0037 18.7585L29.5948 18.3551C28.8293 17.6056 27.8011 17.1849 26.7297 17.1829C25.6584 17.1808 24.6286 17.5976 23.8602 18.3441C23.4834 18.7095 23.1837 19.1466 22.9787 19.6297C22.7736 20.1128 22.6675 20.6321 22.6665 21.1569C22.6654 21.6817 22.7696 22.2014 22.9727 22.6853C23.1758 23.1692 23.4738 23.6075 23.8492 23.9743L30 30.017Z" stroke="#1F2937" stroke-width="4" stroke-linecap="round"/>
</svg>
