<svg xmlns="http://www.w3.org/2000/svg" xmlns:xlink="http://www.w3.org/1999/xlink" width="500" zoomAndPan="magnify" viewBox="0 0 375 374.999991" height="500" preserveAspectRatio="xMidYMid meet" version="1.0"><path fill="#00afcc" d="M 347.105469 310.214844 C 346.429688 309.542969 345.757812 308.929688 344.964844 308.320312 L 276.449219 251.058594 C 292.597656 224.878906 292.78125 191.660156 276.9375 165.355469 L 276.9375 77.570312 C 276.9375 77.507812 276.9375 77.445312 276.9375 77.445312 C 276.9375 77.261719 276.816406 77.078125 276.816406 76.835938 C 276.816406 76.710938 276.753906 76.53125 276.753906 76.46875 C 276.507812 75.0625 275.957031 73.777344 274.917969 72.859375 L 203.894531 1.773438 C 202.734375 0.671875 201.140625 0 199.488281 0 L 33.035156 0 C 16.148438 0 2.445312 13.703125 2.445312 30.585938 L 2.445312 324.226562 C 2.445312 341.109375 16.148438 354.8125 33.035156 354.8125 L 246.351562 354.8125 C 263.234375 354.8125 276.9375 341.109375 276.9375 324.226562 L 276.9375 310.949219 L 306.667969 346.492188 C 331.445312 375 372.675781 337.929688 347.105469 310.214844 Z M 276.570312 207.808594 C 276.570312 226.53125 269.289062 244.148438 256.015625 257.359375 C 242.742188 270.574219 225.183594 277.914062 206.464844 277.914062 C 187.746094 277.914062 170.125 270.636719 156.914062 257.359375 C 129.566406 230.015625 129.566406 185.542969 156.914062 158.257812 C 170.125 145.042969 187.746094 137.703125 206.464844 137.703125 C 225.183594 137.703125 242.800781 144.984375 256.015625 158.257812 C 269.230469 171.535156 276.570312 189.089844 276.570312 207.808594 Z M 264.703125 324.226562 C 264.703125 334.320312 256.445312 342.578125 246.351562 342.578125 L 33.035156 342.578125 C 22.941406 342.578125 14.683594 334.320312 14.683594 324.226562 L 14.683594 30.585938 C 14.683594 20.492188 22.941406 12.234375 33.035156 12.234375 L 193.371094 12.234375 L 193.371094 77.445312 C 193.371094 80.8125 196.125 83.5625 199.488281 83.5625 L 264.703125 83.5625 L 264.703125 149.632812 C 249.164062 134.09375 228.488281 125.53125 206.523438 125.53125 C 185.480469 125.53125 165.660156 133.421875 150.367188 147.738281 L 56.890625 147.738281 C 53.527344 147.738281 50.773438 150.488281 50.773438 153.855469 C 50.773438 157.21875 53.527344 159.972656 56.890625 159.972656 L 139.660156 159.972656 C 133.421875 168.71875 129.078125 178.386719 126.632812 188.480469 L 56.890625 188.480469 C 53.527344 188.480469 50.773438 191.230469 50.773438 194.597656 C 50.773438 197.960938 53.527344 200.714844 56.890625 200.714844 L 124.550781 200.714844 C 123.757812 210.257812 124.613281 219.859375 127.058594 229.160156 L 56.890625 229.160156 C 53.527344 229.160156 50.773438 231.914062 50.773438 235.277344 C 50.773438 238.640625 53.527344 241.394531 56.890625 241.394531 L 131.464844 241.394531 C 135.441406 250.328125 141.007812 258.707031 148.347656 266.046875 C 149.695312 267.394531 151.164062 268.679688 152.628906 269.902344 L 56.890625 269.902344 C 53.527344 269.902344 50.773438 272.65625 50.773438 276.019531 C 50.773438 279.382812 53.527344 282.136719 56.890625 282.136719 L 171.289062 282.136719 C 182.421875 287.398438 194.414062 290.089844 206.523438 290.089844 C 221.453125 290.089844 236.257812 285.992188 249.410156 277.976562 L 264.703125 296.269531 Z M 264.703125 324.226562 " fill-opacity="1" fill-rule="nonzero"/><path fill="#00afcc" d="M 56.890625 119.230469 L 139.660156 119.230469 C 143.027344 119.230469 145.777344 116.476562 145.777344 113.113281 C 145.777344 109.746094 143.027344 106.996094 139.660156 106.996094 L 56.890625 106.996094 C 53.527344 106.996094 50.773438 109.746094 50.773438 113.113281 C 50.773438 116.476562 53.527344 119.230469 56.890625 119.230469 Z M 56.890625 119.230469 " fill-opacity="1" fill-rule="nonzero"/></svg>