<svg width="68" height="59" viewBox="0 0 68 59" fill="none" xmlns="http://www.w3.org/2000/svg">
<path d="M44.6667 18.1122H55.3333M44.6667 29.6836H55.3333M44.6667 41.255H55.3333M34 45.1122C32.912 42.7477 30.6827 41.255 28.2471 41.255H18.4196C15.984 41.255 13.7547 42.7477 12.6667 45.1122M5.55556 2.68359H62.4444C63.3874 2.68359 64.2918 3.08997 64.9586 3.81333C65.6254 4.53668 66 5.51776 66 6.54074V52.8265C66 53.8494 65.6254 54.8305 64.9586 55.5539C64.2918 56.2772 63.3874 56.6836 62.4444 56.6836H5.55556C4.61256 56.6836 3.70819 56.2772 3.0414 55.5539C2.3746 54.8305 2 53.8494 2 52.8265V6.54074C2 5.51776 2.3746 4.53668 3.0414 3.81333C3.70819 3.08997 4.61256 2.68359 5.55556 2.68359ZM30.4444 21.9693C30.4444 24.0153 29.6952 25.9774 28.3616 27.4241C27.0281 28.8708 25.2193 29.6836 23.3333 29.6836C21.4473 29.6836 19.6386 28.8708 18.305 27.4241C16.9714 25.9774 16.2222 24.0153 16.2222 21.9693C16.2222 19.9234 16.9714 17.9612 18.305 16.5145C19.6386 15.0678 21.4473 14.255 23.3333 14.255C25.2193 14.255 27.0281 15.0678 28.3616 16.5145C29.6952 17.9612 30.4444 19.9234 30.4444 21.9693Z" stroke="#1F2937" stroke-width="4" stroke-linecap="round"/>
</svg>
