<?xml version="1.0" standalone="no"?>
<!DOCTYPE svg PUBLIC "-//W3C//DTD SVG 1.1//EN" "http://www.w3.org/Graphics/SVG/1.1/DTD/svg11.dtd">
<svg xmlns="http://www.w3.org/2000/svg" width="124" height="125" viewBox="0 0 124 125" fill="none">
<rect x="1.675" y="2.10859" width="120.65" height="120.65" rx="60.325" stroke="#00AFCC" stroke-width="2.85"/>
<g clip-path="url(#clip0_39_4713)">
<path d="M95.3 62.4338H68.1667C66.1234 62.4338 64.4667 64.0905 64.4667 66.1338V82.1671C64.4667 84.2104 66.1234 85.8671 68.1667 85.8671H78.0333V89.5671H73.1V92.0338H62V85.3492C61.9874 81.4601 59.3882 78.0546 55.6394 77.0182L48.4333 75.058V73.208C50.75 71.5977 52.1315 68.9552 52.1333 66.1338V64.9005C52.8144 64.9005 53.3667 64.3482 53.3667 63.6671V59.9671C53.3606 54.5207 48.9464 50.1065 43.5 50.1005H32.4C31.0378 50.1005 29.9333 51.2049 29.9333 52.5671V58.7338C29.9255 61.5377 31.8183 63.9911 34.5324 64.6945C34.642 64.7252 34.7559 64.7391 34.8667 64.7626V66.1338C34.8685 68.9552 36.25 71.5977 38.5667 73.208V75.058L31.3564 77.0194C27.61 78.057 25.012 81.4613 25 85.3492V98.2005C25 98.8816 25.5522 99.4338 26.2333 99.4338H97.7667C98.4478 99.4338 99 98.8816 99 98.2005V93.2671C99 92.586 98.4478 92.0338 97.7667 92.0338H90.3667V89.5671H85.4333V85.8671H95.3C97.3433 85.8671 99 84.2104 99 82.1671V66.1338C99 64.0905 97.3433 62.4338 95.3 62.4338ZM32.4 58.7338V52.5671H43.5C47.5854 52.5713 50.8958 55.8817 50.9 59.9671V62.4338H50.0858C48.9567 62.4314 47.972 61.6648 47.6932 60.5699L47.1633 58.4363C47.0482 57.975 46.6785 57.6203 46.2124 57.5252C46.1311 57.5083 46.0492 57.5005 45.9667 57.5005C45.5782 57.5005 45.2127 57.6835 44.9802 57.9937L44.2401 58.9807C43.7993 59.5606 43.2892 60.0858 42.7219 60.5428C41.1929 61.7677 39.2923 62.435 37.3333 62.4338H36.1C35.7862 62.4368 35.4737 62.3953 35.1714 62.3103C33.5382 61.893 32.3964 60.4194 32.4 58.7338ZM37.3333 66.1338V64.9005C39.8584 64.8999 42.3076 64.0375 44.2757 62.4561C44.6647 62.1411 45.0332 61.8021 45.3783 61.4395C45.9817 63.3449 47.6751 64.6981 49.6667 64.8661V66.1338C49.6667 69.5393 46.9055 72.3005 43.5 72.3005C40.0945 72.3005 37.3333 69.5393 37.3333 66.1338ZM43.5 74.7671C44.3359 74.7647 45.1669 74.6401 45.9667 74.3974V76.0005C45.9709 76.354 46.1275 76.6882 46.3972 76.917L43.5 79.3307L40.6028 76.9182C40.8725 76.6894 41.0297 76.3546 41.0333 76.0005V74.3974C41.8331 74.6401 42.6641 74.7647 43.5 74.7671ZM32.0092 79.3982L37.8265 77.8149L42.7105 81.8847C43.1682 82.2653 43.8318 82.2653 44.2895 81.8847L49.1735 77.8149L54.9872 79.3969C57.6653 80.1377 59.5231 82.5706 59.5333 85.3492V92.0338H55.8333V85.8671H53.3667V92.0338H33.6333V85.8671H31.1667V92.0338H27.4667V85.3492C27.4757 82.5718 29.3323 80.1395 32.0092 79.3982ZM96.5333 94.5005V96.9671H27.4667V94.5005H96.5333ZM80.5 89.5671V76.0005H82.9667V89.5671H80.5ZM96.5333 82.1671C96.5333 82.8482 95.9811 83.4005 95.3 83.4005H85.4333V74.7671C85.4333 74.086 84.8811 73.5338 84.2 73.5338H79.2667C78.5856 73.5338 78.0333 74.086 78.0333 74.7671V83.4005H68.1667C67.4856 83.4005 66.9333 82.8482 66.9333 82.1671V66.1338C66.9333 65.4527 67.4856 64.9005 68.1667 64.9005H95.3C95.9811 64.9005 96.5333 65.4527 96.5333 66.1338V82.1671Z" fill="#00AFCC"/>
<path d="M95.2999 25.4336H73.0999C71.0566 25.4336 69.3999 27.0903 69.3999 29.1336V30.3669H68.1666C66.1232 30.3669 64.4666 32.0236 64.4666 34.0669V51.3336C64.4666 53.3769 66.1232 55.0336 68.1666 55.0336H90.3666C92.4099 55.0336 94.0666 53.3769 94.0666 51.3336V50.1003H95.2999C97.3432 50.1003 98.9999 48.4436 98.9999 46.4003V29.1336C98.9999 27.0903 97.3432 25.4336 95.2999 25.4336ZM68.1666 32.8336H90.3666C91.0477 32.8336 91.5999 33.3858 91.5999 34.0669V35.3003H66.9332V34.0669C66.9332 33.3858 67.4854 32.8336 68.1666 32.8336ZM90.3666 52.5669H68.1666C67.4854 52.5669 66.9332 52.0147 66.9332 51.3336V37.7669H91.5999V51.3336C91.5999 52.0147 91.0477 52.5669 90.3666 52.5669ZM96.5332 46.4003C96.5332 47.0814 95.981 47.6336 95.2999 47.6336H94.0666V34.0669C94.0666 32.0236 92.4099 30.3669 90.3666 30.3669H71.8666V29.1336C71.8666 28.4525 72.4188 27.9003 73.0999 27.9003H95.2999C95.981 27.9003 96.5332 28.4525 96.5332 29.1336V46.4003Z" fill="#00AFCC"/>
<path d="M78.0334 42.7003H80.5001V45.167H78.0334V42.7003Z" fill="#00AFCC"/>
<path d="M82.9666 42.7003H85.4332V45.167H82.9666V42.7003Z" fill="#00AFCC"/>
<path d="M73.1001 42.7003H75.5668V45.167H73.1001V42.7003Z" fill="#00AFCC"/>
<path d="M32.3999 30.3669H37.3332V32.8335H32.3999V30.3669Z" fill="#00AFCC"/>
<path d="M39.8 30.3669H54.6V32.8335H39.8V30.3669Z" fill="#00AFCC"/>
<path d="M33.6333 40.2335H38.5666V42.7002H33.6333V40.2335Z" fill="#00AFCC"/>
<path d="M41.0334 40.2335H55.8334V42.7002H41.0334V40.2335Z" fill="#00AFCC"/>
<path d="M34.8667 35.3002H39.8V37.7669H34.8667V35.3002Z" fill="#00AFCC"/>
<path d="M42.2668 35.3002H57.0668V37.7669H42.2668V35.3002Z" fill="#00AFCC"/>
</g>
<defs>
<clipPath id="clip0_39_4713">
<rect width="74" height="74" fill="white" transform="translate(25 25.4336)"/>
</clipPath>
</defs>
</svg>