<svg xmlns="http://www.w3.org/2000/svg" xmlns:xlink="http://www.w3.org/1999/xlink" width="248" zoomAndPan="magnify" viewBox="0 0 186 72.749997" height="100" preserveAspectRatio="xMidYMid meet" version="1.0"><defs><clipPath id="47e2c5c639"><path d="M 79.859375 13 L 143 13 L 143 39.324219 L 79.859375 39.324219 Z M 79.859375 13 " clip-rule="nonzero"/></clipPath><clipPath id="e665c4b4bf"><path d="M 134 5.261719 L 147.90625 5.261719 L 147.90625 25 L 134 25 Z M 134 5.261719 " clip-rule="nonzero"/></clipPath></defs><path fill="#4b5563" d="M 25.625 47.480469 C 22.679688 47.480469 20.160156 46.429688 18.0625 44.332031 C 15.960938 42.234375 14.914062 39.714844 14.914062 36.769531 C 14.914062 33.824219 15.960938 31.304688 18.0625 29.207031 C 20.160156 27.109375 22.679688 26.058594 25.625 26.058594 C 28.574219 26.058594 31.09375 27.109375 33.191406 29.207031 C 35.289062 31.304688 36.339844 33.824219 36.339844 36.769531 C 36.339844 39.714844 35.289062 42.234375 33.191406 44.332031 C 31.09375 46.429688 28.574219 47.480469 25.625 47.480469 Z M 4.199219 63.542969 L 4.199219 61.402344 C 4.199219 59.882812 4.59375 58.492188 5.375 57.21875 C 6.15625 55.949219 7.195312 54.976562 8.484375 54.308594 C 11.253906 52.921875 14.066406 51.886719 16.921875 51.195312 C 19.777344 50.503906 22.679688 50.160156 25.625 50.15625 C 28.574219 50.15625 31.472656 50.5 34.332031 51.195312 C 37.1875 51.890625 40 52.925781 42.765625 54.308594 C 44.0625 54.976562 45.101562 55.945312 45.882812 57.21875 C 46.664062 58.492188 47.054688 59.886719 47.050781 61.402344 L 47.050781 63.542969 C 47.050781 65.015625 46.527344 66.277344 45.480469 67.328125 C 44.433594 68.375 43.171875 68.902344 41.695312 68.898438 L 9.558594 68.898438 C 8.085938 68.898438 6.824219 68.375 5.777344 67.328125 C 4.726562 66.28125 4.203125 65.019531 4.199219 63.542969 Z M 4.199219 63.542969 " fill-opacity="1" fill-rule="nonzero"/><path fill="#00afcc" d="M 110.441406 40.535156 C 110.125 41.199219 111.023438 42.207031 111.695312 43.210938 C 112.367188 44.21875 112.382812 44.234375 113.917969 46.523438 C 105.296875 46.53125 96.695312 46.222656 88.078125 46.25 C 87.195312 46.25 87.195312 46.25 86.917969 46.019531 C 84.980469 44.097656 83.070312 42.144531 81.117188 40.242188 C 80.386719 39.632812 79.683594 39.644531 78.511719 39.667969 C 77.097656 39.789062 71.660156 38.964844 73.410156 41.972656 C 74.003906 42.820312 74.878906 43.410156 75.5625 44.183594 C 76.257812 44.875 76.949219 45.578125 77.65625 46.261719 C 76.554688 46.308594 75.121094 46.105469 74.203125 46.289062 C 73.285156 46.46875 73.140625 46.910156 73.144531 47.546875 C 73.152344 48.183594 73.34375 49.007812 74.160156 49.054688 C 74.976562 49.101562 76.707031 49.070312 77.726562 49.066406 C 76.535156 50.269531 75.304688 51.433594 74.152344 52.671875 C 73.605469 53.246094 72.867188 54.359375 73.496094 54.910156 C 74.296875 55.453125 75.6875 55.3125 76.902344 55.335938 C 78.117188 55.355469 79.464844 55.441406 80.765625 55.300781 C 81.714844 55.074219 82.261719 54.164062 82.957031 53.558594 C 84.363281 52.164062 85.753906 50.75 87.160156 49.355469 C 95.730469 49.324219 104.308594 49.363281 112.882812 49.324219 C 113.199219 49.324219 113.515625 49.320312 113.832031 49.304688 C 112.738281 50.460938 111.589844 51.570312 110.476562 52.710938 C 109.96875 53.230469 109.738281 54.152344 110.3125 54.714844 C 110.789062 55.3125 111.765625 55.40625 112.300781 54.824219 C 114.308594 52.859375 116.289062 50.859375 118.261719 48.851562 C 118.820312 48.363281 117.84375 46.753906 116.066406 44.011719 C 114.671875 41.976562 112.605469 37.660156 110.441406 40.535156 Z M 80.421875 43.40625 C 80.421875 43.40625 82.105469 45.484375 83.09375 46.480469 C 82.558594 46.453125 81.976562 46.546875 81.46875 46.449219 C 80.261719 45.308594 79.148438 43.816406 77.96875 42.644531 C 78.515625 42.648438 79.855469 42.839844 79.855469 42.839844 Z M 81.992188 50.539062 C 81.308594 51.195312 80.65625 51.917969 79.953125 52.535156 C 79.421875 52.566406 78.890625 52.566406 78.363281 52.554688 C 79.480469 51.46875 80.566406 50.347656 81.675781 49.253906 C 82.214844 49.179688 82.757812 49.210938 83.300781 49.226562 Z M 81.992188 50.539062 " fill-opacity="1" fill-rule="nonzero"/><path fill="#4b5563" d="M 176.265625 52.832031 L 172.695312 52.832031 L 172.695312 56.402344 L 176.265625 56.402344 M 176.265625 45.695312 L 172.695312 45.695312 L 172.695312 49.265625 L 176.265625 49.265625 M 179.839844 59.972656 L 165.554688 59.972656 L 165.554688 56.402344 L 169.125 56.402344 L 169.125 52.832031 L 165.554688 52.832031 L 165.554688 49.265625 L 169.125 49.265625 L 169.125 45.695312 L 165.554688 45.695312 L 165.554688 42.125 L 179.839844 42.125 M 161.984375 38.554688 L 158.414062 38.554688 L 158.414062 34.984375 L 161.984375 34.984375 M 161.984375 45.695312 L 158.414062 45.695312 L 158.414062 42.125 L 161.984375 42.125 M 161.984375 52.832031 L 158.414062 52.832031 L 158.414062 49.265625 L 161.984375 49.265625 M 161.984375 59.972656 L 158.414062 59.972656 L 158.414062 56.402344 L 161.984375 56.402344 M 154.839844 38.554688 L 151.269531 38.554688 L 151.269531 34.984375 L 154.839844 34.984375 M 154.839844 45.695312 L 151.269531 45.695312 L 151.269531 42.125 L 154.839844 42.125 M 154.839844 52.832031 L 151.269531 52.832031 L 151.269531 49.265625 L 154.839844 49.265625 M 154.839844 59.972656 L 151.269531 59.972656 L 151.269531 56.402344 L 154.839844 56.402344 M 165.554688 38.554688 L 165.554688 31.414062 L 147.699219 31.414062 L 147.699219 63.542969 L 183.410156 63.542969 L 183.410156 38.554688 Z M 165.554688 38.554688 " fill-opacity="1" fill-rule="nonzero"/><g clip-path="url(#47e2c5c639)"><path fill="#00accc" d="M 140.03125 25.121094 C 139.492188 25.804688 138.664062 26.199219 137.777344 26.199219 C 137.324219 26.199219 136.910156 26.105469 136.535156 25.910156 C 135.359375 25.351562 134.703125 24.082031 134.933594 22.800781 L 135.734375 18.496094 L 135.550781 18.496094 C 134.546875 18.496094 133.632812 17.984375 133.105469 17.136719 C 132.59375 16.394531 132.503906 15.324219 132.921875 14.421875 L 133.230469 13.726562 L 83.675781 13.726562 C 81.574219 13.726562 79.859375 15.429688 79.859375 17.539062 L 79.859375 28.871094 C 79.859375 30.972656 81.574219 32.6875 83.675781 32.6875 L 97.078125 32.6875 L 96.773438 38.203125 C 96.773438 38.589844 97.003906 38.9375 97.371094 39.089844 C 97.488281 39.140625 97.613281 39.167969 97.738281 39.167969 C 97.988281 39.167969 98.238281 39.0625 98.421875 38.878906 L 101.328125 32.6875 L 138.394531 32.6875 C 140.503906 32.6875 142.207031 30.972656 142.207031 28.871094 L 142.207031 22.414062 Z M 140.03125 25.121094 " fill-opacity="1" fill-rule="nonzero"/></g><g clip-path="url(#e665c4b4bf)"><path fill="#00accc" d="M 147.808594 11.636719 C 147.652344 11.3125 147.316406 11.097656 146.941406 11.097656 L 144.28125 11.097656 L 145.996094 6.5625 C 146.101562 6.261719 146.0625 5.933594 145.882812 5.675781 C 145.707031 5.414062 145.410156 5.261719 145.089844 5.261719 L 139.820312 5.261719 C 139.445312 5.261719 139.097656 5.484375 138.945312 5.828125 L 134.675781 15.363281 C 134.542969 15.664062 134.558594 16.011719 134.742188 16.28125 C 134.917969 16.558594 135.226562 16.722656 135.550781 16.722656 L 138.046875 16.722656 L 136.832031 23.292969 C 136.757812 23.726562 136.980469 24.160156 137.382812 24.34375 C 137.507812 24.410156 137.640625 24.429688 137.777344 24.429688 C 138.066406 24.429688 138.347656 24.304688 138.53125 24.074219 L 147.691406 12.660156 C 147.925781 12.371094 147.972656 11.976562 147.808594 11.636719 Z M 147.808594 11.636719 " fill-opacity="1" fill-rule="nonzero"/></g><path fill="#ffffff" d="M 101.21875 22.242188 L 102.285156 22.242188 L 102.285156 26.511719 C 102.285156 26.710938 102.316406 26.839844 102.378906 26.902344 C 102.4375 26.957031 102.5625 26.980469 102.753906 26.980469 C 102.800781 26.980469 102.878906 26.980469 102.984375 26.980469 C 103.101562 26.980469 103.226562 26.980469 103.363281 26.980469 C 103.503906 26.980469 103.628906 26.980469 103.742188 26.980469 C 103.867188 26.980469 103.957031 26.980469 104.019531 26.980469 C 104.15625 26.980469 104.257812 26.9375 104.328125 26.84375 C 104.398438 26.746094 104.445312 26.558594 104.476562 26.28125 C 104.507812 26.007812 104.53125 25.59375 104.546875 25.042969 C 104.621094 25.109375 104.71875 25.175781 104.832031 25.238281 C 104.949219 25.292969 105.066406 25.339844 105.191406 25.386719 C 105.3125 25.433594 105.417969 25.472656 105.511719 25.5 C 105.472656 26.136719 105.40625 26.632812 105.316406 26.992188 C 105.222656 27.351562 105.082031 27.601562 104.890625 27.738281 C 104.707031 27.886719 104.445312 27.957031 104.097656 27.957031 C 104.042969 27.957031 103.945312 27.957031 103.800781 27.957031 C 103.664062 27.957031 103.507812 27.957031 103.339844 27.957031 C 103.179688 27.957031 103.027344 27.957031 102.882812 27.957031 C 102.746094 27.957031 102.648438 27.957031 102.59375 27.957031 C 102.226562 27.957031 101.945312 27.910156 101.746094 27.820312 C 101.546875 27.734375 101.410156 27.585938 101.332031 27.371094 C 101.253906 27.164062 101.21875 26.878906 101.21875 26.511719 Z M 99.609375 23.183594 L 100.597656 23.402344 C 100.550781 23.828125 100.484375 24.273438 100.402344 24.734375 C 100.324219 25.191406 100.226562 25.628906 100.105469 26.039062 C 99.980469 26.453125 99.824219 26.816406 99.632812 27.132812 L 98.679688 26.695312 C 98.855469 26.398438 99.003906 26.054688 99.128906 25.671875 C 99.257812 25.285156 99.359375 24.875 99.4375 24.445312 C 99.515625 24.015625 99.570312 23.597656 99.609375 23.183594 Z M 101.34375 20.921875 L 102.078125 20.210938 C 102.382812 20.355469 102.710938 20.527344 103.054688 20.726562 C 103.398438 20.917969 103.726562 21.117188 104.042969 21.324219 C 104.355469 21.523438 104.617188 21.714844 104.820312 21.898438 L 104.03125 22.703125 C 103.847656 22.523438 103.601562 22.332031 103.296875 22.117188 C 102.996094 21.902344 102.675781 21.691406 102.332031 21.484375 C 101.992188 21.269531 101.664062 21.082031 101.34375 20.921875 Z M 104.9375 23.296875 L 105.914062 22.917969 C 106.15625 23.308594 106.390625 23.730469 106.613281 24.183594 C 106.84375 24.632812 107.039062 25.078125 107.199219 25.511719 C 107.359375 25.941406 107.472656 26.332031 107.542969 26.683594 L 106.476562 27.121094 C 106.421875 26.78125 106.316406 26.394531 106.164062 25.949219 C 106.011719 25.503906 105.828125 25.054688 105.613281 24.59375 C 105.40625 24.128906 105.179688 23.695312 104.9375 23.296875 Z M 101.859375 17.523438 L 102.984375 17.523438 L 102.984375 19.546875 L 101.859375 19.546875 Z M 98.1875 18.949219 L 107.289062 18.949219 L 107.289062 19.980469 L 98.1875 19.980469 Z M 97.671875 18.949219 L 98.761719 18.949219 L 98.761719 21.886719 C 98.761719 22.335938 98.746094 22.835938 98.714844 23.378906 C 98.683594 23.921875 98.625 24.476562 98.542969 25.042969 C 98.464844 25.609375 98.347656 26.164062 98.1875 26.707031 C 98.035156 27.242188 97.832031 27.730469 97.578125 28.175781 C 97.515625 28.113281 97.429688 28.042969 97.3125 27.957031 C 97.199219 27.875 97.082031 27.792969 96.957031 27.714844 C 96.835938 27.648438 96.730469 27.59375 96.648438 27.554688 C 96.886719 27.144531 97.074219 26.695312 97.210938 26.214844 C 97.347656 25.730469 97.449219 25.238281 97.507812 24.734375 C 97.578125 24.21875 97.621094 23.722656 97.636719 23.242188 C 97.660156 22.75 97.671875 22.300781 97.671875 21.886719 Z M 115.292969 25.304688 L 121.332031 25.304688 L 121.332031 26.097656 L 115.292969 26.097656 Z M 113.59375 23.515625 L 123.847656 23.515625 L 123.847656 24.375 L 113.59375 24.375 Z M 117.097656 22.710938 L 118.164062 22.875 C 117.8125 23.59375 117.296875 24.246094 116.613281 24.835938 C 115.933594 25.417969 115.035156 25.90625 113.917969 26.304688 C 113.878906 26.21875 113.824219 26.128906 113.757812 26.03125 C 113.6875 25.929688 113.609375 25.835938 113.527344 25.742188 C 113.441406 25.652344 113.367188 25.578125 113.296875 25.523438 C 113.992188 25.308594 114.59375 25.058594 115.097656 24.765625 C 115.605469 24.46875 116.019531 24.144531 116.351562 23.792969 C 116.679688 23.441406 116.925781 23.078125 117.097656 22.710938 Z M 120.929688 23.78125 C 121.152344 24.039062 121.4375 24.285156 121.78125 24.515625 C 122.132812 24.742188 122.515625 24.949219 122.929688 25.132812 C 123.347656 25.308594 123.769531 25.453125 124.191406 25.558594 C 124.113281 25.628906 124.03125 25.714844 123.9375 25.824219 C 123.855469 25.921875 123.769531 26.027344 123.6875 26.132812 C 123.609375 26.238281 123.542969 26.335938 123.492188 26.417969 C 123.054688 26.273438 122.621094 26.085938 122.195312 25.855469 C 121.773438 25.621094 121.378906 25.351562 121.011719 25.054688 C 120.652344 24.753906 120.34375 24.4375 120.09375 24.101562 Z M 120.941406 25.304688 L 121.988281 25.304688 C 121.988281 25.304688 121.984375 25.355469 121.976562 25.457031 C 121.976562 25.546875 121.96875 25.628906 121.953125 25.695312 C 121.890625 26.339844 121.820312 26.820312 121.746094 27.144531 C 121.667969 27.464844 121.566406 27.691406 121.4375 27.820312 C 121.335938 27.917969 121.226562 27.988281 121.101562 28.027344 C 120.980469 28.066406 120.839844 28.089844 120.679688 28.105469 C 120.53125 28.113281 120.335938 28.117188 120.09375 28.117188 C 119.847656 28.117188 119.582031 28.113281 119.300781 28.105469 C 119.292969 27.96875 119.261719 27.820312 119.207031 27.660156 C 119.164062 27.5 119.105469 27.355469 119.035156 27.234375 C 119.289062 27.265625 119.523438 27.28125 119.738281 27.28125 C 119.957031 27.289062 120.117188 27.292969 120.21875 27.292969 C 120.386719 27.292969 120.507812 27.261719 120.585938 27.199219 C 120.671875 27.125 120.738281 26.953125 120.792969 26.683594 C 120.847656 26.414062 120.894531 26 120.941406 25.433594 Z M 117.921875 24.570312 L 118.96875 24.570312 C 118.90625 25.054688 118.804688 25.488281 118.65625 25.878906 C 118.511719 26.261719 118.292969 26.605469 118.003906 26.914062 C 117.71875 27.210938 117.339844 27.46875 116.867188 27.683594 C 116.390625 27.902344 115.792969 28.085938 115.066406 28.234375 C 115.019531 28.101562 114.941406 27.953125 114.835938 27.785156 C 114.726562 27.625 114.625 27.496094 114.523438 27.394531 C 115.191406 27.289062 115.730469 27.148438 116.144531 26.980469 C 116.5625 26.8125 116.894531 26.613281 117.132812 26.386719 C 117.375 26.15625 117.554688 25.890625 117.671875 25.59375 C 117.785156 25.289062 117.867188 24.945312 117.921875 24.570312 Z M 113.746094 18.226562 L 123.6875 18.226562 L 123.6875 19.097656 L 113.746094 19.097656 Z M 116.257812 17.523438 L 117.316406 17.523438 L 117.316406 19.601562 L 116.257812 19.601562 Z M 120.082031 17.523438 L 121.148438 17.523438 L 121.148438 19.601562 L 120.082031 19.601562 Z M 115.9375 21.679688 L 115.9375 22.300781 L 121.515625 22.300781 L 121.515625 21.679688 Z M 115.9375 20.441406 L 115.9375 21.035156 L 121.515625 21.035156 L 121.515625 20.441406 Z M 114.890625 19.773438 L 122.605469 19.773438 L 122.605469 22.964844 L 114.890625 22.964844 Z M 114.890625 19.773438 " fill-opacity="1" fill-rule="nonzero"/></svg>