<svg xmlns="http://www.w3.org/2000/svg" width="80" height="56" fill="none" viewBox="0 0 80 56"><path fill="#1f2937" d="M79.466 19.406 71.491 3.45a5 5 0 0 0-6.71-2.234L57.01 5.1 40.638.768C40.218.66 39.777.66 39.357.769L22.985 5.1l-7.772-3.885a5 5 0 0 0-6.71 2.234L.53 19.404a5 5 0 0 0 2.234 6.71l8.438 4.221 17.34 12.384c.256.182.543.314.847.391l20 5a2.5 2.5 0 0 0 2.375-.656l17.21-17.213 8.256-4.128a5 5 0 0 0 2.234-6.706ZM62.313 29.834 51.56 21.221a2.5 2.5 0 0 0-3.337.19c-5.566 5.607-11.77 4.898-15.726 2.398L46.01 10.684h9.94l8.504 17.003ZM12.975 5.684l6.397 3.194-7.99 15.953-6.385-3.19Zm36.25 37.228-18.159-4.537-15.375-10.982 8.75-17.5 15.556-4.121 3.063.809-14.063 13.65-.025.028a5 5 0 0 0 .85 7.753c6.425 4.103 14.179 3.438 20.285-1.562l8.64 6.94ZM68.6 24.828 60.626 8.89l6.393-3.206 7.978 15.956ZM41.18 53.788a2.5 2.5 0 0 1-3.031 1.819l-13.023-3.257a2.5 2.5 0 0 1-.847-.39l-8.234-5.882a2.5 2.5 0 0 1 2.906-4.063l7.847 5.606 12.575 3.138a2.5 2.5 0 0 1 1.819 3.031Z"/></svg>