<svg xmlns="http://www.w3.org/2000/svg" width="37" height="42" viewBox="0 0 37 42" fill="none">
<path d="M20.1392 4.08717C19.8829 4.08717 19.6372 4.18007 19.456 4.34543C19.2748 4.5108 19.1731 4.73507 19.1731 4.96893V21.7224H15.3087V8.49597C15.3087 8.26211 15.2069 8.03784 15.0258 7.87247C14.8446 7.70711 14.5989 7.61421 14.3426 7.61421C14.0864 7.61421 13.8407 7.70711 13.6595 7.87247C13.4783 8.03784 13.3765 8.26211 13.3765 8.49597V25.2494H9.5122C8.77797 22.3925 6.88831 20.7348 4.86532 20.5267C5.82106 22.7685 6.83315 24.9899 7.90077 27.1893C9.56244 30.6493 11.2338 33.224 13.3843 34.947C15.4594 36.61 18.1278 37.5941 22.0713 37.5941C24.8898 37.5941 27.5928 36.5722 29.5857 34.7532C31.5787 32.9342 32.6983 30.4671 32.6983 27.8947V12.9048C32.6983 12.6709 32.5965 12.4466 32.4153 12.2813C32.2341 12.1159 31.9884 12.023 31.7322 12.023C31.476 12.023 31.2302 12.1159 31.0491 12.2813C30.8679 12.4466 30.7661 12.6709 30.7661 12.9048V21.7224H26.9018V7.61421C26.9018 7.38035 26.8 7.15608 26.6188 6.99071C26.4376 6.82535 26.1919 6.73245 25.9357 6.73245C25.6794 6.73245 25.4337 6.82535 25.2525 6.99071C25.0714 7.15608 24.9696 7.38035 24.9696 7.61421V21.7224H21.1052V4.96893C21.1052 4.73507 21.0035 4.5108 20.8223 4.34543C20.6411 4.18007 20.3954 4.08717 20.1392 4.08717ZM36.5626 27.8947C36.5626 31.4025 35.0359 34.7667 32.3182 37.2472C29.6006 39.7276 25.9147 41.1211 22.0713 41.1211C17.322 41.1211 13.7089 39.9007 10.8338 37.5976C8.03215 35.3509 6.08259 32.1942 4.36103 28.6036C2.5641 24.8526 1.57097 22.5689 1.02996 21.2356C0.340172 19.5356 1.29273 17.1584 3.88185 16.9926C5.92474 16.8457 7.94848 17.4415 9.5122 18.6503V8.49597C9.5119 7.83597 9.67397 7.18433 9.98643 6.58912C10.2989 5.99392 10.7538 5.47034 11.3175 5.05701C11.8813 4.64368 12.5395 4.35114 13.2437 4.20099C13.9478 4.05084 14.68 4.0469 15.386 4.18946C15.5718 3.24364 16.091 2.37911 16.8647 1.72744C17.6384 1.07577 18.6241 0.672644 19.6719 0.579404C20.7197 0.486164 21.7722 0.70792 22.6693 1.21092C23.5663 1.71393 24.2587 2.47064 24.6411 3.36589C25.3587 3.18444 26.1125 3.15674 26.8438 3.28495C27.575 3.41316 28.2639 3.69381 28.8568 4.10502C29.4497 4.51623 29.9304 5.04688 30.2616 5.65558C30.5928 6.26428 30.7655 6.93459 30.7661 7.61421V8.58415C31.0791 8.52536 31.4011 8.49597 31.7322 8.49597C33.0133 8.49597 34.2419 8.96047 35.1478 9.78728C36.0537 10.6141 36.5626 11.7355 36.5626 12.9048V27.8947Z" fill="#1F2937"/>
</svg>