<svg xmlns="http://www.w3.org/2000/svg" width="80" height="56" viewBox="0 0 80 56" fill="none">
<path d="M79.4662 19.4059L71.4912 3.44964C71.1974 2.86235 70.7908 2.33868 70.2946 1.90854C69.7984 1.4784 69.2223 1.15022 68.5993 0.942736C67.9762 0.73525 67.3185 0.652526 66.6634 0.699287C66.0084 0.746048 65.369 0.921379 64.7818 1.21527L57.0099 5.09964L40.638 0.768391C40.218 0.659071 39.7769 0.659071 39.3568 0.768391L22.9849 5.09964L15.213 1.21527C14.6258 0.921379 13.9864 0.746048 13.3314 0.699287C12.6764 0.652526 12.0186 0.73525 11.3956 0.942736C10.7725 1.15022 10.1965 1.4784 9.70026 1.90854C9.20407 2.33868 8.79746 2.86235 8.50367 3.44964L0.528672 19.4028C0.234784 19.99 0.059454 20.6294 0.012693 21.2844C-0.034068 21.9394 0.0486565 22.5972 0.256142 23.2203C0.463628 23.8433 0.79181 24.4194 1.22195 24.9156C1.65209 25.4117 2.17575 25.8183 2.76305 26.1121L11.2005 30.334L28.5412 42.7184C28.7968 42.8999 29.084 43.0324 29.388 43.109L49.388 48.109C49.8069 48.2141 50.2458 48.2088 50.662 48.0938C51.0782 47.9788 51.4576 47.7579 51.763 47.4528L68.9724 30.2403L77.2287 26.1121C78.4139 25.5188 79.3151 24.4791 79.7341 23.2215C80.1531 21.964 80.0556 20.5916 79.463 19.4059H79.4662ZM62.313 29.834L51.5599 21.2215C51.0782 20.8357 50.4708 20.6418 49.8546 20.677C49.2385 20.7121 48.6571 20.974 48.2224 21.4121C42.6568 27.0184 36.4537 26.309 32.4974 23.809L46.0099 10.684H55.9505L64.4537 27.6871L62.313 29.834ZM12.9755 5.68402L19.3724 8.87777L11.3818 24.8309L4.99742 21.6403L12.9755 5.68402ZM49.2255 42.9121L31.0662 38.3746L15.6912 27.3934L24.4412 9.89339L39.9974 5.77152L43.0599 6.58089L28.9974 20.2309L28.9724 20.259C28.4431 20.7884 28.0393 21.4298 27.791 22.1361C27.5427 22.8423 27.4561 23.5953 27.5377 24.3395C27.6193 25.0836 27.867 25.8 28.2624 26.4356C28.6578 27.0713 29.1909 27.6101 29.8224 28.0121C36.2474 32.1153 44.0005 31.4496 50.1068 26.4496L58.7474 33.3903L49.2255 42.9121ZM68.6005 24.8278L60.6255 8.89027L67.0193 5.68402L74.9974 21.6403L68.6005 24.8278ZM41.1787 53.7871C41.0436 54.3275 40.732 54.8072 40.2932 55.1503C39.8545 55.4934 39.3138 55.6801 38.7568 55.6809C38.5514 55.681 38.3467 55.6558 38.1474 55.6059L25.1255 52.3496C24.821 52.2744 24.5336 52.1418 24.2787 51.959L16.0443 46.0778C15.538 45.6802 15.2045 45.1027 15.1134 44.4655C15.0222 43.8283 15.1804 43.1804 15.5549 42.6569C15.9294 42.1333 16.4915 41.7744 17.124 41.6549C17.7565 41.5354 18.4108 41.6645 18.9505 42.0153L26.7974 47.6215L39.3724 50.759C40.0155 50.9199 40.5684 51.3296 40.9095 51.898C41.2505 52.4665 41.3519 53.1471 41.1912 53.7903L41.1787 53.7871Z" fill="#1F2937"/>
</svg>