<svg xmlns="http://www.w3.org/2000/svg" width="80" height="77" fill="none" viewBox="0 0 80 77"><path stroke="#1f2937" stroke-linecap="round" stroke-width="3.692" d="M50.015 46.522c-2.237 7.415-8.682 13.157-16.518 14.297a20.43 20.43 0 0 1-13.045-2.392L13.77 60.1c-1.703.423-3.25-1.11-2.83-2.815l1.676-6.696a20.46 20.46 0 0 1-2.392-13.03c1.323-8.961 8.625-16.123 17.616-17.222 4.67-.576 9.089.424 12.762 2.548"/><path stroke="#1f2937" stroke-linecap="round" stroke-width="3.692" d="M56.142 15.449c6.98.861 12.663 6.416 13.681 13.377a15.84 15.84 0 0 1-1.858 10.128l1.301 5.194a1.805 1.805 0 0 1-2.189 2.189l-5.196-1.3a15.85 15.85 0 0 1-10.128 1.857c-6.96-1.018-12.517-6.7-13.375-13.683A15.882 15.882 0 0 1 56.142 15.45Z"/></svg>