<svg xmlns="http://www.w3.org/2000/svg" width="30" height="34" viewBox="0 0 30 34" fill="none">
<path d="M27.8469 0.54299C26.1105 0.607918 24.3701 0.522613 22.6349 0.588705C21.9352 0.632961 21.3574 1.49854 21.6671 2.24391C21.8642 2.86145 22.481 3.07055 23.0165 3.04766C24.0803 3.01592 25.1454 3.03019 26.2097 2.99875C21.3412 8.44611 16.4531 13.8719 11.597 19.3327C11.368 19.581 11.1967 20.0235 10.8109 19.92C8.63012 19.9317 6.44744 19.9055 4.26774 19.9346C3.51002 20.0112 3.0823 20.8075 2.56378 21.3264C1.78298 22.3169 0.774425 23.0876 0.142928 24.2188C-0.249104 24.8757 0.219598 25.7975 0.890905 25.8929C1.70416 26.0527 2.5348 25.8783 3.35544 25.9313C4.14129 25.9296 4.92718 25.9371 5.71296 25.9226C5.11812 26.6492 4.36969 27.2294 3.8838 28.0602C3.53789 28.6214 3.76279 29.3905 4.26376 29.7254C4.66518 30.1117 5.24266 29.9429 5.58786 29.5557C6.21577 28.9732 6.76479 28.2948 7.3402 27.6502C7.34645 29.1617 7.30857 30.6757 7.35739 32.1857C7.37511 32.8931 7.88269 33.5881 8.55097 33.5385C9.30868 33.3746 9.72077 32.5389 10.2649 32.0091C10.9788 31.1577 11.7807 30.3918 12.4348 29.4822C12.8421 28.7394 12.6363 27.8183 12.6903 26.9962C12.6947 25.2267 12.6804 23.4569 12.6878 21.6875C13.38 20.782 14.2173 20.0285 14.9431 19.1562C19.0344 14.5809 23.1376 10.0189 27.2069 5.41992C27.387 5.22135 27.5623 5.01753 27.7338 4.80973C27.7674 6.23303 27.7437 7.65781 27.7608 9.08058C27.7702 9.73018 28.1604 10.4583 28.8013 10.4517C29.4094 10.5251 30.0137 9.96885 29.9858 9.26498C30.0103 6.75307 29.9999 4.23883 29.979 1.72722C30.0194 1.06577 29.4372 0.664038 28.9137 0.606476C28.5622 0.536016 28.2028 0.537749 27.8469 0.54299ZM5.40461 22.4142C6.52431 22.4125 7.64388 22.4287 8.76354 22.4345C8.44625 22.7566 8.17101 23.1839 7.82939 23.4419C6.5021 23.4824 5.17445 23.4303 3.847 23.4361C4.15712 23.0943 4.45612 22.7255 4.80086 22.4323C5.00159 22.4177 5.20341 22.42 5.40461 22.4142ZM10.4365 25.699C10.4217 26.5462 10.46 27.4127 10.4118 28.248C10.1297 28.6008 9.83199 28.9377 9.52556 29.264C9.54327 27.8712 9.52428 26.4782 9.53025 25.0854C9.79302 24.6998 10.1185 24.3749 10.4324 24.0427C10.4337 24.5948 10.4352 25.1469 10.4365 25.699Z" fill="#D1D5DB"/>
</svg>