<svg xmlns="http://www.w3.org/2000/svg" width="30" height="34" fill="none" viewBox="0 0 30 34"><path fill="#d1d5db" d="M27.847.543c-1.737.065-3.477-.02-5.212.046-.7.044-1.278.91-.968 1.655.197.617.814.827 1.35.804 1.063-.032 2.128-.018 3.193-.05-4.869 5.448-9.757 10.874-14.613 16.335-.229.248-.4.69-.786.587-2.18.012-4.364-.015-6.543.015-.758.076-1.186.873-1.704 1.391-.781.99-1.79 1.762-2.421 2.893-.392.657.077 1.578.748 1.674.813.16 1.644-.015 2.464.038.786-.001 1.572.006 2.358-.008-.595.726-1.343 1.306-1.83 2.137-.345.561-.12 1.33.38 1.665.402.387.98.218 1.325-.17.628-.582 1.177-1.26 1.752-1.905.006 1.512-.031 3.026.017 4.536.018.707.526 1.402 1.194 1.352.758-.163 1.17-1 1.714-1.529.714-.851 1.516-1.617 2.17-2.527.407-.743.201-1.664.255-2.486.005-1.77-.01-3.54-.002-5.308.692-.906 1.53-1.66 2.255-2.532 4.091-4.575 8.195-9.137 12.264-13.736q.27-.298.527-.61c.033 1.423.01 2.848.027 4.27.01.65.4 1.378 1.04 1.372.608.073 1.213-.483 1.185-1.187.024-2.512.014-5.026-.007-7.538.04-.661-.542-1.063-1.065-1.12-.352-.071-.711-.07-1.067-.064M5.405 22.414c1.12-.002 2.239.015 3.359.02-.318.323-.593.75-.935 1.008-1.327.04-2.655-.012-3.982-.006.31-.342.61-.71.954-1.004.2-.014.402-.012.604-.018m5.032 3.285c-.015.847.023 1.714-.025 2.549-.282.353-.58.69-.886 1.016.017-1.393-.002-2.786.004-4.179.263-.385.588-.71.902-1.042Z"/></svg>