<svg xmlns="http://www.w3.org/2000/svg" width="124" height="124" fill="none" viewBox="0 0 124 124"><rect width="120.65" height="120.65" x="1.675" y="1.609" stroke="#00afcc" stroke-width="2.85" rx="60.325"/><path fill="#00afcc" d="M98.433 77.348V39.513a4.203 4.203 0 1 0 0-8.408h-55.07a11.897 11.897 0 0 0-21.019 1.71v.084a11.855 11.855 0 0 0 3.223 13.62v33.63a4.204 4.204 0 0 0 4.204 4.204H60.6v5.605a2.8 2.8 0 0 0-2.803 2.803v2.802a2.8 2.8 0 0 0 2.803 2.802h2.803a2.803 2.803 0 0 0 2.803-2.802v-2.802a2.8 2.8 0 0 0-2.803-2.803v-5.605h15.61c-.13.693-.195 1.397-.197 2.102a11.91 11.91 0 1 0 19.617-9.108m0-43.44a1.4 1.4 0 0 1 1.401 1.401 1.4 1.4 0 0 1-.434.995 1.3 1.3 0 0 1-.967.406H45.186a11.6 11.6 0 0 0-.49-2.803Zm-74.267 3.504a9.108 9.108 0 0 1 17.095-4.386v.084a9.1 9.1 0 0 1 1.121 4.302v.659a9.114 9.114 0 1 1-18.216-.659m39.235 58.152h-2.803v-2.802h2.803ZM29.771 81.55a1.4 1.4 0 0 1-1.401-1.401V48.258a11.884 11.884 0 0 0 16.619-8.744H95.63V75.61a11.884 11.884 0 0 0-15.75 5.941Zm60.955 14.013a9.12 9.12 0 0 1-9.108-9.108 9.108 9.108 0 1 1 9.108 9.108"/><path fill="#00afcc" d="M90.726 83.653h2.102a1.401 1.401 0 1 0 0-2.802 1.401 1.401 0 1 0-2.802 0 3.52 3.52 0 1 0 .7 7.006.7.7 0 1 1 0 1.401h-2.102a1.401 1.401 0 1 0 0 2.802h1.401a1.401 1.401 0 0 0 2.802 0v-.7a3.489 3.489 0 0 0-2.102-6.292.7.7 0 1 1 0-1.401ZM35.376 43.017v-.7a3.49 3.49 0 0 0-2.102-6.292.7.7 0 1 1 0-1.401h2.102a1.401 1.401 0 1 0 0-2.802 1.401 1.401 0 0 0-2.802 0v.07a3.503 3.503 0 0 0 .7 6.936.7.7 0 1 1 0 1.401h-2.102a1.402 1.402 0 0 0 0 2.803h1.401a1.401 1.401 0 1 0 2.802 0Z"/><path fill="#00afcc" d="m63.401 45.861 1.191.673a47 47 0 0 1-2.564 3.952v-1.163a1.4 1.4 0 0 0-1.401-1.401h-8.435a1.4 1.4 0 0 0-1.401 1.401v5.605h-7.006a1.4 1.4 0 0 0-1.401 1.401v2.803h-7.006a1.4 1.4 0 0 0-1.401 1.401v5.605h-1.32a1.4 1.4 0 0 0-1.485 1.317 1.4 1.4 0 0 0 1.303 1.485h1.5v1.401h-1.401a1.402 1.402 0 0 0 0 2.802h30.828a1.401 1.401 0 1 0 0-2.802H62V54.927a46 46 0 0 0 5.002-7.006l1.233.7v-5.605Zm-21.019 24.48h-5.605v-1.64c1.896-.24 3.77-.628 5.605-1.162Zm0-5.605a36 36 0 0 1-5.605 1.177v-3.98h5.605Zm8.408 5.605h-5.605V66.67a39 39 0 0 0 5.605-2.536Zm0-9.332a36.5 36.5 0 0 1-5.605 2.803V57.73h5.605Zm8.407 9.332h-5.605v-7.903c2-1.328 3.876-2.833 5.605-4.498Zm0-16.38a38.5 38.5 0 0 1-5.605 5.17v-8.407h5.605Z"/><path fill="#00afcc" d="M91.426 68.94a4.204 4.204 0 0 0-3.671-4.204c-3.125-4.203-3.615-6.277-2.999-8.407h1.065a1.401 1.401 0 0 0 1.026-2.359 1.4 1.4 0 0 0-.928-.444l.449-.882s0-.127.112-.197q.045-.101.07-.21c.434-.91.663-1.905.673-2.914a7.006 7.006 0 0 0-14.013 0 7 7 0 0 0 .673 2.957q.033.108.084.21s.07.126.098.196c.168.308.294.574.448.868a1.4 1.4 0 0 0-1.303 1.373 1.4 1.4 0 0 0 1.401 1.401h1.065c.617 2.187.126 4.205-2.998 8.408a4.212 4.212 0 1 0 .532 8.407h14.013a4.204 4.204 0 0 0 4.204-4.204M80.216 45.12A4.204 4.204 0 1 1 80.216 53.526 4.204 4.204 0 0 1 80.216 45.12m-1.667 11.21h3.335c-.505 2.62.168 5.044 2.396 8.407h-8.127c2.228-3.363 2.9-5.787 2.396-8.407m-6.74 12.611a1.4 1.4 0 0 1 1.401-1.401h14.013a1.401 1.401 0 1 1 0 2.802H73.21a1.4 1.4 0 0 1-1.401-1.401"/></svg>