<?xml version="1.0" standalone="no"?><!DOCTYPE svg><svg xmlns="http://www.w3.org/2000/svg" width="124" height="124" viewBox="0 0 124 124" fill="none">
<rect x="1.675" y="1.60859" width="120.65" height="120.65" rx="60.325" stroke="#00AFCC" stroke-width="2.85"/>
<path d="M95.5046 27.8929H28.4954C26.7518 27.8929 25.3323 29.3124 25.3323 31.056V82.2996C25.3323 84.0433 26.7518 85.4628 28.4954 85.4628H53.6912V90.4396L50.1401 92.2882C50.0351 92.3429 49.9301 92.3962 49.8267 92.4479C48.8377 92.9485 47.482 93.6347 47.482 95.2672C47.482 96.9667 48.8636 98.3498 50.5615 98.3498H73.4401C75.1381 98.3498 76.5196 96.9667 76.5196 95.2672C76.5196 93.6332 75.1639 92.9485 74.175 92.4479C74.0715 92.3947 73.9665 92.3429 73.8615 92.2882L70.3104 90.4396V85.4628H95.5062C97.2498 85.4628 98.6693 84.0433 98.6693 82.2996V31.056C98.6678 29.3124 97.2483 27.8929 95.5046 27.8929ZM28.4954 29.7186H95.5062C96.2441 29.7186 96.8436 30.3181 96.8436 31.056V73.5176H27.1581V31.056C27.1581 30.3181 27.7575 29.7186 28.4954 29.7186ZM68.9761 91.8028L73.0186 93.907C73.1297 93.9649 73.2408 94.0211 73.3503 94.0759C74.3743 94.5947 74.6938 94.826 74.6938 95.2672C74.6938 95.961 74.1308 96.524 73.4401 96.524H50.5615C49.8708 96.524 49.3078 95.9595 49.3078 95.2672C49.3078 94.8275 49.6273 94.5947 50.6513 94.0774C50.7624 94.0211 50.8734 93.9649 50.983 93.907L55.0256 91.8028C55.3268 91.6461 55.517 91.3342 55.517 90.9934V85.4628H68.4846V90.9934C68.4846 91.3327 68.6733 91.6446 68.9761 91.8028ZM95.5046 83.637H28.4954C27.7575 83.637 27.1581 83.0375 27.1581 82.2996V75.3434H96.842V82.2996C96.842 83.0375 96.2426 83.637 95.5046 83.637ZM46.4231 67.6766V71.4028C46.4231 71.9064 46.8324 72.3156 47.336 72.3156H54.7897C55.2933 72.3156 55.7026 71.9064 55.7026 71.4028V62.4017C55.7285 61.647 55.4774 60.9623 54.9769 60.4207L50.277 55.3344C49.7354 54.7486 49.0066 54.4245 48.2276 54.4245C47.482 54.4245 46.7852 54.7182 46.2527 55.2552V46.8125C46.2527 45.145 44.9685 43.7878 43.3892 43.7878C41.8099 43.7878 40.5258 45.145 40.5258 46.8125V59.4211C40.5258 60.6626 40.9397 61.7413 41.7567 62.6253L46.4231 67.6766ZM42.3516 46.8125C42.3516 46.1629 42.8263 45.6136 43.3892 45.6136C43.9522 45.6136 44.4269 46.1629 44.4269 46.8125V55.7923C44.4269 57.0339 44.8407 58.1126 45.6578 58.9966L49.6684 63.3374C50.0107 63.7071 50.5874 63.7299 50.9586 63.3876C51.3284 63.0452 51.3512 62.4686 51.0104 62.0974L47.5262 58.3256C47.5231 58.3226 47.5216 58.321 47.5186 58.318C47.0804 57.8448 47.0804 57.0445 47.5186 56.5698C47.7103 56.3614 47.9628 56.2473 48.2276 56.2473C48.4923 56.2473 48.7449 56.3614 48.9366 56.5698L53.6364 61.6561C53.8129 61.8463 53.889 62.0654 53.8784 62.3454V62.3819V70.4868H48.2504V67.3176C48.2504 67.0878 48.1637 66.8672 48.0085 66.6983L43.0986 61.3853C42.5966 60.8421 42.3516 60.1985 42.3516 59.4211V46.8125ZM75.771 54.423C74.9905 54.423 74.2632 54.7455 73.7216 55.3328L69.0217 60.4192C68.5211 60.9608 68.2701 61.6455 68.2959 62.4001V71.4012C68.2959 71.9049 68.7052 72.3141 69.2088 72.3141H76.6626C77.1662 72.3141 77.5755 71.9049 77.5755 71.4012V67.6751L82.2419 62.6238C83.0589 61.7398 83.4728 60.6611 83.4728 59.4195V46.811C83.4728 45.1435 82.1886 43.7863 80.6093 43.7863C79.03 43.7863 77.7459 45.1435 77.7459 46.811V55.2537C77.2149 54.7182 76.5165 54.423 75.771 54.423C75.7725 54.423 75.7725 54.423 75.771 54.423ZM76.4876 58.3119L72.9882 62.0989C72.6459 62.4686 72.6687 63.0468 73.0399 63.3891C73.4097 63.7314 73.9878 63.7086 74.3302 63.3389L77.8144 59.5671C77.8159 59.5641 77.8189 59.5626 77.8204 59.5595C77.825 59.555 77.828 59.5519 77.8311 59.5473L78.3393 58.9981C79.1563 58.1141 79.5701 57.0354 79.5701 55.7938V46.814C79.5701 46.1644 80.0448 45.6151 80.6078 45.6151C81.1707 45.6151 81.6455 46.1644 81.6455 46.814V59.4226C81.6455 60.2016 81.4005 60.8437 80.8984 61.3868L75.9901 66.6998C75.8349 66.8687 75.7482 67.0894 75.7482 67.3191V70.4883H70.1202V62.3834C70.1202 62.3712 70.1202 62.3591 70.1202 62.3469C70.1096 62.0669 70.1856 61.8494 70.3621 61.6577L75.062 56.5713C75.2537 56.3629 75.5063 56.2488 75.771 56.2488C76.0357 56.2488 76.2883 56.3629 76.48 56.5713C76.9152 57.043 76.9182 57.8372 76.4876 58.3119ZM49.0796 47.8487H51.2781C51.4881 48.5394 51.765 49.2073 52.1043 49.8448L50.5494 51.4028C50.239 51.7147 50.1933 52.2047 50.4444 52.5668C51.4181 53.9772 52.6247 55.1868 54.032 56.1605C54.3957 56.4116 54.8856 56.3674 55.1975 56.0555L56.7509 54.4991C57.3869 54.8384 58.0533 55.1153 58.741 55.3252V57.5283C58.741 57.9696 59.056 58.3469 59.4896 58.426C60.3234 58.5782 61.1769 58.6558 62.0274 58.6558C62.8779 58.6558 63.7315 58.5782 64.5653 58.426C64.9989 58.3469 65.3138 57.9696 65.3138 57.5283V55.3252C66.0031 55.1153 66.668 54.8384 67.3039 54.4991L68.8574 56.0555C69.1693 56.3674 69.6607 56.4116 70.0228 56.1605C71.4302 55.1853 72.6383 53.9757 73.6105 52.5668C73.86 52.2047 73.8159 51.7147 73.5055 51.4028L71.9506 49.8448C72.2898 49.2073 72.5668 48.5394 72.7767 47.8487H74.9753C75.4165 47.8487 75.7938 47.5337 75.8729 47.0986C76.0251 46.2648 76.1012 45.4097 76.1012 44.5577C76.1012 43.7057 76.0236 42.8506 75.8729 42.0168C75.7938 41.5832 75.4165 41.2667 74.9753 41.2667H72.7767C72.5668 40.576 72.2898 39.908 71.9506 39.2705L73.5055 37.7125C73.8159 37.4006 73.8615 36.9107 73.6105 36.5486C72.6367 35.1382 71.4302 33.9286 70.0228 32.9548C69.6592 32.7038 69.1693 32.7479 68.8574 33.0598L67.3039 34.6163C66.668 34.277 66.0015 34.0001 65.3138 33.7901V31.5886C65.3138 31.1473 64.9989 30.77 64.5653 30.6909C62.8977 30.3866 61.1556 30.3866 59.4911 30.6909C59.0575 30.77 58.7425 31.1473 58.7425 31.5886V33.7917C58.0533 34.0016 57.3884 34.2785 56.7524 34.6178L55.199 33.0614C54.8871 32.7479 54.3957 32.7038 54.0336 32.9564C52.6262 33.9316 51.4181 35.1412 50.4459 36.5501C50.1964 36.9122 50.2405 37.4021 50.5509 37.7141L52.1058 39.272C51.7665 39.9096 51.4896 40.5775 51.2797 41.2682H49.0811C48.6399 41.2682 48.2626 41.5832 48.1834 42.0183C48.0313 42.8536 47.9552 43.7087 47.9552 44.5592C47.9552 45.4112 48.0328 46.2663 48.1834 47.1001C48.261 47.5337 48.6384 47.8487 49.0796 47.8487ZM49.8662 43.094H51.978C52.4025 43.094 52.7692 42.8019 52.8666 42.3896C53.0978 41.4036 53.4873 40.4649 54.0214 39.6007C54.2435 39.2401 54.1903 38.7745 53.8905 38.4763L52.3964 36.9792C53.0005 36.2078 53.6927 35.5155 54.4626 34.9084L55.9552 36.4041C56.2549 36.7038 56.722 36.7586 57.0826 36.5349C57.9453 36.0009 58.881 35.6114 59.8654 35.3786C60.2777 35.2812 60.5683 34.913 60.5683 34.49V32.3736C61.536 32.258 62.5204 32.258 63.4896 32.3736V34.49C63.4896 34.913 63.7802 35.2812 64.1925 35.3786C65.1754 35.6098 66.1126 35.9993 66.9753 36.5349C67.3359 36.7586 67.803 36.7038 68.1027 36.4041L69.5953 34.9084C70.3652 35.514 71.0559 36.2078 71.6615 36.9792L70.1674 38.4763C69.8692 38.776 69.8144 39.2416 70.0365 39.6022C70.5706 40.4649 70.9585 41.4036 71.1913 42.3911C71.2887 42.8034 71.6569 43.0955 72.0799 43.0955H74.1917C74.2495 43.5809 74.2784 44.0708 74.2784 44.5592C74.2784 45.0476 74.2495 45.539 74.1917 46.0229H72.0799C71.6554 46.0229 71.2887 46.315 71.1913 46.7273C70.9601 47.7132 70.5721 48.6505 70.0365 49.5162C69.8144 49.8768 69.8676 50.3424 70.1674 50.6406L71.6615 52.1377C71.0574 52.9091 70.3652 53.6014 69.5953 54.2085L68.1027 52.7128C67.803 52.4131 67.3359 52.3583 66.9753 52.582C66.1126 53.1176 65.1769 53.5055 64.1925 53.7383C63.7802 53.8357 63.4896 54.2039 63.4896 54.6269V56.7433C62.5219 56.8589 61.536 56.8589 60.5683 56.7433V54.6269C60.5683 54.2039 60.2762 53.8357 59.8654 53.7383C58.881 53.5071 57.9453 53.1176 57.0826 52.582C56.722 52.3583 56.2549 52.4131 55.9552 52.7128L54.4626 54.2085C53.6927 53.6029 53.002 52.9091 52.3964 52.1377L53.8905 50.6406C54.1887 50.3409 54.2435 49.8753 54.0214 49.5147C53.4873 48.6505 53.0994 47.7132 52.8666 46.7258C52.7692 46.3135 52.401 46.0214 51.978 46.0214H49.8662C49.8084 45.536 49.7795 45.0461 49.7795 44.5577C49.7795 44.0693 49.8084 43.5794 49.8662 43.094ZM62.029 52.8985C66.6208 52.8985 70.356 49.1571 70.356 44.5592C70.356 39.9613 66.6208 36.22 62.029 36.22C57.4371 36.22 53.7019 39.9613 53.7019 44.5592C53.7019 49.1571 57.4371 52.8985 62.029 52.8985ZM56.5181 48.0099H57.6273C57.819 48.7144 58.0685 49.3625 58.3652 49.9377C57.6258 49.4295 56.9959 48.7722 56.5181 48.0099ZM55.5277 44.5592C55.5277 43.9978 55.5992 43.4531 55.7331 42.9343H57.2804C57.2195 43.4577 57.1876 44.0008 57.1876 44.5592C57.1876 45.1176 57.2195 45.6608 57.2804 46.1842H55.7315C55.5976 45.6638 55.5277 45.1191 55.5277 44.5592ZM68.5303 44.5592C68.5303 45.1206 68.4587 45.6653 68.3249 46.1842H66.7775C66.8384 45.6608 66.8703 45.1176 66.8703 44.5592C66.8703 44.0008 66.8384 43.4577 66.7775 42.9343H68.3249C68.4587 43.4531 68.5303 43.9978 68.5303 44.5592ZM65.0445 44.5592C65.0445 45.1298 65.0065 45.6729 64.938 46.1842H62.9403V42.9343H64.938C65.008 43.4455 65.0445 43.9887 65.0445 44.5592ZM61.1161 50.5386C60.4983 50.0883 59.9217 49.2058 59.5292 48.0099H61.1161V50.5386ZM62.9418 50.5386V48.0099H64.5288C64.1347 49.2043 63.558 50.0883 62.9418 50.5386ZM62.9418 41.107V38.5783C63.5596 39.0286 64.1362 39.9111 64.5288 41.107H62.9418ZM61.1161 38.5783V41.107H59.5292C59.9217 39.9126 60.4983 39.0286 61.1161 38.5783ZM61.1161 42.9327V46.1826H59.1184C59.0499 45.6714 59.0119 45.1267 59.0119 44.5577C59.0119 43.9887 59.0499 43.444 59.1184 42.9327H61.1161ZM65.6912 49.9361C65.9894 49.361 66.2374 48.7144 66.4291 48.0084H67.5382C67.0605 48.7722 66.4306 49.4295 65.6912 49.9361ZM67.5382 41.107H66.4291C66.2374 40.4025 65.9879 39.7544 65.6912 39.1792C66.4306 39.6874 67.0605 40.3447 67.5382 41.107ZM58.3667 39.1808C58.0701 39.7559 57.8205 40.4025 57.6288 41.1085H56.5197C56.9959 40.3447 57.6258 39.6874 58.3667 39.1808ZM66.3621 79.4894C66.3621 79.9931 65.9529 80.4023 65.4493 80.4023H58.5508C58.0472 80.4023 57.638 79.9931 57.638 79.4894C57.638 78.9858 58.0472 78.5766 58.5508 78.5766H65.4493C65.9529 78.5766 66.3621 78.9858 66.3621 79.4894Z" fill="#00AFCC"/>
<path d="M75.771 54.423C74.9905 54.423 74.2632 54.7455 73.7216 55.3328L69.0217 60.4192C68.5211 60.9608 68.2701 61.6455 68.2959 62.4001V71.4012C68.2959 71.9049 68.7052 72.3141 69.2088 72.3141H76.6626C77.1662 72.3141 77.5755 71.9049 77.5755 71.4012V67.6751L82.2419 62.6238C83.0589 61.7398 83.4728 60.6611 83.4728 59.4195V46.811C83.4728 45.1435 82.1886 43.7863 80.6093 43.7863C79.03 43.7863 77.7459 45.1435 77.7459 46.811V55.2537C77.2149 54.7182 76.5165 54.423 75.771 54.423ZM75.771 54.423C75.7725 54.423 75.7725 54.423 75.771 54.423ZM95.5046 27.8929H28.4954C26.7518 27.8929 25.3323 29.3124 25.3323 31.056V82.2996C25.3323 84.0432 26.7518 85.4628 28.4954 85.4628H53.6912V90.4396L50.1401 92.2882C50.0351 92.343 49.9301 92.3962 49.8267 92.4479C48.8377 92.9485 47.482 93.6347 47.482 95.2672C47.482 96.9667 48.8636 98.3498 50.5615 98.3498H73.4401C75.1381 98.3498 76.5196 96.9667 76.5196 95.2672C76.5196 93.6332 75.1639 92.9485 74.175 92.4479C74.0715 92.3947 73.9665 92.343 73.8615 92.2882L70.3104 90.4396V85.4628H95.5062C97.2498 85.4628 98.6693 84.0432 98.6693 82.2996V31.056C98.6678 29.3124 97.2483 27.8929 95.5046 27.8929ZM28.4954 29.7186H95.5062C96.2441 29.7186 96.8436 30.3181 96.8436 31.056V73.5176H27.1581V31.056C27.1581 30.3181 27.7575 29.7186 28.4954 29.7186ZM68.9761 91.8028L73.0186 93.907C73.1297 93.9649 73.2408 94.0211 73.3503 94.0759C74.3743 94.5947 74.6938 94.826 74.6938 95.2672C74.6938 95.961 74.1308 96.524 73.4401 96.524H50.5615C49.8708 96.524 49.3078 95.9595 49.3078 95.2672C49.3078 94.8275 49.6273 94.5947 50.6513 94.0774C50.7624 94.0211 50.8734 93.9649 50.983 93.907L55.0256 91.8028C55.3268 91.6461 55.517 91.3342 55.517 90.9934V85.4628H68.4846V90.9934C68.4846 91.3327 68.6733 91.6446 68.9761 91.8028ZM95.5046 83.637H28.4954C27.7575 83.637 27.1581 83.0375 27.1581 82.2996V75.3434H96.842V82.2996C96.842 83.0375 96.2426 83.637 95.5046 83.637ZM46.4231 67.6766V71.4028C46.4231 71.9064 46.8324 72.3156 47.336 72.3156H54.7897C55.2933 72.3156 55.7026 71.9064 55.7026 71.4028V62.4017C55.7285 61.647 55.4774 60.9623 54.9769 60.4207L50.277 55.3344C49.7354 54.7486 49.0066 54.4245 48.2276 54.4245C47.482 54.4245 46.7852 54.7182 46.2527 55.2552V46.8125C46.2527 45.145 44.9686 43.7878 43.3892 43.7878C41.8099 43.7878 40.5258 45.145 40.5258 46.8125V59.4211C40.5258 60.6626 40.9397 61.7413 41.7567 62.6253L46.4231 67.6766ZM42.3516 46.8125C42.3516 46.1629 42.8263 45.6136 43.3892 45.6136C43.9522 45.6136 44.4269 46.1629 44.4269 46.8125V55.7923C44.4269 57.0339 44.8407 58.1126 45.6578 58.9966L49.6684 63.3374C50.0107 63.7071 50.5874 63.7299 50.9586 63.3876C51.3284 63.0452 51.3512 62.4686 51.0104 62.0974L47.5262 58.3256C47.5231 58.3226 47.5216 58.321 47.5186 58.318C47.0804 57.8448 47.0804 57.0445 47.5186 56.5698C47.7103 56.3614 47.9628 56.2473 48.2276 56.2473C48.4923 56.2473 48.7449 56.3614 48.9366 56.5698L53.6364 61.6561C53.8129 61.8463 53.889 62.0654 53.8784 62.3454V62.3819V70.4868H48.2504V67.3176C48.2504 67.0878 48.1637 66.8672 48.0085 66.6983L43.0986 61.3853C42.5966 60.8421 42.3516 60.1985 42.3516 59.4211V46.8125ZM76.4876 58.3119L72.9882 62.0989C72.6459 62.4686 72.6687 63.0468 73.0399 63.3891C73.4097 63.7314 73.9878 63.7086 74.3302 63.3389L77.8144 59.5671C77.8159 59.5641 77.8189 59.5626 77.8204 59.5595C77.825 59.555 77.828 59.5519 77.8311 59.5473L78.3393 58.9981C79.1563 58.1141 79.5701 57.0354 79.5701 55.7938V46.814C79.5701 46.1644 80.0448 45.6151 80.6078 45.6151C81.1707 45.6151 81.6454 46.1644 81.6454 46.814V59.4226C81.6454 60.2016 81.4005 60.8437 80.8984 61.3868L75.9901 66.6998C75.8349 66.8687 75.7482 67.0894 75.7482 67.3191V70.4883H70.1202V62.3834C70.1202 62.3712 70.1202 62.3591 70.1202 62.3469C70.1096 62.0669 70.1856 61.8494 70.3621 61.6577L75.062 56.5713C75.2537 56.3629 75.5063 56.2488 75.771 56.2488C76.0357 56.2488 76.2883 56.3629 76.48 56.5713C76.9152 57.043 76.9182 57.8372 76.4876 58.3119ZM49.0796 47.8487H51.2781C51.4881 48.5394 51.765 49.2073 52.1043 49.8448L50.5494 51.4028C50.239 51.7147 50.1933 52.2047 50.4444 52.5668C51.4181 53.9772 52.6247 55.1868 54.032 56.1605C54.3957 56.4116 54.8856 56.3674 55.1975 56.0555L56.7509 54.4991C57.3869 54.8384 58.0533 55.1153 58.741 55.3252V57.5283C58.741 57.9696 59.056 58.3469 59.4896 58.426C60.3234 58.5782 61.1769 58.6558 62.0274 58.6558C62.8779 58.6558 63.7315 58.5782 64.5653 58.426C64.9989 58.3469 65.3138 57.9696 65.3138 57.5283V55.3252C66.0031 55.1153 66.668 54.8384 67.3039 54.4991L68.8574 56.0555C69.1693 56.3674 69.6607 56.4116 70.0228 56.1605C71.4302 55.1853 72.6383 53.9757 73.6105 52.5668C73.86 52.2047 73.8159 51.7147 73.5055 51.4028L71.9506 49.8448C72.2898 49.2073 72.5668 48.5394 72.7767 47.8487H74.9753C75.4165 47.8487 75.7938 47.5337 75.8729 47.0986C76.0251 46.2648 76.1012 45.4097 76.1012 44.5577C76.1012 43.7057 76.0236 42.8506 75.8729 42.0168C75.7938 41.5832 75.4165 41.2667 74.9753 41.2667H72.7767C72.5668 40.576 72.2898 39.908 71.9506 39.2705L73.5055 37.7125C73.8159 37.4006 73.8615 36.9107 73.6105 36.5486C72.6367 35.1382 71.4302 33.9286 70.0228 32.9548C69.6592 32.7038 69.1693 32.7479 68.8574 33.0598L67.3039 34.6163C66.668 34.277 66.0015 34.0001 65.3138 33.7901V31.5886C65.3138 31.1473 64.9989 30.77 64.5653 30.6909C62.8977 30.3866 61.1556 30.3866 59.4911 30.6909C59.0575 30.77 58.7425 31.1473 58.7425 31.5886V33.7917C58.0533 34.0016 57.3884 34.2785 56.7524 34.6178L55.199 33.0614C54.8871 32.7479 54.3957 32.7038 54.0336 32.9564C52.6262 33.9316 51.4181 35.1412 50.4459 36.5501C50.1964 36.9122 50.2405 37.4021 50.5509 37.7141L52.1058 39.2721C51.7665 39.9096 51.4896 40.5775 51.2797 41.2682H49.0811C48.6399 41.2682 48.2626 41.5832 48.1834 42.0183C48.0313 42.8536 47.9552 43.7087 47.9552 44.5592C47.9552 45.4112 48.0328 46.2663 48.1834 47.1001C48.261 47.5337 48.6384 47.8487 49.0796 47.8487ZM49.8662 43.094H51.978C52.4025 43.094 52.7692 42.8019 52.8666 42.3896C53.0978 41.4036 53.4873 40.4649 54.0214 39.6007C54.2435 39.2401 54.1903 38.7745 53.8905 38.4763L52.3964 36.9792C53.0005 36.2078 53.6927 35.5155 54.4626 34.9084L55.9552 36.4041C56.2549 36.7038 56.722 36.7586 57.0826 36.5349C57.9453 36.0009 58.881 35.6114 59.8654 35.3786C60.2777 35.2812 60.5683 34.913 60.5683 34.49V32.3736C61.536 32.258 62.5204 32.258 63.4896 32.3736V34.49C63.4896 34.913 63.7802 35.2812 64.1925 35.3786C65.1754 35.6098 66.1126 35.9993 66.9753 36.5349C67.3359 36.7586 67.803 36.7038 68.1027 36.4041L69.5953 34.9084C70.3652 35.514 71.0559 36.2078 71.6615 36.9792L70.1674 38.4763C69.8692 38.776 69.8144 39.2416 70.0365 39.6022C70.5706 40.4649 70.9585 41.4036 71.1913 42.3911C71.2887 42.8034 71.6569 43.0955 72.0799 43.0955H74.1917C74.2495 43.5809 74.2784 44.0708 74.2784 44.5592C74.2784 45.0476 74.2495 45.539 74.1917 46.0229H72.0799C71.6554 46.0229 71.2887 46.315 71.1913 46.7273C70.9601 47.7132 70.5721 48.6505 70.0365 49.5162C69.8144 49.8768 69.8676 50.3424 70.1674 50.6406L71.6615 52.1377C71.0574 52.9091 70.3652 53.6014 69.5953 54.2085L68.1027 52.7128C67.803 52.4131 67.3359 52.3583 66.9753 52.582C66.1126 53.1176 65.1769 53.5055 64.1925 53.7383C63.7802 53.8357 63.4896 54.2039 63.4896 54.6269V56.7433C62.5219 56.8589 61.536 56.8589 60.5683 56.7433V54.6269C60.5683 54.2039 60.2762 53.8357 59.8654 53.7383C58.881 53.5071 57.9453 53.1176 57.0826 52.582C56.722 52.3583 56.2549 52.4131 55.9552 52.7128L54.4626 54.2085C53.6927 53.6029 53.002 52.9091 52.3964 52.1377L53.8905 50.6406C54.1887 50.3409 54.2435 49.8753 54.0214 49.5147C53.4873 48.6505 53.0994 47.7132 52.8666 46.7258C52.7692 46.3135 52.401 46.0214 51.978 46.0214H49.8662C49.8084 45.536 49.7795 45.0461 49.7795 44.5577C49.7795 44.0693 49.8084 43.5794 49.8662 43.094ZM62.029 52.8985C66.6208 52.8985 70.356 49.1571 70.356 44.5592C70.356 39.9613 66.6208 36.22 62.029 36.22C57.4371 36.22 53.7019 39.9613 53.7019 44.5592C53.7019 49.1571 57.4371 52.8985 62.029 52.8985ZM56.5181 48.0099H57.6273C57.819 48.7144 58.0685 49.3625 58.3652 49.9377C57.6258 49.4295 56.9959 48.7722 56.5181 48.0099ZM55.5277 44.5592C55.5277 43.9978 55.5992 43.4531 55.7331 42.9343H57.2804C57.2195 43.4577 57.1876 44.0008 57.1876 44.5592C57.1876 45.1176 57.2195 45.6608 57.2804 46.1842H55.7315C55.5976 45.6638 55.5277 45.1191 55.5277 44.5592ZM68.5303 44.5592C68.5303 45.1206 68.4587 45.6653 68.3249 46.1842H66.7775C66.8384 45.6608 66.8703 45.1176 66.8703 44.5592C66.8703 44.0008 66.8384 43.4577 66.7775 42.9343H68.3249C68.4587 43.4531 68.5303 43.9978 68.5303 44.5592ZM65.0445 44.5592C65.0445 45.1298 65.0065 45.6729 64.938 46.1842H62.9403V42.9343H64.938C65.008 43.4455 65.0445 43.9887 65.0445 44.5592ZM61.1161 50.5386C60.4983 50.0883 59.9217 49.2058 59.5292 48.0099H61.1161V50.5386ZM62.9418 50.5386V48.0099H64.5288C64.1347 49.2043 63.558 50.0883 62.9418 50.5386ZM62.9418 41.107V38.5783C63.5596 39.0286 64.1362 39.9111 64.5288 41.107H62.9418ZM61.1161 38.5783V41.107H59.5292C59.9217 39.9126 60.4983 39.0286 61.1161 38.5783ZM61.1161 42.9327V46.1826H59.1184C59.0499 45.6714 59.0119 45.1267 59.0119 44.5577C59.0119 43.9887 59.0499 43.444 59.1184 42.9327H61.1161ZM65.6912 49.9361C65.9894 49.361 66.2374 48.7144 66.4291 48.0084H67.5382C67.0605 48.7722 66.4306 49.4295 65.6912 49.9361ZM67.5382 41.107H66.4291C66.2374 40.4025 65.9879 39.7544 65.6912 39.1792C66.4306 39.6874 67.0605 40.3447 67.5382 41.107ZM58.3667 39.1808C58.0701 39.7559 57.8205 40.4025 57.6288 41.1085H56.5197C56.9959 40.3447 57.6258 39.6874 58.3667 39.1808ZM66.3621 79.4894C66.3621 79.9931 65.9529 80.4023 65.4493 80.4023H58.5508C58.0472 80.4023 57.638 79.9931 57.638 79.4894C57.638 78.9858 58.0472 78.5766 58.5508 78.5766H65.4493C65.9529 78.5766 66.3621 78.9858 66.3621 79.4894Z" stroke="#00AFCC" stroke-width="0.475"/>
</svg>