<svg xmlns="http://www.w3.org/2000/svg" width="33" height="33" fill="none" viewBox="0 0 33 33"><path stroke="#1f2937" stroke-linecap="round" stroke-linejoin="round" stroke-width="1.988" d="M14.19 25.911H6.9a2.65 2.65 0 0 1-2.65-2.65V10.006a2.65 2.65 0 0 1 2.65-2.65h18.555a2.65 2.65 0 0 1 2.65 2.65v5.301"/><path stroke="#1f2937" stroke-linecap="round" stroke-linejoin="round" stroke-width="1.988" d="m4.25 10.006 11.927 7.953 3.954-2.637 7.975-5.316m-3.976 19.88 4.44-4.352a2.84 2.84 0 0 0 .007-4.07 2.97 2.97 0 0 0-4.147-.008l-.298.292-.295-.292a2.97 2.97 0 0 0-4.146-.008 2.84 2.84 0 0 0-.008 4.07Z"/></svg>