<svg xmlns="http://www.w3.org/2000/svg" xmlns:xlink="http://www.w3.org/1999/xlink" width="500" zoomAndPan="magnify" viewBox="0 0 375.12 383.03998" height="500" preserveAspectRatio="xMidYMid meet" version="1.0"><path fill="#00afcc" d="M 294.007812 235.039062 L 185.875 343.171875 L 72.03125 343.171875 C 39.789062 343.171875 16.886719 310.828125 28.046875 280.214844 C 48.414062 224.449219 107.578125 186.980469 175.269531 186.980469 C 222.40625 186.980469 265.359375 205.183594 294.007812 235.039062 Z M 226.828125 372.976562 C 224.433594 373.914062 221.734375 371.210938 222.769531 368.820312 L 227.085938 343.171875 L 312.03125 258.125 L 338.15625 284.144531 L 253.203125 369.082031 Z M 345.632812 276.550781 L 319.667969 250.488281 L 327.730469 242.527344 C 331.582031 238.675781 337.507812 238.160156 341.042969 241.699219 L 353.855469 254.609375 C 357.808594 258.5625 357.492188 264.285156 353.542969 268.445312 Z M 175.269531 178.8125 C 127.984375 178.8125 89.519531 138.746094 89.519531 89.488281 C 89.519531 40.230469 127.984375 0.164062 175.269531 0.164062 C 222.554688 0.164062 261.023438 40.230469 261.023438 89.488281 C 261.023438 138.746094 222.554688 178.8125 175.269531 178.8125 Z M 175.269531 178.8125 " fill-opacity="1" fill-rule="nonzero"/></svg>