<svg xmlns="http://www.w3.org/2000/svg" xmlns:xlink="http://www.w3.org/1999/xlink" width="500" zoomAndPan="magnify" viewBox="0 0 375.12 383.03998" height="500" preserveAspectRatio="xMidYMid meet" version="1.0"><defs><clipPath id="d99511fc02"><path d="M 26.640625 0 L 347.585938 0 L 347.585938 374.0625 L 26.640625 374.0625 Z M 26.640625 0 " clip-rule="nonzero"/></clipPath></defs><g clip-path="url(#d99511fc02)"><path fill="#00afcc" d="M 67.902344 -1.976562 C 45.246094 -1.976562 26.816406 16.457031 26.816406 39.113281 L 26.816406 149.328125 C 26.816406 164.964844 32.328125 180.199219 42.640625 192.550781 L 117.210938 272.449219 L 117.210938 367.820312 C 117.210938 372.363281 120.882812 376.035156 125.429688 376.035156 L 281.5625 376.035156 L 281.5625 302.078125 C 281.5625 297.53125 285.238281 293.859375 289.78125 293.859375 C 294.324219 293.859375 298 297.53125 298 302.078125 L 298 376.035156 L 339.085938 376.035156 C 343.632812 376.035156 347.304688 372.363281 347.304688 367.820312 L 347.304688 290.007812 C 347.304688 243.890625 318.476562 211.683594 277.199219 211.683594 L 178.136719 211.683594 L 108.992188 142.539062 L 108.992188 39.113281 C 108.992188 16.457031 90.558594 -1.976562 67.902344 -1.976562 Z M 224.183594 30.894531 C 222.839844 30.894531 221.496094 30.925781 220.152344 30.992188 C 218.808594 31.058594 217.46875 31.15625 216.128906 31.289062 C 214.792969 31.421875 213.457031 31.585938 212.125 31.78125 C 210.796875 31.980469 209.472656 32.210938 208.152344 32.472656 C 206.832031 32.734375 205.523438 33.03125 204.21875 33.355469 C 202.914062 33.683594 201.617188 34.042969 200.328125 34.433594 C 199.042969 34.824219 197.765625 35.246094 196.5 35.699219 C 195.234375 36.152344 193.980469 36.632812 192.738281 37.148438 C 191.496094 37.664062 190.265625 38.207031 189.050781 38.785156 C 187.832031 39.359375 186.632812 39.964844 185.445312 40.597656 C 184.261719 41.230469 183.089844 41.894531 181.9375 42.585938 C 180.785156 43.277344 179.648438 43.996094 178.53125 44.742188 C 177.410156 45.488281 176.3125 46.265625 175.230469 47.066406 C 174.152344 47.867188 173.09375 48.695312 172.050781 49.546875 C 171.011719 50.398438 169.996094 51.277344 169 52.179688 C 168 53.085938 167.027344 54.011719 166.078125 54.960938 C 165.125 55.914062 164.199219 56.886719 163.296875 57.882812 C 162.390625 58.878906 161.515625 59.898438 160.660156 60.9375 C 159.808594 61.976562 158.980469 63.039062 158.179688 64.117188 C 157.378906 65.199219 156.605469 66.296875 155.855469 67.414062 C 155.109375 68.535156 154.390625 69.667969 153.699219 70.824219 C 153.007812 71.976562 152.34375 73.148438 151.710938 74.332031 C 151.078125 75.519531 150.472656 76.71875 149.898438 77.933594 C 149.324219 79.152344 148.777344 80.378906 148.261719 81.621094 C 147.75 82.867188 147.265625 84.121094 146.8125 85.386719 C 146.359375 86.652344 145.9375 87.929688 145.546875 89.214844 C 145.15625 90.503906 144.796875 91.796875 144.46875 93.101562 C 144.144531 94.40625 143.847656 95.71875 143.585938 97.039062 C 143.324219 98.359375 143.09375 99.683594 142.898438 101.011719 C 142.699219 102.34375 142.535156 103.675781 142.402344 105.015625 C 142.273438 106.355469 142.171875 107.695312 142.105469 109.039062 C 142.039062 110.382812 142.007812 111.726562 142.007812 113.070312 C 142.007812 114.414062 142.039062 115.757812 142.105469 117.101562 C 142.171875 118.445312 142.273438 119.785156 142.402344 121.125 C 142.535156 122.464844 142.699219 123.796875 142.898438 125.128906 C 143.09375 126.457031 143.324219 127.785156 143.585938 129.101562 C 143.847656 130.421875 144.144531 131.734375 144.46875 133.039062 C 144.796875 134.34375 145.15625 135.636719 145.546875 136.925781 C 145.9375 138.210938 146.359375 139.488281 146.8125 140.753906 C 147.265625 142.019531 147.75 143.277344 148.261719 144.519531 C 148.777344 145.761719 149.324219 146.988281 149.898438 148.207031 C 150.472656 149.421875 151.078125 150.621094 151.710938 151.808594 C 152.34375 152.996094 153.007812 154.164062 153.699219 155.316406 C 154.390625 156.472656 155.109375 157.605469 155.855469 158.726562 C 156.605469 159.84375 157.378906 160.941406 158.179688 162.023438 C 158.980469 163.101562 159.808594 164.164062 160.660156 165.203125 C 161.515625 166.242188 162.390625 167.261719 163.296875 168.257812 C 164.199219 169.253906 165.125 170.226562 166.078125 171.179688 C 167.027344 172.128906 168 173.054688 168.996094 173.960938 C 169.996094 174.863281 171.011719 175.742188 172.050781 176.59375 C 173.09375 177.449219 174.152344 178.273438 175.230469 179.074219 C 176.3125 179.875 177.410156 180.652344 178.53125 181.398438 C 179.648438 182.144531 180.785156 182.863281 181.9375 183.554688 C 183.089844 184.246094 184.261719 184.910156 185.445312 185.542969 C 186.632812 186.179688 187.832031 186.78125 189.050781 187.359375 C 190.265625 187.933594 191.496094 188.476562 192.738281 188.992188 C 193.980469 189.507812 195.234375 189.992188 196.5 190.445312 C 197.765625 190.898438 199.042969 191.320312 200.328125 191.707031 C 201.617188 192.097656 202.914062 192.457031 204.21875 192.785156 C 205.523438 193.113281 206.832031 193.40625 208.152344 193.667969 C 209.472656 193.929688 210.796875 194.160156 212.125 194.359375 C 213.457031 194.554688 214.792969 194.71875 216.128906 194.851562 C 217.46875 194.984375 218.808594 195.082031 220.152344 195.148438 C 221.496094 195.214844 222.839844 195.246094 224.183594 195.246094 C 225.53125 195.246094 226.875 195.214844 228.21875 195.148438 C 229.558594 195.082031 230.902344 194.984375 232.238281 194.851562 C 233.578125 194.71875 234.914062 194.554688 236.242188 194.359375 C 237.574219 194.160156 238.898438 193.929688 240.214844 193.667969 C 241.535156 193.40625 242.847656 193.113281 244.152344 192.785156 C 245.457031 192.457031 246.753906 192.097656 248.039062 191.707031 C 249.328125 191.320312 250.601562 190.898438 251.871094 190.445312 C 253.136719 189.992188 254.390625 189.507812 255.632812 188.992188 C 256.875 188.476562 258.105469 187.933594 259.320312 187.359375 C 260.535156 186.78125 261.738281 186.179688 262.921875 185.542969 C 264.109375 184.910156 265.277344 184.246094 266.433594 183.554688 C 267.585938 182.863281 268.722656 182.144531 269.839844 181.398438 C 270.957031 180.652344 272.058594 179.875 273.136719 179.074219 C 274.21875 178.273438 275.277344 177.449219 276.316406 176.59375 C 277.355469 175.742188 278.375 174.863281 279.371094 173.960938 C 280.367188 173.054688 281.339844 172.128906 282.292969 171.179688 C 283.242188 170.226562 284.171875 169.253906 285.074219 168.257812 C 285.976562 167.261719 286.855469 166.242188 287.707031 165.203125 C 288.5625 164.164062 289.386719 163.101562 290.191406 162.023438 C 290.992188 160.941406 291.765625 159.84375 292.511719 158.726562 C 293.257812 157.605469 293.980469 156.472656 294.671875 155.316406 C 295.363281 154.164062 296.023438 152.996094 296.65625 151.808594 C 297.292969 150.621094 297.898438 149.421875 298.472656 148.207031 C 299.046875 146.988281 299.589844 145.761719 300.105469 144.519531 C 300.621094 143.277344 301.105469 142.019531 301.558594 140.753906 C 302.011719 139.488281 302.433594 138.210938 302.824219 136.925781 C 303.214844 135.636719 303.570312 134.34375 303.898438 133.039062 C 304.226562 131.734375 304.519531 130.421875 304.78125 129.101562 C 305.042969 127.785156 305.273438 126.457031 305.472656 125.128906 C 305.667969 123.796875 305.835938 122.464844 305.964844 121.125 C 306.097656 119.785156 306.195312 118.445312 306.261719 117.101562 C 306.328125 115.757812 306.363281 114.414062 306.363281 113.070312 C 306.363281 111.726562 306.328125 110.382812 306.261719 109.039062 C 306.195312 107.695312 306.097656 106.355469 305.964844 105.015625 C 305.835938 103.675781 305.667969 102.34375 305.472656 101.011719 C 305.273438 99.683594 305.042969 98.359375 304.78125 97.039062 C 304.519531 95.71875 304.226562 94.40625 303.898438 93.101562 C 303.570312 91.796875 303.214844 90.503906 302.824219 89.214844 C 302.433594 87.929688 302.011719 86.652344 301.558594 85.386719 C 301.105469 84.121094 300.621094 82.867188 300.105469 81.621094 C 299.589844 80.378906 299.046875 79.152344 298.472656 77.933594 C 297.898438 76.71875 297.292969 75.519531 296.65625 74.332031 C 296.023438 73.148438 295.363281 71.976562 294.671875 70.824219 C 293.980469 69.667969 293.257812 68.535156 292.511719 67.414062 C 291.765625 66.296875 290.992188 65.199219 290.191406 64.117188 C 289.386719 63.039062 288.5625 61.976562 287.707031 60.9375 C 286.855469 59.898438 285.976562 58.878906 285.074219 57.882812 C 284.171875 56.886719 283.242188 55.914062 282.292969 54.960938 C 281.339844 54.011719 280.367188 53.085938 279.371094 52.179688 C 278.375 51.277344 277.355469 50.398438 276.316406 49.546875 C 275.277344 48.695312 274.21875 47.867188 273.136719 47.066406 C 272.058594 46.265625 270.957031 45.488281 269.839844 44.742188 C 268.722656 43.996094 267.585938 43.277344 266.433594 42.585938 C 265.277344 41.894531 264.109375 41.230469 262.921875 40.597656 C 261.738281 39.964844 260.535156 39.359375 259.320312 38.785156 C 258.105469 38.207031 256.875 37.664062 255.632812 37.148438 C 254.390625 36.632812 253.136719 36.152344 251.871094 35.699219 C 250.601562 35.246094 249.328125 34.824219 248.039062 34.433594 C 246.753906 34.042969 245.457031 33.683594 244.152344 33.355469 C 242.847656 33.03125 241.535156 32.734375 240.214844 32.472656 C 238.898438 32.210938 237.574219 31.980469 236.242188 31.78125 C 234.914062 31.585938 233.578125 31.421875 232.238281 31.289062 C 230.902344 31.15625 229.558594 31.058594 228.21875 30.992188 C 226.875 30.925781 225.53125 30.894531 224.183594 30.894531 Z M 224.183594 30.894531 " fill-opacity="1" fill-rule="nonzero"/></g></svg>
