<svg width="80" height="56" viewBox="0 0 80 56" fill="none" xmlns="http://www.w3.org/2000/svg">
<path d="M79.4662 19.2631L71.4912 3.30688C71.1974 2.71959 70.7908 2.19592 70.2946 1.76578C69.7984 1.33564 69.2223 1.00746 68.5993 0.799975C67.9762 0.592489 67.3185 0.509764 66.6634 0.556525C66.0084 0.603286 65.369 0.778618 64.7818 1.0725L57.0099 4.95688L40.638 0.62563C40.218 0.51631 39.7769 0.51631 39.3568 0.62563L22.9849 4.95688L15.213 1.0725C14.6258 0.778618 13.9864 0.603286 13.3314 0.556525C12.6764 0.509764 12.0186 0.592489 11.3956 0.799975C10.7725 1.00746 10.1965 1.33564 9.70026 1.76578C9.20407 2.19592 8.79746 2.71959 8.50367 3.30688L0.528672 19.26C0.234784 19.8472 0.059454 20.4866 0.012693 21.1416C-0.034068 21.7967 0.0486565 22.4545 0.256142 23.0775C0.463628 23.7005 0.79181 24.2766 1.22195 24.7728C1.65209 25.269 2.17575 25.6756 2.76305 25.9694L11.2005 30.1913L28.5412 42.5756C28.7968 42.7572 29.084 42.8896 29.388 42.9663L49.388 47.9663C49.8069 48.0713 50.2458 48.0661 50.662 47.951C51.0782 47.836 51.4576 47.6152 51.763 47.31L68.9724 30.0975L77.2287 25.9694C78.4139 25.376 79.3151 24.3363 79.7341 23.0788C80.1531 21.8213 80.0556 20.4488 79.463 19.2631H79.4662ZM62.313 29.6913L51.5599 21.0788C51.0782 20.693 50.4708 20.499 49.8546 20.5342C49.2385 20.5694 48.6571 20.8312 48.2224 21.2694C42.6568 26.8756 36.4537 26.1663 32.4974 23.6663L46.0099 10.5413H55.9505L64.4537 27.5444L62.313 29.6913ZM12.9755 5.54125L19.3724 8.73501L11.3818 24.6881L4.99742 21.4975L12.9755 5.54125ZM49.2255 42.7694L31.0662 38.2319L15.6912 27.2506L24.4412 9.75063L39.9974 5.62875L43.0599 6.43813L28.9974 20.0881L28.9724 20.1163C28.4431 20.6456 28.0393 21.2871 27.791 21.9933C27.5427 22.6996 27.4561 23.4525 27.5377 24.1967C27.6193 24.9409 27.867 25.6572 28.2624 26.2929C28.6578 26.9285 29.1909 27.4673 29.8224 27.8694C36.2474 31.9725 44.0005 31.3069 50.1068 26.3069L58.7474 33.2475L49.2255 42.7694ZM68.6005 24.685L60.6255 8.74751L67.0193 5.54125L74.9974 21.4975L68.6005 24.685ZM41.1787 53.6444C41.0436 54.1847 40.732 54.6645 40.2932 55.0075C39.8545 55.3506 39.3138 55.5374 38.7568 55.5381C38.5514 55.5383 38.3467 55.5131 38.1474 55.4631L25.1255 52.2069C24.821 52.1317 24.5336 51.9991 24.2787 51.8163L16.0443 45.935C15.538 45.5375 15.2045 44.96 15.1134 44.3227C15.0222 43.6855 15.1804 43.0377 15.5549 42.5141C15.9294 41.9906 16.4915 41.6317 17.124 41.5121C17.7565 41.3926 18.4108 41.5217 18.9505 41.8725L26.7974 47.4788L39.3724 50.6163C40.0155 50.7771 40.5684 51.1868 40.9095 51.7553C41.2505 52.3237 41.3519 53.0044 41.1912 53.6475L41.1787 53.6444Z" fill="#1F2937"/>
</svg>
