<svg xmlns="http://www.w3.org/2000/svg" xmlns:xlink="http://www.w3.org/1999/xlink" width="500" zoomAndPan="magnify" viewBox="0 0 375.12 383.03998" height="500" preserveAspectRatio="xMidYMid meet" version="1.0"><defs><clipPath id="68eea4af13"><path d="M 28.007812 151 L 345.960938 151 L 345.960938 374.0625 L 28.007812 374.0625 Z M 28.007812 151 " clip-rule="nonzero"/></clipPath><clipPath id="62a43e97a7"><path d="M 28.007812 260 L 345.960938 260 L 345.960938 374.0625 L 28.007812 374.0625 Z M 28.007812 260 " clip-rule="nonzero"/></clipPath><clipPath id="59afa3748e"><path d="M 28.007812 151 L 345.960938 151 L 345.960938 315 L 28.007812 315 Z M 28.007812 151 " clip-rule="nonzero"/></clipPath><clipPath id="d5d7d361a7"><path d="M 28.007812 115 L 77 115 L 77 164 L 28.007812 164 Z M 28.007812 115 " clip-rule="nonzero"/></clipPath><clipPath id="5203b0bc3f"><path d="M 297 115 L 345.960938 115 L 345.960938 164 L 297 164 Z M 297 115 " clip-rule="nonzero"/></clipPath></defs><g clip-path="url(#68eea4af13)"><path fill="#00afcc" d="M 339.648438 374.0625 L 34.472656 374.0625 C 31.25 374.0625 28.636719 371.449219 28.636719 368.226562 L 28.636719 157.46875 C 28.636719 154.246094 31.25 151.632812 34.472656 151.632812 C 37.695312 151.632812 40.308594 154.246094 40.308594 157.46875 L 40.308594 362.390625 L 333.808594 362.390625 L 333.808594 157.46875 C 333.808594 154.246094 336.421875 151.632812 339.648438 151.632812 C 342.871094 151.632812 345.484375 154.246094 345.484375 157.46875 L 345.484375 368.226562 C 345.484375 371.449219 342.871094 374.0625 339.648438 374.0625 Z M 339.648438 374.0625 " fill-opacity="1" fill-rule="nonzero"/></g><g clip-path="url(#62a43e97a7)"><path fill="#00afcc" d="M 339.648438 374.0625 L 34.472656 374.0625 C 32.074219 374.0625 29.921875 372.597656 29.042969 370.367188 C 28.164062 368.140625 28.734375 365.601562 30.488281 363.964844 L 139.972656 261.601562 C 142.328125 259.402344 146.019531 259.527344 148.222656 261.878906 C 150.421875 264.234375 150.296875 267.925781 147.945312 270.128906 L 49.257812 362.390625 L 324.859375 362.390625 L 226.175781 270.128906 C 223.820312 267.925781 223.695312 264.234375 225.898438 261.878906 C 228.097656 259.523438 231.792969 259.402344 234.144531 261.601562 L 343.632812 363.964844 C 345.382812 365.597656 345.953125 368.140625 345.074219 370.367188 C 344.195312 372.597656 342.042969 374.0625 339.648438 374.0625 Z M 339.648438 374.0625 " fill-opacity="1" fill-rule="nonzero"/></g><g clip-path="url(#59afa3748e)"><path fill="#00afcc" d="M 187.058594 314.375 C 185.574219 314.375 184.089844 313.808594 182.953125 312.683594 L 67.03125 197.917969 L 30.367188 161.617188 C 28.074219 159.347656 28.058594 155.652344 30.324219 153.363281 C 32.59375 151.074219 36.289062 151.054688 38.578125 153.320312 L 75.242188 189.621094 L 187.058594 300.324219 L 335.539062 153.320312 C 337.832031 151.054688 341.527344 151.074219 343.792969 153.363281 C 346.0625 155.652344 346.042969 159.347656 343.753906 161.617188 L 307.089844 197.917969 L 191.164062 312.683594 C 190.027344 313.808594 188.542969 314.375 187.058594 314.375 Z M 187.058594 314.375 " fill-opacity="1" fill-rule="nonzero"/></g><g clip-path="url(#d5d7d361a7)"><path fill="#00afcc" d="M 34.472656 163.304688 C 32.96875 163.304688 31.46875 162.726562 30.324219 161.574219 C 28.058594 159.285156 28.078125 155.589844 30.367188 153.320312 L 67.03125 117.023438 C 69.320312 114.753906 73.015625 114.773438 75.28125 117.0625 C 77.550781 119.355469 77.53125 123.050781 75.242188 125.316406 L 38.578125 161.617188 C 37.441406 162.742188 35.957031 163.304688 34.472656 163.304688 Z M 34.472656 163.304688 " fill-opacity="1" fill-rule="nonzero"/></g><g clip-path="url(#5203b0bc3f)"><path fill="#00afcc" d="M 339.644531 163.304688 C 338.160156 163.304688 336.675781 162.742188 335.539062 161.617188 L 298.878906 125.316406 C 296.585938 123.050781 296.566406 119.355469 298.835938 117.0625 C 301.101562 114.773438 304.800781 114.753906 307.089844 117.023438 L 343.75 153.320312 C 346.042969 155.589844 346.058594 159.285156 343.792969 161.574219 C 342.652344 162.726562 341.148438 163.304688 339.644531 163.304688 Z M 339.644531 163.304688 " fill-opacity="1" fill-rule="nonzero"/></g><path fill="#00afcc" d="M 240.300781 64.945312 C 238.816406 64.945312 237.332031 64.382812 236.195312 63.257812 L 187.058594 14.609375 L 137.925781 63.257812 C 135.632812 65.523438 131.9375 65.503906 129.671875 63.214844 C 127.402344 60.925781 127.421875 57.230469 129.710938 54.960938 L 182.953125 2.25 C 185.226562 -0.00390625 188.890625 -0.00390625 191.164062 2.25 L 244.40625 54.960938 C 246.695312 57.230469 246.714844 60.925781 244.449219 63.214844 C 243.308594 64.367188 241.804688 64.945312 240.300781 64.945312 Z M 240.300781 64.945312 " fill-opacity="1" fill-rule="nonzero"/><path fill="#00afcc" d="M 302.984375 199.605469 C 299.757812 199.605469 297.148438 196.992188 297.148438 193.769531 L 297.148438 64.945312 L 76.972656 64.945312 L 76.972656 193.769531 C 76.972656 196.992188 74.359375 199.605469 71.136719 199.605469 C 67.914062 199.605469 65.300781 196.992188 65.300781 193.769531 L 65.300781 59.109375 C 65.300781 55.886719 67.914062 53.273438 71.136719 53.273438 L 302.984375 53.273438 C 306.207031 53.273438 308.820312 55.886719 308.820312 59.109375 L 308.820312 193.769531 C 308.820312 196.992188 306.207031 199.605469 302.984375 199.605469 Z M 302.984375 199.605469 " fill-opacity="1" fill-rule="nonzero"/><path fill="#00afcc" d="M 187.058594 168.433594 C 186.242188 168.433594 185.425781 168.261719 184.664062 167.917969 C 169.492188 161.09375 155.964844 148.429688 146.574219 132.269531 C 143.054688 126.214844 140.796875 120.65625 139.664062 115.265625 C 138.199219 108.308594 138.628906 101.527344 140.898438 95.648438 C 143.519531 88.875 148.753906 83.140625 155.261719 79.921875 C 165.503906 74.847656 178.046875 76.355469 187.058594 83.242188 C 196.074219 76.355469 208.613281 74.847656 218.859375 79.921875 C 225.367188 83.140625 230.601562 88.875 233.21875 95.648438 C 235.488281 101.527344 235.917969 108.308594 234.457031 115.265625 C 233.324219 120.65625 231.0625 126.214844 227.546875 132.269531 C 218.15625 148.429688 204.625 161.089844 189.453125 167.917969 C 188.691406 168.261719 187.875 168.433594 187.058594 168.433594 Z M 168.246094 88.605469 C 165.546875 88.605469 162.863281 89.179688 160.441406 90.378906 C 156.519531 92.320312 153.363281 95.777344 151.785156 99.859375 C 149.949219 104.617188 150.390625 109.558594 151.085938 112.867188 C 151.957031 117.015625 153.78125 121.445312 156.664062 126.40625 C 164.21875 139.402344 175.191406 150.101562 187.058594 156.128906 C 198.929688 150.101562 209.902344 139.402344 217.453125 126.40625 C 220.335938 121.445312 222.160156 117.015625 223.03125 112.867188 C 223.726562 109.558594 224.171875 104.617188 222.332031 99.859375 C 220.753906 95.777344 217.601562 92.320312 213.679688 90.378906 C 206.429688 86.792969 196.882812 88.792969 191.464844 95.03125 C 190.359375 96.308594 188.75 97.042969 187.058594 97.042969 C 185.367188 97.042969 183.757812 96.308594 182.652344 95.03125 C 179.046875 90.878906 173.613281 88.605469 168.246094 88.605469 Z M 168.246094 88.605469 " fill-opacity="1" fill-rule="nonzero"/><path fill="#00afcc" d="M 252.820312 193.148438 L 121.296875 193.148438 C 118.074219 193.148438 115.460938 190.535156 115.460938 187.3125 C 115.460938 184.085938 118.074219 181.476562 121.296875 181.476562 L 252.820312 181.476562 C 256.042969 181.476562 258.65625 184.085938 258.65625 187.3125 C 258.65625 190.535156 256.042969 193.148438 252.820312 193.148438 Z M 252.820312 193.148438 " fill-opacity="1" fill-rule="nonzero"/><path fill="#00afcc" d="M 239.417969 216.890625 L 134.703125 216.890625 C 131.480469 216.890625 128.867188 214.277344 128.867188 211.054688 C 128.867188 207.832031 131.480469 205.21875 134.703125 205.21875 L 239.417969 205.21875 C 242.640625 205.21875 245.253906 207.832031 245.253906 211.054688 C 245.253906 214.277344 242.640625 216.890625 239.417969 216.890625 Z M 239.417969 216.890625 " fill-opacity="1" fill-rule="nonzero"/><path fill="#00afcc" d="M 218.757812 240.632812 L 155.363281 240.632812 C 152.136719 240.632812 149.523438 238.019531 149.523438 234.796875 C 149.523438 231.574219 152.136719 228.960938 155.363281 228.960938 L 218.757812 228.960938 C 221.980469 228.960938 224.59375 231.574219 224.59375 234.796875 C 224.59375 238.019531 221.980469 240.632812 218.757812 240.632812 Z M 218.757812 240.632812 " fill-opacity="1" fill-rule="nonzero"/></svg>
