<?xml version="1.0" standalone="no"?>
<!DOCTYPE svg PUBLIC "-//W3C//DTD SVG 1.1//EN" "http://www.w3.org/Graphics/SVG/1.1/DTD/svg11.dtd">
<svg xmlns="http://www.w3.org/2000/svg" width="33" height="33" viewBox="0 0 33 33" fill="none">
<path d="M14.1895 25.911H6.89999C6.19697 25.911 5.52275 25.6317 5.02565 25.1346C4.52854 24.6375 4.24927 23.9633 4.24927 23.2603V10.0067C4.24927 9.30366 4.52854 8.62944 5.02565 8.13233C5.52275 7.63523 6.19697 7.35596 6.89999 7.35596H25.455C26.158 7.35596 26.8323 7.63523 27.3294 8.13233C27.8265 8.62944 28.1057 9.30366 28.1057 10.0067V15.3081" stroke="#1F2937" stroke-width="1.98804" stroke-linecap="round" stroke-linejoin="round"/>
<path d="M4.24927 10.0063L16.1775 17.9585L20.1311 15.3224L28.1057 10.0063M24.1297 29.8867L28.5696 25.5343C28.8419 25.2701 29.0585 24.954 29.2066 24.6047C29.3547 24.2554 29.4313 23.88 29.4319 23.5006C29.4325 23.1212 29.3571 22.7455 29.2102 22.3957C29.0632 22.046 28.8477 21.7292 28.5762 21.4641C28.0227 20.9218 27.2792 20.6175 26.5043 20.616C25.7295 20.6145 24.9848 20.916 24.4292 21.4561L24.1323 21.7477L23.8368 21.4561C23.2833 20.9143 22.54 20.6102 21.7655 20.6087C20.991 20.6072 20.2465 20.9085 19.691 21.4482C19.4187 21.7123 19.202 22.0283 19.0538 22.3776C18.9056 22.7268 18.8288 23.1022 18.8281 23.4816C18.8273 23.861 18.9026 24.2367 19.0495 24.5865C19.1963 24.9363 19.4118 25.2532 19.6831 25.5184L24.1297 29.8867Z" stroke="#1F2937" stroke-width="1.98804" stroke-linecap="round" stroke-linejoin="round"/>
</svg>