<svg width="80" height="77" viewBox="0 0 80 77" fill="none" xmlns="http://www.w3.org/2000/svg">
<path d="M50.0148 46.5221C47.7781 53.9366 41.3327 59.679 33.4967 60.8189C29.0035 61.4944 24.4133 60.6527 20.4521 58.4268L13.7698 60.1005C12.0669 60.5235 10.5194 58.9899 10.9409 57.2854L12.6161 50.5893C10.3958 46.6317 9.55437 42.0482 10.224 37.56C11.547 28.598 18.8492 21.4358 27.8404 20.3374C32.5107 19.7606 36.9286 20.7605 40.602 22.8848" stroke="#1F2937" stroke-width="3.69188" stroke-linecap="round"/>
<path d="M56.1418 15.4487C63.1225 16.3101 68.805 21.8649 69.8233 28.8256C70.3488 32.3144 69.6948 35.8787 67.965 38.9537L69.2664 44.1484C69.3422 44.4509 69.3384 44.7678 69.2553 45.0683C69.1721 45.3688 69.0125 45.6426 68.7921 45.8631C68.5716 46.0835 68.2978 46.2431 67.9973 46.3262C67.6968 46.4094 67.3799 46.4132 67.0775 46.3374L61.8811 45.0376C58.806 46.7668 55.2417 47.4202 51.7531 46.8943C44.7924 45.8759 39.2361 40.1935 38.3777 33.2112C38.0712 30.8056 38.3197 28.3616 39.1041 26.0669C39.8885 23.7721 41.1879 21.6874 42.9028 19.9726C44.6177 18.2579 46.7025 16.9586 48.9974 16.1744C51.2922 15.3902 53.7362 15.142 56.1418 15.4487Z" stroke="#1F2937" stroke-width="3.69188" stroke-linecap="round"/>
</svg>
