<svg width="81" height="77" viewBox="0 0 81 77" fill="none" xmlns="http://www.w3.org/2000/svg">
<g clip-path="url(#clip0_39_6648)">
<path d="M50.5148 46.9651C48.2781 54.3796 41.8327 60.122 33.9967 61.2619C29.5035 61.9374 24.9133 61.0957 20.9521 58.8698L14.2698 60.5435C12.5669 60.9665 11.0194 59.4329 11.4409 57.7284L13.1161 51.0323C10.8958 47.0747 10.0544 42.4912 10.724 38.003C12.047 29.041 19.3492 21.8788 28.3404 20.7804C33.0107 20.2036 37.4286 21.2035 41.102 23.3278" stroke="#1F2937" stroke-width="3.69188" stroke-linecap="round"/>
<path d="M56.6418 15.8917C63.6225 16.7531 69.305 22.3079 70.3233 29.2686C70.8488 32.7573 70.1948 36.3217 68.465 39.3966L69.7664 44.5914C69.8422 44.8939 69.8384 45.2108 69.7553 45.5113C69.6721 45.8118 69.5125 46.0856 69.2921 46.3061C69.0716 46.5265 68.7978 46.6861 68.4973 46.7692C68.1968 46.8524 67.8799 46.8562 67.5775 46.7804L62.3811 45.4806C59.306 47.2098 55.7417 47.8632 52.2531 47.3373C45.2924 46.3189 39.7361 40.6365 38.8777 33.6542C38.5712 31.2486 38.8197 28.8046 39.6041 26.5098C40.3885 24.2151 41.6879 22.1304 43.4028 20.4156C45.1177 18.7009 47.2025 17.4016 49.4974 16.6174C51.7922 15.8332 54.2362 15.585 56.6418 15.8917Z" stroke="#1F2937" stroke-width="3.69188" stroke-linecap="round"/>
</g>
<defs>
<clipPath id="clip0_39_6648">
<rect width="80" height="75.7247" fill="white" transform="translate(0.5 0.76416)"/>
</clipPath>
</defs>
</svg>
