<svg width="80" height="81" viewBox="0 0 80 81" fill="none" xmlns="http://www.w3.org/2000/svg">
<path d="M53.3544 49.718C50.9311 57.7514 43.9477 63.973 35.4577 65.208C30.5895 65.94 25.6162 65.028 21.3244 62.6164L14.0844 64.4297C12.2394 64.888 10.5627 63.2264 11.0194 61.3797L12.8344 54.1247C10.4289 49.8368 9.51717 44.8708 10.2427 40.008C11.6761 30.298 19.5877 22.538 29.3294 21.348C34.3894 20.723 39.1761 21.8064 43.1561 24.108" stroke="#1F2937" stroke-width="4" stroke-linecap="round"/>
<path d="M59.9928 16.0513C67.5561 16.9847 73.7128 23.003 74.8161 30.5447C75.3855 34.3246 74.6769 38.1864 72.8028 41.518L74.2128 47.1463C74.2949 47.474 74.2908 47.8173 74.2007 48.1429C74.1106 48.4685 73.9377 48.7652 73.6989 49.004C73.46 49.2429 73.1633 49.4158 72.8377 49.5059C72.5122 49.5959 72.1688 49.6001 71.8411 49.518L66.2111 48.1097C62.8793 49.9832 59.0175 50.6912 55.2378 50.1213C47.6961 49.018 41.6761 42.8613 40.7461 35.2963C40.4141 32.6899 40.6833 30.042 41.5331 27.5557C42.383 25.0694 43.7909 22.8107 45.6489 20.9528C47.5069 19.095 49.7657 17.6872 52.2521 16.8376C54.7385 15.988 57.3864 15.719 59.9928 16.0513Z" stroke="#1F2937" stroke-width="4" stroke-linecap="round"/>
</svg>
