<svg width="80" height="76" viewBox="0 0 80 76" fill="none" xmlns="http://www.w3.org/2000/svg">
<path d="M50.0148 46.4806C47.7781 53.8951 41.3327 59.6375 33.4967 60.7774C29.0035 61.4529 24.4133 60.6112 20.4521 58.3853L13.7698 60.059C12.0669 60.482 10.5194 58.9484 10.9409 57.2439L12.6161 50.5478C10.3958 46.5902 9.55437 42.0067 10.224 37.5185C11.547 28.5565 18.8492 21.3943 27.8404 20.2959C32.5107 19.7191 36.9286 20.719 40.602 22.8433" stroke="#1F2937" stroke-width="3.69188" stroke-linecap="round"/>
<path d="M56.1418 15.4072C63.1226 16.2686 68.805 21.8234 69.8233 28.7841C70.3488 32.2728 69.6948 35.8372 67.9651 38.9121L69.2665 44.1069C69.3423 44.4094 69.3384 44.7263 69.2553 45.0268C69.1722 45.3273 69.0126 45.6011 68.7921 45.8216C68.5716 46.042 68.2978 46.2016 67.9973 46.2847C67.6968 46.3679 67.3799 46.3717 67.0775 46.2959L61.8812 44.9961C58.806 46.7253 55.2417 47.3787 51.7531 46.8528C44.7924 45.8344 39.2361 40.152 38.3778 33.1697C38.0713 30.7641 38.3197 28.3201 39.1041 26.0254C39.8885 23.7306 41.1879 21.6459 42.9028 19.9311C44.6177 18.2164 46.7025 16.9171 48.9974 16.1329C51.2922 15.3487 53.7362 15.1005 56.1418 15.4072Z" stroke="#1F2937" stroke-width="3.69188" stroke-linecap="round"/>
</svg>
