<svg width="21" height="24" viewBox="0 0 21 24" fill="none" xmlns="http://www.w3.org/2000/svg">
<path d="M19.4928 0.451577C18.2773 0.497027 17.0591 0.437313 15.8444 0.483578C15.3546 0.514557 14.9502 1.12046 15.167 1.64222C15.305 2.0745 15.7367 2.22087 16.1115 2.20485C16.8562 2.18263 17.6018 2.19262 18.3468 2.17061C14.9389 5.98376 11.5172 9.78182 8.11788 13.6043C7.9576 13.7782 7.8377 14.088 7.56765 14.0155C6.04108 14.0236 4.51321 14.0053 2.98741 14.0257C2.45701 14.0793 2.15761 14.6368 1.79465 15C1.24809 15.6933 0.542098 16.2328 0.10005 17.0246C-0.174373 17.4845 0.153718 18.1297 0.623633 18.1965C1.19291 18.3084 1.77436 18.1863 2.34881 18.2234C2.8989 18.2222 3.44903 18.2275 3.99907 18.2173C3.58269 18.7259 3.05879 19.132 2.71866 19.7136C2.47653 20.1064 2.63395 20.6449 2.98463 20.8793C3.26563 21.1497 3.66986 21.0315 3.9115 20.7605C4.35104 20.3527 4.73535 19.8778 5.13814 19.4267C5.14252 20.4847 5.116 21.5445 5.15018 22.6015C5.16258 23.0966 5.51789 23.5831 5.98568 23.5484C6.51608 23.4337 6.80454 22.8487 7.18545 22.4778C7.68516 21.8819 8.24648 21.3458 8.70438 20.709C8.9895 20.189 8.84542 19.5443 8.88319 18.9688C8.88629 17.7301 8.87626 16.4913 8.88145 15.2527C9.36598 14.6189 9.95208 14.0915 10.4602 13.4808C13.3241 10.2781 16.1963 7.08473 19.0448 3.86542C19.1709 3.72643 19.2936 3.58376 19.4137 3.4383C19.4372 4.4346 19.4206 5.43195 19.4326 6.42789C19.4391 6.88261 19.7123 7.39227 20.1609 7.38768C20.5866 7.43904 21.0096 7.04968 20.9901 6.55697C21.0072 4.79863 20.9999 3.03867 20.9853 1.28054C21.0136 0.81752 20.6061 0.536311 20.2396 0.496018C19.9935 0.446696 19.742 0.447909 19.4928 0.451577ZM3.78323 15.7614C4.56702 15.7602 5.35072 15.7716 6.13448 15.7757C5.91238 16.0011 5.71971 16.3002 5.48057 16.4808C4.55147 16.5092 3.62212 16.4727 2.6929 16.4767C2.90998 16.2375 3.11929 15.9794 3.3606 15.7741C3.50112 15.7639 3.64239 15.7655 3.78323 15.7614ZM7.30558 18.0608C7.29518 18.6538 7.32199 19.2604 7.28825 19.8451C7.09077 20.092 6.8824 20.3279 6.66789 20.5563C6.68029 19.5814 6.667 18.6062 6.67117 17.6313C6.85512 17.3613 7.08293 17.1339 7.30268 16.9014C7.3036 17.2879 7.30466 17.6743 7.30558 18.0608Z" fill="#00AFCC"/>
</svg>
