<svg width="30" height="34" viewBox="0 0 30 34" fill="none" xmlns="http://www.w3.org/2000/svg">
<path d="M27.8469 0.985373C26.1105 1.0503 24.3701 0.964995 22.6349 1.03109C21.9352 1.07534 21.3574 1.94092 21.6671 2.68629C21.8642 3.30383 22.481 3.51293 23.0165 3.49004C24.0803 3.45831 25.1454 3.47257 26.2097 3.44113C21.3412 8.88849 16.4531 14.3143 11.597 19.775C11.368 20.0234 11.1967 20.4659 10.8109 20.3624C8.63012 20.374 6.44744 20.3478 4.26774 20.377C3.51002 20.4535 3.0823 21.2499 2.56378 21.7688C1.78298 22.7593 0.774425 23.53 0.142928 24.6611C-0.249104 25.3181 0.219598 26.2399 0.890905 26.3353C1.70416 26.4951 2.5348 26.3207 3.35544 26.3737C4.14129 26.372 4.92718 26.3795 5.71296 26.365C5.11812 27.0916 4.36969 27.6717 3.8838 28.5026C3.53789 29.0638 3.76279 29.8329 4.26376 30.1678C4.66518 30.5541 5.24266 30.3853 5.58786 29.9981C6.21577 29.4156 6.76479 28.7371 7.3402 28.0926C7.34645 29.6041 7.30857 31.1181 7.35739 32.6281C7.37511 33.3354 7.88269 34.0305 8.55097 33.9809C9.30868 33.817 9.72077 32.9813 10.2649 32.4515C10.9788 31.6001 11.7807 30.8342 12.4348 29.9246C12.8421 29.1818 12.6363 28.2607 12.6903 27.4386C12.6947 25.669 12.6804 23.8993 12.6878 22.1299C13.38 21.2244 14.2173 20.4709 14.9431 19.5986C19.0344 15.0233 23.1376 10.4613 27.2069 5.8623C27.387 5.66373 27.5623 5.45991 27.7338 5.25211C27.7674 6.67541 27.7437 8.10019 27.7608 9.52296C27.7702 10.1726 28.1604 10.9006 28.8013 10.8941C29.4094 10.9675 30.0137 10.4112 29.9858 9.70736C30.0103 7.19545 29.9999 4.68122 29.979 2.1696C30.0194 1.50815 29.4372 1.10642 28.9137 1.04886C28.5622 0.978399 28.2028 0.980132 27.8469 0.985373ZM5.40461 22.8566C6.52431 22.8549 7.64388 22.8711 8.76354 22.8769C8.44625 23.199 8.17101 23.6263 7.82939 23.8843C6.5021 23.9248 5.17445 23.8726 3.847 23.8785C4.15712 23.5367 4.45612 23.1679 4.80086 22.8747C5.00159 22.8601 5.20341 22.8624 5.40461 22.8566ZM10.4365 26.1414C10.4217 26.9886 10.46 27.8551 10.4118 28.6904C10.1297 29.0431 9.83199 29.3801 9.52556 29.7064C9.54327 28.3136 9.52428 26.9206 9.53025 25.5278C9.79302 25.1422 10.1185 24.8173 10.4324 24.4851C10.4337 25.0372 10.4352 25.5893 10.4365 26.1414Z" fill="#D1D5DB"/>
</svg>
