<svg width="30" height="34" viewBox="0 0 30 34" fill="none" xmlns="http://www.w3.org/2000/svg">
<path d="M27.8469 0.644552C26.1105 0.709481 24.3701 0.624175 22.6349 0.690268C21.9352 0.734524 21.3574 1.6001 21.6671 2.34547C21.8642 2.96301 22.481 3.17211 23.0165 3.14922C24.0803 3.11749 25.1454 3.13175 26.2097 3.10031C21.3412 8.54767 16.4531 13.9735 11.597 19.4342C11.368 19.6826 11.1967 20.1251 10.8109 20.0216C8.63012 20.0332 6.44744 20.007 4.26774 20.0361C3.51002 20.1127 3.0823 20.9091 2.56378 21.428C1.78298 22.4185 0.774425 23.1891 0.142928 24.3203C-0.249104 24.9773 0.219598 25.899 0.890905 25.9944C1.70416 26.1543 2.5348 25.9799 3.35544 26.0329C4.14129 26.0312 4.92718 26.0387 5.71296 26.0241C5.11812 26.7508 4.36969 27.3309 3.8838 28.1618C3.53789 28.7229 3.76279 29.4921 4.26376 29.827C4.66518 30.2132 5.24266 30.0445 5.58786 29.6572C6.21577 29.0748 6.76479 28.3963 7.3402 27.7518C7.34645 29.2633 7.30857 30.7773 7.35739 32.2872C7.37511 32.9946 7.88269 33.6896 8.55097 33.6401C9.30868 33.4762 9.72077 32.6404 10.2649 32.1106C10.9788 31.2592 11.7807 30.4934 12.4348 29.5838C12.8421 28.8409 12.6363 27.9199 12.6903 27.0977C12.6947 25.3282 12.6804 23.5585 12.6878 21.7891C13.38 20.8836 14.2173 20.1301 14.9431 19.2578C19.0344 14.6824 23.1376 10.1205 27.2069 5.52148C27.387 5.32291 27.5623 5.11909 27.7338 4.91129C27.7674 6.33459 27.7437 7.75937 27.7608 9.18214C27.7702 9.83175 28.1604 10.5598 28.8013 10.5533C29.4094 10.6266 30.0137 10.0704 29.9858 9.36654C30.0103 6.85463 29.9999 4.3404 29.979 1.82878C30.0194 1.16733 29.4372 0.765601 28.9137 0.708039C28.5622 0.637579 28.2028 0.639311 27.8469 0.644552ZM5.40461 22.5157C6.52431 22.514 7.64388 22.5303 8.76354 22.5361C8.44625 22.8582 8.17101 23.2855 7.82939 23.5435C6.5021 23.584 5.17445 23.5318 3.847 23.5376C4.15712 23.1959 4.45612 22.8271 4.80086 22.5339C5.00159 22.5193 5.20341 22.5216 5.40461 22.5157ZM10.4365 25.8006C10.4217 26.6478 10.46 27.5143 10.4118 28.3495C10.1297 28.7023 9.83199 29.0393 9.52556 29.3656C9.54327 27.9728 9.52428 26.5798 9.53025 25.187C9.79302 24.8013 10.1185 24.4764 10.4324 24.1443C10.4337 24.6964 10.4352 25.2485 10.4365 25.8006Z" fill="#D1D5DB"/>
</svg>
