<svg width="30" height="34" viewBox="0 0 30 34" fill="none" xmlns="http://www.w3.org/2000/svg">
<path d="M27.8469 0.501974C26.1105 0.566902 24.3701 0.481597 22.6349 0.54769C21.9352 0.591946 21.3574 1.45753 21.6671 2.20289C21.8642 2.82044 22.481 3.02953 23.0165 3.00664C24.0803 2.97491 25.1454 2.98918 26.2097 2.95773C21.3412 8.40509 16.4531 13.8309 11.597 19.2916C11.368 19.54 11.1967 19.9825 10.8109 19.879C8.63012 19.8906 6.44744 19.8645 4.26774 19.8936C3.51002 19.9701 3.0823 20.7665 2.56378 21.2854C1.78298 22.2759 0.774425 23.0466 0.142928 24.1777C-0.249104 24.8347 0.219598 25.7565 0.890905 25.8519C1.70416 26.0117 2.5348 25.8373 3.35544 25.8903C4.14129 25.8886 4.92718 25.8961 5.71296 25.8816C5.11812 26.6082 4.36969 27.1883 3.8838 28.0192C3.53789 28.5804 3.76279 29.3495 4.26376 29.6844C4.66518 30.0707 5.24266 29.9019 5.58786 29.5147C6.21577 28.9322 6.76479 28.2537 7.3402 27.6092C7.34645 29.1207 7.30857 30.6347 7.35739 32.1447C7.37511 32.852 7.88269 33.5471 8.55097 33.4975C9.30868 33.3336 9.72077 32.4979 10.2649 31.9681C10.9788 31.1167 11.7807 30.3508 12.4348 29.4412C12.8421 28.6984 12.6363 27.7773 12.6903 26.9552C12.6947 25.1856 12.6804 23.4159 12.6878 21.6465C13.38 20.741 14.2173 19.9875 14.9431 19.1152C19.0344 14.5399 23.1376 9.97791 27.2069 5.3789C27.387 5.18033 27.5623 4.97651 27.7338 4.76871C27.7674 6.19201 27.7437 7.61679 27.7608 9.03957C27.7702 9.68917 28.1604 10.4172 28.8013 10.4107C29.4094 10.4841 30.0137 9.92783 29.9858 9.22396C30.0103 6.71205 29.9999 4.19782 29.979 1.6862C30.0194 1.02475 29.4372 0.623023 28.9137 0.565461C28.5622 0.495 28.2028 0.496733 27.8469 0.501974ZM5.40461 22.3732C6.52431 22.3715 7.64388 22.3877 8.76354 22.3935C8.44625 22.7156 8.17101 23.1429 7.82939 23.4009C6.5021 23.4414 5.17445 23.3892 3.847 23.3951C4.15712 23.0533 4.45612 22.6845 4.80086 22.3913C5.00159 22.3767 5.20341 22.379 5.40461 22.3732ZM10.4365 25.658C10.4217 26.5052 10.46 27.3717 10.4118 28.207C10.1297 28.5598 9.83199 28.8967 9.52556 29.223C9.54327 27.8302 9.52428 26.4372 9.53025 25.0444C9.79302 24.6588 10.1185 24.3339 10.4324 24.0017C10.4337 24.5538 10.4352 25.1059 10.4365 25.658Z" fill="#00AFCC"/>
</svg>
