<svg width="30" height="34" viewBox="0 0 30 34" fill="none" xmlns="http://www.w3.org/2000/svg">
<path d="M27.8469 0.685568C26.1105 0.750496 24.3701 0.665191 22.6349 0.731283C21.9352 0.775539 21.3574 1.64112 21.6671 2.38648C21.8642 3.00403 22.481 3.21312 23.0165 3.19024C24.0803 3.1585 25.1454 3.17277 26.2097 3.14132C21.3412 8.58868 16.4531 14.0145 11.597 19.4752C11.368 19.7236 11.1967 20.1661 10.8109 20.0626C8.63012 20.0742 6.44744 20.048 4.26774 20.0772C3.51002 20.1537 3.0823 20.9501 2.56378 21.469C1.78298 22.4595 0.774425 23.2302 0.142928 24.3613C-0.249104 25.0183 0.219598 25.9401 0.890905 26.0355C1.70416 26.1953 2.5348 26.0209 3.35544 26.0739C4.14129 26.0722 4.92718 26.0797 5.71296 26.0652C5.11812 26.7918 4.36969 27.3719 3.8838 28.2028C3.53789 28.764 3.76279 29.5331 4.26376 29.868C4.66518 30.2542 5.24266 30.0855 5.58786 29.6983C6.21577 29.1158 6.76479 28.4373 7.3402 27.7928C7.34645 29.3043 7.30857 30.8183 7.35739 32.3283C7.37511 33.0356 7.88269 33.7306 8.55097 33.6811C9.30868 33.5172 9.72077 32.6815 10.2649 32.1517C10.9788 31.3003 11.7807 30.5344 12.4348 29.6248C12.8421 28.882 12.6363 27.9609 12.6903 27.1387C12.6947 25.3692 12.6804 23.5995 12.6878 21.8301C13.38 20.9246 14.2173 20.1711 14.9431 19.2988C19.0344 14.7235 23.1376 10.1615 27.2069 5.56249C27.387 5.36392 27.5623 5.16011 27.7338 4.95231C27.7674 6.37561 27.7437 7.80039 27.7608 9.22316C27.7702 9.87276 28.1604 10.6008 28.8013 10.5943C29.4094 10.6677 30.0137 10.1114 29.9858 9.40755C30.0103 6.89565 29.9999 4.38141 29.979 1.8698C30.0194 1.20834 29.4372 0.806616 28.9137 0.749054C28.5622 0.678594 28.2028 0.680327 27.8469 0.685568ZM5.40461 22.5568C6.52431 22.5551 7.64388 22.5713 8.76354 22.5771C8.44625 22.8992 8.17101 23.3265 7.82939 23.5845C6.5021 23.625 5.17445 23.5728 3.847 23.5787C4.15712 23.2369 4.45612 22.8681 4.80086 22.5749C5.00159 22.5603 5.20341 22.5626 5.40461 22.5568ZM10.4365 25.8416C10.4217 26.6888 10.46 27.5553 10.4118 28.3906C10.1297 28.7433 9.83199 29.0803 9.52556 29.4066C9.54327 28.0138 9.52428 26.6208 9.53025 25.228C9.79302 24.8424 10.1185 24.5175 10.4324 24.1853C10.4337 24.7374 10.4352 25.2895 10.4365 25.8416Z" fill="#D1D5DB"/>
</svg>
