<svg width="124" height="125" viewBox="0 0 124 125" fill="none" xmlns="http://www.w3.org/2000/svg">
<rect x="1.675" y="2.10859" width="120.65" height="120.65" rx="60.325" stroke="#00AFCC" stroke-width="2.85"/>
<path d="M98.4324 77.8475V40.0138C99.5473 40.0138 100.617 39.5709 101.405 38.7825C102.193 37.9942 102.636 36.9249 102.636 35.81C102.636 34.6951 102.193 33.6259 101.405 32.8375C100.617 32.0492 99.5473 31.6063 98.4324 31.6063H43.3633C42.204 29.768 40.5633 28.2824 38.6193 27.3107C36.6753 26.3391 34.5023 25.9185 32.3361 26.0947C30.17 26.2709 28.0935 27.0371 26.3321 28.3101C24.5706 29.5831 23.1915 31.3143 22.3446 33.3158V33.3999C21.3668 35.7183 21.152 38.2878 21.7314 40.7364C22.3108 43.1849 23.6543 45.3857 25.5674 47.02V80.65C25.5674 81.7649 26.0103 82.8342 26.7987 83.6225C27.587 84.4109 28.6563 84.8538 29.7712 84.8538H60.5987V90.4588C59.8554 90.4588 59.1426 90.754 58.617 91.2796C58.0915 91.8052 57.7962 92.518 57.7962 93.2613V96.0638C57.7962 96.8071 58.0915 97.5199 58.617 98.0454C59.1426 98.571 59.8554 98.8663 60.5987 98.8663H63.4012C64.1445 98.8663 64.8573 98.571 65.3829 98.0454C65.9084 97.5199 66.2037 96.8071 66.2037 96.0638V93.2613C66.2037 92.518 65.9084 91.8052 65.3829 91.2796C64.8573 90.754 64.1445 90.4588 63.4012 90.4588V84.8538H79.0111C78.8821 85.547 78.8164 86.2505 78.8149 86.9557C78.8195 88.9544 79.3269 90.9198 80.2905 92.6709C81.2542 94.422 82.643 95.9025 84.329 96.9759C86.015 98.0493 87.9441 98.6812 89.9385 98.8132C91.9328 98.9453 93.9284 98.5734 95.7412 97.7317C97.5541 96.89 99.126 95.6056 100.312 93.9969C101.498 92.3882 102.26 90.5068 102.529 88.5261C102.797 86.5454 102.562 84.5292 101.846 82.663C101.13 80.7968 99.9564 79.1408 98.4324 77.8475ZM98.4324 34.4088C98.8041 34.4088 99.1605 34.5564 99.4233 34.8192C99.6861 35.082 99.8337 35.4384 99.8337 35.81C99.8311 35.9964 99.7913 36.1804 99.7168 36.3513C99.6422 36.5221 99.5342 36.6763 99.3993 36.8049C99.2751 36.9359 99.125 37.0397 98.9586 37.1097C98.7921 37.1796 98.613 37.2142 98.4324 37.2113H45.1849C45.1368 36.2606 44.9721 35.3194 44.6945 34.4088H98.4324ZM24.1662 37.9119C24.1644 35.8889 24.8361 33.9228 26.0755 32.3238C27.3148 30.7248 29.0513 29.584 31.0109 29.0812C32.9705 28.5785 35.0416 28.7425 36.8977 29.5473C38.7538 30.3521 40.2891 31.7519 41.2614 33.526C41.2614 33.526 41.2614 33.526 41.2614 33.6101C41.9847 34.9294 42.3698 36.4074 42.3824 37.9119C42.3824 38.1361 42.3824 38.3463 42.3824 38.5705C42.2951 40.9861 41.2517 43.2681 39.4819 44.9145C37.712 46.5608 35.3606 47.4367 32.945 47.3493C31.7489 47.3061 30.5731 47.0277 29.4846 46.53C28.3961 46.0323 27.4162 45.3251 26.6011 44.4488C24.9547 42.6789 24.0789 40.3275 24.1662 37.9119ZM63.4012 96.0638H60.5987V93.2613H63.4012V96.0638ZM29.7712 82.0513C29.3996 82.0513 29.0431 81.9037 28.7804 81.6409C28.5176 81.3781 28.3699 81.0217 28.3699 80.65V48.7576C30.0196 49.5077 31.819 49.8705 33.6305 49.8184C35.4419 49.7662 37.2174 49.3004 38.8212 48.4566C40.425 47.6128 41.8145 46.4133 42.8835 44.95C43.9525 43.4867 44.6726 41.7982 44.9888 40.0138H95.6299V76.11C94.2061 75.4632 92.6686 75.1038 91.1055 75.0524C89.5425 75.0011 87.9847 75.2588 86.5214 75.8108C85.0582 76.3627 83.7183 77.1981 82.5786 78.269C81.4389 79.3399 80.5218 80.6252 79.8799 82.0513H29.7712ZM90.7256 96.0638C88.3111 96.0601 85.9965 95.0993 84.2892 93.392C82.5819 91.6847 81.6211 89.3701 81.6174 86.9557C81.6208 85.9547 81.7865 84.961 82.1079 84.013C82.6487 82.4287 83.6158 81.0241 84.9028 79.9535C86.1898 78.8829 87.747 78.1877 89.4033 77.9443C91.0596 77.7009 92.751 77.9187 94.2916 78.5738C95.8322 79.2289 97.1624 80.2959 98.1362 81.6576C99.11 83.0193 99.6897 84.6231 99.8115 86.2928C99.9334 87.9624 99.5927 89.6334 98.8269 91.122C98.0611 92.6107 96.8998 93.8595 95.4707 94.7313C94.0415 95.6031 92.3997 96.0641 90.7256 96.0638Z" fill="#00AFCC"/>
<path d="M90.7254 84.1532H92.8273C93.1989 84.1532 93.5553 84.0056 93.8181 83.7428C94.0809 83.48 94.2285 83.1236 94.2285 82.752C94.2285 82.3803 94.0809 82.0239 93.8181 81.7611C93.5553 81.4983 93.1989 81.3507 92.8273 81.3507C92.8273 80.9791 92.6797 80.6227 92.4169 80.3599C92.1541 80.0971 91.7977 79.9495 91.426 79.9495C91.0544 79.9495 90.698 80.0971 90.4352 80.3599C90.1724 80.6227 90.0248 80.9791 90.0248 81.3507C89.0957 81.4436 88.2416 81.9018 87.6503 82.6245C87.059 83.3471 86.7791 84.2751 86.872 85.2042C86.9649 86.1332 87.4231 86.9874 88.1457 87.5786C88.8684 88.1699 89.7963 88.4499 90.7254 88.357C90.9112 88.357 91.0894 88.4308 91.2208 88.5622C91.3522 88.6936 91.426 88.8718 91.426 89.0576C91.426 89.2434 91.3522 89.4216 91.2208 89.553C91.0894 89.6844 90.9112 89.7582 90.7254 89.7582H88.6235C88.2519 89.7582 87.8955 89.9058 87.6327 90.1686C87.3699 90.4314 87.2223 90.7878 87.2223 91.1595C87.2223 91.5311 87.3699 91.8875 87.6327 92.1503C87.8955 92.4131 88.2519 92.5607 88.6235 92.5607H90.0248C90.0248 92.9323 90.1724 93.2888 90.4352 93.5515C90.698 93.8143 91.0544 93.962 91.426 93.962C91.7977 93.962 92.1541 93.8143 92.4169 93.5515C92.6797 93.2888 92.8273 92.9323 92.8273 92.5607V91.8601C93.4184 91.4217 93.8558 90.8077 94.0769 90.1057C94.298 89.4038 94.2915 88.6499 94.0583 87.9519C93.8251 87.2539 93.3772 86.6475 92.7786 86.2194C92.18 85.7914 91.4613 85.5635 90.7254 85.5685C90.5396 85.5685 90.3614 85.4947 90.23 85.3633C90.0986 85.2319 90.0248 85.0537 90.0248 84.8678C90.0248 84.682 90.0986 84.5038 90.23 84.3724C90.3614 84.241 90.5396 84.1672 90.7254 84.1672V84.1532Z" fill="#00AFCC"/>
<path d="M35.376 43.5169V42.8163C35.9671 42.3779 36.4045 41.7639 36.6256 41.0619C36.8467 40.36 36.8402 39.6062 36.607 38.9081C36.3738 38.2101 35.9259 37.6037 35.3273 37.1756C34.7287 36.7476 34.01 36.5197 33.2741 36.5247C33.0883 36.5247 32.9101 36.4509 32.7787 36.3195C32.6473 36.1881 32.5735 36.0099 32.5735 35.8241C32.5735 35.6382 32.6473 35.46 32.7787 35.3286C32.9101 35.1972 33.0883 35.1234 33.2741 35.1234H35.376C35.7476 35.1234 36.104 34.9758 36.3668 34.713C36.6296 34.4502 36.7772 34.0938 36.7772 33.7222C36.7772 33.3505 36.6296 32.9941 36.3668 32.7313C36.104 32.4686 35.7476 32.3209 35.376 32.3209C35.376 31.9493 35.2284 31.5929 34.9656 31.3301C34.7028 31.0673 34.3464 30.9197 33.9747 30.9197C33.6031 30.9197 33.2467 31.0673 32.9839 31.3301C32.7211 31.5929 32.5735 31.9493 32.5735 32.3209V32.391C31.7221 32.5639 30.9654 33.0469 30.4501 33.7464C29.9349 34.4458 29.6979 35.3118 29.7852 36.1761C29.8725 37.0405 30.2779 37.8415 30.9226 38.4238C31.5673 39.0061 32.4054 39.3281 33.2741 39.3272C33.4599 39.3272 33.6381 39.401 33.7695 39.5324C33.9009 39.6638 33.9747 39.842 33.9747 40.0278C33.9747 40.2136 33.9009 40.3918 33.7695 40.5232C33.6381 40.6546 33.4599 40.7284 33.2741 40.7284H31.1722C30.8006 40.7284 30.4442 40.8761 30.1814 41.1388C29.9186 41.4016 29.771 41.758 29.771 42.1297C29.771 42.5013 29.9186 42.8577 30.1814 43.1205C30.4442 43.3833 30.8006 43.5309 31.1722 43.5309H32.5735C32.5735 43.9026 32.7211 44.259 32.9839 44.5218C33.2467 44.7845 33.6031 44.9322 33.9747 44.9322C34.3464 44.9322 34.7028 44.7845 34.9656 44.5218C35.2284 44.259 35.376 43.9026 35.376 43.5309V43.5169Z" fill="#00AFCC"/>
<path d="M63.401 46.3614L64.5921 47.034C63.77 48.4446 62.9153 49.7617 62.0278 50.9855V49.8225C62.0278 49.4508 61.8802 49.0944 61.6174 48.8316C61.3546 48.5689 60.9982 48.4212 60.6266 48.4212H52.191C51.8194 48.4212 51.463 48.5689 51.2002 48.8316C50.9374 49.0944 50.7898 49.4508 50.7898 49.8225V55.4275H43.7835C43.4119 55.4275 43.0555 55.5751 42.7927 55.8379C42.5299 56.1007 42.3823 56.4571 42.3823 56.8287V59.6312H35.376C35.0044 59.6312 34.648 59.7789 34.3852 60.0416C34.1224 60.3044 33.9748 60.6608 33.9748 61.0325V66.6375C33.2461 66.6375 32.7697 66.6375 32.6576 66.6375C32.4735 66.6261 32.289 66.6512 32.1146 66.7113C31.9402 66.7714 31.7794 66.8653 31.6415 66.9877C31.5035 67.11 31.391 67.2584 31.3105 67.4244C31.23 67.5903 31.183 67.7705 31.1723 67.9546C31.1492 68.3242 31.2733 68.6878 31.5175 68.9661C31.7617 69.2444 32.1061 69.4148 32.4754 69.44H33.9748V70.8412H32.5735C32.2019 70.8412 31.8455 70.9889 31.5827 71.2516C31.3199 71.5144 31.1723 71.8708 31.1723 72.2425C31.1723 72.6141 31.3199 72.9705 31.5827 73.2333C31.8455 73.4961 32.2019 73.6437 32.5735 73.6437H63.401C63.7727 73.6437 64.1291 73.4961 64.3919 73.2333C64.6547 72.9705 64.8023 72.6141 64.8023 72.2425C64.8023 71.8708 64.6547 71.5144 64.3919 71.2516C64.1291 70.9889 63.7727 70.8412 63.401 70.8412H61.9998V55.4275C63.8822 53.2533 65.557 50.9076 67.0022 48.4212L68.2353 49.1218V43.5168L63.401 46.3614ZM42.3823 70.8412H36.7773V69.2018C38.6732 68.9617 40.5473 68.5728 42.3823 68.0387V70.8412ZM42.3823 65.2362C40.5485 65.7779 38.6741 66.1715 36.7773 66.4133V62.4337H42.3823V65.2362ZM50.7898 70.8412H45.1848V67.1699C47.1173 66.4742 48.9915 65.6261 50.7898 64.6337V70.8412ZM50.7898 61.5089C49.0052 62.6019 47.13 63.5396 45.1848 64.3114V58.23H50.7898V61.5089ZM59.1973 70.8412H53.5923V62.9382C55.5917 61.61 57.4676 60.1046 59.1973 58.4402V70.8412ZM59.1973 54.4606C57.5047 56.3654 55.6272 58.0975 53.5923 59.6312V51.2237H59.1973V54.4606Z" fill="#00AFCC"/>
<path d="M91.4261 69.4402C91.4344 68.4117 91.0653 67.4158 90.3888 66.6411C89.7122 65.8664 88.7751 65.3667 87.7548 65.2364C84.63 61.0327 84.1396 58.9588 84.7562 56.8289H85.8211C86.1927 56.8289 86.5492 56.6813 86.8119 56.4185C87.0747 56.1557 87.2224 55.7993 87.2224 55.4277C87.2232 55.0724 87.0891 54.7301 86.8472 54.4699C86.6053 54.2098 86.2736 54.0513 85.9192 54.0264L86.3676 53.1436C86.3676 53.1436 86.3676 53.0175 86.4797 52.9474C86.5093 52.8796 86.5328 52.8093 86.5498 52.7373C86.9837 51.8264 87.2133 50.8316 87.2224 49.8227C87.2224 47.9645 86.4842 46.1824 85.1703 44.8685C83.8563 43.5546 82.0743 42.8164 80.2161 42.8164C78.3579 42.8164 76.5759 43.5546 75.2619 44.8685C73.948 46.1824 73.2099 47.9645 73.2099 49.8227C73.2156 50.8455 73.4451 51.8547 73.8825 52.7793C73.9044 52.8516 73.9325 52.922 73.9665 52.9895C73.9665 52.9895 74.0366 53.1156 74.0646 53.1857C74.2328 53.4939 74.3589 53.7602 74.513 54.0544C74.1634 54.0789 73.8357 54.2335 73.5945 54.4877C73.3532 54.7419 73.216 55.0773 73.2099 55.4277C73.2099 55.7993 73.3575 56.1557 73.6203 56.4185C73.8831 56.6813 74.2395 56.8289 74.6111 56.8289H75.6761C76.2926 59.0149 75.8022 61.0327 72.6774 65.2364C71.5625 65.307 70.5213 65.8176 69.7829 66.6559C69.0444 67.4942 68.6693 68.5915 68.7399 69.7064C68.8105 70.8213 69.3211 71.8625 70.1594 72.6009C70.9977 73.3393 72.095 73.7145 73.2099 73.6439H87.2224C88.3373 73.6439 89.4065 73.201 90.1949 72.4126C90.9832 71.6243 91.4261 70.5551 91.4261 69.4402ZM80.2161 45.6189C81.0475 45.6189 81.8603 45.8655 82.5516 46.3274C83.2429 46.7893 83.7817 47.4458 84.0999 48.2139C84.418 48.9821 84.5013 49.8273 84.3391 50.6428C84.1769 51.4582 83.7765 52.2073 83.1886 52.7952C82.6007 53.3831 81.8517 53.7834 81.0362 53.9456C80.2208 54.1078 79.3755 54.0246 78.6074 53.7064C77.8393 53.3882 77.1827 52.8494 76.7208 52.1581C76.2589 51.4668 76.0124 50.6541 76.0124 49.8227C76.0124 48.7078 76.4553 47.6385 77.2436 46.8502C78.032 46.0618 79.1012 45.6189 80.2161 45.6189ZM78.5486 56.8289H81.8836C81.3791 59.4492 82.0518 61.8734 84.2797 65.2364H76.1525C78.3805 61.8734 79.0531 59.4492 78.5486 56.8289ZM71.8086 69.4402C71.8086 69.0685 71.9562 68.7121 72.219 68.4493C72.4818 68.1865 72.8382 68.0389 73.2099 68.0389H87.2224C87.594 68.0389 87.9504 68.1865 88.2132 68.4493C88.476 68.7121 88.6236 69.0685 88.6236 69.4402C88.6236 69.8118 88.476 70.1682 88.2132 70.431C87.9504 70.6938 87.594 70.8414 87.2224 70.8414H73.2099C72.8382 70.8414 72.4818 70.6938 72.219 70.431C71.9562 70.1682 71.8086 69.8118 71.8086 69.4402Z" fill="#00AFCC"/>
</svg>
