<svg width="124" height="124" viewBox="0 0 124 124" fill="none" xmlns="http://www.w3.org/2000/svg">
<rect x="1.675" y="1.60859" width="120.65" height="120.65" rx="60.325" stroke="#00AFCC" stroke-width="2.85"/>
<g clip-path="url(#clip0_39_5279)">
<path d="M95.3 61.9338H68.1667C66.1234 61.9338 64.4667 63.5905 64.4667 65.6338V81.6671C64.4667 83.7104 66.1234 85.3671 68.1667 85.3671H78.0333V89.0671H73.1V91.5338H62V84.8492C61.9874 80.9601 59.3882 77.5546 55.6394 76.5182L48.4333 74.558V72.708C50.75 71.0977 52.1315 68.4552 52.1333 65.6338V64.4005C52.8144 64.4005 53.3667 63.8482 53.3667 63.1671V59.4671C53.3606 54.0207 48.9464 49.6065 43.5 49.6005H32.4C31.0378 49.6005 29.9333 50.7049 29.9333 52.0671V58.2338C29.9255 61.0377 31.8183 63.4911 34.5324 64.1945C34.642 64.2252 34.7559 64.2391 34.8667 64.2626V65.6338C34.8685 68.4552 36.25 71.0977 38.5667 72.708V74.558L31.3564 76.5194C27.61 77.557 25.012 80.9613 25 84.8492V97.7005C25 98.3816 25.5522 98.9338 26.2333 98.9338H97.7667C98.4478 98.9338 99 98.3816 99 97.7005V92.7671C99 92.086 98.4478 91.5338 97.7667 91.5338H90.3667V89.0671H85.4333V85.3671H95.3C97.3433 85.3671 99 83.7104 99 81.6671V65.6338C99 63.5905 97.3433 61.9338 95.3 61.9338ZM32.4 58.2338V52.0671H43.5C47.5854 52.0713 50.8958 55.3817 50.9 59.4671V61.9338H50.0858C48.9567 61.9314 47.972 61.1648 47.6932 60.0699L47.1633 57.9363C47.0482 57.475 46.6785 57.1203 46.2124 57.0252C46.1311 57.0083 46.0492 57.0005 45.9667 57.0005C45.5782 57.0005 45.2127 57.1835 44.9802 57.4937L44.2401 58.4807C43.7993 59.0606 43.2892 59.5858 42.7219 60.0428C41.1929 61.2677 39.2923 61.935 37.3333 61.9338H36.1C35.7862 61.9368 35.4737 61.8953 35.1714 61.8103C33.5382 61.393 32.3964 59.9194 32.4 58.2338ZM37.3333 65.6338V64.4005C39.8584 64.3999 42.3076 63.5375 44.2757 61.9561C44.6647 61.6411 45.0332 61.3021 45.3783 60.9395C45.9817 62.8449 47.6751 64.1981 49.6667 64.3661V65.6338C49.6667 69.0393 46.9055 71.8005 43.5 71.8005C40.0945 71.8005 37.3333 69.0393 37.3333 65.6338ZM43.5 74.2671C44.3359 74.2647 45.1669 74.1401 45.9667 73.8974V75.5005C45.9709 75.854 46.1275 76.1882 46.3972 76.417L43.5 78.8307L40.6028 76.4182C40.8725 76.1894 41.0297 75.8546 41.0333 75.5005V73.8974C41.8331 74.1401 42.6641 74.2647 43.5 74.2671ZM32.0092 78.8982L37.8265 77.3149L42.7105 81.3847C43.1682 81.7653 43.8318 81.7653 44.2895 81.3847L49.1735 77.3149L54.9872 78.8969C57.6653 79.6377 59.5231 82.0706 59.5333 84.8492V91.5338H55.8333V85.3671H53.3667V91.5338H33.6333V85.3671H31.1667V91.5338H27.4667V84.8492C27.4757 82.0718 29.3323 79.6395 32.0092 78.8982ZM96.5333 94.0005V96.4671H27.4667V94.0005H96.5333ZM80.5 89.0671V75.5005H82.9667V89.0671H80.5ZM96.5333 81.6671C96.5333 82.3482 95.9811 82.9005 95.3 82.9005H85.4333V74.2671C85.4333 73.586 84.8811 73.0338 84.2 73.0338H79.2667C78.5856 73.0338 78.0333 73.586 78.0333 74.2671V82.9005H68.1667C67.4856 82.9005 66.9333 82.3482 66.9333 81.6671V65.6338C66.9333 64.9527 67.4856 64.4005 68.1667 64.4005H95.3C95.9811 64.4005 96.5333 64.9527 96.5333 65.6338V81.6671Z" fill="#00AFCC"/>
<path d="M95.3 24.9336H73.1C71.0567 24.9336 69.4 26.5903 69.4 28.6336V29.8669H68.1667C66.1234 29.8669 64.4667 31.5236 64.4667 33.5669V50.8336C64.4667 52.8769 66.1234 54.5336 68.1667 54.5336H90.3667C92.41 54.5336 94.0667 52.8769 94.0667 50.8336V49.6003H95.3C97.3433 49.6003 99 47.9436 99 45.9003V28.6336C99 26.5903 97.3433 24.9336 95.3 24.9336ZM68.1667 32.3336H90.3667C91.0478 32.3336 91.6 32.8858 91.6 33.5669V34.8003H66.9333V33.5669C66.9333 32.8858 67.4856 32.3336 68.1667 32.3336ZM90.3667 52.0669H68.1667C67.4856 52.0669 66.9333 51.5147 66.9333 50.8336V37.2669H91.6V50.8336C91.6 51.5147 91.0478 52.0669 90.3667 52.0669ZM96.5333 45.9003C96.5333 46.5814 95.9811 47.1336 95.3 47.1336H94.0667V33.5669C94.0667 31.5236 92.41 29.8669 90.3667 29.8669H71.8667V28.6336C71.8667 27.9525 72.4189 27.4003 73.1 27.4003H95.3C95.9811 27.4003 96.5333 27.9525 96.5333 28.6336V45.9003Z" fill="#00AFCC"/>
<path d="M78.0333 42.2003H80.5V44.667H78.0333V42.2003Z" fill="#00AFCC"/>
<path d="M82.9667 42.2003H85.4333V44.667H82.9667V42.2003Z" fill="#00AFCC"/>
<path d="M73.1 42.2003H75.5666V44.667H73.1V42.2003Z" fill="#00AFCC"/>
<path d="M32.4 29.8669H37.3334V32.3335H32.4V29.8669Z" fill="#00AFCC"/>
<path d="M39.7999 29.8669H54.5999V32.3335H39.7999V29.8669Z" fill="#00AFCC"/>
<path d="M33.6334 39.7335H38.5668V42.2002H33.6334V39.7335Z" fill="#00AFCC"/>
<path d="M41.0333 39.7335H55.8333V42.2002H41.0333V39.7335Z" fill="#00AFCC"/>
<path d="M34.8666 34.8002H39.7999V37.2669H34.8666V34.8002Z" fill="#00AFCC"/>
<path d="M42.2667 34.8002H57.0667V37.2669H42.2667V34.8002Z" fill="#00AFCC"/>
</g>
<defs>
<clipPath id="clip0_39_5279">
<rect width="74" height="74" fill="white" transform="translate(25 24.9336)"/>
</clipPath>
</defs>
</svg>
