<svg width="124" height="124" viewBox="0 0 124 124" fill="none" xmlns="http://www.w3.org/2000/svg">
<rect x="1.675" y="1.60859" width="120.65" height="120.65" rx="60.325" stroke="#00AFCC" stroke-width="2.85"/>
<path d="M98.4327 77.3475V39.5138C99.5476 39.5138 100.617 39.0709 101.405 38.2825C102.194 37.4942 102.636 36.4249 102.636 35.31C102.636 34.1951 102.194 33.1259 101.405 32.3375C100.617 31.5492 99.5476 31.1063 98.4327 31.1063H43.3636C42.2043 29.268 40.5636 27.7824 38.6196 26.8107C36.6756 25.8391 34.5025 25.4185 32.3364 25.5947C30.1702 25.7709 28.0937 26.5371 26.3323 27.8101C24.5709 29.0831 23.1918 30.8143 22.3448 32.8158V32.8999C21.367 35.2183 21.1523 37.7878 21.7317 40.2364C22.3111 42.6849 23.6545 44.8857 25.5677 46.52V80.15C25.5677 81.2649 26.0106 82.3342 26.7989 83.1225C27.5873 83.9109 28.6565 84.3538 29.7714 84.3538H60.5989V89.9588C59.8557 89.9588 59.1428 90.254 58.6173 90.7796C58.0917 91.3052 57.7964 92.018 57.7964 92.7613V95.5638C57.7964 96.3071 58.0917 97.0199 58.6173 97.5454C59.1428 98.071 59.8557 98.3663 60.5989 98.3663H63.4014C64.1447 98.3663 64.8575 98.071 65.3831 97.5454C65.9087 97.0199 66.2039 96.3071 66.2039 95.5638V92.7613C66.2039 92.018 65.9087 91.3052 65.3831 90.7796C64.8575 90.254 64.1447 89.9588 63.4014 89.9588V84.3538H79.0114C78.8823 85.047 78.8167 85.7505 78.8152 86.4557C78.8197 88.4544 79.3272 90.4198 80.2908 92.1709C81.2544 93.922 82.6432 95.4025 84.3293 96.4759C86.0153 97.5493 87.9443 98.1812 89.9387 98.3132C91.9331 98.4453 93.9286 98.0734 95.7415 97.2317C97.5544 96.39 99.1263 95.1056 100.312 93.4969C101.499 91.8882 102.261 90.0068 102.529 88.0261C102.797 86.0454 102.562 84.0292 101.846 82.163C101.131 80.2968 99.9566 78.6408 98.4327 77.3475ZM98.4327 33.9088C98.8043 33.9088 99.1607 34.0564 99.4235 34.3192C99.6863 34.582 99.8339 34.9384 99.8339 35.31C99.8313 35.4964 99.7916 35.6804 99.717 35.8513C99.6424 36.0221 99.5345 36.1763 99.3995 36.3049C99.2753 36.4359 99.1252 36.5397 98.9588 36.6097C98.7924 36.6796 98.6132 36.7142 98.4327 36.7113H45.1852C45.137 35.7606 44.9723 34.8194 44.6947 33.9088H98.4327ZM24.1664 37.4119C24.1646 35.3889 24.8363 33.4228 26.0757 31.8238C27.3151 30.2248 29.0515 29.084 31.0111 28.5812C32.9707 28.0785 35.0419 28.2425 36.898 29.0473C38.754 29.8521 40.2893 31.2519 41.2617 33.026C41.2617 33.026 41.2617 33.026 41.2617 33.1101C41.9849 34.4294 42.3701 35.9074 42.3827 37.4119C42.3827 37.6361 42.3827 37.8463 42.3827 38.0705C42.2954 40.4861 41.252 42.7681 39.4821 44.4145C37.7123 46.0608 35.3609 46.9367 32.9453 46.8493C31.7492 46.8061 30.5733 46.5277 29.4848 46.03C28.3963 45.5323 27.4165 44.8251 26.6013 43.9488C24.9549 42.1789 24.0791 39.8275 24.1664 37.4119ZM63.4014 95.5638H60.5989V92.7613H63.4014V95.5638ZM29.7714 81.5513C29.3998 81.5513 29.0434 81.4037 28.7806 81.1409C28.5178 80.8781 28.3702 80.5217 28.3702 80.15V48.2576C30.0199 49.0077 31.8193 49.3705 33.6307 49.3184C35.4422 49.2662 37.2177 48.8004 38.8215 47.9566C40.4252 47.1128 41.8148 45.9133 42.8837 44.45C43.9527 42.9867 44.6728 41.2982 44.989 39.5138H95.6302V75.61C94.2063 74.9632 92.6688 74.6038 91.1058 74.5524C89.5427 74.5011 87.9849 74.7588 86.5217 75.3108C85.0584 75.8627 83.7186 76.6981 82.5789 77.769C81.4392 78.8399 80.522 80.1252 79.8801 81.5513H29.7714ZM90.7258 95.5638C88.3113 95.5601 85.9968 94.5993 84.2895 92.892C82.5822 91.1847 81.6214 88.8701 81.6177 86.4557C81.6211 85.4547 81.7867 84.461 82.1081 83.513C82.649 81.9287 83.616 80.5241 84.903 79.4535C86.1901 78.3829 87.7472 77.6877 89.4035 77.4443C91.0599 77.2009 92.7512 77.4187 94.2918 78.0738C95.8324 78.7289 97.1627 79.7959 98.1365 81.1576C99.1103 82.5193 99.6899 84.1231 99.8118 85.7928C99.9336 87.4624 99.5929 89.1334 98.8271 90.622C98.0614 92.1107 96.9001 93.3595 95.4709 94.2313C94.0417 95.1031 92.3999 95.5641 90.7258 95.5638Z" fill="#00AFCC"/>
<path d="M90.7257 83.6532H92.8275C93.1992 83.6532 93.5556 83.5056 93.8184 83.2428C94.0812 82.98 94.2288 82.6236 94.2288 82.252C94.2288 81.8803 94.0812 81.5239 93.8184 81.2611C93.5556 80.9983 93.1992 80.8507 92.8275 80.8507C92.8275 80.4791 92.6799 80.1227 92.4171 79.8599C92.1543 79.5971 91.7979 79.4495 91.4263 79.4495C91.0546 79.4495 90.6982 79.5971 90.4354 79.8599C90.1727 80.1227 90.025 80.4791 90.025 80.8507C89.0959 80.9436 88.2418 81.4018 87.6506 82.1245C87.0593 82.8471 86.7793 83.7751 86.8722 84.7042C86.9651 85.6332 87.4233 86.4874 88.146 87.0786C88.8686 87.6699 89.7966 87.9499 90.7257 87.857C90.9115 87.857 91.0897 87.9308 91.2211 88.0622C91.3525 88.1936 91.4263 88.3718 91.4263 88.5576C91.4263 88.7434 91.3525 88.9216 91.2211 89.053C91.0897 89.1844 90.9115 89.2582 90.7257 89.2582H88.6238C88.2521 89.2582 87.8957 89.4058 87.6329 89.6686C87.3702 89.9314 87.2225 90.2878 87.2225 90.6595C87.2225 91.0311 87.3702 91.3875 87.6329 91.6503C87.8957 91.9131 88.2521 92.0607 88.6238 92.0607H90.025C90.025 92.4323 90.1727 92.7888 90.4354 93.0515C90.6982 93.3143 91.0546 93.462 91.4263 93.462C91.7979 93.462 92.1543 93.3143 92.4171 93.0515C92.6799 92.7888 92.8275 92.4323 92.8275 92.0607V91.3601C93.4187 90.9217 93.856 90.3077 94.0771 89.6057C94.2982 88.9038 94.2917 88.1499 94.0585 87.4519C93.8253 86.7539 93.3774 86.1475 92.7788 85.7194C92.1802 85.2914 91.4616 85.0635 90.7257 85.0685C90.5398 85.0685 90.3616 84.9947 90.2302 84.8633C90.0988 84.7319 90.025 84.5537 90.025 84.3678C90.025 84.182 90.0988 84.0038 90.2302 83.8724C90.3616 83.741 90.5398 83.6672 90.7257 83.6672V83.6532Z" fill="#00AFCC"/>
<path d="M35.3764 43.0169V42.3163C35.9675 41.8779 36.4049 41.2639 36.626 40.5619C36.847 39.86 36.8405 39.1062 36.6073 38.4081C36.3742 37.7101 35.9262 37.1037 35.3276 36.6756C34.729 36.2476 34.0104 36.0197 33.2745 36.0247C33.0887 36.0247 32.9105 35.9509 32.7791 35.8195C32.6477 35.6881 32.5739 35.5099 32.5739 35.3241C32.5739 35.1382 32.6477 34.96 32.7791 34.8286C32.9105 34.6972 33.0887 34.6234 33.2745 34.6234H35.3764C35.748 34.6234 36.1044 34.4758 36.3672 34.213C36.63 33.9502 36.7776 33.5938 36.7776 33.2222C36.7776 32.8505 36.63 32.4941 36.3672 32.2313C36.1044 31.9686 35.748 31.8209 35.3764 31.8209C35.3764 31.4493 35.2287 31.0929 34.9659 30.8301C34.7031 30.5673 34.3467 30.4197 33.9751 30.4197C33.6035 30.4197 33.2471 30.5673 32.9843 30.8301C32.7215 31.0929 32.5739 31.4493 32.5739 31.8209V31.891C31.7225 32.0639 30.9657 32.5469 30.4505 33.2464C29.9352 33.9458 29.6983 34.8118 29.7856 35.6761C29.8729 36.5405 30.2782 37.3415 30.9229 37.9238C31.5677 38.5061 32.4057 38.8281 33.2745 38.8272C33.4603 38.8272 33.6385 38.901 33.7699 39.0324C33.9013 39.1638 33.9751 39.342 33.9751 39.5278C33.9751 39.7136 33.9013 39.8918 33.7699 40.0232C33.6385 40.1546 33.4603 40.2284 33.2745 40.2284H31.1726C30.801 40.2284 30.4446 40.3761 30.1818 40.6388C29.919 40.9016 29.7714 41.258 29.7714 41.6297C29.7714 42.0013 29.919 42.3577 30.1818 42.6205C30.4446 42.8833 30.801 43.0309 31.1726 43.0309H32.5739C32.5739 43.4026 32.7215 43.759 32.9843 44.0218C33.2471 44.2845 33.6035 44.4322 33.9751 44.4322C34.3467 44.4322 34.7031 44.2845 34.9659 44.0218C35.2287 43.759 35.3764 43.4026 35.3764 43.0309V43.0169Z" fill="#00AFCC"/>
<path d="M63.4012 45.8614L64.5922 46.534C63.7701 47.9446 62.9154 49.2617 62.0279 50.4855V49.3225C62.0279 48.9508 61.8803 48.5944 61.6175 48.3316C61.3547 48.0689 60.9983 47.9212 60.6267 47.9212H52.1912C51.8195 47.9212 51.4631 48.0689 51.2003 48.3316C50.9375 48.5944 50.7899 48.9508 50.7899 49.3225V54.9275H43.7837C43.412 54.9275 43.0556 55.0751 42.7928 55.3379C42.53 55.6007 42.3824 55.9571 42.3824 56.3287V59.1312H35.3762C35.0045 59.1312 34.6481 59.2789 34.3853 59.5416C34.1225 59.8044 33.9749 60.1608 33.9749 60.5325V66.1375C33.2463 66.1375 32.7698 66.1375 32.6577 66.1375C32.4736 66.1261 32.2891 66.1512 32.1147 66.2113C31.9404 66.2714 31.7796 66.3653 31.6416 66.4877C31.5036 66.61 31.3911 66.7584 31.3106 66.9244C31.2301 67.0903 31.1831 67.2705 31.1724 67.4546C31.1493 67.8242 31.2734 68.1878 31.5176 68.4661C31.7618 68.7444 32.1062 68.9148 32.4756 68.94H33.9749V70.3412H32.5737C32.202 70.3412 31.8456 70.4889 31.5828 70.7516C31.32 71.0144 31.1724 71.3708 31.1724 71.7425C31.1724 72.1141 31.32 72.4705 31.5828 72.7333C31.8456 72.9961 32.202 73.1437 32.5737 73.1437H63.4012C63.7728 73.1437 64.1292 72.9961 64.392 72.7333C64.6548 72.4705 64.8024 72.1141 64.8024 71.7425C64.8024 71.3708 64.6548 71.0144 64.392 70.7516C64.1292 70.4889 63.7728 70.3412 63.4012 70.3412H61.9999V54.9275C63.8823 52.7533 65.5571 50.4076 67.0024 47.9212L68.2355 48.6218V43.0168L63.4012 45.8614ZM42.3824 70.3412H36.7774V68.7018C38.6733 68.4617 40.5475 68.0728 42.3824 67.5387V70.3412ZM42.3824 64.7362C40.5486 65.2779 38.6742 65.6715 36.7774 65.9133V61.9337H42.3824V64.7362ZM50.7899 70.3412H45.1849V66.6699C47.1174 65.9742 48.9916 65.1261 50.7899 64.1337V70.3412ZM50.7899 61.0089C49.0053 62.1019 47.1301 63.0396 45.1849 63.8114V57.73H50.7899V61.0089ZM59.1974 70.3412H53.5924V62.4382C55.5919 61.11 57.4677 59.6046 59.1974 57.9402V70.3412ZM59.1974 53.9606C57.5048 55.8654 55.6273 57.5975 53.5924 59.1312V50.7237H59.1974V53.9606Z" fill="#00AFCC"/>
<path d="M91.4264 68.9402C91.4346 67.9117 91.0656 66.9158 90.389 66.1411C89.7124 65.3664 88.7753 64.8667 87.7551 64.7364C84.6303 60.5327 84.1399 58.4588 84.7564 56.3289H85.8214C86.193 56.3289 86.5494 56.1813 86.8122 55.9185C87.075 55.6557 87.2226 55.2993 87.2226 54.9277C87.2235 54.5724 87.0894 54.2301 86.8475 53.9699C86.6055 53.7098 86.2738 53.5513 85.9194 53.5264L86.3678 52.6436C86.3678 52.6436 86.3678 52.5175 86.4799 52.4474C86.5096 52.3796 86.533 52.3093 86.55 52.2373C86.9839 51.3264 87.2135 50.3316 87.2226 49.3227C87.2226 47.4645 86.4844 45.6824 85.1705 44.3685C83.8566 43.0546 82.0745 42.3164 80.2164 42.3164C78.3582 42.3164 76.5761 43.0546 75.2622 44.3685C73.9483 45.6824 73.2101 47.4645 73.2101 49.3227C73.2158 50.3455 73.4454 51.3547 73.8827 52.2793C73.9046 52.3516 73.9328 52.422 73.9668 52.4895C73.9668 52.4895 74.0368 52.6156 74.0649 52.6857C74.233 52.9939 74.3591 53.2602 74.5133 53.5544C74.1637 53.5789 73.8359 53.7335 73.5947 53.9877C73.3535 54.2419 73.2163 54.5773 73.2101 54.9277C73.2101 55.2993 73.3577 55.6557 73.6205 55.9185C73.8833 56.1813 74.2397 56.3289 74.6114 56.3289H75.6763C76.2929 58.5149 75.8024 60.5327 72.6776 64.7364C71.5627 64.807 70.5215 65.3176 69.7831 66.1559C69.0447 66.9942 68.6695 68.0915 68.7401 69.2064C68.8107 70.3213 69.3213 71.3625 70.1596 72.1009C70.9979 72.8393 72.0952 73.2145 73.2101 73.1439H87.2226C88.3375 73.1439 89.4067 72.701 90.1951 71.9126C90.9835 71.1243 91.4264 70.0551 91.4264 68.9402ZM80.2164 45.1189C81.0478 45.1189 81.8605 45.3655 82.5518 45.8274C83.2431 46.2893 83.7819 46.9458 84.1001 47.7139C84.4183 48.4821 84.5015 49.3273 84.3393 50.1428C84.1771 50.9582 83.7768 51.7073 83.1889 52.2952C82.6009 52.8831 81.8519 53.2834 81.0365 53.4456C80.221 53.6078 79.3758 53.5246 78.6077 53.2064C77.8395 52.8882 77.183 52.3494 76.7211 51.6581C76.2592 50.9668 76.0126 50.1541 76.0126 49.3227C76.0126 48.2078 76.4555 47.1385 77.2439 46.3502C78.0322 45.5618 79.1015 45.1189 80.2164 45.1189ZM78.5489 56.3289H81.8838C81.3794 58.9492 82.052 61.3734 84.28 64.7364H76.1527C78.3807 61.3734 79.0533 58.9492 78.5489 56.3289ZM71.8089 68.9402C71.8089 68.5685 71.9565 68.2121 72.2193 67.9493C72.4821 67.6865 72.8385 67.5389 73.2101 67.5389H87.2226C87.5942 67.5389 87.9507 67.6865 88.2134 67.9493C88.4762 68.2121 88.6239 68.5685 88.6239 68.9402C88.6239 69.3118 88.4762 69.6682 88.2134 69.931C87.9507 70.1938 87.5942 70.3414 87.2226 70.3414H73.2101C72.8385 70.3414 72.4821 70.1938 72.2193 69.931C71.9565 69.6682 71.8089 69.3118 71.8089 68.9402Z" fill="#00AFCC"/>
</svg>
