<svg width="81" height="79" viewBox="0 0 81 79" fill="none" xmlns="http://www.w3.org/2000/svg">
<path d="M23.2004 47.6703C30.1039 47.6703 35.7204 42.0572 35.7204 35.1576C35.7204 28.258 30.104 22.645 23.2004 22.645C16.2967 22.645 10.6803 28.258 10.6803 35.1576C10.6803 42.0572 16.2969 47.6703 23.2004 47.6703ZM23.2004 25.1748C28.7082 25.1748 33.1892 29.653 33.1892 35.1576C33.1892 40.6622 28.7082 45.1406 23.2004 45.1406C17.6925 45.1406 13.2116 40.6623 13.2116 35.1576C13.2117 29.6532 17.6925 25.1748 23.2004 25.1748ZM79.7343 40.4274H37.6253C36.9264 40.4274 36.3597 40.9937 36.3597 41.6922V49.7303C35.332 49.394 34.27 49.1751 33.1847 49.0766C32.6182 49.0256 32.0849 49.3589 31.8851 49.8926L29.3953 56.5363L27.4067 61.7544L26.3605 56.2152L29.2523 50.8847C29.4649 50.4927 29.4554 50.0179 29.2271 49.6347C28.999 49.2516 28.5858 49.0169 28.1396 49.0169H18.2611C17.815 49.0169 17.4017 49.2516 17.1736 49.6347C16.9455 50.0179 16.9358 50.4927 17.1485 50.8847L20.0404 56.2152L18.9942 61.7544L17.008 56.5428L14.5156 49.8924C14.3158 49.3588 13.7835 49.0253 13.216 49.0764C9.62891 49.4021 6.29874 51.0543 3.83899 53.7289C1.36327 56.4209 -0.00012207 59.9054 -0.00012207 63.5408V77.4188C-0.00012207 78.1174 0.566561 78.6837 1.2655 78.6837H45.1352C45.8342 78.6837 46.4009 78.1174 46.4009 77.4188V68.9059H50.6905V77.4188C50.6905 78.1174 51.2572 78.6837 51.9562 78.6837C52.6551 78.6837 53.2218 78.1174 53.2218 77.4188V68.9059H64.1378V77.4188C64.1378 78.1174 64.7045 78.6837 65.4034 78.6837C66.1024 78.6837 66.6691 78.1174 66.6691 77.4188V68.9059H79.7343C80.4332 68.9059 80.9999 68.3396 80.9999 67.6411V41.6922C80.9999 40.9937 80.4332 40.4274 79.7343 40.4274ZM2.53113 76.154V63.5408C2.53113 57.7191 6.83742 52.7017 12.4979 51.7208L14.6402 57.4367L21.7734 76.154H2.53113ZM20.7164 66.2739L22.6111 56.2425C22.665 55.9565 22.6188 55.6607 22.4799 55.4049L20.3867 51.5467H26.0135L23.9205 55.405C23.7818 55.6607 23.7354 55.9565 23.7894 56.2425L25.684 66.2738L23.2 72.7913L20.7164 66.2739ZM43.8696 76.154H24.6274L31.7631 57.4301L33.903 51.7201C34.7451 51.8651 35.5665 52.1012 36.3595 52.4244V67.6411C36.3595 68.3396 36.9262 68.9059 37.6252 68.9059H43.8694L43.8696 76.154ZM78.4686 66.3762H38.891V42.9571H78.4686V66.3762ZM72.3906 61.6935V46.6731C72.3906 45.9746 72.9573 45.4083 73.6562 45.4083C74.3552 45.4083 74.9219 45.9746 74.9219 46.6731V61.6935C74.9219 62.392 74.3552 62.9584 73.6562 62.9584C72.9573 62.9584 72.3906 62.392 72.3906 61.6935ZM67.3281 61.6935V48.8076C67.3281 48.1091 67.8948 47.5427 68.5937 47.5427C69.2927 47.5427 69.8594 48.1091 69.8594 48.8076V61.6935C69.8594 62.392 69.2927 62.9584 68.5937 62.9584C67.8948 62.9584 67.3281 62.392 67.3281 61.6935ZM62.2656 61.6935V52.286C62.2656 51.5875 62.8323 51.0211 63.5312 51.0211C64.2302 51.0211 64.7969 51.5875 64.7969 52.286V61.6935C64.7969 62.392 64.2302 62.9584 63.5312 62.9584C62.8323 62.9584 62.2656 62.392 62.2656 61.6935ZM58.4687 53.9462C59.1677 53.9462 59.7344 54.5125 59.7344 55.211V61.6935C59.7344 62.392 59.1677 62.9584 58.4687 62.9584C57.7698 62.9584 57.2031 62.392 57.2031 61.6935V55.211C57.2031 54.5125 57.7698 53.9462 58.4687 53.9462ZM46.9198 62.9584C50.9324 62.9584 54.1971 59.6956 54.1971 55.6853C54.1971 54.9868 53.6304 54.4205 52.9315 54.4205H48.1854V49.6772C48.1854 48.9787 47.6187 48.4123 46.9198 48.4123C42.9071 48.4123 39.6426 51.6751 39.6426 55.6853C39.6426 59.6956 42.9071 62.9584 46.9198 62.9584ZM45.6541 51.1133V55.6853C45.6541 56.3839 46.2208 56.9502 46.9198 56.9502H51.4945C50.9392 58.9536 49.0985 60.4286 46.9198 60.4286C44.3028 60.4286 42.1738 58.3008 42.1738 55.6853C42.1738 53.5079 43.6497 51.6683 45.6541 51.1133ZM50.4398 53.2547H56.4515C57.1504 53.2547 57.7171 52.6884 57.7171 51.9899C57.7171 47.9796 54.4524 44.7169 50.4398 44.7169C49.7408 44.7169 49.1742 45.2832 49.1742 45.9817V51.9899C49.1742 52.6884 49.7408 53.2547 50.4398 53.2547ZM51.7054 47.4178C53.3069 47.8612 54.5709 49.1245 55.0145 50.725H51.7054V47.4178ZM41.1708 29.7313C41.8965 30.4564 42.8492 30.8188 43.8024 30.8188C44.6948 30.8188 45.585 30.4965 46.2907 29.8606L51.3517 34.9185C51.8226 35.3889 52.4411 35.6242 53.0596 35.6242C53.6782 35.6242 54.2968 35.3889 54.7679 34.9182L56.124 33.5629C57.0658 32.6217 57.0658 31.0899 56.124 30.1487L51.1648 25.1925C54.5694 22.1422 57.9097 19.8164 62.9389 17.7266C63.8918 17.3307 64.5534 16.5235 64.7542 15.5118C64.9548 14.5002 64.6513 13.5017 63.9217 12.7725L61.0666 9.91914C61.3746 9.33998 61.5382 8.68952 61.5382 8.01297C61.5382 6.92677 61.1169 5.90775 60.3522 5.14361C59.5874 4.37916 58.5678 3.95827 57.4809 3.95827C56.804 3.95827 56.1531 4.12176 55.5736 4.42959L52.7185 1.5762C51.9889 0.84716 50.99 0.543591 49.9775 0.744232C48.9653 0.94503 48.1575 1.60608 47.7616 2.55822C44.7065 9.90143 41.1686 13.5773 35.8148 19.1369C34.3733 20.5877 34.3762 22.9405 35.824 24.3877L41.1708 29.7313ZM54.2525 31.8558L53.0598 33.0478L48.0966 28.0874C48.507 27.6855 48.9103 27.2945 49.3082 26.9146L54.2525 31.8558ZM58.5624 6.9323C58.8113 7.181 58.9627 7.50323 58.9984 7.85218L57.6418 6.49639C57.9911 6.53228 58.3135 6.68359 58.5624 6.9323ZM50.0987 3.52932C50.1708 3.35572 50.2855 3.26212 50.4697 3.22559C50.5114 3.21721 50.551 3.2131 50.5886 3.2131C50.7176 3.2131 50.8256 3.26227 50.9285 3.36505L62.1318 14.5615C62.2648 14.6943 62.3077 14.8357 62.2712 15.02C62.2348 15.2042 62.141 15.3186 61.9673 15.3908C56.6266 17.61 53.047 20.1104 49.3773 23.4058L42.1012 16.1339C45.2683 12.5637 47.8377 8.964 50.0987 3.52932ZM37.6138 20.9166C37.6195 20.9109 37.6252 20.905 37.6307 20.8993C38.5984 19.8944 39.517 18.94 40.3928 18.0045L47.5203 25.1281C46.8351 25.7813 46.1362 26.4641 45.413 27.1794C45.4105 27.1819 45.4077 27.1842 45.405 27.1867C45.4029 27.1887 45.4012 27.1911 45.3991 27.1932C45.1507 27.4389 44.9005 27.6871 44.6457 27.9407C44.6453 27.9413 44.6446 27.9418 44.6442 27.9424C44.1797 28.4063 43.4246 28.4063 42.9607 27.9424L37.6138 22.599C37.1498 22.135 37.1498 21.3801 37.6138 20.9166Z" fill="#00AFCC"/>
</svg>
