<svg width="54" height="68" viewBox="0 0 54 68" fill="none" xmlns="http://www.w3.org/2000/svg">
<path d="M10.3333 0.808777H43.6667C46.3188 0.808777 48.8624 1.86235 50.7377 3.73771C52.6131 5.61307 53.6667 8.15661 53.6667 10.8088V57.4754C53.6667 60.1276 52.6131 62.6711 50.7377 64.5465C48.8624 66.4219 46.3188 67.4754 43.6667 67.4754H10.3333C7.68116 67.4754 5.13762 66.4219 3.26226 64.5465C1.3869 62.6711 0.333328 60.1276 0.333328 57.4754L0.333328 10.8088C0.333328 8.15661 1.3869 5.61307 3.26226 3.73771C5.13762 1.86235 7.68116 0.808777 10.3333 0.808777ZM10.3333 7.47544C9.44927 7.47544 8.60143 7.82663 7.97631 8.45175C7.35118 9.07687 7 9.92472 7 10.8088V57.4754C7 58.3595 7.35118 59.2073 7.97631 59.8325C8.60143 60.4576 9.44927 60.8088 10.3333 60.8088H43.6667C44.5507 60.8088 45.3986 60.4576 46.0237 59.8325C46.6488 59.2073 47 58.3595 47 57.4754V10.8088C47 9.92472 46.6488 9.07687 46.0237 8.45175C45.3986 7.82663 44.5507 7.47544 43.6667 7.47544H10.3333ZM17 10.8088H37C37.8841 10.8088 38.7319 11.16 39.357 11.7851C39.9821 12.4102 40.3333 13.2581 40.3333 14.1421C40.3333 15.0262 39.9821 15.874 39.357 16.4991C38.7319 17.1243 37.8841 17.4754 37 17.4754H17C16.1159 17.4754 15.2681 17.1243 14.643 16.4991C14.0179 15.874 13.6667 15.0262 13.6667 14.1421C13.6667 13.2581 14.0179 12.4102 14.643 11.7851C15.2681 11.16 16.1159 10.8088 17 10.8088ZM17 50.8088H23.6667C24.5507 50.8088 25.3986 51.16 26.0237 51.7851C26.6488 52.4102 27 53.2581 27 54.1421C27 55.0262 26.6488 55.874 26.0237 56.4991C25.3986 57.1243 24.5507 57.4754 23.6667 57.4754H17C16.1159 57.4754 15.2681 57.1243 14.643 56.4991C14.0179 55.874 13.6667 55.0262 13.6667 54.1421C13.6667 53.2581 14.0179 52.4102 14.643 51.7851C15.2681 51.16 16.1159 50.8088 17 50.8088ZM17 37.4754H37C37.8841 37.4754 38.7319 37.8266 39.357 38.4518C39.9821 39.0769 40.3333 39.9247 40.3333 40.8088C40.3333 41.6928 39.9821 42.5407 39.357 43.1658C38.7319 43.7909 37.8841 44.1421 37 44.1421H17C16.1159 44.1421 15.2681 43.7909 14.643 43.1658C14.0179 42.5407 13.6667 41.6928 13.6667 40.8088C13.6667 39.9247 14.0179 39.0769 14.643 38.4518C15.2681 37.8266 16.1159 37.4754 17 37.4754ZM17 24.1421H37C37.8841 24.1421 38.7319 24.4933 39.357 25.1184C39.9821 25.7435 40.3333 26.5914 40.3333 27.4754C40.3333 28.3595 39.9821 29.2073 39.357 29.8325C38.7319 30.4576 37.8841 30.8088 37 30.8088H17C16.1159 30.8088 15.2681 30.4576 14.643 29.8325C14.0179 29.2073 13.6667 28.3595 13.6667 27.4754C13.6667 26.5914 14.0179 25.7435 14.643 25.1184C15.2681 24.4933 16.1159 24.1421 17 24.1421Z" fill="#1F2937"/>
</svg>
