<svg width="37" height="41" viewBox="0 0 37 41" fill="none" xmlns="http://www.w3.org/2000/svg">
<path d="M20.139 3.58717C19.8828 3.58717 19.6371 3.68007 19.4559 3.84543C19.2747 4.0108 19.1729 4.23507 19.1729 4.46893V21.2224H15.3086V7.99597C15.3086 7.76211 15.2068 7.53784 15.0256 7.37247C14.8445 7.20711 14.5987 7.11421 14.3425 7.11421C14.0863 7.11421 13.8406 7.20711 13.6594 7.37247C13.4782 7.53784 13.3764 7.76211 13.3764 7.99597V24.7494H9.51208C8.77785 21.8925 6.88819 20.2348 4.8652 20.0267C5.82094 22.2685 6.83302 24.4899 7.90064 26.6893C9.56231 30.1493 11.2336 32.724 13.3842 34.447C15.4593 36.11 18.1276 37.0941 22.0712 37.0941C24.8896 37.0941 27.5927 36.0722 29.5856 34.2532C31.5785 32.4342 32.6982 29.9671 32.6982 27.3947V12.4048C32.6982 12.1709 32.5964 11.9466 32.4152 11.7813C32.234 11.6159 31.9883 11.523 31.7321 11.523C31.4758 11.523 31.2301 11.6159 31.0489 11.7813C30.8678 11.9466 30.766 12.1709 30.766 12.4048V21.2224H26.9016V7.11421C26.9016 6.88035 26.7999 6.65608 26.6187 6.49071C26.4375 6.32535 26.1918 6.23245 25.9355 6.23245C25.6793 6.23245 25.4336 6.32535 25.2524 6.49071C25.0712 6.65608 24.9695 6.88035 24.9695 7.11421V21.2224H21.1051V4.46893C21.1051 4.23507 21.0033 4.0108 20.8222 3.84543C20.641 3.68007 20.3953 3.58717 20.139 3.58717ZM36.5625 27.3947C36.5625 30.9025 35.0357 34.2667 32.3181 36.7472C29.6005 39.2276 25.9145 40.6211 22.0712 40.6211C17.3219 40.6211 13.7088 39.4007 10.8337 37.0976C8.03203 34.8509 6.08247 31.6942 4.3609 28.1036C2.56398 24.3526 1.57084 22.0689 1.02984 20.7356C0.34005 19.0356 1.29261 16.6584 3.88172 16.4926C5.92461 16.3457 7.94836 16.9415 9.51208 18.1503V7.99597C9.51178 7.33597 9.67384 6.68433 9.98631 6.08912C10.2988 5.49392 10.7537 4.97034 11.3174 4.55701C11.8812 4.14368 12.5394 3.85114 13.2436 3.70099C13.9477 3.55084 14.6798 3.5469 15.3859 3.68946C15.5716 2.74364 16.0909 1.87911 16.8646 1.22744C17.6382 0.575774 18.624 0.172644 19.6718 0.0794039C20.7196 -0.0138359 21.7721 0.20792 22.6691 0.710925C23.5662 1.21393 24.2586 1.97064 24.641 2.86589C25.3586 2.68444 26.1124 2.65674 26.8437 2.78495C27.5749 2.91316 28.2638 3.19381 28.8567 3.60502C29.4495 4.01623 29.9303 4.54688 30.2615 5.15558C30.5927 5.76428 30.7653 6.43459 30.766 7.11421V8.08415C31.079 8.02536 31.401 7.99597 31.7321 7.99597C33.0132 7.99597 34.2418 8.46047 35.1477 9.28728C36.0536 10.1141 36.5625 11.2355 36.5625 12.4048V27.3947Z" fill="#1F2937"/>
</svg>
