<svg width="40" height="33" viewBox="0 0 40 33" fill="none" xmlns="http://www.w3.org/2000/svg">
<path d="M2.50012 2.01697L19.0001 13.017L24.469 9.37047L35.5001 2.01697M30.0001 29.517L36.1418 23.4963C36.5184 23.1308 36.818 22.6936 37.0229 22.2104C37.2277 21.7273 37.3337 21.208 37.3346 20.6832C37.3354 20.1583 37.2311 19.6387 37.0278 19.1549C36.8246 18.671 36.5264 18.2328 36.151 17.8661C35.3853 17.1161 34.3568 16.695 33.2849 16.693C32.2131 16.6909 31.183 17.108 30.4145 17.8551L30.0038 18.2585L29.595 17.8551C28.8294 17.1056 27.8012 16.6849 26.7299 16.6829C25.6585 16.6808 24.6287 17.0976 23.8603 17.8441C23.4835 18.2095 23.1838 18.6466 22.9788 19.1297C22.7738 19.6128 22.6676 20.1321 22.6666 20.6569C22.6656 21.1817 22.7697 21.7014 22.9728 22.1853C23.1759 22.6692 23.474 23.1075 23.8493 23.4743L30.0001 29.517Z" stroke="#1F2937" stroke-width="4" stroke-linecap="round"/>
</svg>
