<svg width="74" height="72" viewBox="0 0 74 72" fill="none" xmlns="http://www.w3.org/2000/svg">
<path d="M70.5046 0.892868H3.49544C1.75182 0.892868 0.332275 2.31241 0.332275 4.05603V55.2996C0.332275 57.0433 1.75182 58.4628 3.49544 58.4628H28.6912V63.4396L25.1401 65.2882C25.0351 65.3429 24.9301 65.3962 24.8267 65.4479C23.8377 65.9485 22.482 66.6347 22.482 68.2672C22.482 69.9667 23.8636 71.3498 25.5615 71.3498H48.4401C50.1381 71.3498 51.5196 69.9667 51.5196 68.2672C51.5196 66.6332 50.1639 65.9485 49.175 65.4479C49.0715 65.3947 48.9665 65.3429 48.8615 65.2882L45.3104 63.4396V58.4628H70.5062C72.2498 58.4628 73.6693 57.0433 73.6693 55.2996V4.05603C73.6678 2.31241 72.2483 0.892868 70.5046 0.892868ZM3.49544 2.71865H70.5062C71.2441 2.71865 71.8436 3.31811 71.8436 4.05603V46.5176H2.15806V4.05603C2.15806 3.31811 2.75752 2.71865 3.49544 2.71865ZM43.9761 64.8028L48.0186 66.907C48.1297 66.9649 48.2408 67.0211 48.3503 67.0759C49.3743 67.5947 49.6938 67.826 49.6938 68.2672C49.6938 68.961 49.1308 69.524 48.4401 69.524H25.5615C24.8708 69.524 24.3078 68.9595 24.3078 68.2672C24.3078 67.8275 24.6273 67.5947 25.6513 67.0774C25.7624 67.0211 25.8734 66.9649 25.983 66.907L30.0256 64.8028C30.3268 64.6461 30.517 64.3342 30.517 63.9934V58.4628H43.4846V63.9934C43.4846 64.3327 43.6733 64.6446 43.9761 64.8028ZM70.5046 56.637H3.49544C2.75752 56.637 2.15806 56.0375 2.15806 55.2996V48.3434H71.842V55.2996C71.842 56.0375 71.2426 56.637 70.5046 56.637ZM21.4231 40.6766V44.4028C21.4231 44.9064 21.8324 45.3156 22.336 45.3156H29.7897C30.2933 45.3156 30.7026 44.9064 30.7026 44.4028V35.4017C30.7285 34.647 30.4774 33.9623 29.9769 33.4207L25.277 28.3344C24.7354 27.7486 24.0066 27.4245 23.2276 27.4245C22.482 27.4245 21.7852 27.7182 21.2527 28.2552V19.8125C21.2527 18.145 19.9685 16.7878 18.3892 16.7878C16.8099 16.7878 15.5258 18.145 15.5258 19.8125V32.4211C15.5258 33.6626 15.9397 34.7413 16.7567 35.6253L21.4231 40.6766ZM17.3516 19.8125C17.3516 19.1629 17.8263 18.6136 18.3892 18.6136C18.9522 18.6136 19.4269 19.1629 19.4269 19.8125V28.7923C19.4269 30.0339 19.8407 31.1126 20.6578 31.9966L24.6684 36.3374C25.0107 36.7071 25.5874 36.7299 25.9586 36.3876C26.3284 36.0452 26.3512 35.4686 26.0104 35.0974L22.5262 31.3256C22.5231 31.3226 22.5216 31.321 22.5186 31.318C22.0804 30.8448 22.0804 30.0445 22.5186 29.5698C22.7103 29.3614 22.9628 29.2473 23.2276 29.2473C23.4923 29.2473 23.7449 29.3614 23.9366 29.5698L28.6364 34.6561C28.8129 34.8463 28.889 35.0654 28.8784 35.3454V35.3819V43.4868H23.2504V40.3176C23.2504 40.0878 23.1637 39.8672 23.0085 39.6983L18.0986 34.3853C17.5966 33.8421 17.3516 33.1985 17.3516 32.4211V19.8125ZM50.771 27.423C49.9905 27.423 49.2632 27.7455 48.7216 28.3328L44.0217 33.4192C43.5211 33.9608 43.2701 34.6455 43.2959 35.4001V44.4012C43.2959 44.9049 43.7052 45.3141 44.2088 45.3141H51.6626C52.1662 45.3141 52.5755 44.9049 52.5755 44.4012V40.6751L57.2419 35.6238C58.0589 34.7398 58.4728 33.6611 58.4728 32.4195V19.811C58.4728 18.1435 57.1886 16.7863 55.6093 16.7863C54.03 16.7863 52.7459 18.1435 52.7459 19.811V28.2537C52.2149 27.7182 51.5165 27.423 50.771 27.423C50.7725 27.423 50.7725 27.423 50.771 27.423ZM51.4876 31.3119L47.9882 35.0989C47.6459 35.4686 47.6687 36.0468 48.0399 36.3891C48.4097 36.7314 48.9878 36.7086 49.3302 36.3389L52.8144 32.5671C52.8159 32.5641 52.8189 32.5626 52.8204 32.5595C52.825 32.555 52.828 32.5519 52.8311 32.5473L53.3393 31.9981C54.1563 31.1141 54.5701 30.0354 54.5701 28.7938V19.814C54.5701 19.1644 55.0448 18.6151 55.6078 18.6151C56.1707 18.6151 56.6455 19.1644 56.6455 19.814V32.4226C56.6455 33.2016 56.4005 33.8437 55.8984 34.3868L50.9901 39.6998C50.8349 39.8687 50.7482 40.0894 50.7482 40.3191V43.4883H45.1202V35.3834C45.1202 35.3712 45.1202 35.3591 45.1202 35.3469C45.1096 35.0669 45.1856 34.8494 45.3621 34.6577L50.062 29.5713C50.2537 29.3629 50.5063 29.2488 50.771 29.2488C51.0357 29.2488 51.2883 29.3629 51.48 29.5713C51.9152 30.043 51.9182 30.8372 51.4876 31.3119ZM24.0796 20.8487H26.2781C26.4881 21.5394 26.765 22.2073 27.1043 22.8448L25.5494 24.4028C25.239 24.7147 25.1933 25.2047 25.4444 25.5668C26.4181 26.9772 27.6247 28.1868 29.032 29.1605C29.3957 29.4116 29.8856 29.3674 30.1975 29.0555L31.7509 27.4991C32.3869 27.8384 33.0533 28.1153 33.741 28.3252V30.5283C33.741 30.9696 34.056 31.3469 34.4896 31.426C35.3234 31.5782 36.1769 31.6558 37.0274 31.6558C37.8779 31.6558 38.7315 31.5782 39.5653 31.426C39.9989 31.3469 40.3138 30.9696 40.3138 30.5283V28.3252C41.0031 28.1153 41.668 27.8384 42.3039 27.4991L43.8574 29.0555C44.1693 29.3674 44.6607 29.4116 45.0228 29.1605C46.4302 28.1853 47.6383 26.9757 48.6105 25.5668C48.86 25.2047 48.8159 24.7147 48.5055 24.4028L46.9506 22.8448C47.2898 22.2073 47.5668 21.5394 47.7767 20.8487H49.9753C50.4165 20.8487 50.7938 20.5337 50.8729 20.0986C51.0251 19.2648 51.1012 18.4097 51.1012 17.5577C51.1012 16.7057 51.0236 15.8506 50.8729 15.0168C50.7938 14.5832 50.4165 14.2667 49.9753 14.2667H47.7767C47.5668 13.576 47.2898 12.908 46.9506 12.2705L48.5055 10.7125C48.8159 10.4006 48.8615 9.91071 48.6105 9.54859C47.6367 8.13818 46.4302 6.9286 45.0228 5.95485C44.6592 5.7038 44.1693 5.74792 43.8574 6.05983L42.3039 7.61631C41.668 7.27702 41.0015 7.00011 40.3138 6.79014V4.58855C40.3138 4.14732 39.9989 3.76999 39.5653 3.69088C37.8977 3.38658 36.1556 3.38658 34.4911 3.69088C34.0575 3.76999 33.7425 4.14732 33.7425 4.58855V6.79166C33.0533 7.00163 32.3884 7.27854 31.7524 7.61783L30.199 6.06135C29.8871 5.74792 29.3957 5.7038 29.0336 5.95637C27.6262 6.93164 26.4181 8.14122 25.4459 9.55011C25.1964 9.91223 25.2405 10.4021 25.5509 10.7141L27.1058 12.272C26.7665 12.9096 26.4896 13.5775 26.2797 14.2682H24.0811C23.6399 14.2682 23.2626 14.5832 23.1834 15.0183C23.0313 15.8536 22.9552 16.7087 22.9552 17.5592C22.9552 18.4112 23.0328 19.2663 23.1834 20.1001C23.261 20.5337 23.6384 20.8487 24.0796 20.8487ZM24.8662 16.094H26.978C27.4025 16.094 27.7692 15.8019 27.8666 15.3896C28.0978 14.4036 28.4873 13.4649 29.0214 12.6007C29.2435 12.2401 29.1903 11.7745 28.8905 11.4763L27.3964 9.97917C28.0005 9.20778 28.6927 8.5155 29.4626 7.90843L30.9552 9.40405C31.2549 9.70378 31.722 9.75856 32.0826 9.5349C32.9453 9.00086 33.881 8.61136 34.8654 8.37857C35.2777 8.2812 35.5683 7.913 35.5683 7.49002V5.37364C36.536 5.25801 37.5204 5.25801 38.4896 5.37364V7.49002C38.4896 7.913 38.7802 8.2812 39.1925 8.37857C40.1754 8.60984 41.1126 8.99934 41.9753 9.5349C42.3359 9.75856 42.803 9.70378 43.1027 9.40405L44.5953 7.90843C45.3652 8.51398 46.0559 9.20778 46.6615 9.97917L45.1674 11.4763C44.8692 11.776 44.8144 12.2416 45.0365 12.6022C45.5706 13.4649 45.9585 14.4036 46.1913 15.3911C46.2887 15.8034 46.6569 16.0955 47.0799 16.0955H49.1917C49.2495 16.5809 49.2784 17.0708 49.2784 17.5592C49.2784 18.0476 49.2495 18.539 49.1917 19.0229H47.0799C46.6554 19.0229 46.2887 19.315 46.1913 19.7273C45.9601 20.7132 45.5721 21.6505 45.0365 22.5162C44.8144 22.8768 44.8676 23.3424 45.1674 23.6406L46.6615 25.1377C46.0574 25.9091 45.3652 26.6014 44.5953 27.2085L43.1027 25.7128C42.803 25.4131 42.3359 25.3583 41.9753 25.582C41.1126 26.1176 40.1769 26.5055 39.1925 26.7383C38.7802 26.8357 38.4896 27.2039 38.4896 27.6269V29.7433C37.5219 29.8589 36.536 29.8589 35.5683 29.7433V27.6269C35.5683 27.2039 35.2762 26.8357 34.8654 26.7383C33.881 26.5071 32.9453 26.1176 32.0826 25.582C31.722 25.3583 31.2549 25.4131 30.9552 25.7128L29.4626 27.2085C28.6927 26.6029 28.002 25.9091 27.3964 25.1377L28.8905 23.6406C29.1887 23.3409 29.2435 22.8753 29.0214 22.5147C28.4873 21.6505 28.0994 20.7132 27.8666 19.7258C27.7692 19.3135 27.401 19.0214 26.978 19.0214H24.8662C24.8084 18.536 24.7795 18.0461 24.7795 17.5577C24.7795 17.0693 24.8084 16.5794 24.8662 16.094ZM37.029 25.8985C41.6208 25.8985 45.356 22.1571 45.356 17.5592C45.356 12.9613 41.6208 9.21995 37.029 9.21995C32.4371 9.21995 28.7019 12.9613 28.7019 17.5592C28.7019 22.1571 32.4371 25.8985 37.029 25.8985ZM31.5181 21.0099H32.6273C32.819 21.7144 33.0685 22.3625 33.3652 22.9377C32.6258 22.4295 31.9959 21.7722 31.5181 21.0099ZM30.5277 17.5592C30.5277 16.9978 30.5992 16.4531 30.7331 15.9343H32.2804C32.2195 16.4577 32.1876 17.0008 32.1876 17.5592C32.1876 18.1176 32.2195 18.6608 32.2804 19.1842H30.7315C30.5976 18.6638 30.5277 18.1191 30.5277 17.5592ZM43.5303 17.5592C43.5303 18.1206 43.4587 18.6653 43.3249 19.1842H41.7775C41.8384 18.6608 41.8703 18.1176 41.8703 17.5592C41.8703 17.0008 41.8384 16.4577 41.7775 15.9343H43.3249C43.4587 16.4531 43.5303 16.9978 43.5303 17.5592ZM40.0445 17.5592C40.0445 18.1298 40.0065 18.6729 39.938 19.1842H37.9403V15.9343H39.938C40.008 16.4455 40.0445 16.9887 40.0445 17.5592ZM36.1161 23.5386C35.4983 23.0883 34.9217 22.2058 34.5292 21.0099H36.1161V23.5386ZM37.9418 23.5386V21.0099H39.5288C39.1347 22.2043 38.558 23.0883 37.9418 23.5386ZM37.9418 14.107V11.5783C38.5596 12.0286 39.1362 12.9111 39.5288 14.107H37.9418ZM36.1161 11.5783V14.107H34.5292C34.9217 12.9126 35.4983 12.0286 36.1161 11.5783ZM36.1161 15.9327V19.1826H34.1184C34.0499 18.6714 34.0119 18.1267 34.0119 17.5577C34.0119 16.9887 34.0499 16.444 34.1184 15.9327H36.1161ZM40.6912 22.9361C40.9894 22.361 41.2374 21.7144 41.4291 21.0084H42.5382C42.0605 21.7722 41.4306 22.4295 40.6912 22.9361ZM42.5382 14.107H41.4291C41.2374 13.4025 40.9879 12.7544 40.6912 12.1792C41.4306 12.6874 42.0605 13.3447 42.5382 14.107ZM33.3667 12.1808C33.0701 12.7559 32.8205 13.4025 32.6288 14.1085H31.5197C31.9959 13.3447 32.6258 12.6874 33.3667 12.1808ZM41.3621 52.4894C41.3621 52.9931 40.9529 53.4023 40.4493 53.4023H33.5508C33.0472 53.4023 32.638 52.9931 32.638 52.4894C32.638 51.9858 33.0472 51.5766 33.5508 51.5766H40.4493C40.9529 51.5766 41.3621 51.9858 41.3621 52.4894Z" fill="#00AFCC"/>
<path d="M50.771 27.423C49.9905 27.423 49.2632 27.7455 48.7216 28.3328L44.0217 33.4192C43.5211 33.9608 43.2701 34.6455 43.2959 35.4001V44.4012C43.2959 44.9049 43.7052 45.3141 44.2088 45.3141H51.6626C52.1662 45.3141 52.5755 44.9049 52.5755 44.4012V40.6751L57.2419 35.6238C58.0589 34.7398 58.4728 33.6611 58.4728 32.4195V19.811C58.4728 18.1435 57.1886 16.7863 55.6093 16.7863C54.03 16.7863 52.7459 18.1435 52.7459 19.811V28.2537C52.2149 27.7182 51.5165 27.423 50.771 27.423ZM50.771 27.423C50.7725 27.423 50.7725 27.423 50.771 27.423ZM70.5046 0.892868H3.49544C1.75182 0.892868 0.332275 2.31241 0.332275 4.05603V55.2996C0.332275 57.0432 1.75182 58.4628 3.49544 58.4628H28.6912V63.4396L25.1401 65.2882C25.0351 65.343 24.9301 65.3962 24.8267 65.4479C23.8377 65.9485 22.482 66.6347 22.482 68.2672C22.482 69.9667 23.8636 71.3498 25.5615 71.3498H48.4401C50.1381 71.3498 51.5196 69.9667 51.5196 68.2672C51.5196 66.6332 50.1639 65.9485 49.175 65.4479C49.0715 65.3947 48.9665 65.343 48.8615 65.2882L45.3104 63.4396V58.4628H70.5062C72.2498 58.4628 73.6693 57.0432 73.6693 55.2996V4.05603C73.6678 2.31241 72.2483 0.892868 70.5046 0.892868ZM3.49544 2.71865H70.5062C71.2441 2.71865 71.8436 3.31811 71.8436 4.05603V46.5176H2.15806V4.05603C2.15806 3.31811 2.75752 2.71865 3.49544 2.71865ZM43.9761 64.8028L48.0186 66.907C48.1297 66.9649 48.2408 67.0211 48.3503 67.0759C49.3743 67.5947 49.6938 67.826 49.6938 68.2672C49.6938 68.961 49.1308 69.524 48.4401 69.524H25.5615C24.8708 69.524 24.3078 68.9595 24.3078 68.2672C24.3078 67.8275 24.6273 67.5947 25.6513 67.0774C25.7624 67.0211 25.8734 66.9649 25.983 66.907L30.0256 64.8028C30.3268 64.6461 30.517 64.3342 30.517 63.9934V58.4628H43.4846V63.9934C43.4846 64.3327 43.6733 64.6446 43.9761 64.8028ZM70.5046 56.637H3.49544C2.75752 56.637 2.15806 56.0375 2.15806 55.2996V48.3434H71.842V55.2996C71.842 56.0375 71.2426 56.637 70.5046 56.637ZM21.4231 40.6766V44.4028C21.4231 44.9064 21.8324 45.3156 22.336 45.3156H29.7897C30.2933 45.3156 30.7026 44.9064 30.7026 44.4028V35.4017C30.7285 34.647 30.4774 33.9623 29.9769 33.4207L25.277 28.3344C24.7354 27.7486 24.0066 27.4245 23.2276 27.4245C22.482 27.4245 21.7852 27.7182 21.2527 28.2552V19.8125C21.2527 18.145 19.9686 16.7878 18.3892 16.7878C16.8099 16.7878 15.5258 18.145 15.5258 19.8125V32.4211C15.5258 33.6626 15.9397 34.7413 16.7567 35.6253L21.4231 40.6766ZM17.3516 19.8125C17.3516 19.1629 17.8263 18.6136 18.3892 18.6136C18.9522 18.6136 19.4269 19.1629 19.4269 19.8125V28.7923C19.4269 30.0339 19.8407 31.1126 20.6578 31.9966L24.6684 36.3374C25.0107 36.7071 25.5874 36.7299 25.9586 36.3876C26.3284 36.0452 26.3512 35.4686 26.0104 35.0974L22.5262 31.3256C22.5231 31.3226 22.5216 31.321 22.5186 31.318C22.0804 30.8448 22.0804 30.0445 22.5186 29.5698C22.7103 29.3614 22.9628 29.2473 23.2276 29.2473C23.4923 29.2473 23.7449 29.3614 23.9366 29.5698L28.6364 34.6561C28.8129 34.8463 28.889 35.0654 28.8784 35.3454V35.3819V43.4868H23.2504V40.3176C23.2504 40.0878 23.1637 39.8672 23.0085 39.6983L18.0986 34.3853C17.5966 33.8421 17.3516 33.1985 17.3516 32.4211V19.8125ZM51.4876 31.3119L47.9882 35.0989C47.6459 35.4686 47.6687 36.0468 48.0399 36.3891C48.4097 36.7314 48.9878 36.7086 49.3302 36.3389L52.8144 32.5671C52.8159 32.5641 52.8189 32.5626 52.8204 32.5595C52.825 32.555 52.828 32.5519 52.8311 32.5473L53.3393 31.9981C54.1563 31.1141 54.5701 30.0354 54.5701 28.7938V19.814C54.5701 19.1644 55.0448 18.6151 55.6078 18.6151C56.1707 18.6151 56.6454 19.1644 56.6454 19.814V32.4226C56.6454 33.2016 56.4005 33.8437 55.8984 34.3868L50.9901 39.6998C50.8349 39.8687 50.7482 40.0894 50.7482 40.3191V43.4883H45.1202V35.3834C45.1202 35.3712 45.1202 35.3591 45.1202 35.3469C45.1096 35.0669 45.1856 34.8494 45.3621 34.6577L50.062 29.5713C50.2537 29.3629 50.5063 29.2488 50.771 29.2488C51.0357 29.2488 51.2883 29.3629 51.48 29.5713C51.9152 30.043 51.9182 30.8372 51.4876 31.3119ZM24.0796 20.8487H26.2781C26.4881 21.5394 26.765 22.2073 27.1043 22.8448L25.5494 24.4028C25.239 24.7147 25.1933 25.2047 25.4444 25.5668C26.4181 26.9772 27.6247 28.1868 29.032 29.1605C29.3957 29.4116 29.8856 29.3674 30.1975 29.0555L31.7509 27.4991C32.3869 27.8384 33.0533 28.1153 33.741 28.3252V30.5283C33.741 30.9696 34.056 31.3469 34.4896 31.426C35.3234 31.5782 36.1769 31.6558 37.0274 31.6558C37.8779 31.6558 38.7315 31.5782 39.5653 31.426C39.9989 31.3469 40.3138 30.9696 40.3138 30.5283V28.3252C41.0031 28.1153 41.668 27.8384 42.3039 27.4991L43.8574 29.0555C44.1693 29.3674 44.6607 29.4116 45.0228 29.1605C46.4302 28.1853 47.6383 26.9757 48.6105 25.5668C48.86 25.2047 48.8159 24.7147 48.5055 24.4028L46.9506 22.8448C47.2898 22.2073 47.5668 21.5394 47.7767 20.8487H49.9753C50.4165 20.8487 50.7938 20.5337 50.8729 20.0986C51.0251 19.2648 51.1012 18.4097 51.1012 17.5577C51.1012 16.7057 51.0236 15.8506 50.8729 15.0168C50.7938 14.5832 50.4165 14.2667 49.9753 14.2667H47.7767C47.5668 13.576 47.2898 12.908 46.9506 12.2705L48.5055 10.7125C48.8159 10.4006 48.8615 9.91071 48.6105 9.54859C47.6367 8.13818 46.4302 6.9286 45.0228 5.95485C44.6592 5.7038 44.1693 5.74792 43.8574 6.05983L42.3039 7.61631C41.668 7.27702 41.0015 7.00011 40.3138 6.79014V4.58855C40.3138 4.14732 39.9989 3.76999 39.5653 3.69088C37.8977 3.38658 36.1556 3.38658 34.4911 3.69088C34.0575 3.76999 33.7425 4.14732 33.7425 4.58855V6.79166C33.0533 7.00163 32.3884 7.27854 31.7524 7.61783L30.199 6.06135C29.8871 5.74792 29.3957 5.7038 29.0336 5.95637C27.6262 6.93164 26.4181 8.14122 25.4459 9.55011C25.1964 9.91223 25.2405 10.4021 25.5509 10.7141L27.1058 12.2721C26.7665 12.9096 26.4896 13.5775 26.2797 14.2682H24.0811C23.6399 14.2682 23.2626 14.5832 23.1834 15.0183C23.0313 15.8536 22.9552 16.7087 22.9552 17.5592C22.9552 18.4112 23.0328 19.2663 23.1834 20.1001C23.261 20.5337 23.6384 20.8487 24.0796 20.8487ZM24.8662 16.094H26.978C27.4025 16.094 27.7692 15.8019 27.8666 15.3896C28.0978 14.4036 28.4873 13.4649 29.0214 12.6007C29.2435 12.2401 29.1903 11.7745 28.8905 11.4763L27.3964 9.97917C28.0005 9.20778 28.6927 8.51551 29.4626 7.90843L30.9552 9.40405C31.2549 9.70378 31.722 9.75856 32.0826 9.5349C32.9453 9.00086 33.881 8.61136 34.8654 8.37857C35.2777 8.2812 35.5683 7.913 35.5683 7.49002V5.37364C36.536 5.25801 37.5204 5.25801 38.4896 5.37364V7.49002C38.4896 7.913 38.7802 8.2812 39.1925 8.37857C40.1754 8.60984 41.1126 8.99934 41.9753 9.5349C42.3359 9.75856 42.803 9.70378 43.1027 9.40405L44.5953 7.90843C45.3652 8.51398 46.0559 9.20778 46.6615 9.97917L45.1674 11.4763C44.8692 11.776 44.8144 12.2416 45.0365 12.6022C45.5706 13.4649 45.9585 14.4036 46.1913 15.3911C46.2887 15.8034 46.6569 16.0955 47.0799 16.0955H49.1917C49.2495 16.5809 49.2784 17.0708 49.2784 17.5592C49.2784 18.0476 49.2495 18.539 49.1917 19.0229H47.0799C46.6554 19.0229 46.2887 19.315 46.1913 19.7273C45.9601 20.7132 45.5721 21.6505 45.0365 22.5162C44.8144 22.8768 44.8676 23.3424 45.1674 23.6406L46.6615 25.1377C46.0574 25.9091 45.3652 26.6014 44.5953 27.2085L43.1027 25.7128C42.803 25.4131 42.3359 25.3583 41.9753 25.582C41.1126 26.1176 40.1769 26.5055 39.1925 26.7383C38.7802 26.8357 38.4896 27.2039 38.4896 27.6269V29.7433C37.5219 29.8589 36.536 29.8589 35.5683 29.7433V27.6269C35.5683 27.2039 35.2762 26.8357 34.8654 26.7383C33.881 26.5071 32.9453 26.1176 32.0826 25.582C31.722 25.3583 31.2549 25.4131 30.9552 25.7128L29.4626 27.2085C28.6927 26.6029 28.002 25.9091 27.3964 25.1377L28.8905 23.6406C29.1887 23.3409 29.2435 22.8753 29.0214 22.5147C28.4873 21.6505 28.0994 20.7132 27.8666 19.7258C27.7692 19.3135 27.401 19.0214 26.978 19.0214H24.8662C24.8084 18.536 24.7795 18.0461 24.7795 17.5577C24.7795 17.0693 24.8084 16.5794 24.8662 16.094ZM37.029 25.8985C41.6208 25.8985 45.356 22.1571 45.356 17.5592C45.356 12.9613 41.6208 9.21995 37.029 9.21995C32.4371 9.21995 28.7019 12.9613 28.7019 17.5592C28.7019 22.1571 32.4371 25.8985 37.029 25.8985ZM31.5181 21.0099H32.6273C32.819 21.7144 33.0685 22.3625 33.3652 22.9377C32.6258 22.4295 31.9959 21.7722 31.5181 21.0099ZM30.5277 17.5592C30.5277 16.9978 30.5992 16.4531 30.7331 15.9343H32.2804C32.2195 16.4577 32.1876 17.0008 32.1876 17.5592C32.1876 18.1176 32.2195 18.6608 32.2804 19.1842H30.7315C30.5976 18.6638 30.5277 18.1191 30.5277 17.5592ZM43.5303 17.5592C43.5303 18.1206 43.4587 18.6653 43.3249 19.1842H41.7775C41.8384 18.6608 41.8703 18.1176 41.8703 17.5592C41.8703 17.0008 41.8384 16.4577 41.7775 15.9343H43.3249C43.4587 16.4531 43.5303 16.9978 43.5303 17.5592ZM40.0445 17.5592C40.0445 18.1298 40.0065 18.6729 39.938 19.1842H37.9403V15.9343H39.938C40.008 16.4455 40.0445 16.9887 40.0445 17.5592ZM36.1161 23.5386C35.4983 23.0883 34.9217 22.2058 34.5292 21.0099H36.1161V23.5386ZM37.9418 23.5386V21.0099H39.5288C39.1347 22.2043 38.558 23.0883 37.9418 23.5386ZM37.9418 14.107V11.5783C38.5596 12.0286 39.1362 12.9111 39.5288 14.107H37.9418ZM36.1161 11.5783V14.107H34.5292C34.9217 12.9126 35.4983 12.0286 36.1161 11.5783ZM36.1161 15.9327V19.1826H34.1184C34.0499 18.6714 34.0119 18.1267 34.0119 17.5577C34.0119 16.9887 34.0499 16.444 34.1184 15.9327H36.1161ZM40.6912 22.9361C40.9894 22.361 41.2374 21.7144 41.4291 21.0084H42.5382C42.0605 21.7722 41.4306 22.4295 40.6912 22.9361ZM42.5382 14.107H41.4291C41.2374 13.4025 40.9879 12.7544 40.6912 12.1792C41.4306 12.6874 42.0605 13.3447 42.5382 14.107ZM33.3667 12.1808C33.0701 12.7559 32.8205 13.4025 32.6288 14.1085H31.5197C31.9959 13.3447 32.6258 12.6874 33.3667 12.1808ZM41.3621 52.4894C41.3621 52.9931 40.9529 53.4023 40.4493 53.4023H33.5508C33.0472 53.4023 32.638 52.9931 32.638 52.4894C32.638 51.9858 33.0472 51.5766 33.5508 51.5766H40.4493C40.9529 51.5766 41.3621 51.9858 41.3621 52.4894Z" stroke="#00AFCC" stroke-width="0.475"/>
</svg>
