<svg width="40" height="33" viewBox="0 0 40 33" fill="none" xmlns="http://www.w3.org/2000/svg">
<path d="M2.5 2.09741L19 13.0974L24.4688 9.45091L35.5 2.09741M30 29.5974L36.1417 23.5767C36.5183 23.2113 36.8179 22.774 37.0227 22.2909C37.2276 21.8077 37.3336 21.2884 37.3345 20.7636C37.3353 20.2388 37.231 19.7191 37.0277 19.2353C36.8244 18.7515 36.5263 18.3133 36.1508 17.9466C35.3852 17.1965 34.3566 16.7755 33.2848 16.7734C32.213 16.7714 31.1828 17.1884 30.4143 17.9356L30.0037 18.3389L29.5948 17.9356C28.8293 17.1861 27.8011 16.7654 26.7297 16.7633C25.6584 16.7613 24.6286 17.178 23.8602 17.9246C23.4834 18.2899 23.1837 18.7271 22.9787 19.2102C22.7736 19.6933 22.6675 20.2125 22.6665 20.7373C22.6654 21.2621 22.7696 21.7818 22.9727 22.2657C23.1758 22.7496 23.4738 23.1879 23.8492 23.5547L30 29.5974Z" stroke="#1F2937" stroke-width="4" stroke-linecap="round"/>
</svg>
