<svg width="37" height="42" viewBox="0 0 37 42" fill="none" xmlns="http://www.w3.org/2000/svg">
<path d="M20.139 4.16774C19.8828 4.16774 19.6371 4.26064 19.4559 4.426C19.2747 4.59136 19.1729 4.81564 19.1729 5.0495V21.8029H15.3086V8.57654C15.3086 8.34268 15.2068 8.1184 15.0256 7.95304C14.8445 7.78768 14.5987 7.69478 14.3425 7.69478C14.0863 7.69478 13.8406 7.78768 13.6594 7.95304C13.4782 8.1184 13.3764 8.34268 13.3764 8.57654V25.33H9.51208C8.77785 22.4731 6.88819 20.8154 4.8652 20.6073C5.82094 22.8491 6.83302 25.0705 7.90064 27.2698C9.56231 30.7299 11.2336 33.3046 13.3842 35.0276C15.4593 36.6906 18.1276 37.6746 22.0712 37.6746C24.8896 37.6746 27.5927 36.6527 29.5856 34.8337C31.5785 33.0148 32.6982 30.5477 32.6982 27.9753V12.9853C32.6982 12.7515 32.5964 12.5272 32.4152 12.3618C32.234 12.1965 31.9883 12.1036 31.7321 12.1036C31.4758 12.1036 31.2301 12.1965 31.0489 12.3618C30.8678 12.5272 30.766 12.7515 30.766 12.9853V21.8029H26.9016V7.69478C26.9016 7.46092 26.7999 7.23664 26.6187 7.07128C26.4375 6.90592 26.1918 6.81302 25.9355 6.81302C25.6793 6.81302 25.4336 6.90592 25.2524 7.07128C25.0712 7.23664 24.9695 7.46092 24.9695 7.69478V21.8029H21.1051V5.0495C21.1051 4.81564 21.0033 4.59136 20.8222 4.426C20.641 4.26064 20.3953 4.16774 20.139 4.16774ZM36.5625 27.9753C36.5625 31.4831 35.0357 34.8473 32.3181 37.3277C29.6005 39.8082 25.9145 41.2017 22.0712 41.2017C17.3219 41.2017 13.7088 39.9813 10.8337 37.6781C8.03203 35.4314 6.08247 32.2747 4.3609 28.6842C2.56398 24.9332 1.57084 22.6494 1.02984 21.3162C0.34005 19.6162 1.29261 17.2389 3.88172 17.0732C5.92461 16.9262 7.94836 17.5221 9.51208 18.7309V8.57654C9.51178 7.91654 9.67384 7.2649 9.98631 6.66969C10.2988 6.07449 10.7537 5.5509 11.3174 5.13757C11.8812 4.72424 12.5394 4.43171 13.2436 4.28156C13.9477 4.1314 14.6798 4.12746 15.3859 4.27002C15.5716 3.32421 16.0909 2.45968 16.8646 1.80801C17.6382 1.15634 18.624 0.75321 19.6718 0.65997C20.7196 0.566731 21.7721 0.788487 22.6691 1.29149C23.5662 1.7945 24.2586 2.5512 24.641 3.44646C25.3586 3.26501 26.1124 3.23731 26.8437 3.36551C27.5749 3.49372 28.2638 3.77437 28.8567 4.18558C29.4495 4.59679 29.9303 5.12744 30.2615 5.73615C30.5927 6.34485 30.7653 7.01515 30.766 7.69478V8.66471C31.079 8.60593 31.401 8.57654 31.7321 8.57654C33.0132 8.57654 34.2418 9.04104 35.1477 9.86785C36.0536 10.6947 36.5625 11.8161 36.5625 12.9853V27.9753Z" fill="#1F2937"/>
</svg>
