<svg width="79" height="78" viewBox="0 0 79 78" fill="none" xmlns="http://www.w3.org/2000/svg">
<path d="M68.3123 53.0793L54.9492 59.1859C54.108 58.5076 53.0413 58.0994 51.8813 58.0994H45.9496C43.9223 58.0994 42.2262 57.2351 41.0452 55.6008C39.484 53.4314 37.2014 51.8428 34.6212 51.1285C30.9485 50.0946 27.0253 50.8983 24.053 53.2803H20.5546L21.1821 51.2197C21.2558 50.9794 21.2301 50.7202 21.1115 50.4994C20.9935 50.2777 20.7928 50.1123 20.5526 50.0398L9.00476 46.5358C8.50608 46.3876 7.97851 46.6659 7.82593 47.1655L0.911707 69.8346C0.838657 70.0749 0.863985 70.3342 0.981976 70.5554C1.10059 70.7766 1.30136 70.9418 1.54182 71.0144L10.14 73.6279C10.523 73.7459 10.9198 73.8059 11.3179 73.8059C13.1012 73.8059 14.6513 72.6551 15.1767 70.9418L15.3673 70.3139H23.2468L46.1411 76.5821C46.8762 76.7861 47.6061 76.8882 48.3244 76.8882C49.9502 76.8875 51.5169 76.368 52.9389 75.3414L74.2916 59.7717C74.376 59.7095 74.4496 59.6338 74.5099 59.5485C75.9876 57.4284 75.3322 55.1212 74.0264 53.7761C72.7277 52.4386 70.4661 51.7129 68.3123 53.0793ZM10.6917 71.8201L7.28802 70.7857L10.079 61.5993C10.231 61.0997 9.94992 60.5717 9.44954 60.4197C8.95333 60.2684 8.42283 60.5498 8.27102 61.0495L5.4797 70.2354L2.99663 69.4808L9.35904 48.6205L19.0978 51.5741L13.3687 70.3894C13.0311 71.4896 11.8123 72.1643 10.6917 71.8201ZM73.0409 58.3435L51.8291 73.8105C50.2413 74.9555 48.4989 75.2757 46.6446 74.7591L23.6233 68.4569C23.5422 68.4345 23.4581 68.424 23.3739 68.424H15.9437L19.9796 55.1704H24.3932C24.6182 55.1704 24.835 55.0905 25.0058 54.9452C27.5269 52.7999 30.9297 52.0513 34.1123 52.9492C36.2833 53.5504 38.2002 54.8845 39.5117 56.707C41.0418 58.8245 43.3283 59.9895 45.9499 59.9895H51.8816C53.5475 59.9895 54.9036 61.3536 54.9036 63.0301C54.9036 64.7065 53.5475 66.0703 51.8816 66.0703H35.4215C34.8993 66.0703 34.4768 66.4929 34.4768 67.0155C34.4768 67.538 34.8993 67.9602 35.4215 67.9602H51.8813C54.5903 67.9602 56.7932 65.7489 56.7932 63.0301C56.7932 62.1842 56.5793 61.387 56.2039 60.6903L69.1596 54.7699C69.2033 54.7512 69.2447 54.7281 69.2842 54.7016C70.6406 53.815 71.9561 54.3571 72.6692 55.0927C73.3567 55.8006 73.8486 57.0641 73.0409 58.3435ZM77.1447 43.1787H73.4568V14.2073C73.4568 12.3264 71.9348 10.7969 70.0646 10.7969H59.7766C58.1825 6.65189 54.1704 3.69748 49.4711 3.69748C44.7803 3.69748 40.7748 6.65189 39.1838 10.7969H28.8971C27.0163 10.7969 25.4871 12.3264 25.4871 14.2073V43.1787H21.7977C21.2752 43.1787 20.8527 43.6012 20.8527 44.1241V46.3664C20.8527 48.1247 22.2831 49.5547 24.0408 49.5547H74.9027C76.6607 49.5547 78.0901 48.1247 78.0901 46.3664V44.1241C78.09 43.6012 77.6671 43.1787 77.1447 43.1787ZM66.1903 14.7263C66.1903 14.6421 66.2821 14.5593 66.3764 14.5593C66.4663 14.5593 66.5426 14.6361 66.5426 14.7263C66.5426 14.9276 66.1897 14.9517 66.1903 14.7263ZM49.4706 5.77669C50.6181 6.28016 51.4141 7.78099 51.8461 10.2537C50.2573 10.1138 48.6532 10.1147 47.0901 10.2534C47.5108 7.78717 48.3089 6.28386 49.4706 5.77669ZM49.472 23.827C48.1035 23.2405 47.4279 21.276 47.0927 19.3472C47.8807 19.4179 48.6725 19.4666 49.4645 19.4666C50.2604 19.4666 51.0576 19.4175 51.8478 19.3469C51.4158 21.8331 50.6192 23.3371 49.472 23.827ZM46.8487 12.1769C48.5763 11.9936 50.3353 11.9927 52.0942 12.1786C52.2797 13.9235 52.2797 15.6776 52.0949 17.4229C50.359 17.6078 48.601 17.6089 46.8481 17.4229C46.6639 15.6892 46.6639 13.9355 46.8487 12.1769ZM54.0187 12.4245C56.493 12.856 57.9913 13.6524 58.4806 14.8009C57.9898 15.9598 56.495 16.7565 54.019 17.1803C54.1608 15.5978 54.1608 14.0063 54.0187 12.4245ZM44.9237 17.1797C42.4495 16.756 40.9433 15.961 40.4401 14.8084C40.9405 13.6489 42.4431 12.8501 44.924 12.4217C44.7822 14.0138 44.7822 15.6062 44.9237 17.1797ZM45.1423 19.1285C45.3948 20.8661 45.8212 22.2729 46.4174 23.3469C43.8526 22.4331 41.8168 20.4082 40.8883 17.8495C41.9604 18.4492 43.3757 18.8739 45.1423 19.1285ZM53.7975 19.1295C55.5748 18.8712 57.0063 18.4299 58.0874 17.8082C57.164 20.3855 55.1169 22.427 52.5324 23.3461C53.12 22.2795 53.5402 20.8786 53.7975 19.1295ZM58.1387 11.8143C57.0598 11.1867 55.6161 10.7419 53.7975 10.4732C53.5248 8.62948 53.07 7.17436 52.4294 6.08773C55.109 7.00602 57.2287 9.13079 58.1387 11.8143ZM46.5212 6.08726C45.8684 7.1827 45.4069 8.64508 45.1423 10.4716C43.34 10.7337 41.9087 11.1722 40.8304 11.7916C41.7431 9.11812 43.8537 7.00262 46.5212 6.08726ZM38.4432 14.7446C38.4432 20.8258 43.3904 25.7733 49.4711 25.7733C55.5623 25.7733 60.5186 20.8258 60.5186 14.7446C60.5186 14.0412 60.4458 13.3547 60.3195 12.6877H66.1875C65.47 12.7528 64.8618 13.1766 64.5434 13.7808H62.3538C61.8316 13.7808 61.4084 14.2039 61.4084 14.7263C61.4084 15.2483 61.8316 15.6717 62.3538 15.6717H64.5383C64.8836 16.3403 65.5732 16.8028 66.3764 16.8028C67.1341 16.8028 67.7898 16.382 68.1468 15.7642H68.4892V40.3242H30.4728V15.7641H30.7985C31.1584 16.3818 31.8208 16.8027 32.5854 16.8027C33.3811 16.8027 34.0646 16.3401 34.4067 15.6716H36.5891C37.1118 15.6716 37.5347 15.2481 37.5347 14.7261C37.5347 14.2038 37.1118 13.7806 36.5891 13.7806H34.4025C34.0864 13.1765 33.4834 12.7527 32.7721 12.6875H38.6426C38.5163 13.3548 38.4432 14.0412 38.4432 14.7446ZM32.5854 14.5593C32.6743 14.5593 32.7528 14.6371 32.7528 14.7263C32.7537 14.917 32.4458 14.9425 32.412 14.7528C32.4104 14.7388 32.4089 14.7252 32.4075 14.7108C32.4183 14.6331 32.4983 14.5593 32.5854 14.5593ZM27.3768 14.2073C27.3768 13.3836 28.0733 12.6877 28.8971 12.6877H32.3976C31.6422 12.7561 31.0044 13.2191 30.702 13.8733H29.5277C29.0049 13.8733 28.582 14.2966 28.582 14.8188V41.2689C28.582 41.7913 29.0049 42.2139 29.5277 42.2139H69.434C69.9565 42.2139 70.379 41.7913 70.379 41.2689V14.8188C70.379 14.2966 69.9565 13.8733 69.434 13.8733H68.2425C67.9424 13.2191 67.3099 12.7562 66.5624 12.6877H70.0644C70.8927 12.6877 71.5663 13.369 71.5663 14.2073V43.1787H58.0349H40.9269H27.3768V14.2073ZM41.8713 45.069H57.0899V45.2727C57.0899 45.381 56.9946 45.4767 56.8857 45.4767H42.0761C41.9672 45.4767 41.8713 45.381 41.8713 45.2727V45.069ZM76.2 46.3664C76.2 47.0818 75.6176 47.664 74.9027 47.664H24.0406C23.3251 47.664 22.7427 47.0816 22.7427 46.3664V45.0691H39.9816V45.2728C39.9816 46.428 40.9209 47.3675 42.0763 47.3675H56.8859C58.0411 47.3675 58.9802 46.4282 58.9802 45.2728V45.0691H76.2001V46.3664H76.2ZM34.3275 19.9948L33.4036 21.5755C33.3713 21.5738 33.3412 21.5662 33.3086 21.5662C32.1636 21.5662 31.2325 22.4971 31.2325 23.6415C31.2325 24.7762 32.1636 25.6991 33.3086 25.6991C34.4533 25.6991 35.3847 24.776 35.3847 23.6415C35.3847 23.2252 35.259 22.8377 35.0464 22.512L35.6859 21.4179H37.3702C39.7691 25.783 44.4548 28.5729 49.4713 28.5729C54.5605 28.5729 59.1518 25.846 61.5908 21.4179H63.2761L63.9159 22.512C63.7032 22.8377 63.5775 23.2252 63.5775 23.6415C63.5775 24.7762 64.5083 25.6991 65.6536 25.6991C66.7875 25.6991 67.7105 24.776 67.7105 23.6415C67.7105 22.4971 66.7874 21.5662 65.6536 21.5662C65.6208 21.5662 65.591 21.5738 65.5584 21.5755L64.6342 19.9948C64.4643 19.7052 64.1544 19.5271 63.8186 19.5271H61.0194C60.6605 19.5271 60.3329 19.7301 60.1732 20.051C58.1368 24.141 54.0365 26.682 49.4714 26.682C44.9698 26.682 40.7773 24.0801 38.7907 20.0539C38.6312 19.7316 38.303 19.5273 37.9432 19.5273H35.1437C34.8079 19.5271 34.4972 19.7051 34.3275 19.9948ZM33.3085 23.809C33.2147 23.809 33.1224 23.7263 33.1224 23.6415C33.1224 23.5327 33.2207 23.4568 33.3085 23.4568C33.3959 23.4568 33.4946 23.5327 33.4946 23.6415C33.4946 23.7263 33.4025 23.809 33.3085 23.809ZM65.6535 23.809C65.5594 23.809 65.4674 23.7263 65.4674 23.6415C65.4674 23.5327 65.5661 23.4568 65.6535 23.4568C65.7465 23.4568 65.82 23.5378 65.82 23.6415C65.82 23.7319 65.7434 23.809 65.6535 23.809ZM33.3085 7.90563C33.3411 7.90563 33.3718 7.89713 33.4035 7.89559L34.3273 9.47596C34.4972 9.76615 34.8078 9.94422 35.1435 9.94422H37.9427C38.3022 9.94422 38.6301 9.74036 38.789 9.41882C40.8157 5.32974 44.909 2.78923 49.4709 2.78923C53.9756 2.78923 58.1759 5.39167 60.1722 9.41882C60.3314 9.74036 60.6593 9.94422 61.0188 9.94422H63.818C64.1537 9.94422 64.4639 9.76615 64.6336 9.47596L65.5577 7.89559C65.5897 7.89729 65.6201 7.90563 65.653 7.90563C66.7869 7.90563 67.7098 6.98254 67.7098 5.84773C67.7098 4.70288 66.7868 3.77161 65.653 3.77161C64.5077 3.77161 63.5769 4.70288 63.5769 5.84773C63.5769 6.25885 63.7022 6.64077 63.913 6.96293L63.2756 8.05373H61.5913C59.1833 3.68883 54.4899 0.898895 49.4711 0.898895C44.3837 0.898895 39.8 3.62551 37.3701 8.05373H35.6857L35.049 6.96293C35.2595 6.64093 35.3847 6.25885 35.3847 5.84773C35.3847 4.70288 34.4533 3.77161 33.3086 3.77161C32.1636 3.77161 31.2325 4.70288 31.2325 5.84773C31.2324 6.98254 32.1635 7.90563 33.3085 7.90563ZM65.6535 5.66225C65.7465 5.66225 65.82 5.74364 65.82 5.84773C65.82 5.93823 65.7434 6.01468 65.6535 6.01468C65.5594 6.01468 65.4674 5.93205 65.4674 5.84773C65.4674 5.73839 65.5659 5.66225 65.6535 5.66225ZM33.3085 5.66225C33.3959 5.66225 33.4946 5.73839 33.4946 5.84773C33.4946 5.93205 33.4025 6.01468 33.3085 6.01468C33.2147 6.01468 33.1224 5.93205 33.1224 5.84773C33.1224 5.73839 33.2207 5.66225 33.3085 5.66225Z" fill="#00AFCC" stroke="#00AFCC" stroke-width="0.306"/>
</svg>
