<svg width="75" height="72" viewBox="0 0 75 72" fill="none" xmlns="http://www.w3.org/2000/svg">
<path d="M71.0046 0.39286H3.99544C2.25182 0.39286 0.832275 1.81241 0.832275 3.55603V54.7996C0.832275 56.5432 2.25182 57.9628 3.99544 57.9628H29.1912V62.9396L25.6401 64.7882C25.5351 64.8429 25.4301 64.8962 25.3267 64.9479C24.3377 65.4485 22.982 66.1347 22.982 67.7672C22.982 69.4667 24.3636 70.8498 26.0615 70.8498H48.9401C50.6381 70.8498 52.0196 69.4667 52.0196 67.7672C52.0196 66.1332 50.6639 65.4485 49.675 64.9479C49.5715 64.8947 49.4665 64.8429 49.3615 64.7882L45.8104 62.9396V57.9628H71.0062C72.7498 57.9628 74.1693 56.5432 74.1693 54.7996V3.55603C74.1678 1.81241 72.7483 0.39286 71.0046 0.39286ZM3.99544 2.21864H71.0062C71.7441 2.21864 72.3436 2.81811 72.3436 3.55603V46.0176H2.65806V3.55603C2.65806 2.81811 3.25752 2.21864 3.99544 2.21864ZM44.4761 64.3028L48.5186 66.407C48.6297 66.4648 48.7408 66.5211 48.8503 66.5759C49.8743 67.0947 50.1938 67.326 50.1938 67.7672C50.1938 68.461 49.6308 69.024 48.9401 69.024H26.0615C25.3708 69.024 24.8078 68.4595 24.8078 67.7672C24.8078 67.3275 25.1273 67.0947 26.1513 66.5774C26.2624 66.5211 26.3734 66.4648 26.483 66.407L30.5256 64.3028C30.8268 64.1461 31.017 63.8342 31.017 63.4934V57.9628H43.9846V63.4934C43.9846 63.8327 44.1733 64.1446 44.4761 64.3028ZM71.0046 56.137H3.99544C3.25752 56.137 2.65806 55.5375 2.65806 54.7996V47.8434H72.342V54.7996C72.342 55.5375 71.7426 56.137 71.0046 56.137ZM21.9231 40.1766V43.9028C21.9231 44.4064 22.3324 44.8156 22.836 44.8156H30.2897C30.7933 44.8156 31.2026 44.4064 31.2026 43.9028V34.9016C31.2285 34.147 30.9774 33.4623 30.4769 32.9207L25.777 27.8344C25.2354 27.2486 24.5066 26.9245 23.7276 26.9245C22.982 26.9245 22.2852 27.2182 21.7527 27.7552V19.3125C21.7527 17.645 20.4685 16.2878 18.8892 16.2878C17.3099 16.2878 16.0258 17.645 16.0258 19.3125V31.9211C16.0258 33.1626 16.4397 34.2413 17.2567 35.1253L21.9231 40.1766ZM17.8516 19.3125C17.8516 18.6628 18.3263 18.1136 18.8892 18.1136C19.4522 18.1136 19.9269 18.6628 19.9269 19.3125V28.2923C19.9269 29.5338 20.3407 30.6126 21.1578 31.4966L25.1684 35.8374C25.5107 36.2071 26.0874 36.2299 26.4586 35.8876C26.8284 35.5452 26.8512 34.9686 26.5104 34.5974L23.0262 30.8256C23.0231 30.8225 23.0216 30.821 23.0186 30.818C22.5804 30.3448 22.5804 29.5445 23.0186 29.0698C23.2103 28.8614 23.4628 28.7472 23.7276 28.7472C23.9923 28.7472 24.2449 28.8614 24.4366 29.0698L29.1364 34.1561C29.3129 34.3463 29.389 34.5654 29.3784 34.8454V34.8819V42.9868H23.7504V39.8176C23.7504 39.5878 23.6637 39.3672 23.5085 39.1983L18.5986 33.8853C18.0966 33.3421 17.8516 32.6985 17.8516 31.9211V19.3125ZM51.271 26.923C50.4905 26.923 49.7632 27.2455 49.2216 27.8328L44.5217 32.9192C44.0211 33.4608 43.7701 34.1455 43.7959 34.9001V43.9012C43.7959 44.4048 44.2052 44.8141 44.7088 44.8141H52.1626C52.6662 44.8141 53.0755 44.4048 53.0755 43.9012V40.1751L57.7419 35.1238C58.5589 34.2398 58.9728 33.1611 58.9728 31.9195V19.311C58.9728 17.6435 57.6886 16.2863 56.1093 16.2863C54.53 16.2863 53.2459 17.6435 53.2459 19.311V27.7537C52.7149 27.2181 52.0165 26.923 51.271 26.923C51.2725 26.923 51.2725 26.923 51.271 26.923ZM51.9876 30.8119L48.4882 34.5989C48.1459 34.9686 48.1687 35.5468 48.5399 35.8891C48.9097 36.2314 49.4878 36.2086 49.8302 35.8389L53.3144 32.0671C53.3159 32.0641 53.3189 32.0626 53.3204 32.0595C53.325 32.055 53.328 32.0519 53.3311 32.0473L53.8393 31.4981C54.6563 30.6141 55.0701 29.5354 55.0701 28.2938V19.314C55.0701 18.6644 55.5448 18.1151 56.1078 18.1151C56.6707 18.1151 57.1455 18.6644 57.1455 19.314V31.9226C57.1455 32.7016 56.9005 33.3437 56.3984 33.8868L51.4901 39.1998C51.3349 39.3687 51.2482 39.5893 51.2482 39.8191V42.9883H45.6202V34.8834C45.6202 34.8712 45.6202 34.859 45.6202 34.8469C45.6096 34.5669 45.6856 34.3493 45.8621 34.1576L50.562 29.0713C50.7537 28.8629 51.0063 28.7488 51.271 28.7488C51.5357 28.7488 51.7883 28.8629 51.98 29.0713C52.4152 29.543 52.4182 30.3372 51.9876 30.8119ZM24.5796 20.3486H26.7781C26.9881 21.0394 27.265 21.7073 27.6043 22.3448L26.0494 23.9028C25.739 24.2147 25.6933 24.7047 25.9444 25.0668C26.9181 26.4772 28.1247 27.6868 29.532 28.6605C29.8957 28.9116 30.3856 28.8674 30.6975 28.5555L32.2509 26.9991C32.8869 27.3383 33.5533 27.6153 34.241 27.8252V30.0283C34.241 30.4696 34.556 30.8469 34.9896 30.926C35.8234 31.0782 36.6769 31.1558 37.5274 31.1558C38.3779 31.1558 39.2315 31.0782 40.0653 30.926C40.4989 30.8469 40.8138 30.4696 40.8138 30.0283V27.8252C41.5031 27.6153 42.168 27.3383 42.8039 26.9991L44.3574 28.5555C44.6693 28.8674 45.1607 28.9116 45.5228 28.6605C46.9302 27.6852 48.1383 26.4757 49.1105 25.0668C49.36 24.7047 49.3159 24.2147 49.0055 23.9028L47.4506 22.3448C47.7898 21.7073 48.0668 21.0394 48.2767 20.3486H50.4753C50.9165 20.3486 51.2938 20.0337 51.3729 19.5986C51.5251 18.7648 51.6012 17.9097 51.6012 17.0577C51.6012 16.2056 51.5236 15.3506 51.3729 14.5168C51.2938 14.0832 50.9165 13.7667 50.4753 13.7667H48.2767C48.0668 13.076 47.7898 12.408 47.4506 11.7705L49.0055 10.2125C49.3159 9.90062 49.3615 9.4107 49.1105 9.04858C48.1367 7.63817 46.9302 6.42859 45.5228 5.45484C45.1592 5.20379 44.6693 5.24792 44.3574 5.55982L42.8039 7.1163C42.168 6.77701 41.5015 6.5001 40.8138 6.29013V4.08855C40.8138 3.64732 40.4989 3.26999 40.0653 3.19087C38.3977 2.88657 36.6556 2.88657 34.9911 3.19087C34.5575 3.26999 34.2425 3.64732 34.2425 4.08855V6.29166C33.5533 6.50162 32.8884 6.77853 32.2524 7.11782L30.699 5.56134C30.3871 5.24792 29.8957 5.20379 29.5336 5.45636C28.1262 6.43163 26.9181 7.64121 25.9459 9.05011C25.6964 9.41222 25.7405 9.90214 26.0509 10.214L27.6058 11.772C27.2665 12.4095 26.9896 13.0775 26.7797 13.7682H24.5811C24.1399 13.7682 23.7626 14.0832 23.6834 14.5183C23.5313 15.3536 23.4552 16.2087 23.4552 17.0592C23.4552 17.9112 23.5328 18.7663 23.6834 19.6001C23.761 20.0337 24.1384 20.3486 24.5796 20.3486ZM25.3662 15.594H27.478C27.9025 15.594 28.2692 15.3019 28.3666 14.8896C28.5978 13.9036 28.9873 12.9649 29.5214 12.1007C29.7435 11.7401 29.6903 11.2745 29.3905 10.9763L27.8964 9.47917C28.5005 8.70777 29.1927 8.0155 29.9626 7.40843L31.4552 8.90404C31.7549 9.20378 32.222 9.25855 32.5826 9.03489C33.4453 8.50085 34.381 8.11135 35.3654 7.87856C35.7777 7.78119 36.0683 7.41299 36.0683 6.99002V4.87363C37.036 4.758 38.0204 4.758 38.9896 4.87363V6.99002C38.9896 7.41299 39.2802 7.78119 39.6925 7.87856C40.6754 8.10983 41.6126 8.49933 42.4753 9.03489C42.8359 9.25855 43.303 9.20378 43.6027 8.90404L45.0953 7.40843C45.8652 8.01398 46.5559 8.70777 47.1615 9.47917L45.6674 10.9763C45.3692 11.276 45.3144 11.7416 45.5365 12.1022C46.0706 12.9649 46.4585 13.9036 46.6913 14.8911C46.7887 15.3034 47.1569 15.5955 47.5799 15.5955H49.6917C49.7495 16.0809 49.7784 16.5708 49.7784 17.0592C49.7784 17.5476 49.7495 18.039 49.6917 18.5229H47.5799C47.1554 18.5229 46.7887 18.815 46.6913 19.2273C46.4601 20.2132 46.0721 21.1505 45.5365 22.0162C45.3144 22.3768 45.3676 22.8424 45.6674 23.1406L47.1615 24.6377C46.5574 25.4091 45.8652 26.1014 45.0953 26.7085L43.6027 25.2128C43.303 24.9131 42.8359 24.8583 42.4753 25.082C41.6126 25.6175 40.6769 26.0055 39.6925 26.2383C39.2802 26.3357 38.9896 26.7039 38.9896 27.1269V29.2432C38.0219 29.3589 37.036 29.3589 36.0683 29.2432V27.1269C36.0683 26.7039 35.7762 26.3357 35.3654 26.2383C34.381 26.007 33.4453 25.6175 32.5826 25.082C32.222 24.8583 31.7549 24.9131 31.4552 25.2128L29.9626 26.7085C29.1927 26.1029 28.502 25.4091 27.8964 24.6377L29.3905 23.1406C29.6887 22.8408 29.7435 22.3753 29.5214 22.0147C28.9873 21.1505 28.5994 20.2132 28.3666 19.2258C28.2692 18.8135 27.901 18.5213 27.478 18.5213H25.3662C25.3084 18.036 25.2795 17.5461 25.2795 17.0577C25.2795 16.5693 25.3084 16.0794 25.3662 15.594ZM37.529 25.3985C42.1208 25.3985 45.856 21.6571 45.856 17.0592C45.856 12.4613 42.1208 8.71994 37.529 8.71994C32.9371 8.71994 29.2019 12.4613 29.2019 17.0592C29.2019 21.6571 32.9371 25.3985 37.529 25.3985ZM32.0181 20.5099H33.1273C33.319 21.2144 33.5685 21.8625 33.8652 22.4377C33.1258 21.9295 32.4959 21.2722 32.0181 20.5099ZM31.0277 17.0592C31.0277 16.4978 31.0992 15.9531 31.2331 15.4343H32.7804C32.7195 15.9576 32.6876 16.5008 32.6876 17.0592C32.6876 17.6176 32.7195 18.1608 32.7804 18.6841H31.2315C31.0976 18.1638 31.0277 17.6191 31.0277 17.0592ZM44.0303 17.0592C44.0303 17.6206 43.9587 18.1653 43.8249 18.6841H42.2775C42.3384 18.1608 42.3703 17.6176 42.3703 17.0592C42.3703 16.5008 42.3384 15.9576 42.2775 15.4343H43.8249C43.9587 15.9531 44.0303 16.4978 44.0303 17.0592ZM40.5445 17.0592C40.5445 17.6298 40.5065 18.1729 40.438 18.6841H38.4403V15.4343H40.438C40.508 15.9455 40.5445 16.4886 40.5445 17.0592ZM36.6161 23.0386C35.9983 22.5883 35.4217 21.7058 35.0292 20.5099H36.6161V23.0386ZM38.4418 23.0386V20.5099H40.0288C39.6347 21.7043 39.058 22.5883 38.4418 23.0386ZM38.4418 13.607V11.0782C39.0596 11.5286 39.6362 12.4111 40.0288 13.607H38.4418ZM36.6161 11.0782V13.607H35.0292C35.4217 12.4126 35.9983 11.5286 36.6161 11.0782ZM36.6161 15.4327V18.6826H34.6184C34.5499 18.1714 34.5119 17.6267 34.5119 17.0577C34.5119 16.4886 34.5499 15.944 34.6184 15.4327H36.6161ZM41.1912 22.4361C41.4894 21.861 41.7374 21.2144 41.9291 20.5084H43.0382C42.5605 21.2722 41.9306 21.9295 41.1912 22.4361ZM43.0382 13.607H41.9291C41.7374 12.9025 41.4879 12.2544 41.1912 11.6792C41.9306 12.1874 42.5605 12.8447 43.0382 13.607ZM33.8667 11.6808C33.5701 12.2559 33.3205 12.9025 33.1288 13.6085H32.0197C32.4959 12.8447 33.1258 12.1874 33.8667 11.6808ZM41.8621 51.9894C41.8621 52.493 41.4529 52.9023 40.9493 52.9023H34.0508C33.5472 52.9023 33.138 52.493 33.138 51.9894C33.138 51.4858 33.5472 51.0765 34.0508 51.0765H40.9493C41.4529 51.0765 41.8621 51.4858 41.8621 51.9894Z" fill="#00AFCC"/>
<path d="M51.271 26.923C50.4905 26.923 49.7632 27.2455 49.2216 27.8328L44.5217 32.9192C44.0211 33.4608 43.7701 34.1455 43.7959 34.9001V43.9012C43.7959 44.4048 44.2052 44.8141 44.7088 44.8141H52.1626C52.6662 44.8141 53.0755 44.4048 53.0755 43.9012V40.1751L57.7419 35.1238C58.5589 34.2398 58.9728 33.1611 58.9728 31.9195V19.311C58.9728 17.6435 57.6886 16.2863 56.1093 16.2863C54.53 16.2863 53.2459 17.6435 53.2459 19.311V27.7537C52.7149 27.2181 52.0165 26.923 51.271 26.923ZM51.271 26.923C51.2725 26.923 51.2725 26.923 51.271 26.923ZM71.0046 0.39286H3.99544C2.25182 0.39286 0.832275 1.81241 0.832275 3.55603V54.7996C0.832275 56.5432 2.25182 57.9628 3.99544 57.9628H29.1912V62.9396L25.6401 64.7882C25.5351 64.8429 25.4301 64.8962 25.3267 64.9479C24.3377 65.4485 22.982 66.1347 22.982 67.7672C22.982 69.4667 24.3636 70.8498 26.0615 70.8498H48.9401C50.6381 70.8498 52.0196 69.4667 52.0196 67.7672C52.0196 66.1332 50.6639 65.4485 49.675 64.9479C49.5715 64.8947 49.4665 64.8429 49.3615 64.7882L45.8104 62.9396V57.9628H71.0062C72.7498 57.9628 74.1693 56.5432 74.1693 54.7996V3.55603C74.1678 1.81241 72.7483 0.39286 71.0046 0.39286ZM3.99544 2.21864H71.0062C71.7441 2.21864 72.3436 2.81811 72.3436 3.55603V46.0176H2.65806V3.55603C2.65806 2.81811 3.25752 2.21864 3.99544 2.21864ZM44.4761 64.3028L48.5186 66.407C48.6297 66.4648 48.7408 66.5211 48.8503 66.5759C49.8743 67.0947 50.1938 67.326 50.1938 67.7672C50.1938 68.461 49.6308 69.024 48.9401 69.024H26.0615C25.3708 69.024 24.8078 68.4595 24.8078 67.7672C24.8078 67.3275 25.1273 67.0947 26.1513 66.5774C26.2624 66.5211 26.3734 66.4648 26.483 66.407L30.5256 64.3028C30.8268 64.1461 31.017 63.8342 31.017 63.4934V57.9628H43.9846V63.4934C43.9846 63.8327 44.1733 64.1446 44.4761 64.3028ZM71.0046 56.137H3.99544C3.25752 56.137 2.65806 55.5375 2.65806 54.7996V47.8434H72.342V54.7996C72.342 55.5375 71.7426 56.137 71.0046 56.137ZM21.9231 40.1766V43.9028C21.9231 44.4064 22.3324 44.8156 22.836 44.8156H30.2897C30.7933 44.8156 31.2026 44.4064 31.2026 43.9028V34.9016C31.2285 34.147 30.9774 33.4623 30.4769 32.9207L25.777 27.8344C25.2354 27.2486 24.5066 26.9245 23.7276 26.9245C22.982 26.9245 22.2852 27.2182 21.7527 27.7552V19.3125C21.7527 17.645 20.4686 16.2878 18.8892 16.2878C17.3099 16.2878 16.0258 17.645 16.0258 19.3125V31.9211C16.0258 33.1626 16.4397 34.2413 17.2567 35.1253L21.9231 40.1766ZM17.8516 19.3125C17.8516 18.6628 18.3263 18.1136 18.8892 18.1136C19.4522 18.1136 19.9269 18.6628 19.9269 19.3125V28.2923C19.9269 29.5339 20.3407 30.6126 21.1578 31.4966L25.1684 35.8374C25.5107 36.2071 26.0874 36.2299 26.4586 35.8876C26.8284 35.5452 26.8512 34.9686 26.5104 34.5974L23.0262 30.8256C23.0231 30.8225 23.0216 30.821 23.0186 30.818C22.5804 30.3448 22.5804 29.5445 23.0186 29.0698C23.2103 28.8614 23.4628 28.7472 23.7276 28.7472C23.9923 28.7472 24.2449 28.8614 24.4366 29.0698L29.1364 34.1561C29.3129 34.3463 29.389 34.5654 29.3784 34.8454V34.8819V42.9868H23.7504V39.8176C23.7504 39.5878 23.6637 39.3672 23.5085 39.1983L18.5986 33.8853C18.0966 33.3421 17.8516 32.6985 17.8516 31.9211V19.3125ZM51.9876 30.8119L48.4882 34.5989C48.1459 34.9686 48.1687 35.5468 48.5399 35.8891C48.9097 36.2314 49.4878 36.2086 49.8302 35.8389L53.3144 32.0671C53.3159 32.0641 53.3189 32.0626 53.3204 32.0595C53.325 32.055 53.328 32.0519 53.3311 32.0473L53.8393 31.4981C54.6563 30.6141 55.0701 29.5354 55.0701 28.2938V19.314C55.0701 18.6644 55.5448 18.1151 56.1078 18.1151C56.6707 18.1151 57.1454 18.6644 57.1454 19.314V31.9226C57.1454 32.7016 56.9005 33.3437 56.3984 33.8868L51.4901 39.1998C51.3349 39.3687 51.2482 39.5893 51.2482 39.8191V42.9883H45.6202V34.8834C45.6202 34.8712 45.6202 34.859 45.6202 34.8469C45.6096 34.5669 45.6856 34.3494 45.8621 34.1576L50.562 29.0713C50.7537 28.8629 51.0063 28.7488 51.271 28.7488C51.5357 28.7488 51.7883 28.8629 51.98 29.0713C52.4152 29.543 52.4182 30.3372 51.9876 30.8119ZM24.5796 20.3487H26.7781C26.9881 21.0394 27.265 21.7073 27.6043 22.3448L26.0494 23.9028C25.739 24.2147 25.6933 24.7047 25.9444 25.0668C26.9181 26.4772 28.1247 27.6868 29.532 28.6605C29.8957 28.9116 30.3856 28.8674 30.6975 28.5555L32.2509 26.9991C32.8869 27.3383 33.5533 27.6153 34.241 27.8252V30.0283C34.241 30.4696 34.556 30.8469 34.9896 30.926C35.8234 31.0782 36.6769 31.1558 37.5274 31.1558C38.3779 31.1558 39.2315 31.0782 40.0653 30.926C40.4989 30.8469 40.8138 30.4696 40.8138 30.0283V27.8252C41.5031 27.6153 42.168 27.3383 42.8039 26.9991L44.3574 28.5555C44.6693 28.8674 45.1607 28.9116 45.5228 28.6605C46.9302 27.6852 48.1383 26.4757 49.1105 25.0668C49.36 24.7047 49.3159 24.2147 49.0055 23.9028L47.4506 22.3448C47.7898 21.7073 48.0668 21.0394 48.2767 20.3487H50.4753C50.9165 20.3487 51.2938 20.0337 51.3729 19.5986C51.5251 18.7648 51.6012 17.9097 51.6012 17.0577C51.6012 16.2056 51.5236 15.3506 51.3729 14.5168C51.2938 14.0832 50.9165 13.7667 50.4753 13.7667H48.2767C48.0668 13.076 47.7898 12.408 47.4506 11.7705L49.0055 10.2125C49.3159 9.90062 49.3615 9.4107 49.1105 9.04859C48.1367 7.63817 46.9302 6.42859 45.5228 5.45484C45.1592 5.20379 44.6693 5.24792 44.3574 5.55982L42.8039 7.1163C42.168 6.77701 41.5015 6.5001 40.8138 6.29013V4.08855C40.8138 3.64732 40.4989 3.26999 40.0653 3.19087C38.3977 2.88657 36.6556 2.88657 34.9911 3.19087C34.5575 3.26999 34.2425 3.64732 34.2425 4.08855V6.29166C33.5533 6.50162 32.8884 6.77853 32.2524 7.11782L30.699 5.56134C30.3871 5.24792 29.8957 5.20379 29.5336 5.45636C28.1262 6.43163 26.9181 7.64121 25.9459 9.05011C25.6964 9.41222 25.7405 9.90214 26.0509 10.214L27.6058 11.772C27.2665 12.4095 26.9896 13.0775 26.7797 13.7682H24.5811C24.1399 13.7682 23.7626 14.0832 23.6834 14.5183C23.5313 15.3536 23.4552 16.2087 23.4552 17.0592C23.4552 17.9112 23.5328 18.7663 23.6834 19.6001C23.761 20.0337 24.1384 20.3487 24.5796 20.3487ZM25.3662 15.594H27.478C27.9025 15.594 28.2692 15.3019 28.3666 14.8896C28.5978 13.9036 28.9873 12.9649 29.5214 12.1007C29.7435 11.7401 29.6903 11.2745 29.3905 10.9763L27.8964 9.47917C28.5005 8.70777 29.1927 8.0155 29.9626 7.40843L31.4552 8.90404C31.7549 9.20378 32.222 9.25855 32.5826 9.03489C33.4453 8.50085 34.381 8.11135 35.3654 7.87856C35.7777 7.78119 36.0683 7.41299 36.0683 6.99002V4.87363C37.036 4.758 38.0204 4.758 38.9896 4.87363V6.99002C38.9896 7.41299 39.2802 7.78119 39.6925 7.87856C40.6754 8.10983 41.6126 8.49933 42.4753 9.03489C42.8359 9.25855 43.303 9.20378 43.6027 8.90404L45.0953 7.40843C45.8652 8.01398 46.5559 8.70777 47.1615 9.47917L45.6674 10.9763C45.3692 11.276 45.3144 11.7416 45.5365 12.1022C46.0706 12.9649 46.4585 13.9036 46.6913 14.8911C46.7887 15.3034 47.1569 15.5955 47.5799 15.5955H49.6917C49.7495 16.0809 49.7784 16.5708 49.7784 17.0592C49.7784 17.5476 49.7495 18.039 49.6917 18.5229H47.5799C47.1554 18.5229 46.7887 18.815 46.6913 19.2273C46.4601 20.2132 46.0721 21.1505 45.5365 22.0162C45.3144 22.3768 45.3676 22.8424 45.6674 23.1406L47.1615 24.6377C46.5574 25.4091 45.8652 26.1014 45.0953 26.7085L43.6027 25.2128C43.303 24.9131 42.8359 24.8583 42.4753 25.082C41.6126 25.6175 40.6769 26.0055 39.6925 26.2383C39.2802 26.3357 38.9896 26.7039 38.9896 27.1269V29.2432C38.0219 29.3589 37.036 29.3589 36.0683 29.2432V27.1269C36.0683 26.7039 35.7762 26.3357 35.3654 26.2383C34.381 26.007 33.4453 25.6175 32.5826 25.082C32.222 24.8583 31.7549 24.9131 31.4552 25.2128L29.9626 26.7085C29.1927 26.1029 28.502 25.4091 27.8964 24.6377L29.3905 23.1406C29.6887 22.8408 29.7435 22.3753 29.5214 22.0147C28.9873 21.1505 28.5994 20.2132 28.3666 19.2258C28.2692 18.8135 27.901 18.5213 27.478 18.5213H25.3662C25.3084 18.036 25.2795 17.5461 25.2795 17.0577C25.2795 16.5693 25.3084 16.0794 25.3662 15.594ZM37.529 25.3985C42.1208 25.3985 45.856 21.6571 45.856 17.0592C45.856 12.4613 42.1208 8.71995 37.529 8.71995C32.9371 8.71995 29.2019 12.4613 29.2019 17.0592C29.2019 21.6571 32.9371 25.3985 37.529 25.3985ZM32.0181 20.5099H33.1273C33.319 21.2144 33.5685 21.8625 33.8652 22.4377C33.1258 21.9295 32.4959 21.2722 32.0181 20.5099ZM31.0277 17.0592C31.0277 16.4978 31.0992 15.9531 31.2331 15.4343H32.7804C32.7195 15.9576 32.6876 16.5008 32.6876 17.0592C32.6876 17.6176 32.7195 18.1608 32.7804 18.6841H31.2315C31.0976 18.1638 31.0277 17.6191 31.0277 17.0592ZM44.0303 17.0592C44.0303 17.6206 43.9587 18.1653 43.8249 18.6841H42.2775C42.3384 18.1608 42.3703 17.6176 42.3703 17.0592C42.3703 16.5008 42.3384 15.9576 42.2775 15.4343H43.8249C43.9587 15.9531 44.0303 16.4978 44.0303 17.0592ZM40.5445 17.0592C40.5445 17.6298 40.5065 18.1729 40.438 18.6841H38.4403V15.4343H40.438C40.508 15.9455 40.5445 16.4886 40.5445 17.0592ZM36.6161 23.0386C35.9983 22.5883 35.4217 21.7058 35.0292 20.5099H36.6161V23.0386ZM38.4418 23.0386V20.5099H40.0288C39.6347 21.7043 39.058 22.5883 38.4418 23.0386ZM38.4418 13.607V11.0782C39.0596 11.5286 39.6362 12.4111 40.0288 13.607H38.4418ZM36.6161 11.0782V13.607H35.0292C35.4217 12.4126 35.9983 11.5286 36.6161 11.0782ZM36.6161 15.4327V18.6826H34.6184C34.5499 18.1714 34.5119 17.6267 34.5119 17.0577C34.5119 16.4886 34.5499 15.944 34.6184 15.4327H36.6161ZM41.1912 22.4361C41.4894 21.861 41.7374 21.2144 41.9291 20.5084H43.0382C42.5605 21.2722 41.9306 21.9295 41.1912 22.4361ZM43.0382 13.607H41.9291C41.7374 12.9025 41.4879 12.2544 41.1912 11.6792C41.9306 12.1874 42.5605 12.8447 43.0382 13.607ZM33.8667 11.6808C33.5701 12.2559 33.3205 12.9025 33.1288 13.6085H32.0197C32.4959 12.8447 33.1258 12.1874 33.8667 11.6808ZM41.8621 51.9894C41.8621 52.4931 41.4529 52.9023 40.9493 52.9023H34.0508C33.5472 52.9023 33.138 52.4931 33.138 51.9894C33.138 51.4858 33.5472 51.0765 34.0508 51.0765H40.9493C41.4529 51.0765 41.8621 51.4858 41.8621 51.9894Z" stroke="#00AFCC" stroke-width="0.475"/>
</svg>
