<svg width="68" height="59" viewBox="0 0 68 59" fill="none" xmlns="http://www.w3.org/2000/svg">
<path d="M44.6667 17.5707H55.3333M44.6667 29.1421H55.3333M44.6667 40.7135H55.3333M34 44.5707C32.912 42.2062 30.6827 40.7135 28.2471 40.7135H18.4196C15.984 40.7135 13.7547 42.2062 12.6667 44.5707M5.55556 2.14209H62.4444C63.3874 2.14209 64.2918 2.54847 64.9586 3.27182C65.6254 3.99518 66 4.97625 66 5.99923V52.2849C66 53.3079 65.6254 54.289 64.9586 55.0124C64.2918 55.7357 63.3874 56.1421 62.4444 56.1421H5.55556C4.61256 56.1421 3.70819 55.7357 3.0414 55.0124C2.3746 54.289 2 53.3079 2 52.2849V5.99923C2 4.97625 2.3746 3.99518 3.0414 3.27182C3.70819 2.54847 4.61256 2.14209 5.55556 2.14209ZM30.4444 21.4278C30.4444 23.4738 29.6952 25.4359 28.3616 26.8826C27.0281 28.3293 25.2193 29.1421 23.3333 29.1421C21.4473 29.1421 19.6386 28.3293 18.305 26.8826C16.9714 25.4359 16.2222 23.4738 16.2222 21.4278C16.2222 19.3818 16.9714 17.4197 18.305 15.973C19.6386 14.5263 21.4473 13.7135 23.3333 13.7135C25.2193 13.7135 27.0281 14.5263 28.3616 15.973C29.6952 17.4197 30.4444 19.3818 30.4444 21.4278Z" stroke="#1F2937" stroke-width="4" stroke-linecap="round"/>
</svg>
