<svg width="78" height="77" viewBox="0 0 78 77" fill="none" xmlns="http://www.w3.org/2000/svg">
<path d="M67.8122 52.5793L54.4491 58.6859C53.6078 58.0076 52.5411 57.5994 51.3811 57.5994H45.4495C43.4221 57.5994 41.7261 56.7351 40.5451 55.1008C38.9839 52.9314 36.7013 51.3428 34.1211 50.6285C30.4484 49.5946 26.5252 50.3983 23.5528 52.7803H20.0545L20.682 50.7197C20.7556 50.4794 20.73 50.2202 20.6114 49.9994C20.4934 49.7777 20.2926 49.6123 20.0525 49.5398L8.50464 46.0358C8.00595 45.8876 7.47839 46.1659 7.32581 46.6655L0.411585 69.3346C0.338535 69.5749 0.363863 69.8342 0.481854 70.0554C0.600463 70.2766 0.801233 70.4418 1.04169 70.5144L9.63992 73.1279C10.0229 73.2459 10.4197 73.3059 10.8178 73.3059C12.6011 73.3059 14.1512 72.1551 14.6766 70.4418L14.8672 69.8139H22.7467L45.641 76.0821C46.3761 76.2861 47.106 76.3882 47.8243 76.3882C49.45 76.3875 51.0168 75.868 52.4387 74.8414L73.7914 59.2717C73.8759 59.2095 73.9494 59.1338 74.0098 59.0485C75.4875 56.9284 74.832 54.6212 73.5263 53.2761C72.2276 51.9386 69.966 51.2129 67.8122 52.5793ZM10.1916 71.3201L6.7879 70.2857L9.57891 61.0993C9.73088 60.5997 9.4498 60.0717 8.94942 59.9197C8.45321 59.7684 7.92271 60.0498 7.7709 60.5495L4.97957 69.7354L2.49651 68.9808L8.85892 48.1205L18.5977 51.0741L12.8686 69.8894C12.531 70.9896 11.3122 71.6643 10.1916 71.3201ZM72.5408 57.8435L51.3289 73.3105C49.7412 74.4555 47.9988 74.7757 46.1444 74.2591L23.1232 67.9569C23.0421 67.9345 22.9579 67.924 22.8738 67.924H15.4436L19.4795 54.6704H23.8931C24.1181 54.6704 24.3349 54.5905 24.5057 54.4452C27.0268 52.2999 30.4295 51.5513 33.6122 52.4492C35.7831 53.0504 37.7 54.3845 39.0115 56.207C40.5417 58.3245 42.8282 59.4895 45.4498 59.4895H51.3815C53.0474 59.4895 54.4035 60.8536 54.4035 62.5301C54.4035 64.2065 53.0474 65.5703 51.3815 65.5703H34.9214C34.3992 65.5703 33.9767 65.9929 33.9767 66.5155C33.9767 67.038 34.3992 67.4602 34.9214 67.4602H51.3811C54.0902 67.4602 56.2931 65.2489 56.2931 62.5301C56.2931 61.6842 56.0792 60.887 55.7037 60.1903L68.6594 54.2699C68.7031 54.2512 68.7445 54.2281 68.7841 54.2016C70.1405 53.315 71.456 53.8571 72.1691 54.5927C72.8566 55.3006 73.3485 56.5641 72.5408 57.8435ZM76.6445 42.6787H72.9567V13.7073C72.9567 11.8264 71.4347 10.2969 69.5645 10.2969H59.2765C57.6824 6.15189 53.6702 3.19748 48.971 3.19748C44.2802 3.19748 40.2747 6.15189 38.6837 10.2969H28.397C26.5162 10.2969 24.987 11.8264 24.987 13.7073V42.6787H21.2976C20.7751 42.6787 20.3526 43.1012 20.3526 43.6241V45.8664C20.3526 47.6247 21.783 49.0547 23.5406 49.0547H74.4026C76.1605 49.0547 77.59 47.6247 77.59 45.8664V43.6241C77.5899 43.1012 77.167 42.6787 76.6445 42.6787ZM65.6902 14.2263C65.6902 14.1421 65.7819 14.0593 65.8763 14.0593C65.9662 14.0593 66.0425 14.1361 66.0425 14.2263C66.0425 14.4276 65.6896 14.4517 65.6902 14.2263ZM48.9705 5.27669C50.118 5.78016 50.914 7.28099 51.3459 9.75371C49.7572 9.61379 48.1531 9.61472 46.59 9.7534C47.0107 7.28717 47.8088 5.78386 48.9705 5.27669ZM48.9719 23.327C47.6034 22.7405 46.9277 20.776 46.5926 18.8472C47.3806 18.9179 48.1724 18.9666 48.9643 18.9666C49.7603 18.9666 50.5575 18.9175 51.3476 18.8469C50.9157 21.3331 50.1191 22.8371 48.9719 23.327ZM46.3486 11.6769C48.0762 11.4936 49.8352 11.4927 51.5941 11.6786C51.7796 13.4235 51.7796 15.1776 51.5947 16.9229C49.8588 17.1078 48.1009 17.1089 46.348 16.9229C46.1637 15.1892 46.1637 13.4355 46.3486 11.6769ZM53.5186 11.9245C55.9928 12.356 57.4912 13.1524 57.9805 14.3009C57.4897 15.4598 55.9949 16.2565 53.5189 16.6803C53.6607 15.0978 53.6607 13.5063 53.5186 11.9245ZM44.4235 16.6797C41.9494 16.256 40.4432 15.461 39.94 14.3084C40.4404 13.1489 41.9429 12.3501 44.4238 11.9217C44.2821 13.5138 44.2821 15.1062 44.4235 16.6797ZM44.6422 18.6285C44.8947 20.3661 45.3211 21.7729 45.9173 22.8469C43.3525 21.9331 41.3167 19.9082 40.3882 17.3495C41.4603 17.9492 42.8756 18.3739 44.6422 18.6285ZM53.2974 18.6295C55.0747 18.3712 56.5062 17.9299 57.5873 17.3082C56.6639 19.8855 54.6168 21.927 52.0323 22.8461C52.6199 21.7795 53.0401 20.3786 53.2974 18.6295ZM57.6385 11.3143C56.5596 10.6867 55.1159 10.2419 53.2974 9.97317C53.0247 8.12948 52.5699 6.67436 51.9293 5.58773C54.6089 6.50602 56.7286 8.63079 57.6385 11.3143ZM46.021 5.58726C45.3682 6.6827 44.9068 8.14508 44.6422 9.97163C42.8399 10.2337 41.4086 10.6722 40.3303 11.2916C41.243 8.61812 43.3536 6.50262 46.021 5.58726ZM37.9431 14.2446C37.9431 20.3258 42.8903 25.2733 48.971 25.2733C55.0622 25.2733 60.0184 20.3258 60.0184 14.2446C60.0184 13.5412 59.9457 12.8547 59.8194 12.1877H65.6874C64.9699 12.2528 64.3617 12.6766 64.0433 13.2808H61.8536C61.3315 13.2808 60.9083 13.7039 60.9083 14.2263C60.9083 14.7483 61.3315 15.1717 61.8536 15.1717H64.0382C64.3835 15.8403 65.0731 16.3028 65.8763 16.3028C66.634 16.3028 67.2897 15.882 67.6466 15.2642H67.989V39.8242H29.9727V15.2641H30.2984C30.6583 15.8818 31.3206 16.3027 32.0853 16.3027C32.8809 16.3027 33.5645 15.8401 33.9066 15.1716H36.0889C36.6117 15.1716 37.0346 14.7481 37.0346 14.2261C37.0346 13.7038 36.6117 13.2806 36.0889 13.2806H33.9024C33.5863 12.6765 32.9833 12.2527 32.272 12.1875H38.1425C38.0162 12.8548 37.9431 13.5412 37.9431 14.2446ZM32.0853 14.0593C32.1742 14.0593 32.2527 14.1371 32.2527 14.2263C32.2536 14.417 31.9457 14.4425 31.9118 14.2528C31.9103 14.2388 31.9087 14.2252 31.9074 14.2108C31.9182 14.1331 31.9982 14.0593 32.0853 14.0593ZM26.8767 13.7073C26.8767 12.8836 27.5732 12.1877 28.397 12.1877H31.8975C31.1421 12.2561 30.5043 12.7191 30.2019 13.3733H29.0275C28.5048 13.3733 28.0819 13.7966 28.0819 14.3188V40.7689C28.0819 41.2913 28.5048 41.7139 29.0275 41.7139H68.9339C69.4563 41.7139 69.8789 41.2913 69.8789 40.7689V14.3188C69.8789 13.7966 69.4563 13.3733 68.9339 13.3733H67.7424C67.4423 12.7191 66.8097 12.2562 66.0622 12.1877H69.5643C70.3926 12.1877 71.0662 12.869 71.0662 13.7073V42.6787H57.5348H40.4268H26.8767V13.7073ZM41.3712 44.569H56.5897V44.7727C56.5897 44.881 56.4945 44.9767 56.3856 44.9767H41.576C41.4671 44.9767 41.3712 44.881 41.3712 44.7727V44.569ZM75.6998 45.8664C75.6998 46.5818 75.1175 47.164 74.4026 47.164H23.5405C22.825 47.164 22.2426 46.5816 22.2426 45.8664V44.5691H39.4815V44.7728C39.4815 45.928 40.4208 46.8675 41.5761 46.8675H56.3857C57.5409 46.8675 58.4801 45.9282 58.4801 44.7728V44.5691H75.7V45.8664H75.6998ZM33.8273 19.4948L32.9035 21.0755C32.8712 21.0738 32.8411 21.0662 32.8085 21.0662C31.6635 21.0662 30.7324 21.9971 30.7324 23.1415C30.7324 24.2762 31.6635 25.1991 32.8085 25.1991C33.9532 25.1991 34.8846 24.276 34.8846 23.1415C34.8846 22.7252 34.7589 22.3377 34.5462 22.012L35.1858 20.9179H36.8701C39.269 25.283 43.9547 28.0729 48.9711 28.0729C54.0603 28.0729 58.6517 25.346 61.0907 20.9179H62.7759L63.4158 22.012C63.2031 22.3377 63.0774 22.7252 63.0774 23.1415C63.0774 24.2762 64.0082 25.1991 65.1535 25.1991C66.2874 25.1991 67.2103 24.276 67.2103 23.1415C67.2103 21.9971 66.2873 21.0662 65.1535 21.0662C65.1206 21.0662 65.0908 21.0738 65.0582 21.0755L64.1341 19.4948C63.9642 19.2052 63.6542 19.0271 63.3185 19.0271H60.5193C60.1604 19.0271 59.8328 19.2301 59.6731 19.551C57.6367 23.641 53.5363 26.182 48.9713 26.182C44.4697 26.182 40.2772 23.5801 38.2906 19.5539C38.1311 19.2316 37.8029 19.0273 37.4431 19.0273H34.6435C34.3078 19.0271 33.9971 19.2051 33.8273 19.4948ZM32.8083 23.309C32.7146 23.309 32.6222 23.2263 32.6222 23.1415C32.6222 23.0327 32.7206 22.9568 32.8083 22.9568C32.8958 22.9568 32.9944 23.0327 32.9944 23.1415C32.9944 23.2263 32.9024 23.309 32.8083 23.309ZM65.1534 23.309C65.0593 23.309 64.9673 23.2263 64.9673 23.1415C64.9673 23.0327 65.066 22.9568 65.1534 22.9568C65.2463 22.9568 65.3199 23.0378 65.3199 23.1415C65.3199 23.2319 65.2433 23.309 65.1534 23.309ZM32.8083 7.40563C32.8409 7.40563 32.8717 7.39713 32.9033 7.39559L33.8272 8.97596C33.9971 9.26615 34.3076 9.44422 34.6434 9.44422H37.4426C37.8021 9.44422 38.13 9.24036 38.2889 8.91882C40.3156 4.82974 44.4089 2.28923 48.9708 2.28923C53.4755 2.28923 57.6758 4.89167 59.672 8.91882C59.8313 9.24036 60.1591 9.44422 60.5187 9.44422H63.3179C63.6536 9.44422 63.9637 9.26615 64.1335 8.97596L65.0576 7.39559C65.0896 7.39729 65.12 7.40563 65.1529 7.40563C66.2868 7.40563 67.2097 6.48254 67.2097 5.34773C67.2097 4.20288 66.2866 3.27161 65.1529 3.27161C64.0076 3.27161 63.0768 4.20288 63.0768 5.34773C63.0768 5.75885 63.202 6.14077 63.4128 6.46293L62.7755 7.55373H61.0912C58.6832 3.18883 53.9898 0.398895 48.971 0.398895C43.8836 0.398895 39.2999 3.12551 36.8699 7.55373H35.1856L34.5489 6.46293C34.7594 6.14093 34.8846 5.75885 34.8846 5.34773C34.8846 4.20288 33.9532 3.27161 32.8085 3.27161C31.6635 3.27161 30.7324 4.20288 30.7324 5.34773C30.7322 6.48254 31.6633 7.40563 32.8083 7.40563ZM65.1534 5.16225C65.2463 5.16225 65.3199 5.24364 65.3199 5.34773C65.3199 5.43823 65.2433 5.51468 65.1534 5.51468C65.0593 5.51468 64.9673 5.43205 64.9673 5.34773C64.9673 5.23839 65.0658 5.16225 65.1534 5.16225ZM32.8083 5.16225C32.8958 5.16225 32.9944 5.23839 32.9944 5.34773C32.9944 5.43205 32.9024 5.51468 32.8083 5.51468C32.7146 5.51468 32.6222 5.43205 32.6222 5.34773C32.6222 5.23839 32.7206 5.16225 32.8083 5.16225Z" fill="#00AFCC" stroke="#00AFCC" stroke-width="0.306"/>
</svg>
