<svg width="37" height="41" viewBox="0 0 37 41" fill="none" xmlns="http://www.w3.org/2000/svg">
<path d="M20.1391 3.54567C19.8828 3.54567 19.6371 3.63857 19.4559 3.80393C19.2748 3.96929 19.173 4.19357 19.173 4.42743V21.1809H15.3086V7.95447C15.3086 7.72061 15.2068 7.49633 15.0257 7.33097C14.8445 7.16561 14.5988 7.07271 14.3425 7.07271C14.0863 7.07271 13.8406 7.16561 13.6594 7.33097C13.4782 7.49633 13.3765 7.72061 13.3765 7.95447V24.7079H9.51211C8.77788 21.851 6.88822 20.1933 4.86523 19.9852C5.82097 22.227 6.83305 24.4484 7.90067 26.6478C9.56234 30.1078 11.2337 32.6825 13.3842 34.4055C15.4593 36.0685 18.1277 37.0525 22.0712 37.0525C24.8897 37.0525 27.5927 36.0307 29.5856 34.2117C31.5786 32.3927 32.6982 29.9256 32.6982 27.3532V12.3633C32.6982 12.1294 32.5964 11.9051 32.4152 11.7398C32.234 11.5744 31.9883 11.4815 31.7321 11.4815C31.4759 11.4815 31.2301 11.5744 31.049 11.7398C30.8678 11.9051 30.766 12.1294 30.766 12.3633V21.1809H26.9017V7.07271C26.9017 6.83885 26.7999 6.61457 26.6187 6.44921C26.4375 6.28385 26.1918 6.19095 25.9356 6.19095C25.6794 6.19095 25.4336 6.28385 25.2525 6.44921C25.0713 6.61457 24.9695 6.83885 24.9695 7.07271V21.1809H21.1051V4.42743C21.1051 4.19357 21.0034 3.96929 20.8222 3.80393C20.641 3.63857 20.3953 3.54567 20.1391 3.54567ZM36.5625 27.3532C36.5625 30.861 35.0358 34.2252 32.3181 36.7057C29.6005 39.1861 25.9146 40.5796 22.0712 40.5796C17.322 40.5796 13.7088 39.3592 10.8337 37.0561C8.03206 34.8093 6.0825 31.6527 4.36093 28.0621C2.56401 24.3111 1.57088 22.0274 1.02987 20.6941C0.340081 18.9941 1.29264 16.6169 3.88175 16.4511C5.92464 16.3042 7.94839 16.9 9.51211 18.1088V7.95447C9.51181 7.29447 9.67387 6.64283 9.98634 6.04762C10.2988 5.45242 10.7537 4.92883 11.3174 4.5155C11.8812 4.10217 12.5394 3.80964 13.2436 3.65949C13.9478 3.50933 14.6799 3.50539 15.3859 3.64795C15.5717 2.70214 16.0909 1.83761 16.8646 1.18594C17.6383 0.53427 18.624 0.13114 19.6718 0.0379C20.7197 -0.0553398 21.7722 0.166416 22.6692 0.669421C23.5662 1.17243 24.2586 1.92913 24.641 2.82439C25.3586 2.64294 26.1124 2.61524 26.8437 2.74344C27.5749 2.87165 28.2639 3.1523 28.8567 3.56351C29.4496 3.97472 29.9303 4.50537 30.2615 5.11407C30.5927 5.72278 30.7654 6.39308 30.766 7.07271V8.04264C31.079 7.98386 31.4011 7.95447 31.7321 7.95447C33.0132 7.95447 34.2419 8.41897 35.1477 9.24578C36.0536 10.0726 36.5625 11.194 36.5625 12.3633V27.3532Z" fill="#1F2937"/>
</svg>
