<svg width="54" height="68" viewBox="0 0 54 68" fill="none" xmlns="http://www.w3.org/2000/svg">
<path d="M10.3333 0.85025H43.6666C46.3188 0.85025 48.8624 1.90382 50.7377 3.77918C52.6131 5.65455 53.6666 8.19809 53.6666 10.8503V57.5169C53.6666 60.1691 52.6131 62.7126 50.7377 64.588C48.8624 66.4634 46.3188 67.5169 43.6666 67.5169H10.3333C7.68115 67.5169 5.13761 66.4634 3.26225 64.588C1.38688 62.7126 0.333313 60.1691 0.333313 57.5169L0.333313 10.8503C0.333313 8.19809 1.38688 5.65455 3.26225 3.77918C5.13761 1.90382 7.68115 0.85025 10.3333 0.85025ZM10.3333 7.51692C9.44926 7.51692 8.60141 7.86811 7.97629 8.49323C7.35117 9.11835 6.99998 9.9662 6.99998 10.8503V57.5169C6.99998 58.401 7.35117 59.2488 7.97629 59.8739C8.60141 60.4991 9.44926 60.8503 10.3333 60.8503H43.6666C44.5507 60.8503 45.3985 60.4991 46.0237 59.8739C46.6488 59.2488 47 58.401 47 57.5169V10.8503C47 9.9662 46.6488 9.11835 46.0237 8.49323C45.3985 7.86811 44.5507 7.51692 43.6666 7.51692H10.3333ZM17 10.8503H37C37.884 10.8503 38.7319 11.2014 39.357 11.8266C39.9821 12.4517 40.3333 13.2995 40.3333 14.1836C40.3333 15.0676 39.9821 15.9155 39.357 16.5406C38.7319 17.1657 37.884 17.5169 37 17.5169H17C16.1159 17.5169 15.2681 17.1657 14.643 16.5406C14.0178 15.9155 13.6666 15.0676 13.6666 14.1836C13.6666 13.2995 14.0178 12.4517 14.643 11.8266C15.2681 11.2014 16.1159 10.8503 17 10.8503ZM17 50.8503H23.6666C24.5507 50.8503 25.3985 51.2014 26.0237 51.8266C26.6488 52.4517 27 53.2995 27 54.1836C27 55.0676 26.6488 55.9155 26.0237 56.5406C25.3985 57.1657 24.5507 57.5169 23.6666 57.5169H17C16.1159 57.5169 15.2681 57.1657 14.643 56.5406C14.0178 55.9155 13.6666 55.0676 13.6666 54.1836C13.6666 53.2995 14.0178 52.4517 14.643 51.8266C15.2681 51.2014 16.1159 50.8503 17 50.8503ZM17 37.5169H37C37.884 37.5169 38.7319 37.8681 39.357 38.4932C39.9821 39.1184 40.3333 39.9662 40.3333 40.8503C40.3333 41.7343 39.9821 42.5822 39.357 43.2073C38.7319 43.8324 37.884 44.1836 37 44.1836H17C16.1159 44.1836 15.2681 43.8324 14.643 43.2073C14.0178 42.5822 13.6666 41.7343 13.6666 40.8503C13.6666 39.9662 14.0178 39.1184 14.643 38.4932C15.2681 37.8681 16.1159 37.5169 17 37.5169ZM17 24.1836H37C37.884 24.1836 38.7319 24.5348 39.357 25.1599C39.9821 25.785 40.3333 26.6329 40.3333 27.5169C40.3333 28.401 39.9821 29.2488 39.357 29.8739C38.7319 30.4991 37.884 30.8503 37 30.8503H17C16.1159 30.8503 15.2681 30.4991 14.643 29.8739C14.0178 29.2488 13.6666 28.401 13.6666 27.5169C13.6666 26.6329 14.0178 25.785 14.643 25.1599C15.2681 24.5348 16.1159 24.1836 17 24.1836Z" fill="#1F2937"/>
</svg>
