<svg width="69" height="59" viewBox="0 0 69 59" fill="none" xmlns="http://www.w3.org/2000/svg">
<path d="M45.1667 18.1927H55.8333M45.1667 29.7642H55.8333M45.1667 41.3356H55.8333M34.5 45.1927C33.412 42.8283 31.1827 41.3356 28.7471 41.3356H18.9196C16.484 41.3356 14.2547 42.8283 13.1667 45.1927M6.05556 2.76416H62.9444C63.8874 2.76416 64.7918 3.17054 65.4586 3.89389C66.1254 4.61725 66.5 5.59833 66.5 6.6213V52.907C66.5 53.93 66.1254 54.9111 65.4586 55.6344C64.7918 56.3578 63.8874 56.7642 62.9444 56.7642H6.05556C5.11256 56.7642 4.20819 56.3578 3.5414 55.6344C2.8746 54.9111 2.5 53.93 2.5 52.907V6.6213C2.5 5.59833 2.8746 4.61725 3.5414 3.89389C4.20819 3.17054 5.11256 2.76416 6.05556 2.76416ZM30.9444 22.0499C30.9444 24.0958 30.1952 26.058 28.8616 27.5047C27.5281 28.9514 25.7193 29.7642 23.8333 29.7642C21.9473 29.7642 20.1386 28.9514 18.805 27.5047C17.4714 26.058 16.7222 24.0958 16.7222 22.0499C16.7222 20.0039 17.4714 18.0418 18.805 16.5951C20.1386 15.1483 21.9473 14.3356 23.8333 14.3356C25.7193 14.3356 27.5281 15.1483 28.8616 16.5951C30.1952 18.0418 30.9444 20.0039 30.9444 22.0499Z" stroke="#1F2937" stroke-width="4" stroke-linecap="round"/>
</svg>
