<svg width="81" height="79" viewBox="0 0 81 79" fill="none" xmlns="http://www.w3.org/2000/svg">
<path d="M23.2005 47.1703C30.104 47.1703 35.7205 41.5572 35.7205 34.6576C35.7205 27.758 30.1042 22.145 23.2005 22.145C16.2968 22.145 10.6805 27.758 10.6805 34.6576C10.6805 41.5572 16.297 47.1703 23.2005 47.1703ZM23.2005 24.6748C28.7083 24.6748 33.1893 29.153 33.1893 34.6576C33.1893 40.1622 28.7083 44.6406 23.2005 44.6406C17.6926 44.6406 13.2117 40.1623 13.2117 34.6576C13.2119 29.1532 17.6926 24.6748 23.2005 24.6748ZM79.7344 39.9274H37.6255C36.9265 39.9274 36.3598 40.4937 36.3598 41.1922V49.2303C35.3321 48.894 34.2701 48.6751 33.1848 48.5766C32.6183 48.5256 32.085 48.8589 31.8852 49.3926L29.3954 56.0363L27.4068 61.2544L26.3606 55.7152L29.2524 50.3847C29.465 49.9927 29.4555 49.5179 29.2272 49.1347C28.9991 48.7516 28.5859 48.5169 28.1397 48.5169H18.2612C17.8151 48.5169 17.4019 48.7516 17.1737 49.1347C16.9456 49.5179 16.936 49.9927 17.1486 50.3847L20.0405 55.7152L18.9943 61.2544L17.0081 56.0428L14.5158 49.3924C14.316 48.8588 13.7836 48.5253 13.2161 48.5764C9.62903 48.9021 6.29886 50.5543 3.83912 53.2289C1.36339 55.9209 0 59.4054 0 63.0408V76.9188C0 77.6174 0.566684 78.1837 1.26562 78.1837H45.1353C45.8343 78.1837 46.401 77.6174 46.401 76.9188V68.4059H50.6907V76.9188C50.6907 77.6174 51.2573 78.1837 51.9563 78.1837C52.6552 78.1837 53.2219 77.6174 53.2219 76.9188V68.4059H64.1379V76.9188C64.1379 77.6174 64.7046 78.1837 65.4035 78.1837C66.1025 78.1837 66.6692 77.6174 66.6692 76.9188V68.4059H79.7344C80.4333 68.4059 81 67.8396 81 67.1411V41.1922C81 40.4937 80.4333 39.9274 79.7344 39.9274ZM2.53125 75.654V63.0408C2.53125 57.2191 6.83754 52.2017 12.498 51.2208L14.6403 56.9367L21.7735 75.654H2.53125ZM20.7165 65.7739L22.6112 55.7425C22.6651 55.4565 22.6189 55.1607 22.48 54.9049L20.3868 51.0467H26.0137L23.9206 54.905C23.7819 55.1607 23.7355 55.4565 23.7895 55.7425L25.6841 65.7738L23.2002 72.2913L20.7165 65.7739ZM43.8697 75.654H24.6275L31.7632 56.9301L33.9031 51.2201C34.7452 51.3651 35.5666 51.6012 36.3597 51.9244V67.1411C36.3597 67.8396 36.9263 68.4059 37.6253 68.4059H43.8696L43.8697 75.654ZM78.4688 65.8762H38.8911V42.4571H78.4688V65.8762ZM72.3907 61.1935V46.1731C72.3907 45.4746 72.9574 44.9083 73.6564 44.9083C74.3553 44.9083 74.922 45.4746 74.922 46.1731V61.1935C74.922 61.892 74.3553 62.4584 73.6564 62.4584C72.9574 62.4584 72.3907 61.892 72.3907 61.1935ZM67.3282 61.1935V48.3076C67.3282 47.6091 67.8949 47.0427 68.5939 47.0427C69.2928 47.0427 69.8595 47.6091 69.8595 48.3076V61.1935C69.8595 61.892 69.2928 62.4584 68.5939 62.4584C67.8949 62.4584 67.3282 61.892 67.3282 61.1935ZM62.2657 61.1935V51.786C62.2657 51.0875 62.8324 50.5211 63.5314 50.5211C64.2303 50.5211 64.797 51.0875 64.797 51.786V61.1935C64.797 61.892 64.2303 62.4584 63.5314 62.4584C62.8324 62.4584 62.2657 61.892 62.2657 61.1935ZM58.4689 53.4462C59.1678 53.4462 59.7345 54.0125 59.7345 54.711V61.1935C59.7345 61.892 59.1678 62.4584 58.4689 62.4584C57.7699 62.4584 57.2032 61.892 57.2032 61.1935V54.711C57.2032 54.0125 57.7699 53.4462 58.4689 53.4462ZM46.9199 62.4584C50.9325 62.4584 54.1972 59.1956 54.1972 55.1853C54.1972 54.4868 53.6305 53.9205 52.9316 53.9205H48.1855V49.1772C48.1855 48.4787 47.6188 47.9123 46.9199 47.9123C42.9072 47.9123 39.6427 51.1751 39.6427 55.1853C39.6427 59.1956 42.9072 62.4584 46.9199 62.4584ZM45.6543 50.6133V55.1853C45.6543 55.8839 46.2209 56.4502 46.9199 56.4502H51.4946C50.9394 58.4536 49.0987 59.9286 46.9199 59.9286C44.3029 59.9286 42.1739 57.8008 42.1739 55.1853C42.1739 53.0079 43.6498 51.1683 45.6543 50.6133ZM50.4399 52.7547H56.4516C57.1506 52.7547 57.7172 52.1884 57.7172 51.4899C57.7172 47.4796 54.4526 44.2169 50.4399 44.2169C49.741 44.2169 49.1743 44.7832 49.1743 45.4817V51.4899C49.1743 52.1884 49.741 52.7547 50.4399 52.7547ZM51.7055 46.9178C53.307 47.3612 54.5711 48.6245 55.0147 50.225H51.7055V46.9178ZM41.1709 29.2313C41.8966 29.9564 42.8493 30.3188 43.8025 30.3188C44.6949 30.3188 45.5851 29.9965 46.2909 29.3606L51.3518 34.4185C51.8228 34.8889 52.4412 35.1242 53.0597 35.1242C53.6783 35.1242 54.2969 34.8889 54.768 34.4182L56.1241 33.0629C57.0659 32.1217 57.0659 30.5899 56.1241 29.6487L51.1649 24.6925C54.5695 21.6422 57.9098 19.3164 62.9391 17.2266C63.8919 16.8307 64.5535 16.0235 64.7543 15.0118C64.9549 14.0002 64.6515 13.0017 63.9218 12.2725L61.0667 9.41914C61.3747 8.83998 61.5383 8.18952 61.5383 7.51297C61.5383 6.42677 61.117 5.40775 60.3523 4.64361C59.5875 3.87916 58.5679 3.45827 57.481 3.45827C56.8041 3.45827 56.1533 3.62176 55.5738 3.92959L52.7187 1.0762C51.989 0.34716 50.9901 0.0435913 49.9776 0.244232C48.9654 0.44503 48.1577 1.10608 47.7617 2.05822C44.7066 9.40143 41.1687 13.0773 35.815 18.6369C34.3734 20.0877 34.3763 22.4405 35.8242 23.8877L41.1709 29.2313ZM54.2526 31.3558L53.0599 32.5478L48.0968 27.5874C48.5071 27.1855 48.9104 26.7945 49.3083 26.4146L54.2526 31.3558ZM58.5625 6.4323C58.8114 6.681 58.9628 7.00323 58.9985 7.35218L57.6419 5.99639C57.9913 6.03228 58.3137 6.18359 58.5625 6.4323ZM50.0988 3.02932C50.171 2.85572 50.2857 2.76212 50.4698 2.72559C50.5116 2.71721 50.5511 2.7131 50.5888 2.7131C50.7177 2.7131 50.8258 2.76227 50.9286 2.86505L62.1319 14.0615C62.2649 14.1943 62.3078 14.3357 62.2713 14.52C62.2349 14.7042 62.1411 14.8186 61.9674 14.8908C56.6268 17.11 53.0471 19.6104 49.3774 22.9058L42.1013 15.6339C45.2684 12.0637 47.8378 8.464 50.0988 3.02932ZM37.6139 20.4166C37.6196 20.4109 37.6253 20.405 37.6308 20.3993C38.5986 19.3944 39.5171 18.44 40.3929 17.5045L47.5204 24.6281C46.8352 25.2813 46.1363 25.9641 45.4132 26.6794C45.4106 26.6819 45.4078 26.6842 45.4051 26.6867C45.403 26.6887 45.4013 26.6911 45.3992 26.6932C45.1509 26.9389 44.9006 27.1871 44.6459 27.4407C44.6454 27.4413 44.6448 27.4418 44.6443 27.4424C44.1798 27.9063 43.4247 27.9063 42.9608 27.4424L37.6139 22.099C37.1499 21.635 37.1499 20.8801 37.6139 20.4166Z" fill="#00AFCC"/>
</svg>
