<svg width="80" height="56" viewBox="0 0 80 56" fill="none" xmlns="http://www.w3.org/2000/svg">
<path d="M79.4662 19.3644L71.4912 3.40814C71.1974 2.82084 70.7908 2.29718 70.2946 1.86704C69.7984 1.4369 69.2223 1.10872 68.5993 0.901232C67.9762 0.693746 67.3185 0.611022 66.6634 0.657783C66.0084 0.704544 65.369 0.879875 64.7818 1.17376L57.0099 5.05814L40.638 0.726887C40.218 0.617568 39.7769 0.617568 39.3568 0.726887L22.9849 5.05814L15.213 1.17376C14.6258 0.879875 13.9864 0.704544 13.3314 0.657783C12.6764 0.611022 12.0186 0.693746 11.3956 0.901232C10.7725 1.10872 10.1965 1.4369 9.70026 1.86704C9.20407 2.29718 8.79746 2.82084 8.50367 3.40814L0.528672 19.3613C0.234784 19.9485 0.059454 20.5879 0.012693 21.2429C-0.034068 21.8979 0.0486565 22.5557 0.256142 23.1788C0.463628 23.8018 0.79181 24.3779 1.22195 24.8741C1.65209 25.3702 2.17575 25.7768 2.76305 26.0706L11.2005 30.2925L28.5412 42.6769C28.7968 42.8584 29.084 42.9909 29.388 43.0675L49.388 48.0675C49.8069 48.1726 50.2458 48.1673 50.662 48.0523C51.0782 47.9373 51.4576 47.7164 51.763 47.4113L68.9724 30.1988L77.2287 26.0706C78.4139 25.4773 79.3151 24.4376 79.7341 23.18C80.1531 21.9225 80.0556 20.5501 79.463 19.3644H79.4662ZM62.313 29.7925L51.5599 21.18C51.0782 20.7942 50.4708 20.6003 49.8546 20.6355C49.2385 20.6706 48.6571 20.9325 48.2224 21.3706C42.6568 26.9769 36.4537 26.2675 32.4974 23.7675L46.0099 10.6425H55.9505L64.4537 27.6456L62.313 29.7925ZM12.9755 5.64251L19.3724 8.83626L11.3818 24.7894L4.99742 21.5988L12.9755 5.64251ZM49.2255 42.8706L31.0662 38.3331L15.6912 27.3519L24.4412 9.85189L39.9974 5.73001L43.0599 6.53939L28.9974 20.1894L28.9724 20.2175C28.4431 20.7469 28.0393 21.3883 27.791 22.0946C27.5427 22.8008 27.4561 23.5538 27.5377 24.298C27.6193 25.0421 27.867 25.7585 28.2624 26.3941C28.6578 27.0298 29.1909 27.5685 29.8224 27.9706C36.2474 32.0738 44.0005 31.4081 50.1068 26.4081L58.7474 33.3488L49.2255 42.8706ZM68.6005 24.7863L60.6255 8.84876L67.0193 5.64251L74.9974 21.5988L68.6005 24.7863ZM41.1787 53.7456C41.0436 54.286 40.732 54.7657 40.2932 55.1088C39.8545 55.4519 39.3138 55.6386 38.7568 55.6394C38.5514 55.6395 38.3467 55.6143 38.1474 55.5644L25.1255 52.3081C24.821 52.2329 24.5336 52.1003 24.2787 51.9175L16.0443 46.0363C15.538 45.6387 15.2045 45.0612 15.1134 44.424C15.0222 43.7868 15.1804 43.1389 15.5549 42.6154C15.9294 42.0918 16.4915 41.7329 17.124 41.6134C17.7565 41.4939 18.4108 41.623 18.9505 41.9738L26.7974 47.58L39.3724 50.7175C40.0155 50.8784 40.5684 51.2881 40.9095 51.8565C41.2505 52.425 41.3519 53.1056 41.1912 53.7488L41.1787 53.7456Z" fill="#1F2937"/>
</svg>
