<svg width="81" height="56" viewBox="0 0 81 56" fill="none" xmlns="http://www.w3.org/2000/svg">
<path d="M79.9662 19.2083L71.9912 3.25201C71.6974 2.66472 71.2908 2.14105 70.7946 1.71091C70.2984 1.28077 69.7223 0.95259 69.0993 0.745104C68.4762 0.537618 67.8185 0.454894 67.1634 0.501655C66.5084 0.548416 65.869 0.723747 65.2818 1.01763L57.5099 4.90201L41.138 0.570759C40.718 0.46144 40.2769 0.46144 39.8568 0.570759L23.4849 4.90201L15.713 1.01763C15.1258 0.723747 14.4864 0.548416 13.8314 0.501655C13.1764 0.454894 12.5186 0.537618 11.8956 0.745104C11.2725 0.95259 10.6965 1.28077 10.2003 1.71091C9.70407 2.14105 9.29746 2.66472 9.00367 3.25201L1.02867 19.2051C0.734784 19.7924 0.559454 20.4318 0.512693 21.0868C0.465932 21.7418 0.548656 22.3996 0.756142 23.0226C0.963628 23.6457 1.29181 24.2217 1.72195 24.7179C2.15209 25.2141 2.67575 25.6207 3.26305 25.9145L11.7005 30.1364L29.0412 42.5208C29.2968 42.7023 29.584 42.8348 29.888 42.9114L49.888 47.9114C50.3069 48.0164 50.7458 48.0112 51.162 47.8962C51.5782 47.7812 51.9576 47.5603 52.263 47.2551L69.4724 30.0426L77.7287 25.9145C78.9139 25.3212 79.8151 24.2815 80.2341 23.0239C80.6531 21.7664 80.5556 20.3939 79.963 19.2083H79.9662ZM62.813 29.6364L52.0599 21.0239C51.5782 20.6381 50.9708 20.4441 50.3546 20.4793C49.7385 20.5145 49.1571 20.7764 48.7224 21.2145C43.1568 26.8208 36.9537 26.1114 32.9974 23.6114L46.5099 10.4864H56.4505L64.9537 27.4895L62.813 29.6364ZM13.4755 5.48638L19.8724 8.68013L11.8818 24.6333L5.49742 21.4426L13.4755 5.48638ZM49.7255 42.7145L31.5662 38.177L16.1912 27.1958L24.9412 9.69576L40.4974 5.57388L43.5599 6.38326L29.4974 20.0333L29.4724 20.0614C28.9431 20.5907 28.5393 21.2322 28.291 21.9384C28.0427 22.6447 27.9561 23.3977 28.0377 24.1418C28.1193 24.886 28.367 25.6023 28.7624 26.238C29.1578 26.8737 29.6909 27.4124 30.3224 27.8145C36.7474 31.9176 44.5005 31.252 50.6068 26.252L59.2474 33.1926L49.7255 42.7145ZM69.1005 24.6301L61.1255 8.69263L67.5193 5.48638L75.4974 21.4426L69.1005 24.6301ZM41.6787 53.5895C41.5436 54.1298 41.232 54.6096 40.7932 54.9527C40.3545 55.2957 39.8138 55.4825 39.2568 55.4833C39.0514 55.4834 38.8467 55.4582 38.6474 55.4083L25.6255 52.152C25.321 52.0768 25.0336 51.9442 24.7787 51.7614L16.5443 45.8801C16.038 45.4826 15.7045 44.9051 15.6134 44.2679C15.5222 43.6306 15.6804 42.9828 16.0549 42.4592C16.4294 41.9357 16.9915 41.5768 17.624 41.4573C18.2565 41.3378 18.9108 41.4668 19.4505 41.8176L27.2974 47.4239L39.8724 50.5614C40.5155 50.7223 41.0684 51.132 41.4095 51.7004C41.7505 52.2689 41.8519 52.9495 41.6912 53.5926L41.6787 53.5895Z" fill="#1F2937"/>
</svg>
