<svg width="40" height="33" viewBox="0 0 40 33" fill="none" xmlns="http://www.w3.org/2000/svg">
<path d="M2.5 2.47534L19 13.4753L24.4688 9.82884L35.5 2.47534M30 29.9753L36.1417 23.9547C36.5183 23.5892 36.8179 23.152 37.0227 22.6688C37.2276 22.1856 37.3336 21.6663 37.3345 21.1415C37.3353 20.6167 37.231 20.0971 37.0277 19.6132C36.8244 19.1294 36.5263 18.6912 36.1508 18.3245C35.3852 17.5744 34.3566 17.1534 33.2848 17.1514C32.213 17.1493 31.1828 17.5664 30.4143 18.3135L30.0037 18.7168L29.5948 18.3135C28.8293 17.564 27.8011 17.1433 26.7297 17.1413C25.6584 17.1392 24.6286 17.5559 23.8602 18.3025C23.4834 18.6679 23.1837 19.105 22.9787 19.5881C22.7736 20.0712 22.6675 20.5905 22.6665 21.1153C22.6654 21.6401 22.7696 22.1598 22.9727 22.6437C23.1758 23.1276 23.4738 23.5659 23.8492 23.9327L30 29.9753Z" stroke="#1F2937" stroke-width="4" stroke-linecap="round"/>
</svg>
