<svg width="55" height="68" viewBox="0 0 55 68" fill="none" xmlns="http://www.w3.org/2000/svg">
<path d="M10.8333 0.430847H44.1666C46.8188 0.430847 49.3624 1.48442 51.2377 3.35978C53.1131 5.23514 54.1666 7.77868 54.1666 10.4308V57.0975C54.1666 59.7497 53.1131 62.2932 51.2377 64.1686C49.3624 66.0439 46.8188 67.0975 44.1666 67.0975H10.8333C8.18115 67.0975 5.63761 66.0439 3.76225 64.1686C1.88688 62.2932 0.833313 59.7497 0.833313 57.0975L0.833313 10.4308C0.833313 7.77868 1.88688 5.23514 3.76225 3.35978C5.63761 1.48442 8.18115 0.430847 10.8333 0.430847ZM10.8333 7.09751C9.94926 7.09751 9.10141 7.4487 8.47629 8.07382C7.85117 8.69895 7.49998 9.54679 7.49998 10.4308V57.0975C7.49998 57.9816 7.85117 58.8294 8.47629 59.4545C9.10141 60.0797 9.94926 60.4308 10.8333 60.4308H44.1666C45.0507 60.4308 45.8985 60.0797 46.5237 59.4545C47.1488 58.8294 47.5 57.9816 47.5 57.0975V10.4308C47.5 9.54679 47.1488 8.69895 46.5237 8.07382C45.8985 7.4487 45.0507 7.09751 44.1666 7.09751H10.8333ZM17.5 10.4308H37.5C38.384 10.4308 39.2319 10.782 39.857 11.4072C40.4821 12.0323 40.8333 12.8801 40.8333 13.7642C40.8333 14.6482 40.4821 15.4961 39.857 16.1212C39.2319 16.7463 38.384 17.0975 37.5 17.0975H17.5C16.6159 17.0975 15.7681 16.7463 15.143 16.1212C14.5178 15.4961 14.1666 14.6482 14.1666 13.7642C14.1666 12.8801 14.5178 12.0323 15.143 11.4072C15.7681 10.782 16.6159 10.4308 17.5 10.4308ZM17.5 50.4308H24.1666C25.0507 50.4308 25.8985 50.782 26.5237 51.4072C27.1488 52.0323 27.5 52.8801 27.5 53.7642C27.5 54.6482 27.1488 55.4961 26.5237 56.1212C25.8985 56.7463 25.0507 57.0975 24.1666 57.0975H17.5C16.6159 57.0975 15.7681 56.7463 15.143 56.1212C14.5178 55.4961 14.1666 54.6482 14.1666 53.7642C14.1666 52.8801 14.5178 52.0323 15.143 51.4072C15.7681 50.782 16.6159 50.4308 17.5 50.4308ZM17.5 37.0975H37.5C38.384 37.0975 39.2319 37.4487 39.857 38.0738C40.4821 38.6989 40.8333 39.5468 40.8333 40.4308C40.8333 41.3149 40.4821 42.1627 39.857 42.7879C39.2319 43.413 38.384 43.7642 37.5 43.7642H17.5C16.6159 43.7642 15.7681 43.413 15.143 42.7879C14.5178 42.1627 14.1666 41.3149 14.1666 40.4308C14.1666 39.5468 14.5178 38.6989 15.143 38.0738C15.7681 37.4487 16.6159 37.0975 17.5 37.0975ZM17.5 23.7642H37.5C38.384 23.7642 39.2319 24.1154 39.857 24.7405C40.4821 25.3656 40.8333 26.2135 40.8333 27.0975C40.8333 27.9816 40.4821 28.8294 39.857 29.4545C39.2319 30.0797 38.384 30.4308 37.5 30.4308H17.5C16.6159 30.4308 15.7681 30.0797 15.143 29.4545C14.5178 28.8294 14.1666 27.9816 14.1666 27.0975C14.1666 26.2135 14.5178 25.3656 15.143 24.7405C15.7681 24.1154 16.6159 23.7642 17.5 23.7642Z" fill="#1F2937"/>
</svg>
