<svg xmlns="http://www.w3.org/2000/svg" xmlns:xlink="http://www.w3.org/1999/xlink" width="248" zoomAndPan="magnify" viewBox="0 0 186 72.749997" height="100" preserveAspectRatio="xMidYMid meet" version="1.0"><defs><clipPath id="944f8aa12c"><path d="M 17 35 L 55.40625 35 L 55.40625 72.5 L 17 72.5 Z M 17 35 " clip-rule="nonzero"/></clipPath><clipPath id="b6f2fc8d15"><path d="M 68.40625 10 L 123 10 L 123 32.195312 L 68.40625 32.195312 Z M 68.40625 10 " clip-rule="nonzero"/></clipPath><clipPath id="f555a30f11"><path d="M 115 2.664062 L 127.480469 2.664062 L 127.480469 20 L 115 20 Z M 115 2.664062 " clip-rule="nonzero"/></clipPath></defs><g clip-path="url(#944f8aa12c)"><path fill="#4b5563" d="M 36.542969 54.1875 C 33.984375 54.1875 31.792969 53.28125 29.972656 51.460938 C 28.152344 49.644531 27.242188 47.457031 27.242188 44.902344 C 27.242188 42.351562 28.152344 40.164062 29.972656 38.347656 C 31.792969 36.527344 33.984375 35.621094 36.542969 35.621094 C 39.101562 35.621094 41.289062 36.527344 43.109375 38.347656 C 44.933594 40.164062 45.84375 42.351562 45.84375 44.902344 C 45.84375 47.457031 44.933594 49.644531 43.109375 51.460938 C 41.289062 53.28125 39.101562 54.1875 36.542969 54.1875 Z M 17.941406 68.117188 L 17.941406 66.257812 C 17.941406 64.941406 18.28125 63.734375 18.960938 62.632812 C 19.636719 61.53125 20.539062 60.6875 21.660156 60.109375 C 24.0625 58.910156 26.503906 58.007812 28.984375 57.410156 C 31.464844 56.8125 33.984375 56.511719 36.542969 56.511719 C 39.101562 56.507812 41.617188 56.808594 44.097656 57.410156 C 46.578125 58.011719 49.019531 58.910156 51.421875 60.109375 C 52.546875 60.6875 53.449219 61.53125 54.128906 62.632812 C 54.804688 63.734375 55.144531 64.945312 55.144531 66.257812 L 55.144531 68.117188 C 55.144531 69.390625 54.6875 70.484375 53.777344 71.394531 C 52.867188 72.304688 51.773438 72.757812 50.492188 72.757812 L 22.589844 72.757812 C 21.3125 72.757812 20.21875 72.304688 19.308594 71.394531 C 18.398438 70.488281 17.941406 69.394531 17.941406 68.117188 Z M 17.941406 68.117188 " fill-opacity="1" fill-rule="nonzero"/></g><path fill="#00afcc" d="M 110.175781 39.03125 C 109.902344 39.605469 110.679688 40.476562 111.265625 41.351562 C 111.847656 42.222656 111.859375 42.234375 113.195312 44.222656 C 105.710938 44.226562 98.246094 43.960938 90.761719 43.984375 C 89.992188 43.980469 89.996094 43.984375 89.753906 43.78125 C 88.070312 42.117188 86.414062 40.425781 84.714844 38.777344 C 84.082031 38.246094 83.476562 38.257812 82.457031 38.277344 C 81.230469 38.382812 76.507812 37.667969 78.027344 40.273438 C 78.542969 41.007812 79.304688 41.523438 79.894531 42.191406 C 80.5 42.792969 81.097656 43.398438 81.710938 43.992188 C 80.753906 44.035156 79.511719 43.855469 78.714844 44.015625 C 77.917969 44.175781 77.792969 44.554688 77.796875 45.105469 C 77.800781 45.660156 77.96875 46.371094 78.675781 46.414062 C 79.386719 46.453125 80.890625 46.425781 81.773438 46.425781 C 80.742188 47.46875 79.671875 48.476562 78.671875 49.550781 C 78.199219 50.046875 77.554688 51.011719 78.101562 51.492188 C 78.796875 51.960938 80.003906 51.839844 81.058594 51.859375 C 82.113281 51.878906 83.285156 51.953125 84.414062 51.828125 C 85.234375 51.632812 85.710938 50.84375 86.316406 50.320312 C 87.535156 49.109375 88.742188 47.882812 89.964844 46.675781 C 97.40625 46.648438 104.855469 46.683594 112.296875 46.648438 C 112.574219 46.648438 112.847656 46.644531 113.121094 46.632812 C 112.167969 47.632812 111.171875 48.59375 110.207031 49.582031 C 109.765625 50.035156 109.566406 50.835938 110.0625 51.320312 C 110.480469 51.839844 111.328125 51.921875 111.789062 51.414062 C 113.535156 49.710938 115.253906 47.976562 116.964844 46.238281 C 117.449219 45.816406 116.605469 44.417969 115.058594 42.042969 C 113.847656 40.277344 112.054688 36.535156 110.175781 39.03125 Z M 84.117188 41.515625 C 84.117188 41.515625 85.578125 43.320312 86.433594 44.179688 C 85.96875 44.160156 85.464844 44.242188 85.023438 44.15625 C 83.976562 43.167969 83.007812 41.871094 81.984375 40.859375 C 82.457031 40.863281 83.621094 41.027344 83.621094 41.027344 Z M 85.476562 47.703125 C 84.882812 48.269531 84.316406 48.894531 83.707031 49.429688 C 83.246094 49.457031 82.789062 49.460938 82.328125 49.449219 C 83.296875 48.507812 84.242188 47.535156 85.203125 46.585938 C 85.667969 46.523438 86.144531 46.550781 86.613281 46.5625 Z M 85.476562 47.703125 " fill-opacity="1" fill-rule="nonzero"/><path fill="#00afcc" d="M 84.65625 55.375 C 84.929688 55.949219 84.148438 56.824219 83.566406 57.695312 C 82.980469 58.566406 82.96875 58.578125 81.632812 60.566406 C 89.117188 60.570312 96.585938 60.304688 104.070312 60.328125 C 104.835938 60.328125 104.835938 60.328125 105.078125 60.128906 C 106.761719 58.464844 108.417969 56.769531 110.113281 55.121094 C 110.75 54.59375 111.355469 54.601562 112.375 54.621094 C 113.601562 54.726562 118.324219 54.015625 116.804688 56.621094 C 116.289062 57.355469 115.527344 57.867188 114.9375 58.535156 C 114.332031 59.136719 113.734375 59.746094 113.117188 60.335938 C 114.074219 60.378906 115.316406 60.203125 116.117188 60.359375 C 116.914062 60.519531 117.039062 60.898438 117.035156 61.453125 C 117.027344 62.003906 116.859375 62.71875 116.152344 62.757812 C 115.445312 62.800781 113.941406 62.773438 113.054688 62.769531 C 114.089844 63.8125 115.160156 64.820312 116.160156 65.894531 C 116.632812 66.394531 117.277344 67.359375 116.730469 67.835938 C 116.035156 68.304688 114.828125 68.183594 113.773438 68.203125 C 112.71875 68.222656 111.546875 68.296875 110.417969 68.175781 C 109.59375 67.976562 109.121094 67.1875 108.515625 66.664062 C 107.292969 65.453125 106.089844 64.230469 104.867188 63.019531 C 97.425781 62.992188 89.976562 63.027344 82.53125 62.992188 C 82.257812 62.996094 81.984375 62.988281 81.707031 62.976562 C 82.660156 63.980469 83.660156 64.9375 84.625 65.929688 C 85.0625 66.382812 85.265625 67.179688 84.765625 67.667969 C 84.351562 68.183594 83.503906 68.265625 83.042969 67.761719 C 81.296875 66.058594 79.574219 64.324219 77.867188 62.585938 C 77.378906 62.160156 78.226562 60.761719 79.773438 58.386719 C 80.980469 56.625 82.777344 52.882812 84.65625 55.375 Z M 110.714844 57.863281 C 110.714844 57.863281 109.253906 59.664062 108.398438 60.527344 C 108.863281 60.503906 109.367188 60.585938 109.804688 60.5 C 110.855469 59.511719 111.820312 58.21875 112.847656 57.203125 C 112.371094 57.207031 111.210938 57.371094 111.210938 57.371094 Z M 109.351562 64.046875 C 109.949219 64.617188 110.511719 65.242188 111.125 65.777344 C 111.582031 65.800781 112.042969 65.804688 112.503906 65.792969 C 111.53125 64.851562 110.589844 63.882812 109.628906 62.929688 C 109.160156 62.867188 108.6875 62.894531 108.21875 62.90625 Z M 109.351562 64.046875 " fill-opacity="1" fill-rule="nonzero"/><path fill="#4b5563" d="M 167.324219 58.832031 L 164.226562 58.832031 L 164.226562 61.925781 L 167.324219 61.925781 M 167.324219 52.640625 L 164.226562 52.640625 L 164.226562 55.734375 L 167.324219 55.734375 M 170.425781 65.019531 L 158.023438 65.019531 L 158.023438 61.925781 L 161.125 61.925781 L 161.125 58.832031 L 158.023438 58.832031 L 158.023438 55.734375 L 161.125 55.734375 L 161.125 52.640625 L 158.023438 52.640625 L 158.023438 49.546875 L 170.425781 49.546875 M 154.925781 46.453125 L 151.824219 46.453125 L 151.824219 43.355469 L 154.925781 43.355469 M 154.925781 52.640625 L 151.824219 52.640625 L 151.824219 49.546875 L 154.925781 49.546875 M 154.925781 58.832031 L 151.824219 58.832031 L 151.824219 55.734375 L 154.925781 55.734375 M 154.925781 65.019531 L 151.824219 65.019531 L 151.824219 61.925781 L 154.925781 61.925781 M 148.722656 46.453125 L 145.625 46.453125 L 145.625 43.355469 L 148.722656 43.355469 M 148.722656 52.640625 L 145.625 52.640625 L 145.625 49.546875 L 148.722656 49.546875 M 148.722656 58.832031 L 145.625 58.832031 L 145.625 55.734375 L 148.722656 55.734375 M 148.722656 65.019531 L 145.625 65.019531 L 145.625 61.925781 L 148.722656 61.925781 M 158.023438 46.453125 L 158.023438 40.261719 L 142.523438 40.261719 L 142.523438 68.117188 L 173.527344 68.117188 L 173.527344 46.453125 Z M 158.023438 46.453125 " fill-opacity="1" fill-rule="nonzero"/><g clip-path="url(#b6f2fc8d15)"><path fill="#00accc" d="M 120.648438 19.882812 C 120.179688 20.472656 119.457031 20.816406 118.6875 20.816406 C 118.296875 20.816406 117.9375 20.734375 117.609375 20.566406 C 116.589844 20.082031 116.019531 18.980469 116.222656 17.867188 L 116.914062 14.136719 L 116.757812 14.136719 C 115.886719 14.136719 115.089844 13.695312 114.632812 12.960938 C 114.1875 12.316406 114.113281 11.390625 114.472656 10.605469 L 114.742188 10.003906 L 71.71875 10.003906 C 69.894531 10.003906 68.40625 11.480469 68.40625 13.308594 L 68.40625 23.132812 C 68.40625 24.953125 69.894531 26.441406 71.71875 26.441406 L 83.355469 26.441406 L 83.089844 31.222656 C 83.089844 31.558594 83.292969 31.859375 83.609375 31.992188 C 83.710938 32.035156 83.820312 32.058594 83.925781 32.058594 C 84.144531 32.058594 84.363281 31.96875 84.519531 31.808594 L 87.042969 26.441406 L 119.222656 26.441406 C 121.058594 26.441406 122.535156 24.953125 122.535156 23.132812 L 122.535156 17.535156 L 120.644531 19.882812 Z M 120.648438 19.882812 " fill-opacity="1" fill-rule="nonzero"/></g><g clip-path="url(#f555a30f11)"><path fill="#00accc" d="M 127.398438 8.191406 C 127.265625 7.910156 126.972656 7.726562 126.644531 7.726562 L 124.335938 7.726562 L 125.824219 3.792969 C 125.917969 3.53125 125.882812 3.25 125.726562 3.023438 C 125.574219 2.800781 125.316406 2.664062 125.039062 2.664062 L 120.464844 2.664062 C 120.136719 2.664062 119.835938 2.855469 119.703125 3.15625 L 115.996094 11.425781 C 115.878906 11.683594 115.894531 11.984375 116.054688 12.21875 C 116.207031 12.460938 116.472656 12.601562 116.757812 12.601562 L 118.925781 12.601562 L 117.871094 18.296875 C 117.804688 18.671875 117.996094 19.050781 118.347656 19.207031 C 118.457031 19.265625 118.570312 19.285156 118.691406 19.285156 C 118.941406 19.285156 119.183594 19.175781 119.34375 18.972656 L 127.296875 9.078125 C 127.5 8.828125 127.539062 8.484375 127.398438 8.191406 Z M 127.398438 8.191406 " fill-opacity="1" fill-rule="nonzero"/></g><path fill="#ffffff" d="M 73.507812 22.746094 L 81.464844 22.746094 L 81.464844 23.632812 L 73.507812 23.632812 Z M 72.5625 15.742188 L 81.375 15.742188 L 81.375 16.617188 L 72.5625 16.617188 Z M 73.050781 17.601562 L 73.976562 17.601562 L 73.976562 24.128906 L 73.050781 24.128906 Z M 75.851562 19.3125 L 75.851562 20 L 79.351562 20 L 79.351562 19.3125 Z M 75.851562 20.648438 L 75.851562 21.335938 L 79.351562 21.335938 L 79.351562 20.648438 Z M 75.851562 18 L 75.851562 18.667969 L 79.351562 18.667969 L 79.351562 18 Z M 74.953125 17.316406 L 80.285156 17.316406 L 80.285156 22.019531 L 74.953125 22.019531 Z M 76.609375 14.835938 L 77.707031 14.886719 C 77.671875 15.21875 77.628906 15.558594 77.574219 15.902344 C 77.523438 16.238281 77.46875 16.566406 77.417969 16.875 C 77.363281 17.1875 77.308594 17.464844 77.257812 17.703125 L 76.332031 17.621094 C 76.371094 17.371094 76.410156 17.082031 76.449219 16.757812 C 76.488281 16.433594 76.523438 16.101562 76.550781 15.761719 C 76.582031 15.425781 76.601562 15.117188 76.609375 14.835938 Z M 87.953125 14.867188 L 88.90625 14.867188 L 88.90625 16.21875 L 87.953125 16.21875 Z M 85.648438 15.882812 L 91.25 15.882812 L 91.25 16.6875 L 85.648438 16.6875 Z M 85.289062 18.191406 L 91.519531 18.191406 L 91.519531 18.996094 L 85.289062 18.996094 Z M 86.574219 16.757812 L 87.382812 16.597656 C 87.449219 16.765625 87.511719 16.941406 87.574219 17.136719 C 87.632812 17.320312 87.683594 17.503906 87.722656 17.683594 C 87.761719 17.855469 87.785156 18.011719 87.792969 18.148438 L 86.945312 18.347656 C 86.9375 18.210938 86.914062 18.046875 86.875 17.863281 C 86.839844 17.675781 86.796875 17.488281 86.746094 17.292969 C 86.699219 17.101562 86.640625 16.921875 86.574219 16.757812 Z M 89.464844 16.589844 L 90.382812 16.699219 C 90.285156 16.984375 90.175781 17.269531 90.0625 17.5625 C 89.957031 17.855469 89.859375 18.105469 89.765625 18.320312 L 88.957031 18.199219 C 89.019531 18.046875 89.082031 17.878906 89.148438 17.691406 C 89.214844 17.5 89.273438 17.308594 89.328125 17.117188 C 89.386719 16.917969 89.433594 16.742188 89.464844 16.589844 Z M 85.351562 19.863281 L 91.488281 19.863281 L 91.488281 20.667969 L 85.351562 20.667969 Z M 87.542969 18.796875 L 88.480469 18.976562 C 88.304688 19.359375 88.117188 19.769531 87.910156 20.199219 C 87.710938 20.625 87.507812 21.035156 87.304688 21.433594 C 87.105469 21.832031 86.917969 22.1875 86.746094 22.5 L 85.929688 22.21875 C 86.09375 21.921875 86.273438 21.578125 86.464844 21.183594 C 86.660156 20.792969 86.847656 20.390625 87.035156 19.972656 C 87.226562 19.546875 87.398438 19.15625 87.542969 18.796875 Z M 86.515625 22.148438 L 87.074219 21.523438 C 87.4375 21.628906 87.816406 21.753906 88.210938 21.902344 C 88.609375 22.039062 89 22.195312 89.386719 22.367188 C 89.773438 22.542969 90.132812 22.71875 90.472656 22.894531 C 90.8125 23.070312 91.101562 23.238281 91.339844 23.402344 L 90.742188 24.121094 C 90.515625 23.953125 90.238281 23.777344 89.914062 23.59375 C 89.589844 23.414062 89.234375 23.238281 88.847656 23.066406 C 88.464844 22.886719 88.070312 22.71875 87.671875 22.558594 C 87.273438 22.398438 86.886719 22.261719 86.515625 22.148438 Z M 89.464844 20.417969 L 90.375 20.527344 C 90.246094 21.097656 90.0625 21.589844 89.824219 22 C 89.585938 22.40625 89.269531 22.746094 88.878906 23.027344 C 88.492188 23.304688 88.015625 23.53125 87.441406 23.703125 C 86.878906 23.875 86.207031 24.015625 85.429688 24.121094 C 85.402344 23.988281 85.355469 23.847656 85.28125 23.703125 C 85.214844 23.554688 85.144531 23.4375 85.070312 23.34375 C 85.773438 23.277344 86.378906 23.179688 86.886719 23.046875 C 87.398438 22.914062 87.820312 22.734375 88.160156 22.507812 C 88.503906 22.277344 88.78125 21.992188 88.988281 21.652344 C 89.199219 21.308594 89.359375 20.894531 89.464844 20.417969 Z M 82.171875 20.082031 C 82.582031 19.988281 83.078125 19.863281 83.65625 19.710938 C 84.234375 19.554688 84.816406 19.390625 85.398438 19.226562 L 85.519531 20.070312 C 84.976562 20.230469 84.425781 20.390625 83.875 20.558594 C 83.332031 20.71875 82.832031 20.863281 82.378906 20.996094 Z M 82.359375 16.828125 L 85.417969 16.828125 L 85.417969 17.703125 L 82.359375 17.703125 Z M 83.636719 14.886719 L 84.53125 14.886719 L 84.53125 23.015625 C 84.53125 23.261719 84.507812 23.453125 84.453125 23.59375 C 84.398438 23.738281 84.300781 23.847656 84.152344 23.921875 C 84.007812 24 83.820312 24.050781 83.597656 24.070312 C 83.375 24.097656 83.097656 24.105469 82.757812 24.101562 C 82.746094 23.980469 82.710938 23.832031 82.660156 23.652344 C 82.605469 23.472656 82.550781 23.320312 82.488281 23.195312 C 82.703125 23.203125 82.898438 23.203125 83.078125 23.203125 C 83.261719 23.203125 83.386719 23.203125 83.445312 23.203125 C 83.511719 23.203125 83.558594 23.191406 83.585938 23.164062 C 83.621094 23.132812 83.636719 23.082031 83.636719 23.015625 Z M 92.496094 20.675781 L 101.296875 20.675781 L 101.296875 21.484375 L 92.496094 21.484375 Z M 92.554688 15.613281 L 96.550781 15.613281 L 96.550781 16.339844 L 92.554688 16.339844 Z M 96.78125 15.304688 L 100.667969 15.304688 L 100.667969 16.109375 L 96.78125 16.109375 Z M 92.695312 17.136719 L 96.421875 17.136719 L 96.421875 17.863281 L 92.695312 17.863281 Z M 97.460938 21.027344 C 97.746094 21.722656 98.222656 22.242188 98.894531 22.585938 C 99.566406 22.933594 100.457031 23.148438 101.566406 23.234375 C 101.492188 23.300781 101.417969 23.386719 101.347656 23.492188 C 101.273438 23.597656 101.203125 23.707031 101.136719 23.8125 C 101.078125 23.925781 101.027344 24.027344 100.988281 24.121094 C 100.191406 24.019531 99.507812 23.855469 98.933594 23.621094 C 98.371094 23.398438 97.894531 23.082031 97.507812 22.675781 C 97.128906 22.273438 96.820312 21.765625 96.582031 21.15625 Z M 100.339844 15.304688 L 101.226562 15.304688 C 101.226562 15.304688 101.226562 15.328125 101.226562 15.375 C 101.226562 15.421875 101.226562 15.472656 101.226562 15.535156 C 101.226562 15.59375 101.222656 15.644531 101.21875 15.683594 C 101.183594 16.5 101.148438 17.160156 101.105469 17.671875 C 101.074219 18.175781 101.027344 18.5625 100.96875 18.828125 C 100.914062 19.09375 100.84375 19.277344 100.757812 19.382812 C 100.671875 19.496094 100.574219 19.578125 100.46875 19.621094 C 100.371094 19.667969 100.25 19.703125 100.109375 19.722656 C 99.992188 19.734375 99.832031 19.746094 99.632812 19.753906 C 99.433594 19.753906 99.222656 19.75 99.003906 19.742188 C 98.996094 19.609375 98.972656 19.464844 98.925781 19.304688 C 98.882812 19.140625 98.828125 19.003906 98.753906 18.898438 C 98.953125 18.917969 99.136719 18.929688 99.304688 18.9375 C 99.46875 18.9375 99.589844 18.9375 99.660156 18.9375 C 99.742188 18.9375 99.804688 18.929688 99.851562 18.917969 C 99.898438 18.898438 99.941406 18.863281 99.980469 18.816406 C 100.039062 18.742188 100.089844 18.589844 100.128906 18.359375 C 100.171875 18.128906 100.207031 17.777344 100.238281 17.316406 C 100.273438 16.84375 100.304688 16.226562 100.339844 15.464844 Z M 92.375 19.054688 C 92.730469 19.023438 93.132812 18.980469 93.59375 18.925781 C 94.050781 18.875 94.535156 18.8125 95.046875 18.746094 C 95.558594 18.679688 96.070312 18.617188 96.582031 18.558594 L 96.613281 19.292969 C 95.867188 19.402344 95.128906 19.503906 94.390625 19.601562 C 93.660156 19.695312 93.019531 19.777344 92.464844 19.851562 Z M 98.117188 15.59375 L 98.996094 15.59375 C 98.96875 16.269531 98.898438 16.878906 98.785156 17.425781 C 98.679688 17.96875 98.488281 18.445312 98.21875 18.855469 C 97.945312 19.261719 97.535156 19.601562 96.992188 19.882812 C 96.945312 19.78125 96.867188 19.664062 96.761719 19.535156 C 96.65625 19.394531 96.550781 19.289062 96.453125 19.214844 C 96.917969 18.984375 97.261719 18.699219 97.488281 18.359375 C 97.722656 18.019531 97.878906 17.621094 97.957031 17.15625 C 98.039062 16.691406 98.089844 16.171875 98.117188 15.59375 Z M 94.160156 14.878906 L 95.039062 14.878906 L 95.039062 19.046875 L 94.160156 19.15625 Z M 96.332031 20.011719 L 97.300781 20.011719 L 97.300781 20.894531 C 97.300781 21.136719 97.265625 21.378906 97.199219 21.632812 C 97.132812 21.882812 97.011719 22.132812 96.832031 22.378906 C 96.660156 22.617188 96.40625 22.847656 96.074219 23.066406 C 95.742188 23.285156 95.304688 23.484375 94.769531 23.664062 C 94.238281 23.847656 93.578125 24.003906 92.796875 24.128906 C 92.734375 24.015625 92.652344 23.882812 92.546875 23.722656 C 92.441406 23.570312 92.339844 23.441406 92.246094 23.335938 C 92.964844 23.226562 93.566406 23.101562 94.050781 22.957031 C 94.542969 22.804688 94.9375 22.644531 95.238281 22.476562 C 95.542969 22.304688 95.773438 22.128906 95.925781 21.949219 C 96.085938 21.765625 96.191406 21.582031 96.242188 21.402344 C 96.304688 21.21875 96.332031 21.042969 96.332031 20.875 Z M 106.886719 19.246094 L 107.644531 18.867188 C 107.832031 19.097656 108.015625 19.351562 108.195312 19.621094 C 108.371094 19.886719 108.53125 20.152344 108.671875 20.417969 C 108.816406 20.683594 108.929688 20.921875 109.011719 21.136719 L 108.183594 21.574219 C 108.117188 21.359375 108.015625 21.121094 107.875 20.855469 C 107.734375 20.585938 107.578125 20.308594 107.40625 20.03125 C 107.238281 19.746094 107.066406 19.484375 106.886719 19.246094 Z M 107.058594 16.628906 L 110.765625 16.628906 L 110.765625 17.511719 L 107.058594 17.511719 Z M 110.367188 16.628906 L 111.273438 16.628906 C 111.273438 16.628906 111.273438 16.65625 111.273438 16.71875 C 111.273438 16.777344 111.273438 16.84375 111.273438 16.917969 C 111.273438 16.988281 111.273438 17.046875 111.273438 17.085938 C 111.234375 18.195312 111.191406 19.136719 111.144531 19.910156 C 111.105469 20.679688 111.058594 21.316406 111.003906 21.820312 C 110.949219 22.320312 110.886719 22.710938 110.816406 22.996094 C 110.742188 23.273438 110.65625 23.476562 110.554688 23.601562 C 110.429688 23.769531 110.296875 23.882812 110.15625 23.941406 C 110.023438 24 109.859375 24.042969 109.660156 24.070312 C 109.492188 24.089844 109.265625 24.101562 108.980469 24.101562 C 108.695312 24.101562 108.402344 24.09375 108.105469 24.082031 C 108.097656 23.941406 108.0625 23.78125 108.003906 23.601562 C 107.949219 23.421875 107.882812 23.269531 107.792969 23.136719 C 108.121094 23.160156 108.417969 23.179688 108.691406 23.183594 C 108.972656 23.191406 109.171875 23.195312 109.300781 23.195312 C 109.398438 23.195312 109.484375 23.183594 109.550781 23.164062 C 109.613281 23.136719 109.675781 23.09375 109.726562 23.027344 C 109.816406 22.9375 109.886719 22.761719 109.949219 22.5 C 110.015625 22.234375 110.070312 21.859375 110.117188 21.375 C 110.171875 20.882812 110.214844 20.265625 110.257812 19.523438 C 110.296875 18.773438 110.332031 17.875 110.367188 16.828125 Z M 107.296875 14.867188 L 108.261719 15.085938 C 108.128906 15.5625 107.964844 16.039062 107.765625 16.507812 C 107.566406 16.972656 107.351562 17.40625 107.117188 17.8125 C 106.882812 18.214844 106.640625 18.570312 106.390625 18.875 C 106.328125 18.824219 106.246094 18.761719 106.140625 18.6875 C 106.039062 18.613281 105.933594 18.546875 105.820312 18.480469 C 105.714844 18.40625 105.625 18.347656 105.550781 18.308594 C 105.8125 18.03125 106.050781 17.710938 106.269531 17.34375 C 106.488281 16.980469 106.683594 16.585938 106.859375 16.160156 C 107.03125 15.734375 107.175781 15.304688 107.296875 14.867188 Z M 103.75 14.878906 L 104.585938 15.183594 C 104.453125 15.429688 104.3125 15.691406 104.167969 15.960938 C 104.027344 16.226562 103.882812 16.480469 103.738281 16.726562 C 103.597656 16.972656 103.460938 17.183594 103.328125 17.363281 L 102.691406 17.097656 C 102.816406 16.898438 102.945312 16.667969 103.070312 16.410156 C 103.203125 16.152344 103.328125 15.886719 103.449219 15.625 C 103.570312 15.351562 103.667969 15.101562 103.75 14.878906 Z M 104.945312 16.03125 L 105.761719 16.371094 C 105.523438 16.746094 105.257812 17.144531 104.972656 17.5625 C 104.695312 17.972656 104.410156 18.375 104.117188 18.765625 C 103.832031 19.152344 103.558594 19.484375 103.300781 19.761719 L 102.710938 19.464844 C 102.90625 19.238281 103.105469 18.984375 103.308594 18.707031 C 103.515625 18.421875 103.71875 18.125 103.917969 17.8125 C 104.117188 17.5 104.304688 17.191406 104.476562 16.886719 C 104.65625 16.582031 104.8125 16.296875 104.945312 16.03125 Z M 102.195312 17.085938 L 102.652344 16.449219 C 102.832031 16.601562 103.015625 16.769531 103.199219 16.957031 C 103.394531 17.140625 103.566406 17.324219 103.71875 17.503906 C 103.878906 17.683594 104 17.847656 104.085938 18 L 103.597656 18.726562 C 103.511719 18.566406 103.394531 18.390625 103.238281 18.199219 C 103.085938 18.007812 102.917969 17.816406 102.730469 17.621094 C 102.550781 17.425781 102.371094 17.246094 102.195312 17.085938 Z M 104.664062 18.378906 L 105.34375 18.089844 C 105.484375 18.304688 105.617188 18.535156 105.742188 18.789062 C 105.875 19.03125 105.992188 19.273438 106.089844 19.511719 C 106.191406 19.753906 106.261719 19.964844 106.308594 20.148438 L 105.582031 20.488281 C 105.535156 20.304688 105.460938 20.089844 105.363281 19.851562 C 105.269531 19.605469 105.160156 19.355469 105.035156 19.09375 C 104.914062 18.835938 104.792969 18.597656 104.664062 18.378906 Z M 102.171875 19.292969 C 102.632812 19.28125 103.175781 19.261719 103.808594 19.234375 C 104.445312 19.207031 105.097656 19.183594 105.761719 19.15625 L 105.75 19.910156 C 105.128906 19.953125 104.507812 19.992188 103.898438 20.03125 C 103.285156 20.070312 102.738281 20.105469 102.253906 20.128906 Z M 104.875 20.808594 L 105.582031 20.578125 C 105.722656 20.882812 105.855469 21.214844 105.980469 21.574219 C 106.105469 21.925781 106.195312 22.230469 106.25 22.488281 L 105.492188 22.746094 C 105.445312 22.488281 105.363281 22.175781 105.242188 21.8125 C 105.128906 21.445312 105.007812 21.113281 104.875 20.808594 Z M 102.671875 20.636719 L 103.46875 20.777344 C 103.410156 21.246094 103.320312 21.710938 103.199219 22.167969 C 103.085938 22.628906 102.953125 23.015625 102.800781 23.335938 C 102.75 23.300781 102.679688 23.261719 102.59375 23.214844 C 102.507812 23.167969 102.414062 23.125 102.3125 23.085938 C 102.21875 23.039062 102.140625 23.003906 102.074219 22.984375 C 102.234375 22.679688 102.359375 22.320312 102.453125 21.902344 C 102.550781 21.484375 102.625 21.0625 102.671875 20.636719 Z M 103.828125 19.691406 L 104.664062 19.691406 L 104.664062 24.128906 L 103.828125 24.128906 Z M 103.828125 19.691406 " fill-opacity="1" fill-rule="nonzero"/></svg>