<svg xmlns="http://www.w3.org/2000/svg" xmlns:xlink="http://www.w3.org/1999/xlink" width="248" zoomAndPan="magnify" viewBox="0 0 186 72.749997" height="100" preserveAspectRatio="xMidYMid meet" version="1.0"><defs><clipPath id="ee67787809"><path d="M 64.875 13 L 122 13 L 122 36.683594 L 64.875 36.683594 Z M 64.875 13 " clip-rule="nonzero"/></clipPath><clipPath id="cbe8300f58"><path d="M 114 5.945312 L 126.363281 5.945312 L 126.363281 24 L 114 24 Z M 114 5.945312 " clip-rule="nonzero"/></clipPath></defs><path fill="#4b5563" d="M 32.40625 52.402344 L 29.195312 52.402344 L 29.195312 55.605469 L 32.40625 55.605469 M 32.40625 45.988281 L 29.195312 45.988281 L 29.195312 49.195312 L 32.40625 49.195312 M 35.617188 58.8125 L 22.773438 58.8125 L 22.773438 55.605469 L 25.984375 55.605469 L 25.984375 52.402344 L 22.773438 52.402344 L 22.773438 49.195312 L 25.984375 49.195312 L 25.984375 45.988281 L 22.773438 45.988281 L 22.773438 42.785156 L 35.617188 42.785156 M 19.5625 39.578125 L 16.351562 39.578125 L 16.351562 36.375 L 19.5625 36.375 M 19.5625 45.988281 L 16.351562 45.988281 L 16.351562 42.785156 L 19.5625 42.785156 M 19.5625 52.402344 L 16.351562 52.402344 L 16.351562 49.195312 L 19.5625 49.195312 M 19.5625 58.8125 L 16.351562 58.8125 L 16.351562 55.605469 L 19.5625 55.605469 M 13.140625 39.578125 L 9.929688 39.578125 L 9.929688 36.375 L 13.140625 36.375 M 13.140625 45.988281 L 9.929688 45.988281 L 9.929688 42.785156 L 13.140625 42.785156 M 13.140625 52.402344 L 9.929688 52.402344 L 9.929688 49.195312 L 13.140625 49.195312 M 13.140625 58.8125 L 9.929688 58.8125 L 9.929688 55.605469 L 13.140625 55.605469 M 22.773438 39.578125 L 22.773438 33.167969 L 6.71875 33.167969 L 6.71875 62.015625 L 38.828125 62.015625 L 38.828125 39.578125 Z M 22.773438 39.578125 " fill-opacity="1" fill-rule="nonzero"/><path fill="#00afcc" d="M 98.761719 41.359375 C 98.480469 41.953125 99.285156 42.859375 99.890625 43.761719 C 100.496094 44.664062 100.507812 44.679688 101.890625 46.734375 C 94.140625 46.742188 86.40625 46.464844 78.65625 46.488281 C 77.859375 46.488281 77.859375 46.488281 77.609375 46.28125 C 75.867188 44.558594 74.152344 42.804688 72.394531 41.097656 C 71.738281 40.546875 71.109375 40.558594 70.050781 40.578125 C 68.78125 40.6875 63.890625 39.949219 65.464844 42.648438 C 66 43.40625 66.789062 43.941406 67.398438 44.632812 C 68.027344 45.257812 68.648438 45.882812 69.28125 46.5 C 68.292969 46.542969 67.003906 46.359375 66.179688 46.523438 C 65.351562 46.6875 65.222656 47.082031 65.226562 47.652344 C 65.234375 48.226562 65.40625 48.964844 66.140625 49.007812 C 66.871094 49.046875 68.429688 49.019531 69.347656 49.019531 C 68.277344 50.097656 67.167969 51.144531 66.132812 52.253906 C 65.640625 52.773438 64.976562 53.769531 65.542969 54.265625 C 66.261719 54.75 67.511719 54.625 68.605469 54.644531 C 69.699219 54.664062 70.910156 54.742188 72.078125 54.617188 C 72.933594 54.410156 73.421875 53.59375 74.050781 53.050781 C 75.316406 51.796875 76.5625 50.527344 77.828125 49.277344 C 85.535156 49.25 93.25 49.285156 100.960938 49.25 C 101.246094 49.25 101.527344 49.246094 101.8125 49.234375 C 100.828125 50.269531 99.792969 51.265625 98.792969 52.289062 C 98.339844 52.757812 98.132812 53.585938 98.644531 54.089844 C 99.078125 54.625 99.953125 54.710938 100.433594 54.1875 C 102.242188 52.421875 104.023438 50.628906 105.792969 48.824219 C 106.296875 48.386719 105.421875 46.941406 103.820312 44.480469 C 102.566406 42.652344 100.710938 38.777344 98.761719 41.359375 Z M 71.773438 43.933594 C 71.773438 43.933594 73.285156 45.800781 74.171875 46.695312 C 73.691406 46.671875 73.167969 46.757812 72.710938 46.667969 C 71.628906 45.644531 70.625 44.300781 69.5625 43.253906 C 70.054688 43.257812 71.261719 43.425781 71.261719 43.425781 Z M 73.183594 50.339844 C 72.566406 50.929688 71.980469 51.578125 71.347656 52.132812 C 70.871094 52.160156 70.394531 52.164062 69.917969 52.152344 C 70.925781 51.175781 71.902344 50.171875 72.898438 49.183594 C 73.382812 49.121094 73.871094 49.148438 74.359375 49.160156 Z M 73.183594 50.339844 " fill-opacity="1" fill-rule="nonzero"/><path fill="#4b5563" d="M 158.914062 47.59375 C 156.265625 47.59375 154 46.652344 152.113281 44.769531 C 150.226562 42.882812 149.28125 40.621094 149.28125 37.976562 C 149.28125 35.332031 150.226562 33.066406 152.113281 31.183594 C 154 29.300781 156.265625 28.359375 158.914062 28.359375 C 161.566406 28.359375 163.832031 29.300781 165.71875 31.183594 C 167.605469 33.066406 168.546875 35.332031 168.546875 37.976562 C 168.546875 40.621094 167.605469 42.882812 165.71875 44.769531 C 163.832031 46.652344 161.566406 47.59375 158.914062 47.59375 Z M 139.648438 62.015625 L 139.648438 60.09375 C 139.648438 58.730469 140 57.480469 140.703125 56.339844 C 141.40625 55.199219 142.339844 54.324219 143.503906 53.722656 C 145.992188 52.480469 148.519531 51.550781 151.089844 50.929688 C 153.65625 50.308594 156.265625 50 158.914062 49.996094 C 161.566406 49.996094 164.171875 50.304688 166.742188 50.929688 C 169.3125 51.554688 171.839844 52.484375 174.328125 53.722656 C 175.492188 54.324219 176.425781 55.195312 177.128906 56.339844 C 177.832031 57.480469 178.183594 58.734375 178.179688 60.09375 L 178.179688 62.015625 C 178.179688 63.339844 177.710938 64.472656 176.765625 65.414062 C 175.824219 66.355469 174.691406 66.828125 173.363281 66.824219 L 144.464844 66.824219 C 143.140625 66.824219 142.007812 66.355469 141.066406 65.414062 C 140.125 64.472656 139.652344 63.339844 139.648438 62.015625 Z M 139.648438 62.015625 " fill-opacity="1" fill-rule="nonzero"/><g clip-path="url(#ee67787809)"><path fill="#00accc" d="M 119.25 23.867188 C 118.761719 24.484375 118.011719 24.839844 117.210938 24.839844 C 116.800781 24.839844 116.425781 24.753906 116.085938 24.578125 C 115.027344 24.074219 114.433594 22.929688 114.640625 21.773438 L 115.363281 17.886719 L 115.199219 17.886719 C 114.292969 17.886719 113.464844 17.425781 112.988281 16.660156 C 112.527344 15.992188 112.449219 15.027344 112.824219 14.210938 L 113.101562 13.585938 L 68.320312 13.585938 C 66.421875 13.582031 64.875 15.121094 64.875 17.027344 L 64.875 27.25 C 64.875 29.144531 66.421875 30.691406 68.320312 30.691406 L 80.433594 30.691406 L 80.160156 35.671875 C 80.160156 36.019531 80.367188 36.332031 80.699219 36.472656 C 80.800781 36.515625 80.917969 36.542969 81.027344 36.542969 C 81.253906 36.542969 81.480469 36.445312 81.648438 36.28125 L 84.273438 30.691406 L 117.769531 30.691406 C 119.675781 30.691406 121.214844 29.144531 121.214844 27.25 L 121.214844 21.425781 L 119.246094 23.867188 Z M 119.25 23.867188 " fill-opacity="1" fill-rule="nonzero"/></g><g clip-path="url(#cbe8300f58)"><path fill="#00accc" d="M 126.273438 11.699219 C 126.136719 11.40625 125.832031 11.214844 125.492188 11.214844 L 123.089844 11.214844 L 124.640625 7.121094 C 124.734375 6.847656 124.699219 6.554688 124.535156 6.320312 C 124.378906 6.085938 124.109375 5.945312 123.820312 5.945312 L 119.058594 5.945312 C 118.71875 5.945312 118.402344 6.144531 118.265625 6.457031 L 114.40625 15.0625 C 114.285156 15.332031 114.304688 15.644531 114.46875 15.890625 C 114.625 16.140625 114.90625 16.289062 115.199219 16.289062 L 117.457031 16.289062 L 116.359375 22.21875 C 116.289062 22.609375 116.488281 23 116.855469 23.164062 C 116.96875 23.226562 117.089844 23.242188 117.210938 23.242188 C 117.472656 23.242188 117.726562 23.128906 117.890625 22.921875 L 126.171875 12.621094 C 126.378906 12.359375 126.421875 12.003906 126.273438 11.699219 Z M 126.273438 11.699219 " fill-opacity="1" fill-rule="nonzero"/></g><path fill="#ffffff" d="M 78.515625 19.164062 C 78.472656 19.210938 78.421875 19.292969 78.359375 19.402344 C 78.296875 19.511719 78.25 19.613281 78.214844 19.703125 C 78.070312 20.035156 77.886719 20.402344 77.675781 20.8125 C 77.46875 21.21875 77.226562 21.625 76.957031 22.03125 C 76.695312 22.433594 76.417969 22.800781 76.128906 23.132812 C 75.75 23.566406 75.324219 23.992188 74.863281 24.40625 C 74.40625 24.820312 73.921875 25.203125 73.410156 25.554688 C 72.898438 25.898438 72.371094 26.199219 71.824219 26.457031 L 70.984375 25.574219 C 71.542969 25.355469 72.082031 25.082031 72.601562 24.757812 C 73.125 24.433594 73.613281 24.078125 74.0625 23.691406 C 74.515625 23.304688 74.910156 22.921875 75.246094 22.539062 C 75.480469 22.277344 75.710938 21.988281 75.929688 21.671875 C 76.152344 21.347656 76.351562 21.023438 76.523438 20.695312 C 76.695312 20.371094 76.820312 20.074219 76.894531 19.804688 C 76.835938 19.804688 76.707031 19.804688 76.511719 19.804688 C 76.320312 19.804688 76.085938 19.804688 75.816406 19.804688 C 75.554688 19.804688 75.277344 19.804688 74.988281 19.804688 C 74.703125 19.804688 74.425781 19.804688 74.15625 19.804688 C 73.894531 19.804688 73.667969 19.804688 73.472656 19.804688 C 73.28125 19.804688 73.152344 19.804688 73.089844 19.804688 C 72.957031 19.804688 72.8125 19.8125 72.652344 19.828125 C 72.5 19.835938 72.359375 19.84375 72.226562 19.859375 C 72.105469 19.863281 72.015625 19.867188 71.957031 19.867188 L 71.957031 18.699219 C 72.027344 18.707031 72.132812 18.714844 72.269531 18.730469 C 72.40625 18.738281 72.554688 18.746094 72.707031 18.761719 C 72.855469 18.765625 72.984375 18.769531 73.089844 18.769531 C 73.164062 18.769531 73.300781 18.769531 73.492188 18.769531 C 73.695312 18.769531 73.925781 18.769531 74.1875 18.769531 C 74.457031 18.769531 74.738281 18.769531 75.027344 18.769531 C 75.320312 18.769531 75.597656 18.769531 75.859375 18.769531 C 76.121094 18.769531 76.351562 18.769531 76.542969 18.769531 C 76.738281 18.769531 76.867188 18.769531 76.9375 18.769531 C 77.132812 18.769531 77.308594 18.761719 77.46875 18.738281 C 77.625 18.71875 77.75 18.695312 77.839844 18.667969 Z M 76.261719 22.449219 C 76.539062 22.675781 76.832031 22.929688 77.136719 23.214844 C 77.4375 23.496094 77.738281 23.789062 78.027344 24.09375 C 78.316406 24.390625 78.585938 24.675781 78.835938 24.953125 C 79.089844 25.230469 79.308594 25.476562 79.480469 25.6875 L 78.566406 26.496094 C 78.3125 26.152344 78.015625 25.789062 77.683594 25.410156 C 77.351562 25.03125 77 24.648438 76.625 24.269531 C 76.253906 23.882812 75.878906 23.523438 75.507812 23.191406 Z M 85.808594 17.921875 C 85.800781 18.039062 85.789062 18.183594 85.777344 18.355469 C 85.769531 18.523438 85.761719 18.667969 85.753906 18.792969 C 85.71875 19.839844 85.628906 20.761719 85.476562 21.558594 C 85.324219 22.34375 85.109375 23.042969 84.832031 23.648438 C 84.5625 24.25 84.222656 24.78125 83.816406 25.242188 C 83.414062 25.699219 82.945312 26.117188 82.40625 26.496094 L 81.449219 25.71875 C 81.636719 25.625 81.835938 25.5 82.050781 25.347656 C 82.265625 25.195312 82.464844 25.03125 82.644531 24.851562 C 82.976562 24.539062 83.265625 24.191406 83.515625 23.804688 C 83.761719 23.417969 83.972656 22.984375 84.136719 22.507812 C 84.308594 22.027344 84.441406 21.480469 84.53125 20.875 C 84.621094 20.257812 84.667969 19.570312 84.667969 18.8125 C 84.667969 18.738281 84.664062 18.644531 84.65625 18.53125 C 84.65625 18.421875 84.648438 18.3125 84.636719 18.203125 C 84.621094 18.089844 84.609375 17.996094 84.59375 17.921875 Z M 89.386719 20.097656 C 89.371094 20.1875 89.359375 20.28125 89.34375 20.375 C 89.332031 20.472656 89.320312 20.554688 89.3125 20.625 C 89.308594 20.832031 89.296875 21.105469 89.28125 21.441406 C 89.269531 21.78125 89.246094 22.152344 89.210938 22.550781 C 89.183594 22.953125 89.144531 23.347656 89.09375 23.742188 C 89.046875 24.136719 88.992188 24.5 88.929688 24.839844 C 88.867188 25.171875 88.789062 25.441406 88.691406 25.648438 C 88.585938 25.890625 88.4375 26.066406 88.246094 26.175781 C 88.058594 26.292969 87.804688 26.351562 87.488281 26.351562 C 87.210938 26.351562 86.925781 26.34375 86.625 26.332031 C 86.335938 26.316406 86.058594 26.300781 85.796875 26.277344 L 85.671875 25.191406 C 85.941406 25.226562 86.207031 25.257812 86.460938 25.285156 C 86.722656 25.304688 86.960938 25.316406 87.175781 25.316406 C 87.335938 25.316406 87.460938 25.292969 87.550781 25.242188 C 87.640625 25.1875 87.710938 25.09375 87.769531 24.964844 C 87.835938 24.820312 87.898438 24.617188 87.953125 24.363281 C 88.011719 24.101562 88.054688 23.8125 88.089844 23.503906 C 88.132812 23.1875 88.160156 22.863281 88.183594 22.53125 C 88.210938 22.191406 88.226562 21.875 88.234375 21.578125 C 88.25 21.273438 88.253906 21.007812 88.253906 20.78125 L 82.964844 20.78125 C 82.769531 20.78125 82.558594 20.785156 82.332031 20.789062 C 82.109375 20.796875 81.898438 20.808594 81.699219 20.820312 L 81.699219 19.746094 C 81.898438 19.757812 82.109375 19.773438 82.332031 19.785156 C 82.554688 19.800781 82.765625 19.804688 82.964844 19.804688 L 87.945312 19.804688 C 88.082031 19.804688 88.210938 19.804688 88.328125 19.796875 C 88.445312 19.78125 88.554688 19.765625 88.660156 19.746094 Z M 96.554688 17.765625 C 96.535156 17.953125 96.515625 18.113281 96.503906 18.242188 C 96.496094 18.367188 96.492188 18.496094 96.492188 18.625 C 96.492188 18.707031 96.492188 18.839844 96.492188 19.019531 C 96.492188 19.199219 96.492188 19.386719 96.492188 19.578125 C 96.492188 19.765625 96.492188 19.925781 96.492188 20.054688 L 95.371094 20.054688 C 95.371094 19.910156 95.371094 19.742188 95.371094 19.546875 C 95.371094 19.355469 95.371094 19.175781 95.371094 19.007812 C 95.371094 18.835938 95.371094 18.707031 95.371094 18.625 C 95.371094 18.496094 95.367188 18.367188 95.363281 18.242188 C 95.355469 18.113281 95.332031 17.953125 95.300781 17.765625 Z M 100.082031 19.859375 C 100.046875 19.949219 100.011719 20.066406 99.976562 20.210938 C 99.941406 20.347656 99.917969 20.464844 99.90625 20.5625 C 99.871094 20.789062 99.820312 21.03125 99.761719 21.289062 C 99.703125 21.535156 99.636719 21.792969 99.550781 22.054688 C 99.46875 22.316406 99.371094 22.578125 99.261719 22.839844 C 99.15625 23.101562 99.039062 23.355469 98.910156 23.597656 C 98.640625 24.074219 98.300781 24.507812 97.890625 24.902344 C 97.484375 25.296875 97.015625 25.636719 96.480469 25.925781 C 95.949219 26.210938 95.371094 26.4375 94.75 26.609375 L 93.898438 25.625 C 94.097656 25.59375 94.308594 25.542969 94.53125 25.480469 C 94.753906 25.417969 94.957031 25.355469 95.144531 25.285156 C 95.460938 25.175781 95.78125 25.027344 96.109375 24.839844 C 96.433594 24.652344 96.738281 24.433594 97.019531 24.175781 C 97.304688 23.921875 97.550781 23.640625 97.757812 23.339844 C 97.9375 23.0625 98.089844 22.761719 98.214844 22.4375 C 98.34375 22.105469 98.453125 21.769531 98.535156 21.433594 C 98.617188 21.09375 98.675781 20.777344 98.710938 20.480469 L 93.191406 20.480469 C 93.191406 20.582031 93.191406 20.714844 93.191406 20.875 C 93.191406 21.023438 93.191406 21.1875 93.191406 21.359375 C 93.191406 21.53125 93.191406 21.695312 93.191406 21.847656 C 93.191406 21.992188 93.191406 22.101562 93.191406 22.179688 C 93.191406 22.28125 93.195312 22.398438 93.203125 22.53125 C 93.210938 22.660156 93.222656 22.773438 93.234375 22.863281 L 92.105469 22.863281 C 92.117188 22.75 92.128906 22.625 92.136719 22.488281 C 92.140625 22.351562 92.144531 22.226562 92.144531 22.117188 C 92.144531 22.03125 92.144531 21.914062 92.144531 21.753906 C 92.144531 21.585938 92.144531 21.410156 92.144531 21.226562 C 92.144531 21.03125 92.144531 20.855469 92.144531 20.695312 C 92.144531 20.53125 92.144531 20.398438 92.144531 20.304688 C 92.144531 20.191406 92.140625 20.054688 92.136719 19.890625 C 92.128906 19.722656 92.117188 19.582031 92.105469 19.464844 C 92.261719 19.480469 92.421875 19.492188 92.582031 19.507812 C 92.746094 19.511719 92.921875 19.515625 93.109375 19.515625 L 98.585938 19.515625 C 98.796875 19.515625 98.957031 19.507812 99.074219 19.484375 C 99.191406 19.464844 99.289062 19.441406 99.367188 19.414062 Z M 104.574219 25.179688 C 104.574219 25.070312 104.574219 24.871094 104.574219 24.582031 C 104.574219 24.285156 104.574219 23.933594 104.574219 23.535156 C 104.574219 23.128906 104.574219 22.707031 104.574219 22.269531 C 104.574219 21.828125 104.574219 21.402344 104.574219 20.988281 C 104.574219 20.574219 104.574219 20.207031 104.574219 19.890625 C 104.574219 19.570312 104.574219 19.339844 104.574219 19.195312 C 104.574219 19.03125 104.566406 18.839844 104.550781 18.625 C 104.539062 18.40625 104.515625 18.207031 104.480469 18.035156 L 105.753906 18.035156 C 105.742188 18.203125 105.726562 18.390625 105.703125 18.605469 C 105.691406 18.820312 105.683594 19.015625 105.683594 19.195312 C 105.683594 19.429688 105.683594 19.726562 105.683594 20.085938 C 105.683594 20.4375 105.683594 20.820312 105.683594 21.234375 C 105.683594 21.648438 105.683594 22.066406 105.683594 22.488281 C 105.683594 22.910156 105.683594 23.308594 105.683594 23.679688 C 105.683594 24.046875 105.683594 24.363281 105.683594 24.632812 C 105.683594 24.902344 105.683594 25.085938 105.683594 25.179688 C 105.683594 25.292969 105.6875 25.425781 105.695312 25.585938 C 105.699219 25.742188 105.710938 25.90625 105.726562 26.070312 C 105.738281 26.230469 105.753906 26.375 105.765625 26.507812 L 104.488281 26.507812 C 104.519531 26.328125 104.539062 26.113281 104.550781 25.863281 C 104.566406 25.609375 104.574219 25.382812 104.574219 25.179688 Z M 105.445312 20.738281 C 105.785156 20.835938 106.164062 20.957031 106.585938 21.101562 C 107.007812 21.238281 107.433594 21.390625 107.863281 21.558594 C 108.289062 21.714844 108.699219 21.875 109.085938 22.03125 C 109.472656 22.191406 109.800781 22.335938 110.070312 22.46875 L 109.605469 23.597656 C 109.3125 23.4375 108.984375 23.277344 108.617188 23.121094 C 108.257812 22.953125 107.890625 22.796875 107.507812 22.644531 C 107.128906 22.492188 106.757812 22.355469 106.398438 22.230469 C 106.046875 22.105469 105.726562 22 105.445312 21.910156 Z M 105.445312 20.738281 " fill-opacity="1" fill-rule="nonzero"/></svg>