<svg width="30" height="34" viewBox="0 0 30 34" fill="none" xmlns="http://www.w3.org/2000/svg">
<path d="M27.8469 0.185568C26.1105 0.250496 24.3701 0.165191 22.6349 0.231283C21.9352 0.275539 21.3574 1.14112 21.6671 1.88648C21.8642 2.50403 22.481 2.71312 23.0165 2.69024C24.0803 2.6585 25.1454 2.67277 26.2097 2.64132C21.3412 8.08868 16.4531 13.5145 11.597 18.9752C11.368 19.2236 11.1967 19.6661 10.8109 19.5626C8.63012 19.5742 6.44744 19.548 4.26774 19.5772C3.51002 19.6537 3.0823 20.4501 2.56378 20.969C1.78298 21.9595 0.774425 22.7302 0.142928 23.8613C-0.249104 24.5183 0.219598 25.4401 0.890905 25.5355C1.70416 25.6953 2.5348 25.5209 3.35544 25.5739C4.14129 25.5722 4.92718 25.5797 5.71296 25.5652C5.11812 26.2918 4.36969 26.8719 3.8838 27.7028C3.53789 28.264 3.76279 29.0331 4.26376 29.368C4.66518 29.7542 5.24266 29.5855 5.58786 29.1983C6.21577 28.6158 6.76479 27.9373 7.3402 27.2928C7.34645 28.8043 7.30857 30.3183 7.35739 31.8283C7.37511 32.5356 7.88269 33.2306 8.55097 33.1811C9.30868 33.0172 9.72077 32.1815 10.2649 31.6517C10.9788 30.8003 11.7807 30.0344 12.4348 29.1248C12.8421 28.382 12.6363 27.4609 12.6903 26.6387C12.6947 24.8692 12.6804 23.0995 12.6878 21.3301C13.38 20.4246 14.2173 19.6711 14.9431 18.7988C19.0344 14.2235 23.1376 9.66151 27.2069 5.06249C27.387 4.86392 27.5623 4.66011 27.7338 4.45231C27.7674 5.87561 27.7437 7.30039 27.7608 8.72316C27.7702 9.37276 28.1604 10.1008 28.8013 10.0943C29.4094 10.1677 30.0137 9.61143 29.9858 8.90755C30.0103 6.39565 29.9999 3.88141 29.979 1.3698C30.0194 0.708344 29.4372 0.306616 28.9137 0.249054C28.5622 0.178594 28.2028 0.180327 27.8469 0.185568ZM5.40461 22.0568C6.52431 22.0551 7.64388 22.0713 8.76354 22.0771C8.44625 22.3992 8.17101 22.8265 7.82939 23.0845C6.5021 23.125 5.17445 23.0728 3.847 23.0787C4.15712 22.7369 4.45612 22.3681 4.80086 22.0749C5.00159 22.0603 5.20341 22.0626 5.40461 22.0568ZM10.4365 25.3416C10.4217 26.1888 10.46 27.0553 10.4118 27.8906C10.1297 28.2433 9.83199 28.5803 9.52556 28.9066C9.54327 27.5138 9.52428 26.1208 9.53025 24.728C9.79302 24.3424 10.1185 24.0175 10.4324 23.6853C10.4337 24.2374 10.4352 24.7895 10.4365 25.3416Z" fill="#D1D5DB"/>
</svg>

