<svg width="44" height="44" viewBox="0 0 44 44" fill="none" xmlns="http://www.w3.org/2000/svg">
<path d="M24.139 4.90358C23.8828 4.90358 23.6371 4.99648 23.4559 5.16184C23.2747 5.3272 23.1729 5.55148 23.1729 5.78534V22.5388H19.3086V9.31238C19.3086 9.07852 19.2068 8.85424 19.0256 8.68888C18.8445 8.52352 18.5987 8.43062 18.3425 8.43062C18.0863 8.43062 17.8406 8.52352 17.6594 8.68888C17.4782 8.85424 17.3764 9.07852 17.3764 9.31238V26.0658H13.5121C12.7779 23.2089 10.8882 21.5512 8.8652 21.3431C9.82094 23.5849 10.833 25.8064 11.9006 28.0057C13.5623 31.4657 15.2336 34.0405 17.3842 35.7634C19.4593 37.4264 22.1276 38.4105 26.0712 38.4105C28.8896 38.4105 31.5927 37.3886 33.5856 35.5696C35.5785 33.7506 36.6982 31.2835 36.6982 28.7111V13.7212C36.6982 13.4873 36.5964 13.263 36.4152 13.0977C36.234 12.9323 35.9883 12.8394 35.7321 12.8394C35.4758 12.8394 35.2301 12.9323 35.0489 13.0977C34.8678 13.263 34.766 13.4873 34.766 13.7212V22.5388H30.9016V8.43062C30.9016 8.19676 30.7999 7.97248 30.6187 7.80712C30.4375 7.64176 30.1918 7.54886 29.9355 7.54886C29.6793 7.54886 29.4336 7.64176 29.2524 7.80712C29.0712 7.97248 28.9695 8.19676 28.9695 8.43062V22.5388H25.1051V5.78534C25.1051 5.55148 25.0033 5.3272 24.8222 5.16184C24.641 4.99648 24.3953 4.90358 24.139 4.90358ZM40.5625 28.7111C40.5625 32.219 39.0357 35.5831 36.3181 38.0636C33.6005 40.544 29.9145 41.9375 26.0712 41.9375C21.3219 41.9375 17.7088 40.7171 14.8337 38.414C12.032 36.1673 10.0825 33.0106 8.3609 29.42C6.56398 25.669 5.57084 23.3853 5.02984 22.052C4.34005 20.352 5.29261 17.9748 7.88172 17.809C9.92461 17.6621 11.9484 18.2579 13.5121 19.4667V9.31238C13.5118 8.65238 13.6738 8.00074 13.9863 7.40553C14.2988 6.81033 14.7537 6.28674 15.3174 5.87341C15.8812 5.46008 16.5394 5.16755 17.2436 5.0174C17.9477 4.86724 18.6798 4.8633 19.3859 5.00586C19.5716 4.06005 20.0909 3.19552 20.8646 2.54385C21.6382 1.89218 22.624 1.48905 23.6718 1.39581C24.7196 1.30257 25.7721 1.52433 26.6691 2.02733C27.5662 2.53034 28.2586 3.28704 28.641 4.1823C29.3586 4.00085 30.1124 3.97315 30.8437 4.10135C31.5749 4.22956 32.2638 4.51021 32.8567 4.92142C33.4495 5.33263 33.9303 5.86328 34.2615 6.47198C34.5927 7.08069 34.7653 7.75099 34.766 8.43062V9.40055C35.079 9.34177 35.401 9.31238 35.7321 9.31238C37.0132 9.31238 38.2418 9.77688 39.1477 10.6037C40.0536 11.4305 40.5625 12.5519 40.5625 13.7212V28.7111Z" fill="#1F2937"/>
</svg>
