<?xml version="1.0" standalone="no"?>
<!DOCTYPE svg PUBLIC "-//W3C//DTD SVG 1.1//EN" "http://www.w3.org/Graphics/SVG/1.1/DTD/svg11.dtd">
<svg xmlns="http://www.w3.org/2000/svg" width="124" height="125" viewBox="0 0 124 125" fill="none">
<rect x="1.675" y="2.10859" width="120.65" height="120.65" rx="60.325" stroke="#00AFCC" stroke-width="2.85"/>
<path d="M89.8122 74.5793L76.4491 80.6859C75.6078 80.0076 74.5411 79.5994 73.3811 79.5994H67.4495C65.4221 79.5994 63.7261 78.7351 62.5451 77.1008C60.9839 74.9314 58.7013 73.3428 56.1211 72.6285C52.4484 71.5946 48.5252 72.3983 45.5528 74.7803H42.0545L42.682 72.7197C42.7556 72.4794 42.73 72.2202 42.6114 71.9994C42.4934 71.7777 42.2926 71.6123 42.0525 71.5398L30.5046 68.0358C30.006 67.8876 29.4784 68.1659 29.3258 68.6655L22.4116 91.3346C22.3385 91.5749 22.3639 91.8342 22.4819 92.0554C22.6005 92.2766 22.8012 92.4418 23.0417 92.5144L31.6399 95.1279C32.0229 95.2459 32.4197 95.3059 32.8178 95.3059C34.6011 95.3059 36.1512 94.1551 36.6766 92.4418L36.8672 91.8139H44.7467L67.641 98.0821C68.3761 98.2861 69.106 98.3882 69.8243 98.3882C71.45 98.3875 73.0168 97.868 74.4387 96.8414L95.7914 81.2717C95.8759 81.2095 95.9494 81.1338 96.0098 81.0485C97.4875 78.9284 96.832 76.6212 95.5263 75.2761C94.2276 73.9386 91.966 73.2129 89.8122 74.5793ZM32.1916 93.3201L28.7879 92.2857L31.5789 83.0993C31.7309 82.5997 31.4498 82.0717 30.9494 81.9197C30.4532 81.7684 29.9227 82.0498 29.7709 82.5495L26.9796 91.7354L24.4965 90.9808L30.8589 70.1205L40.5977 73.0741L34.8686 91.8894C34.531 92.9896 33.3122 93.6643 32.1916 93.3201ZM94.5408 79.8435L73.3289 95.3105C71.7412 96.4555 69.9988 96.7757 68.1444 96.2591L45.1232 89.9569C45.0421 89.9345 44.9579 89.924 44.8738 89.924H37.4436L41.4795 76.6704H45.8931C46.1181 76.6704 46.3349 76.5905 46.5057 76.4452C49.0268 74.2999 52.4295 73.5513 55.6122 74.4492C57.7831 75.0504 59.7 76.3845 61.0115 78.207C62.5417 80.3245 64.8282 81.4895 67.4498 81.4895H73.3815C75.0474 81.4895 76.4035 82.8536 76.4035 84.5301C76.4035 86.2065 75.0474 87.5703 73.3815 87.5703H56.9214C56.3992 87.5703 55.9767 87.9929 55.9767 88.5155C55.9767 89.038 56.3992 89.4602 56.9214 89.4602H73.3811C76.0902 89.4602 78.2931 87.2489 78.2931 84.5301C78.2931 83.6842 78.0792 82.887 77.7037 82.1903L90.6594 76.2699C90.7031 76.2512 90.7445 76.2281 90.7841 76.2016C92.1405 75.315 93.456 75.8571 94.1691 76.5927C94.8566 77.3006 95.3485 78.5641 94.5408 79.8435ZM98.6445 64.6787H94.9567V35.7073C94.9567 33.8264 93.4347 32.2969 91.5645 32.2969H81.2765C79.6824 28.1519 75.6702 25.1975 70.971 25.1975C66.2802 25.1975 62.2747 28.1519 60.6837 32.2969H50.397C48.5162 32.2969 46.987 33.8264 46.987 35.7073V64.6787H43.2976C42.7751 64.6787 42.3526 65.1012 42.3526 65.6241V67.8664C42.3526 69.6247 43.783 71.0547 45.5406 71.0547H96.4026C98.1605 71.0547 99.59 69.6247 99.59 67.8664V65.6241C99.5899 65.1012 99.167 64.6787 98.6445 64.6787ZM87.6902 36.2263C87.6902 36.1421 87.7819 36.0593 87.8763 36.0593C87.9662 36.0593 88.0425 36.1361 88.0425 36.2263C88.0425 36.4276 87.6896 36.4517 87.6902 36.2263ZM70.9705 27.2767C72.118 27.7802 72.914 29.281 73.3459 31.7537C71.7572 31.6138 70.1531 31.6147 68.59 31.7534C69.0107 29.2872 69.8088 27.7839 70.9705 27.2767ZM70.9719 45.327C69.6034 44.7405 68.9277 42.776 68.5926 40.8472C69.3806 40.9179 70.1724 40.9666 70.9643 40.9666C71.7603 40.9666 72.5575 40.9175 73.3476 40.8469C72.9157 43.3331 72.1191 44.8371 70.9719 45.327ZM68.3486 33.6769C70.0762 33.4936 71.8352 33.4927 73.5941 33.6786C73.7796 35.4235 73.7796 37.1776 73.5947 38.9229C71.8588 39.1078 70.1009 39.1089 68.348 38.9229C68.1637 37.1892 68.1637 35.4355 68.3486 33.6769ZM75.5186 33.9245C77.9928 34.356 79.4912 35.1524 79.9805 36.3009C79.4897 37.4598 77.9949 38.2565 75.5189 38.6803C75.6607 37.0978 75.6607 35.5063 75.5186 33.9245ZM66.4235 38.6797C63.9494 38.256 62.4432 37.461 61.94 36.3084C62.4404 35.1489 63.9429 34.3501 66.4238 33.9217C66.2821 35.5138 66.2821 37.1062 66.4235 38.6797ZM66.6422 40.6285C66.8947 42.3661 67.3211 43.7729 67.9173 44.8469C65.3525 43.9331 63.3167 41.9082 62.3882 39.3495C63.4603 39.9492 64.8756 40.3739 66.6422 40.6285ZM75.2974 40.6295C77.0747 40.3712 78.5062 39.9299 79.5873 39.3082C78.6639 41.8855 76.6168 43.927 74.0323 44.8461C74.6199 43.7795 75.0401 42.3786 75.2974 40.6295ZM79.6385 33.3143C78.5596 32.6867 77.1159 32.2419 75.2974 31.9732C75.0247 30.1295 74.5699 28.6744 73.9293 27.5877C76.6089 28.506 78.7286 30.6308 79.6385 33.3143ZM68.021 27.5873C67.3682 28.6827 66.9068 30.1451 66.6422 31.9716C64.8399 32.2337 63.4086 32.6722 62.3303 33.2916C63.243 30.6181 65.3536 28.5026 68.021 27.5873ZM59.9431 36.2446C59.9431 42.3258 64.8903 47.2733 70.971 47.2733C77.0622 47.2733 82.0184 42.3258 82.0184 36.2446C82.0184 35.5412 81.9457 34.8547 81.8194 34.1877H87.6874C86.9699 34.2528 86.3617 34.6766 86.0433 35.2808H83.8536C83.3315 35.2808 82.9083 35.7039 82.9083 36.2263C82.9083 36.7483 83.3315 37.1717 83.8536 37.1717H86.0382C86.3835 37.8403 87.0731 38.3028 87.8763 38.3028C88.634 38.3028 89.2897 37.882 89.6466 37.2642H89.989V61.8242H51.9727V37.2641H52.2984C52.6583 37.8818 53.3206 38.3027 54.0853 38.3027C54.8809 38.3027 55.5645 37.8401 55.9066 37.1716H58.0889C58.6117 37.1716 59.0346 36.7481 59.0346 36.2261C59.0346 35.7038 58.6117 35.2806 58.0889 35.2806H55.9024C55.5863 34.6765 54.9833 34.2527 54.272 34.1875H60.1425C60.0162 34.8548 59.9431 35.5412 59.9431 36.2446ZM54.0853 36.0593C54.1742 36.0593 54.2527 36.1371 54.2527 36.2263C54.2536 36.417 53.9457 36.4425 53.9118 36.2528C53.9103 36.2388 53.9087 36.2252 53.9074 36.2108C53.9182 36.1331 53.9982 36.0593 54.0853 36.0593ZM48.8767 35.7073C48.8767 34.8836 49.5732 34.1877 50.397 34.1877H53.8975C53.1421 34.2561 52.5043 34.7191 52.2019 35.3733H51.0275C50.5048 35.3733 50.0819 35.7966 50.0819 36.3188V62.7689C50.0819 63.2913 50.5048 63.7139 51.0275 63.7139H90.9339C91.4563 63.7139 91.8789 63.2913 91.8789 62.7689V36.3188C91.8789 35.7966 91.4563 35.3733 90.9339 35.3733H89.7424C89.4423 34.7191 88.8097 34.2562 88.0622 34.1877H91.5643C92.3926 34.1877 93.0662 34.869 93.0662 35.7073V64.6787H79.5348H62.4268H48.8767V35.7073ZM63.3712 66.569H78.5897V66.7727C78.5897 66.881 78.4945 66.9767 78.3856 66.9767H63.576C63.4671 66.9767 63.3712 66.881 63.3712 66.7727V66.569ZM97.6998 67.8664C97.6998 68.5818 97.1175 69.164 96.4026 69.164H45.5405C44.825 69.164 44.2426 68.5816 44.2426 67.8664V66.5691H61.4815V66.7728C61.4815 67.928 62.4208 68.8675 63.5761 68.8675H78.3857C79.5409 68.8675 80.4801 67.9282 80.4801 66.7728V66.5691H97.7V67.8664H97.6998ZM55.8273 41.4948L54.9035 43.0755C54.8712 43.0738 54.8411 43.0662 54.8085 43.0662C53.6635 43.0662 52.7324 43.9971 52.7324 45.1415C52.7324 46.2762 53.6635 47.1991 54.8085 47.1991C55.9532 47.1991 56.8846 46.276 56.8846 45.1415C56.8846 44.7252 56.7589 44.3377 56.5462 44.012L57.1858 42.9179H58.8701C61.269 47.283 65.9547 50.0729 70.9711 50.0729C76.0603 50.0729 80.6517 47.346 83.0907 42.9179H84.7759L85.4158 44.012C85.2031 44.3377 85.0774 44.7252 85.0774 45.1415C85.0774 46.2762 86.0082 47.1991 87.1535 47.1991C88.2874 47.1991 89.2103 46.276 89.2103 45.1415C89.2103 43.9971 88.2873 43.0662 87.1535 43.0662C87.1206 43.0662 87.0908 43.0738 87.0582 43.0755L86.1341 41.4948C85.9642 41.2052 85.6542 41.0271 85.3185 41.0271H82.5193C82.1604 41.0271 81.8328 41.2301 81.6731 41.551C79.6367 45.641 75.5363 48.182 70.9713 48.182C66.4697 48.182 62.2772 45.5801 60.2906 41.5539C60.1311 41.2316 59.8029 41.0273 59.4431 41.0273H56.6435C56.3078 41.0271 55.9971 41.2051 55.8273 41.4948ZM54.8083 45.309C54.7146 45.309 54.6222 45.2263 54.6222 45.1415C54.6222 45.0327 54.7206 44.9568 54.8083 44.9568C54.8958 44.9568 54.9944 45.0327 54.9944 45.1415C54.9944 45.2263 54.9024 45.309 54.8083 45.309ZM87.1534 45.309C87.0593 45.309 86.9673 45.2263 86.9673 45.1415C86.9673 45.0327 87.066 44.9568 87.1534 44.9568C87.2463 44.9568 87.3199 45.0378 87.3199 45.1415C87.3199 45.2319 87.2433 45.309 87.1534 45.309ZM54.8083 29.4056C54.8409 29.4056 54.8717 29.3971 54.9033 29.3956L55.8272 30.976C55.9971 31.2661 56.3076 31.4442 56.6434 31.4442H59.4426C59.8021 31.4442 60.13 31.2404 60.2889 30.9188C62.3156 26.8297 66.4089 24.2892 70.9708 24.2892C75.4755 24.2892 79.6758 26.8917 81.672 30.9188C81.8313 31.2404 82.1591 31.4442 82.5187 31.4442H85.3179C85.6536 31.4442 85.9637 31.2661 86.1335 30.976L87.0576 29.3956C87.0896 29.3973 87.12 29.4056 87.1529 29.4056C88.2868 29.4056 89.2097 28.4825 89.2097 27.3477C89.2097 26.2029 88.2866 25.2716 87.1529 25.2716C86.0076 25.2716 85.0768 26.2029 85.0768 27.3477C85.0768 27.7588 85.202 28.1408 85.4128 28.4629L84.7755 29.5537H83.0912C80.6832 25.1888 75.9898 22.3989 70.971 22.3989C65.8836 22.3989 61.2999 25.1255 58.8699 29.5537H57.1856L56.5489 28.4629C56.7594 28.1409 56.8846 27.7588 56.8846 27.3477C56.8846 26.2029 55.9532 25.2716 54.8085 25.2716C53.6635 25.2716 52.7324 26.2029 52.7324 27.3477C52.7322 28.4825 53.6633 29.4056 54.8083 29.4056ZM87.1534 27.1622C87.2463 27.1622 87.3199 27.2436 87.3199 27.3477C87.3199 27.4382 87.2433 27.5147 87.1534 27.5147C87.0593 27.5147 86.9673 27.4321 86.9673 27.3477C86.9673 27.2384 87.0658 27.1622 87.1534 27.1622ZM54.8083 27.1622C54.8958 27.1622 54.9944 27.2384 54.9944 27.3477C54.9944 27.4321 54.9024 27.5147 54.8083 27.5147C54.7146 27.5147 54.6222 27.4321 54.6222 27.3477C54.6222 27.2384 54.7206 27.1622 54.8083 27.1622Z" fill="#00AFCC" stroke="#00AFCC" stroke-width="0.306"/>
</svg>