<?xml version="1.0" standalone="no"?>
<!DOCTYPE svg PUBLIC "-//W3C//DTD SVG 1.1//EN" "http://www.w3.org/Graphics/SVG/1.1/DTD/svg11.dtd">
<svg xmlns="http://www.w3.org/2000/svg" width="329" height="150" viewBox="0 0 329 150" fill="none">
<circle cx="66.5001" cy="76.9082" r="42" fill="#E43F6F"/>
<g clip-path="url(#clip0_117_2167)">
<path fill-rule="evenodd" clip-rule="evenodd" d="M71.3281 77.8843V80.2004C80.1429 85.2704 84.6483 82.7354 84.6483 94.1889H48.6285C48.6285 82.2975 53.0302 85.2704 61.845 80.2004V78.2185C60.3009 77.1123 59.9783 75.1304 59.4252 73.0333C59.2063 73.0333 58.9758 72.6992 58.9758 72.2613V72.0424C58.8721 71.8234 58.6532 71.4893 58.538 71.0514C58.319 70.3946 57.766 69.0695 58.319 68.5164C58.7569 68.1823 59.0911 68.5164 59.0911 68.5164C58.4343 65.2094 57.547 60.8078 62.1676 59.4827C62.1676 56.6136 73.0795 57.835 74.3931 62.4555C75.0499 64.3222 74.1742 68.5164 74.1742 68.5164C74.3931 68.1823 74.612 68.1823 74.831 68.2975C75.3841 68.7354 74.831 70.4983 74.6121 71.0514C74.5083 71.4893 74.2779 71.8234 74.1742 72.1461V72.2613C74.1742 72.5955 73.9553 73.0333 73.7363 73.0333C73.2985 74.7963 72.8606 76.8934 71.3166 77.8843H71.3281Z" fill="white"/>
</g>
<g clip-path="url(#clip1_117_2167)">
<path fill-rule="evenodd" clip-rule="evenodd" d="M126.11 46.0897C126.11 46.4117 125.849 46.6728 125.527 46.6734H103.29C102.968 46.6734 102.706 46.4123 102.706 46.0897V33.8592C102.706 33.5372 102.968 33.2761 103.29 33.2755H125.527C125.849 33.2755 126.11 33.5372 126.11 33.8592V46.0897ZM107.701 38.8317C107.07 38.8317 106.559 39.3436 106.559 39.9747C106.559 40.6059 107.071 41.1172 107.702 41.1172C108.333 41.1172 108.844 40.6059 108.844 39.9747C108.844 39.3436 108.332 38.8323 107.701 38.8317ZM107.701 40.3503C107.909 40.3503 108.078 40.1817 108.078 39.9741C108.078 39.766 107.909 39.5974 107.702 39.5974C107.494 39.5974 107.325 39.766 107.325 39.9735C107.325 40.1811 107.494 40.3497 107.701 40.3503ZM121.115 38.8317C120.484 38.8317 119.973 39.3436 119.973 39.9747C119.973 40.6059 120.485 41.1172 121.116 41.1172C121.747 41.1172 122.258 40.6059 122.258 39.9747C122.258 39.3436 121.746 38.8323 121.115 38.8317ZM121.115 40.3503C121.323 40.3503 121.492 40.1823 121.492 39.9741C121.492 39.766 121.324 39.5974 121.116 39.5974C120.908 39.5974 120.739 39.7654 120.739 39.9735C120.739 40.1817 120.908 40.3497 121.115 40.3503ZM114.408 35.6029C112.226 35.6029 110.45 37.5639 110.45 39.9747C110.45 42.3855 112.226 44.346 114.408 44.346C116.591 44.346 118.366 42.3849 118.366 39.9747C118.366 37.5646 116.591 35.6029 114.408 35.6029ZM114.408 43.5797C116.167 43.5797 117.599 41.9625 117.599 39.9747C117.599 37.9869 116.167 36.3692 114.408 36.3692C112.649 36.3692 111.217 37.9869 111.217 39.9747C111.217 41.9625 112.649 43.5797 114.408 43.5797ZM124.649 35.9121C124.03 35.8452 123.541 35.3558 123.474 34.7362C123.429 34.2944 123.056 33.9584 122.612 33.959H106.204C105.76 33.9584 105.387 34.2944 105.343 34.7362C105.276 35.3558 104.786 35.8452 104.167 35.9121C103.725 35.9565 103.389 36.329 103.389 36.7733V43.1749C103.389 43.6192 103.725 43.9923 104.167 44.0374C104.786 44.1037 105.276 44.5931 105.343 45.212C105.387 45.6539 105.76 45.9899 106.204 45.9893H122.612C123.056 45.9899 123.429 45.6539 123.474 45.212C123.541 44.5931 124.03 44.1037 124.649 44.0374C125.092 43.9923 125.428 43.6192 125.426 43.1749V36.7733C125.427 36.329 125.091 35.9565 124.649 35.9121ZM124.66 43.1749V36.7733C124.661 36.7216 124.622 36.6784 124.57 36.6735C123.591 36.5682 122.817 35.7946 122.712 34.8154C122.707 34.7642 122.664 34.7247 122.612 34.7253H106.204C106.153 34.7253 106.109 34.7636 106.105 34.8154C105.999 35.7946 105.226 36.5682 104.246 36.6735C104.195 36.6784 104.156 36.7216 104.156 36.7733V43.1749C104.156 43.2267 104.195 43.2699 104.246 43.2748C105.226 43.3807 105.999 44.1536 106.105 45.1329C106.109 45.184 106.153 45.2236 106.204 45.223H122.612C122.664 45.2236 122.708 45.1847 122.712 45.1329C122.818 44.1536 123.591 43.3807 124.57 43.2748C124.622 43.2705 124.661 43.2267 124.66 43.1749ZM115.113 38.8865C115.111 39.0983 115.28 39.2718 115.491 39.2742C115.702 39.2766 115.876 39.1074 115.879 38.8962C115.879 38.8932 115.879 38.8896 115.879 38.8865C115.877 38.2225 115.433 37.6406 114.791 37.4672V37.1464C114.791 36.9346 114.62 36.763 114.408 36.763C114.196 36.763 114.025 36.934 114.025 37.1458V37.4672C113.24 37.6784 112.776 38.4848 112.986 39.2693C113.117 39.7556 113.488 40.1415 113.969 40.2912C113.988 40.2973 114.006 40.3028 114.024 40.3071V41.6534C113.824 41.5237 113.703 41.3016 113.702 41.063C113.705 40.8512 113.535 40.6777 113.324 40.6753C113.113 40.6729 112.939 40.8421 112.937 41.0532C112.937 41.0563 112.937 41.0599 112.937 41.063C112.938 41.7276 113.383 42.3089 114.025 42.4823V42.8031C114.025 43.0149 114.196 43.1859 114.408 43.1859C114.619 43.1859 114.791 43.0143 114.791 42.8031V42.4823C115.575 42.2705 116.039 41.4635 115.828 40.6795C115.719 40.2785 115.447 39.9419 115.077 39.7532C114.986 39.7063 114.89 39.6698 114.791 39.6449V38.2974C114.991 38.427 115.112 38.6491 115.112 38.8871L115.113 38.8865ZM113.703 38.8865C113.703 39.1257 113.825 39.3491 114.025 39.4787V38.2967C113.825 38.4258 113.704 38.6479 113.703 38.8865ZM115.113 41.0624C115.113 40.8238 114.992 40.601 114.792 40.472V41.6528C114.992 41.5231 115.113 41.301 115.113 41.0624Z" fill="#E43F6F"/>
<path fill-rule="evenodd" clip-rule="evenodd" d="M126.11 67.4875C126.11 67.8095 125.849 68.0706 125.527 68.0712H103.29C102.968 68.0712 102.706 67.8101 102.706 67.4875V55.257C102.706 54.9351 102.968 54.6739 103.29 54.6733H125.527C125.849 54.6733 126.11 54.9351 126.11 55.257V67.4875ZM107.701 60.2296C107.07 60.2296 106.559 60.7414 106.559 61.3726C106.559 62.0037 107.071 62.515 107.702 62.515C108.333 62.515 108.844 62.0037 108.844 61.3726C108.844 60.7414 108.332 60.2302 107.701 60.2296ZM107.701 61.7481C107.909 61.7481 108.078 61.5795 108.078 61.372C108.078 61.1638 107.909 60.9952 107.702 60.9952C107.494 60.9952 107.325 61.1638 107.325 61.3714C107.325 61.5789 107.494 61.7475 107.701 61.7481ZM121.115 60.2296C120.484 60.2296 119.973 60.7414 119.973 61.3726C119.973 62.0037 120.485 62.515 121.116 62.515C121.747 62.515 122.258 62.0037 122.258 61.3726C122.258 60.7414 121.746 60.2302 121.115 60.2296ZM121.115 61.7481C121.323 61.7481 121.492 61.5801 121.492 61.372C121.492 61.1638 121.324 60.9952 121.116 60.9952C120.908 60.9952 120.739 61.1632 120.739 61.3714C120.739 61.5795 120.908 61.7475 121.115 61.7481ZM114.408 57.0008C112.226 57.0008 110.45 58.9618 110.45 61.3726C110.45 63.7834 112.226 65.7438 114.408 65.7438C116.591 65.7438 118.366 63.7828 118.366 61.3726C118.366 58.9624 116.591 57.0008 114.408 57.0008ZM114.408 64.9775C116.167 64.9775 117.599 63.3604 117.599 61.3726C117.599 59.3848 116.167 57.767 114.408 57.767C112.649 57.767 111.217 59.3848 111.217 61.3726C111.217 63.3604 112.649 64.9775 114.408 64.9775ZM124.649 57.3099C124.03 57.243 123.541 56.7537 123.474 56.1341C123.429 55.6922 123.056 55.3562 122.612 55.3568H106.204C105.76 55.3562 105.387 55.6922 105.343 56.1341C105.276 56.7537 104.786 57.243 104.167 57.3099C103.725 57.3544 103.389 57.7269 103.389 58.1712V64.5728C103.389 65.0171 103.725 65.3902 104.167 65.4352C104.786 65.5015 105.276 65.9909 105.343 66.6099C105.387 67.0517 105.76 67.3877 106.204 67.3871H122.612C123.056 67.3877 123.429 67.0517 123.474 66.6099C123.541 65.9909 124.03 65.5015 124.649 65.4352C125.092 65.3902 125.428 65.0171 125.426 64.5728V58.1712C125.427 57.7269 125.091 57.3544 124.649 57.3099ZM124.66 64.5728V58.1712C124.661 58.1194 124.622 58.0762 124.57 58.0713C123.591 57.9661 122.817 57.1925 122.712 56.2132C122.707 56.1621 122.664 56.1225 122.612 56.1231H106.204C106.153 56.1231 106.109 56.1615 106.105 56.2132C105.999 57.1925 105.226 57.9661 104.246 58.0713C104.195 58.0762 104.156 58.1194 104.156 58.1712V64.5728C104.156 64.6245 104.195 64.6677 104.246 64.6726C105.226 64.7785 105.999 65.5515 106.105 66.5307C106.109 66.5819 106.153 66.6214 106.204 66.6208H122.612C122.664 66.6214 122.708 66.5825 122.712 66.5307C122.818 65.5515 123.591 64.7785 124.57 64.6726C124.622 64.6683 124.661 64.6245 124.66 64.5728ZM115.113 60.2843C115.111 60.4961 115.28 60.6696 115.491 60.672C115.702 60.6745 115.876 60.5053 115.879 60.2941C115.879 60.291 115.879 60.2874 115.879 60.2843C115.877 59.6203 115.433 59.0385 114.791 58.865V58.5443C114.791 58.3324 114.62 58.1608 114.408 58.1608C114.196 58.1608 114.025 58.3318 114.025 58.5436V58.865C113.24 59.0762 112.776 59.8826 112.986 60.6672C113.117 61.1535 113.488 61.5393 113.969 61.6891C113.988 61.6952 114.006 61.7006 114.024 61.7049V63.0512C113.824 62.9215 113.703 62.6994 113.702 62.4608C113.705 62.249 113.535 62.0755 113.324 62.0731C113.113 62.0707 112.939 62.2399 112.937 62.4511C112.937 62.4541 112.937 62.4578 112.937 62.4608C112.938 63.1254 113.383 63.7067 114.025 63.8801V64.2009C114.025 64.4127 114.196 64.5837 114.408 64.5837C114.619 64.5837 114.791 64.4121 114.791 64.2009V63.8801C115.575 63.6683 116.039 62.8613 115.828 62.0774C115.719 61.6763 115.447 61.3397 115.077 61.151C114.986 61.1042 114.89 61.0676 114.791 61.0427V59.6952C114.991 59.8248 115.112 60.047 115.112 60.2849L115.113 60.2843ZM113.703 60.2843C113.703 60.5235 113.825 60.7469 114.025 60.8765V59.6946C113.825 59.8236 113.704 60.0458 113.703 60.2843ZM115.113 62.4602C115.113 62.2216 114.992 61.9989 114.792 61.8698V63.0506C114.992 62.9209 115.113 62.6988 115.113 62.4602Z" fill="#444C58"/>
</g>
<path fill-rule="evenodd" clip-rule="evenodd" d="M231.145 58.5438C231.145 58.8658 230.883 59.1269 230.561 59.1275H208.324C208.002 59.1275 207.74 58.8664 207.74 58.5438V46.3133C207.74 45.9913 208.002 45.7302 208.324 45.7296H230.561C230.883 45.7296 231.144 45.9913 231.145 46.3133V58.5438ZM212.735 51.2858C212.104 51.2858 211.593 51.7977 211.593 52.4288C211.593 53.06 212.105 53.5713 212.736 53.5713C213.367 53.5713 213.878 53.06 213.878 52.4288C213.878 51.7977 213.366 51.2864 212.735 51.2858ZM212.735 52.8044C212.943 52.8044 213.112 52.6358 213.112 52.4282C213.112 52.2201 212.943 52.0515 212.736 52.0515C212.528 52.0515 212.359 52.2201 212.359 52.4276C212.359 52.6352 212.528 52.8038 212.735 52.8044ZM226.15 51.2858C225.518 51.2858 225.007 51.7977 225.007 52.4288C225.007 53.06 225.519 53.5713 226.15 53.5713C226.781 53.5713 227.293 53.06 227.293 52.4288C227.293 51.7977 226.781 51.2864 226.15 51.2858ZM226.15 52.8044C226.358 52.8044 226.526 52.6364 226.526 52.4282C226.526 52.2201 226.358 52.0515 226.15 52.0515C225.942 52.0515 225.773 52.2195 225.773 52.4276C225.773 52.6358 225.942 52.8038 226.15 52.8044ZM219.442 48.057C217.26 48.057 215.484 50.018 215.484 52.4288C215.484 54.8396 217.26 56.8001 219.442 56.8001C221.625 56.8001 223.4 54.839 223.4 52.4288C223.4 50.0187 221.625 48.057 219.442 48.057ZM219.442 56.0338C221.201 56.0338 222.633 54.4166 222.633 52.4288C222.633 50.4411 221.201 48.8233 219.442 48.8233C217.683 48.8233 216.251 50.4411 216.251 52.4288C216.251 54.4166 217.683 56.0338 219.442 56.0338ZM229.683 48.3662C229.064 48.2993 228.575 47.8099 228.509 47.1903C228.464 46.7485 228.09 46.4125 227.646 46.4131H211.238C210.794 46.4125 210.421 46.7485 210.377 47.1903C210.31 47.8099 209.82 48.2993 209.201 48.3662C208.759 48.4106 208.423 48.7831 208.424 49.2274V55.629C208.423 56.0733 208.759 56.4464 209.201 56.4915C209.82 56.5578 210.31 57.0472 210.377 57.6661C210.421 58.108 210.794 58.444 211.238 58.4434H227.646C228.09 58.444 228.464 58.108 228.509 57.6661C228.575 57.0472 229.064 56.5578 229.683 56.4915C230.126 56.4464 230.462 56.0733 230.46 55.629V49.2274C230.461 48.7831 230.125 48.4106 229.683 48.3662ZM229.694 55.629V49.2274C229.695 49.1757 229.656 49.1325 229.604 49.1276C228.625 49.0223 227.851 48.2488 227.746 47.2695C227.741 47.2183 227.698 47.1788 227.646 47.1794H211.238C211.187 47.1794 211.144 47.2177 211.139 47.2695C211.033 48.2488 210.26 49.0223 209.281 49.1276C209.23 49.1325 209.19 49.1757 209.191 49.2274V55.629C209.191 55.6808 209.229 55.724 209.281 55.7289C210.26 55.8348 211.033 56.6077 211.139 57.587C211.143 57.6381 211.187 57.6777 211.238 57.6771H227.646C227.698 57.6777 227.742 57.6388 227.746 57.587C227.852 56.6077 228.625 55.8348 229.604 55.7289C229.656 55.7246 229.695 55.6808 229.694 55.629ZM220.147 51.3406C220.145 51.5524 220.314 51.7259 220.525 51.7283C220.736 51.7307 220.91 51.5615 220.913 51.3503C220.913 51.3473 220.913 51.3437 220.913 51.3406C220.912 50.6766 220.467 50.0947 219.825 49.9213V49.6005C219.825 49.3887 219.654 49.2171 219.442 49.2171C219.231 49.2171 219.059 49.3881 219.059 49.5999V49.9213C218.274 50.1325 217.81 50.9389 218.021 51.7234C218.151 52.2097 218.522 52.5956 219.003 52.7453C219.022 52.7514 219.04 52.7569 219.058 52.7612V54.1075C218.858 53.9778 218.737 53.7557 218.736 53.5171C218.739 53.3053 218.57 53.1318 218.358 53.1294C218.147 53.127 217.973 53.2962 217.971 53.5073C217.971 53.5104 217.971 53.514 217.971 53.5171C217.972 54.1817 218.417 54.763 219.059 54.9364V55.2572C219.059 55.469 219.231 55.64 219.442 55.64C219.654 55.64 219.825 55.4684 219.825 55.2572V54.9364C220.609 54.7246 221.074 53.9176 220.862 53.1336C220.753 52.7326 220.481 52.396 220.111 52.2073C220.021 52.1604 219.924 52.1239 219.825 52.099V50.7515C220.025 50.8811 220.147 51.1032 220.147 51.3412L220.147 51.3406ZM218.738 51.3406C218.738 51.5798 218.859 51.8032 219.06 51.9328V50.7508C218.859 50.8799 218.738 51.102 218.738 51.3406ZM220.147 53.5165C220.147 53.2779 220.026 53.0551 219.826 52.9261V54.1069C220.026 53.9772 220.147 53.7551 220.147 53.5165Z" fill="#444C58"/>
<circle cx="167.817" cy="70.5368" r="28.1775" stroke="#4B5563" stroke-width="2.1675"/>
<g clip-path="url(#clip2_117_2167)">
<path d="M162.471 83.2269H167.202V78.1253H162.471V83.2269ZM167.741 78.1253V83.2269H172.472V78.1253H167.741ZM177.95 83.2269H179.387V83.7654H155.556V83.2269H156.993V57.3086H177.95V83.2269ZM174.794 74.9587V71.4517H170.685V74.9587H174.794ZM174.794 70.2372V66.7308H170.685V70.2372H174.794ZM174.794 65.5126V62.0062H170.685V65.5126H174.794ZM169.434 74.9587V71.4517H165.321V74.9587H169.434ZM169.434 70.2372V66.7308H165.321V70.2372H169.434ZM169.434 65.5126V62.0062H165.321V65.5126H169.434ZM164.258 74.9587V71.4517H160.149V74.9587H164.258ZM164.258 70.2372V66.7308H160.149V70.2372H164.258ZM164.258 65.5126V62.0062H160.149V65.5126H164.258Z" fill="#4B5563"/>
</g>
<circle cx="276.036" cy="70.5368" r="28.1775" stroke="#4B5563" stroke-width="2.1675"/>
<path fill-rule="evenodd" clip-rule="evenodd" d="M278.518 71.7335V73.2574C284.244 76.5934 287.17 74.9254 287.17 82.4617H263.774C263.774 74.6373 266.633 76.5934 272.359 73.2574V71.9534C271.356 71.2255 271.146 69.9214 270.787 68.5416C270.645 68.5416 270.495 68.3217 270.495 68.0336V67.8895C270.428 67.7455 270.286 67.5256 270.211 67.2375C270.069 66.8053 269.709 65.9334 270.069 65.5695C270.353 65.3496 270.57 65.5695 270.57 65.5695C270.144 63.3935 269.567 60.4973 272.568 59.6254C272.568 57.7375 279.656 58.5412 280.509 61.5815C280.936 62.8097 280.367 65.5695 280.367 65.5695C280.509 65.3496 280.652 65.3496 280.794 65.4254C281.153 65.7135 280.794 66.8736 280.652 67.2375C280.584 67.5256 280.434 67.7455 280.367 67.9578V68.0336C280.367 68.2534 280.225 68.5416 280.083 68.5416C279.798 69.7016 279.514 71.0814 278.511 71.7335H278.518Z" fill="#4B5563"/>
<path d="M137.208 70.6236C137.568 70.9836 137.568 71.5674 137.208 71.9274L131.34 77.7947C130.98 78.1548 130.396 78.1548 130.036 77.7947C129.676 77.4347 129.676 76.8509 130.036 76.4909L135.252 71.2755L130.036 66.0602C129.676 65.7001 129.676 65.1164 130.036 64.7563C130.396 64.3963 130.98 64.3963 131.34 64.7563L137.208 70.6236ZM92.5556 71.2755V70.3536L136.556 70.3536V71.2755V72.1975L92.5556 72.1975V71.2755Z" fill="#4B5563"/>
<path d="M245.208 70.6236C245.568 70.9836 245.568 71.5674 245.208 71.9274L239.34 77.7947C238.98 78.1548 238.396 78.1548 238.036 77.7947C237.676 77.4347 237.676 76.8509 238.036 76.4909L243.252 71.2755L238.036 66.0602C237.676 65.7001 237.676 65.1164 238.036 64.7563C238.396 64.3963 238.98 64.3963 239.34 64.7563L245.208 70.6236ZM200.556 71.2755V70.3536L244.556 70.3536V71.2755V72.1975L200.556 72.1975V71.2755Z" fill="#4B5563"/>
<path d="M42.2647 56.8332C42.5231 56.8788 42.7928 56.7488 42.9213 56.4946C43.0796 56.1813 42.9634 55.7978 42.6618 55.638C41.8303 55.1974 41.0477 54.658 40.3357 54.0349C39.4435 53.2542 39.0429 52.8875 38.8816 52.4739C39.8057 52.4636 41.1027 52.2138 42.487 51.2152C42.8385 50.9617 43.0906 50.6378 43.2161 50.2787C43.368 49.8439 43.3306 49.3448 43.116 48.9438C42.8197 48.3903 42.2124 48.1104 41.7437 48.0327C41.1006 47.9265 40.4333 48.0838 39.7036 48.5137C39.08 48.8811 38.4982 49.4643 38.1073 50.1139C37.9302 50.4084 37.7949 50.7081 37.7028 51.0086C37.1052 50.7713 36.0831 50.2304 35.8275 49.2398C35.8065 49.1582 35.7922 49.0752 35.7842 48.991C35.8621 48.9809 35.9225 48.9712 35.9624 48.9642C36.3904 48.8896 36.905 48.7415 37.492 48.5241C38.2644 48.238 38.8554 47.9146 39.2869 47.6784L39.2958 47.6736C39.3782 47.6285 39.477 47.5768 39.5815 47.522C40.4464 47.069 41.7535 46.3845 42.0555 45.2941C42.1862 44.8222 42.1104 44.3315 41.8363 43.8751C41.5569 43.4099 41.134 43.1194 40.614 43.0349C40.0455 42.9427 39.3664 43.0969 38.5955 43.4934C37.8805 43.861 37.3225 44.3117 37.1158 44.4884C36.4465 45.0605 35.1731 46.2976 34.7122 47.7611C33.912 47.7196 32.8256 47.4807 32.0206 46.6095C31.739 46.3048 31.5228 45.9539 31.3739 45.5615C31.4263 45.5496 31.478 45.5379 31.5286 45.5264C31.6753 45.4931 31.8139 45.4617 31.9421 45.4345C33.866 45.0262 35.9484 44.0972 38.4955 42.5107C38.8255 42.3052 39.1558 42.0896 39.4771 41.87C40.3765 41.2554 41.596 40.3016 41.8033 39.1188C41.8963 38.5875 41.7716 38.0654 41.4424 37.6089C41.1815 37.2469 40.7825 36.9855 40.2886 36.8531C39.1743 36.5543 38.0106 36.6519 36.731 37.1515C35.6269 37.5826 34.6016 38.2538 33.7444 38.8535C32.3978 39.7955 31.3045 41.0998 30.5829 42.6252L30.5597 42.6741C30.3022 43.2177 29.995 43.8663 29.9478 44.5431C29.1019 44.6586 28.2741 44.629 27.8342 44.1093C27.1892 43.3473 27.9376 41.1827 28.9059 39.4938C30.8622 36.0818 34.3992 34.5377 37.0219 33.8433C37.3527 33.7557 37.5552 33.4086 37.4743 33.068C37.3933 32.7274 37.0595 32.5222 36.7287 32.6099C35.1411 33.0302 33.683 33.6256 32.3946 34.3797C30.4147 35.5384 28.8846 37.044 27.8465 38.8545C27.6336 39.2258 27.0989 40.2082 26.733 41.3075C26.1864 42.9493 26.2431 44.1762 26.9016 44.954C27.7089 45.9076 28.9774 45.96 30.1405 45.798C30.3442 46.4387 30.6733 47.0074 31.1234 47.4945C31.8758 48.3088 32.9151 48.8245 34.1292 48.9866C34.2731 49.0057 34.4129 49.0191 34.5468 49.0279C34.5589 49.2112 34.5877 49.396 34.6355 49.5814C34.8451 50.3935 35.3578 51.0823 36.1593 51.6287C36.5546 51.8981 37.0067 52.1216 37.5033 52.2929C37.5116 52.2958 37.5366 52.3042 37.577 52.316C37.5846 52.3786 37.5943 52.441 37.6059 52.503C37.6968 52.9853 37.9016 53.3908 38.2696 53.8179C38.579 54.1769 38.9995 54.5449 39.5318 55.0108C40.3145 55.6958 41.1748 56.2886 42.0887 56.7728C42.1455 56.8029 42.2048 56.8229 42.2648 56.8335L42.2647 56.8332ZM41.5446 49.292C41.7603 49.33 41.97 49.4485 42.0349 49.5698C42.08 49.654 42.0885 49.7675 42.0566 49.8587C42.0199 49.9638 41.9247 50.0757 41.7888 50.1738C40.9232 50.7982 40.0087 51.1413 39.0707 51.1937C39.027 51.1962 38.9843 51.1978 38.9425 51.199C39.0053 51.0406 39.0801 50.8977 39.1528 50.7769C39.4329 50.3115 39.8637 49.8783 40.3054 49.6181C40.7789 49.3391 41.1812 49.2319 41.5351 49.2903C41.5382 49.2909 41.5414 49.2914 41.5446 49.292L41.5446 49.292ZM40.4187 44.2948C40.5839 44.3239 40.6941 44.4023 40.786 44.5553C40.9044 44.7524 40.893 44.8736 40.8699 44.957C40.8295 45.1028 40.6858 45.3468 40.2305 45.6812C39.8527 45.9585 39.3987 46.1963 39.0338 46.3874C38.9241 46.4448 38.8205 46.4991 38.7282 46.5497L38.7193 46.5545C38.299 46.7845 37.7759 47.0709 37.0877 47.3258C36.717 47.4631 36.3847 47.5681 36.0953 47.6394C36.4867 46.8526 37.1861 46.072 37.8955 45.4655C38.6486 44.8217 39.7855 44.192 40.4087 44.2931C40.412 44.2937 40.4154 44.2943 40.4187 44.2948L40.4187 44.2948ZM39.6548 38.017C39.7585 38.0353 39.862 38.0581 39.9656 38.0859C40.1851 38.1448 40.3572 38.2482 40.45 38.3769C40.5793 38.5563 40.6224 38.7196 40.5897 38.9062C40.5275 39.2609 40.1675 39.8792 38.8049 40.8103C38.4981 41.02 38.1827 41.2257 37.8676 41.422C35.4458 42.9304 33.4883 43.809 31.7073 44.187C31.571 44.2159 31.4284 44.2483 31.2774 44.2825C31.2635 44.2856 31.2496 44.2888 31.2356 44.292C31.3277 43.9376 31.5092 43.5543 31.6664 43.2225L31.6898 43.1731C32.3155 41.8505 33.2623 40.7204 34.4279 39.905C36.1028 38.7333 37.8894 37.7056 39.6549 38.0169L39.6548 38.017Z" fill="#1F2937"/>
<defs>
<clipPath id="clip0_117_2167">
<rect x="35.965" y="57.95" width="61.5654" height="36.2272" rx="7.225" fill="white"/>
</clipPath>
<clipPath id="clip1_117_2167">
<rect width="40.6912" height="34.7957" fill="white" transform="translate(94.706 33.2755)"/>
</clipPath>
<clipPath id="clip2_117_2167">
<rect width="23.8314" height="26.4563" fill="white" transform="translate(155.556 57.3086)"/>
</clipPath>
</defs>
</svg>