<svg xmlns="http://www.w3.org/2000/svg" xmlns:xlink="http://www.w3.org/1999/xlink" width="500" zoomAndPan="magnify" viewBox="0 0 375 374.999991" height="500" preserveAspectRatio="xMidYMid meet" version="1.0"><path fill="#000814" d="M 212.496094 172.46875 C 212.5625 172.496094 211.609375 177.699219 204.253906 182.558594 C 201.1875 184.585938 196.878906 186.320312 191.683594 186.28125 C 187.710938 186.25 183.183594 185.121094 179.121094 182.359375 C 175.710938 180.035156 172.636719 176.527344 170.839844 172.082031 C 168.308594 165.804688 168.527344 157.515625 172.847656 150.53125 C 176.523438 144.597656 183.105469 139.828125 191 138.453125 C 197.191406 137.375 204 138.382812 210.148438 141.488281 C 215.792969 144.34375 220.796875 148.882812 224.546875 154.578125 C 231.351562 164.929688 233.671875 178.300781 232.296875 192.210938 C 231.476562 200.683594 229.351562 209.53125 225.164062 217.6875 C 221.238281 225.34375 215.335938 232.503906 207.550781 237.414062 C 200.175781 242.0625 191.015625 244.589844 181.847656 243.40625 C 173.148438 242.28125 164.507812 237.574219 159.285156 229.875 C 155.886719 224.832031 154.054688 218.695312 153.996094 212.449219 C 153.9375 206.382812 155.507812 200.277344 158.410156 194.78125 C 163.996094 184.226562 174.382812 176.167969 186.457031 172.6875 C 197.914062 169.382812 210.5625 170.0625 222.367188 174.027344 C 236.320312 178.683594 249.691406 188.386719 256.617188 202.480469 C 259.945312 209.28125 261.683594 217.015625 261.203125 224.792969 C 260.734375 232.390625 258.078125 239.992188 253.28125 246.179688 C 249.535156 251.007812 244.507812 254.914062 238.753906 257.300781 C 233.097656 259.648438 226.769531 260.503906 220.589844 259.628906 C 214.515625 258.761719 208.632812 256.210938 203.820312 252.21875 C 199.089844 248.289062 195.441406 242.980469 193.535156 237.011719 C 191.664062 231.082031 191.5 224.875 191.621094 218.792969 C 191.714844 212.851562 192.042969 206.84375 191.082031 201.132812 C 190.113281 195.511719 187.859375 189.882812 183.640625 186.265625 C 181.566406 184.46875 179.046875 183.144531 176.382812 182.667969 C 173.75 182.195312 170.925781 182.523438 168.597656 183.757812 C 165.527344 185.316406 163.308594 188.464844 162 191.902344 C 160.703125 195.339844 160.332031 199.152344 160.0625 203.0625 C 159.816406 206.925781 159.679688 210.980469 158.796875 215.011719 C 157.9375 219.03125 156.152344 223.074219 153.011719 226.097656 C 150.652344 228.3125 147.675781 229.777344 144.550781 230.441406 C 141.449219 231.097656 138.238281 231.015625 135.179688 230.363281 C 129.117188 229.050781 123.789062 225.769531 119.054688 222.046875 C 113.082031 217.398438 107.601562 211.894531 103.277344 205.464844 C 99.007812 199.128906 95.898438 191.839844 94.730469 184.105469 C 93.578125 176.472656 94.414062 168.40625 97.625 161.191406 C 100.796875 154.070312 106.378906 147.894531 113.535156 144.378906 C 118.578125 141.921875 124.199219 140.84375 129.773438 140.859375 C 135.292969 140.875 140.746094 141.886719 145.996094 143.453125 C 156.351562 146.535156 165.898438 151.613281 175.847656 155.304688 C 185.554688 158.914062 195.980469 161.261719 206.035156 165.433594 C 215.933594 169.5 225.6875 175.847656 231.355469 185.546875 C 234.589844 191.152344 236.230469 197.703125 235.917969 204.246094 C 235.609375 210.730469 233.359375 217.136719 229.417969 222.390625 C 225.511719 227.597656 219.972656 231.589844 213.695312 233.578125 C 207.472656 235.542969 200.605469 235.480469 194.378906 233.28125 C 187.539062 230.847656 181.691406 225.925781 177.90625 219.703125 C 174.164062 213.546875 172.421875 206.253906 172.722656 199.039062 C 173.023438 191.898438 175.246094 184.886719 178.898438 178.730469 C 182.519531 172.628906 187.46875 167.371094 193.179688 163.15625 C 199.410156 158.519531 206.878906 155.035156 214.921875 154.464844 C 224.039062 153.875 233.253906 157.28125 240.03125 163.488281 C 246.722656 169.628906 250.964844 178.261719 252.050781 187.324219 C 253.121094 196.285156 251.199219 205.515625 246.910156 213.496094 C 242.664062 221.386719 236.222656 228.023438 228.613281 232.8125 C 221.558594 237.28125 213.304688 240.214844 204.742188 240.394531 C 196.230469 240.574219 187.503906 237.785156 181.007812 231.957031 C 175.550781 227.023438 171.976562 220.027344 171.332031 212.605469 C 170.707031 205.234375 173.050781 197.644531 177.910156 191.953125 C 182.746094 186.308594 189.957031 182.773438 197.472656 182.570312 C 204.9375 182.386719 212.410156 185.570312 217.382812 191.265625 C 221.421875 195.941406 223.636719 201.980469 223.949219 208.085938 C 224.261719 214.140625 222.835938 220.167969 220.238281 225.566406 C 215.050781 236.25 205.929688 244.21875 196.40625 250.78125 C 189.015625 255.9375 181.039062 260.617188 172.300781 263.671875 C 163.621094 266.714844 154.085938 268.011719 144.792969 266.351562 C 135.253906 264.617188 126.328125 259.6875 119.710938 252.492188 C 113.152344 245.355469 108.945312 236.097656 107.847656 226.390625 C 106.765625 216.765625 108.742188 206.820312 113.4375 198.269531 C 118.097656 189.789062 125.367188 182.769531 134.054688 178.355469 C 144.375 173.136719 156.328125 171.65625 167.753906 173.292969 C 179.0625 174.910156 189.804688 179.367188 199.464844 185.40625 C 206.890625 190.023438 213.855469 195.679688 219.488281 202.625 C 225.089844 209.527344 229.273438 217.785156 230.882812 226.726562 C 232.480469 235.625 231.316406 245.152344 226.921875 253.265625 C 222.539062 261.339844 214.808594 267.6875 205.679688 269.816406 C 200.207031 271.054688 194.492188 270.761719 189.160156 269.28125 C 183.855469 267.808594 178.9375 265.261719 174.542969 262.085938 C 165.808594 255.746094 159.183594 247.300781 152.898438 238.960938 C 152.898438 238.960938 152.898438 238.957031 152.898438 238.957031 C 142.082031 224.714844 131.152344 209.558594 125.03125 192.039062 C 122.003906 183.332031 120.25 174.039062 120.507812 164.652344 C 120.761719 155.316406 123.113281 145.910156 127.886719 137.6875 C 133.3125 128.390625 141.773438 120.929688 151.691406 116.601562 C 161.535156 112.3125 172.679688 111.125 183.28125 113.15625 C 194.882812 115.394531 205.632812 121.375 214.003906 129.734375 C 222.3125 138.027344 228.296875 148.507812 231.699219 159.753906 C 234.589844 169.253906 235.675781 179.421875 234.359375 189.417969 C 233.042969 199.355469 229.257812 209.070312 223.019531 217.105469 C 215.269531 227.085938 203.636719 234.15625 190.917969 235.792969 C 178.273438 237.40625 164.886719 233.320312 155.605469 224.296875 C 147.105469 215.949219 142.589844 203.894531 143.195312 191.96875 C 143.8125 180.136719 149.285156 168.757812 157.929688 160.632812 C 166.515625 152.578125 177.945312 147.785156 189.695312 146.960938 C 201.363281 146.148438 213.175781 149.128906 223.265625 155.070312 C 232.511719 160.515625 240.316406 168.378906 245.769531 177.683594 C 251.191406 186.9375 254.261719 197.546875 254.6875 208.3125 C 255.296875 222.753906 250.816406 237.738281 240.882812 248.679688 C 235.929688 254.105469 229.671875 258.398438 222.671875 260.890625 C 215.691406 263.375 208.011719 263.984375 200.683594 262.402344 C 188.574219 259.699219 178.375 251.300781 172.027344 240.871094 C 165.734375 230.539062 162.8125 218.59375 161.824219 206.761719 C 160.734375 194.746094 161.648438 182 167.007812 170.652344 C 169.699219 165 173.550781 159.820312 178.488281 155.777344 C 183.417969 151.738281 189.449219 148.957031 195.886719 148.113281 C 201.199219 147.445312 206.605469 148.113281 211.589844 149.910156 C 216.558594 151.691406 221.09375 154.519531 224.953125 158.042969 C 232.625 165.082031 237.59375 174.539062 240.269531 184.382812 C 245.964844 205.359375 242.351562 227.660156 235.140625 247.875 C 230.65625 260.734375 224.335938 273.695312 213.863281 283.3125 C 208.625 288.089844 202.335938 291.871094 195.375 293.878906 C 188.425781 295.886719 180.835938 295.96875 173.820312 293.660156 C 167.25 291.457031 161.5 287.246094 157.226562 281.894531 C 152.972656 276.5625 150.144531 270.230469 148.726562 263.644531 C 145.949219 250.527344 148.417969 236.964844 153.234375 224.8125 C 156.972656 215.242188 162.164062 206.121094 168.976562 198.238281 C 175.765625 190.382812 184.226562 183.832031 193.875 179.632812 C 203.960938 175.238281 215.390625 173.582031 226.382812 175.679688 C 237.347656 177.777344 247.648438 183.835938 254.378906 192.984375 C 258.609375 198.773438 261.289062 205.65625 262.105469 212.796875 C 262.917969 219.914062 261.875 227.214844 259.113281 233.839844 C 256.355469 240.445312 251.921875 246.316406 246.328125 250.796875 C 240.746094 255.261719 234.066406 258.304688 227.027344 259.601562 C 214.976562 261.757812 202.617188 258.921875 191.976562 253.480469 C 181.398438 248.09375 172.324219 240.511719 163.832031 232.675781 C 152.949219 222.710938 142.308594 211.683594 135.113281 198.191406 C 131.535156 191.457031 128.910156 184.109375 127.773438 176.433594 C 126.640625 168.769531 127.082031 160.78125 129.476562 153.273438 C 133.492188 140.851562 142.789062 130.46875 154.417969 124.640625 C 165.984375 118.863281 179.488281 117.503906 192.0625 120.300781 C 202.980469 122.734375 213.0625 128.082031 221.621094 135.121094 C 230.140625 142.125 237.207031 150.679688 243.09375 159.871094 C 243.09375 159.871094 243.09375 159.875 243.09375 159.875 C 253.753906 176.410156 260.925781 195.800781 261.105469 215.886719 C 261.277344 235.894531 253.761719 256.417969 238.714844 270.179688 C 226.144531 281.511719 209.46875 287.371094 192.796875 288.546875 C 176.242188 289.730469 159.769531 286.765625 144.058594 282.160156 C 119.503906 275.058594 95.152344 263.300781 77.605469 243.753906 C 66.109375 230.875 58.039062 214.84375 54.914062 197.714844 C 51.8125 180.675781 53.710938 162.664062 60.726562 146.675781 C 66.890625 132.699219 76.714844 120.589844 88.347656 110.859375 C 99.917969 101.171875 113.15625 93.730469 126.921875 87.828125 C 143.734375 80.582031 161.878906 75.445312 180.542969 74.960938 C 199.136719 74.46875 218.285156 79.011719 233.890625 89.789062 C 246.917969 98.863281 256.867188 111.953125 262.921875 126.566406 C 268.941406 141.109375 271.25 157.003906 270.523438 172.65625 C 269.027344 203.769531 256.273438 233.046875 240.566406 259.601562 C 228.476562 280.257812 213.785156 300.574219 193.34375 314.382812 C 183.144531 321.25 171.539062 326.292969 159.226562 328.339844 C 146.945312 330.386719 133.992188 329.265625 122.339844 324.375 C 122.339844 324.375 122.339844 324.371094 122.339844 324.371094 C 110.601562 319.382812 100.699219 310.804688 93.320312 300.59375 C 85.96875 290.429688 80.972656 278.816406 77.632812 266.902344 C 70.097656 239.988281 70.507812 211.394531 75.566406 184.003906 C 80.582031 156.785156 89.890625 130.703125 100.03125 105.074219 C 106.414062 88.824219 113.464844 72.171875 124.644531 57.945312 C 130.238281 50.851562 136.902344 44.460938 144.648438 39.515625 C 152.382812 34.574219 161.238281 31.183594 170.523438 30.183594 C 185.027344 28.714844 199.488281 33.105469 211.679688 40.496094 C 223.820312 47.828125 233.957031 57.730469 243.175781 68.046875 C 257.347656 83.824219 270.191406 101.28125 279.132812 120.910156 C 288.050781 140.457031 292.839844 162.359375 290.625 184.089844 C 288.0625 208.503906 276.640625 231.523438 260.046875 249.527344 C 243.554688 267.429688 222.328125 280.527344 199.578125 288.972656 C 180.832031 295.992188 160.40625 299.980469 140.09375 297.660156 C 119.808594 295.351562 99.804688 286.03125 86.667969 269.859375 C 78.78125 260.015625 73.800781 248.265625 70.859375 236.265625 C 67.917969 224.308594 66.808594 212.132812 66.054688 200.113281 C 66.054688 200.113281 66.054688 200.109375 66.054688 200.109375 C 64.320312 173.292969 64.175781 145.769531 70.09375 119.007812 C 75.96875 92.339844 88.53125 66.308594 109.1875 47.664062 C 131.609375 27.597656 162.113281 17.808594 192.113281 18.292969 C 221.929688 18.777344 251.042969 28.695312 276.53125 44.003906 C 293.8125 54.347656 309.632812 67.394531 322.644531 82.984375 C 335.5 98.367188 345.492188 116.429688 350.554688 136.066406 C 358.707031 167.859375 353.378906 202.960938 335.753906 230.890625 C 319.414062 256.589844 294.246094 275.113281 267.832031 289.359375 C 241.609375 303.566406 213.871094 314.265625 187.996094 328.117188 C 165.296875 340.269531 143.222656 355.292969 118.390625 365.023438 C 105.96875 369.886719 92.796875 373.339844 79.253906 374.160156 C 65.726562 374.980469 51.832031 372.996094 39.25 367.371094 C 31.476562 363.890625 24.273438 358.976562 18.332031 352.726562 C 12.394531 346.472656 7.808594 338.863281 5.304688 330.5 C 1.828125 318.648438 2.644531 305.972656 6.324219 294.464844 C 9.984375 283 16.171875 272.640625 23.324219 263.316406 C 30.457031 253.992188 38.460938 245.59375 46.25 237.199219 C 53.992188 228.832031 61.566406 220.425781 67.757812 211.199219 C 74.328125 201.464844 79.460938 190.652344 84.550781 179.671875 C 89.621094 168.695312 94.679688 157.457031 101.164062 146.828125 C 101.164062 146.828125 101.164062 146.824219 101.164062 146.824219 C 107.621094 136.203125 115.691406 126.199219 125.988281 118.617188 C 136.285156 111.019531 149.023438 106.21875 162.152344 106.597656 C 172.695312 107.003906 182.707031 110.648438 191.515625 115.765625 C 200.3125 120.847656 208.070312 127.183594 215.578125 133.457031 C 231.375 146.59375 247.214844 160.242188 260.664062 176.339844 C 274.105469 192.394531 285.039062 211.222656 289.640625 232.085938 C 295.554688 259.601562 289.949219 288.429688 278.425781 313.726562 C 272.339844 327.234375 264.398438 340.25 253.625 350.90625 C 242.859375 361.574219 229.003906 369.585938 213.71875 372.019531 C 213.71875 372.019531 213.714844 372.019531 213.714844 372.019531 C 202.910156 373.679688 191.863281 372.472656 181.59375 369.191406 C 171.351562 365.914062 161.878906 360.710938 153.328125 354.449219 C 131.804688 338.714844 115.511719 315.972656 107.492188 290.445312 C 99.511719 265.003906 99.816406 237.046875 108.367188 211.703125 C 114.933594 192.34375 125.976562 174.933594 138.667969 159.269531 C 151.5 143.40625 165.882812 129.117188 180.007812 114.757812 C 188.753906 105.8125 197.855469 96.457031 209.203125 89.667969 C 214.882812 86.28125 221.140625 83.652344 227.796875 82.316406 C 234.460938 80.976562 241.507812 81.066406 248.207031 82.992188 C 255.121094 85.03125 261.285156 88.917969 266.308594 93.8125 C 271.324219 98.695312 275.28125 104.445312 278.402344 110.488281 C 284.625 122.566406 287.8125 135.480469 291.867188 147.605469 C 297.332031 163.871094 304.804688 179.765625 310.253906 196.71875 C 315.75 213.640625 318.96875 232.089844 315.511719 250.1875 C 311.304688 271.433594 297.605469 290.25 279.238281 301.558594 C 260.925781 312.804688 238.558594 316.675781 217.429688 313.226562 C 199.941406 310.394531 183.148438 302.578125 170.152344 290.304688 C 152.429688 273.425781 142.863281 249.234375 141.671875 225.019531 C 140.484375 200.898438 146.898438 176.964844 157.480469 155.542969 C 166.230469 137.660156 178.265625 120.835938 194.542969 108.671875 C 210.828125 96.488281 231.738281 89.675781 252.257812 92.613281 C 265.652344 94.617188 278.164062 100.675781 288.5 109.171875 C 298.808594 117.644531 307.03125 128.347656 313.296875 139.941406 C 329.132812 169.105469 332.757812 205.195312 320.765625 236.449219 C 314.042969 253.910156 302.480469 269.625 287.207031 280.671875 C 287.207031 280.671875 287.203125 280.675781 287.203125 280.675781 C 271.9375 291.707031 253 297.78125 234.042969 296.878906 C 211.417969 295.6875 190.28125 284.914062 173.785156 269.929688 C 164.96875 261.957031 157.324219 252.769531 150.941406 242.773438 C 145.816406 234.75 141.511719 226.210938 138.070312 217.359375 C 130.28125 197.367188 126.742188 175.78125 127.679688 154.386719 C 128.515625 134.183594 133.410156 113.664062 144.523438 96.351562 C 150.109375 87.695312 157.265625 79.980469 165.769531 74.007812 C 174.289062 68.027344 184.164062 63.902344 194.546875 62.378906 C 205.117188 60.871094 215.871094 62.070312 225.886719 65.195312 C 235.90625 68.3125 245.203125 73.21875 253.6875 79.066406 C 269.625 89.96875 283.363281 104.785156 291.085938 122.8125 C 298.84375 140.921875 299.714844 162.328125 291.34375 180.46875 C 285.125 193.683594 274.457031 204.300781 262.125 211.558594 C 249.808594 218.824219 236.03125 223 222.210938 225.230469 C 202.613281 228.515625 181.488281 227.792969 163.144531 218.765625 C 151.976562 213.179688 142.449219 204.648438 135.390625 194.46875 C 128.332031 184.277344 123.714844 172.546875 121.554688 160.441406 C 117.277344 136.191406 122.652344 111.105469 133.617188 89.507812 C 141.203125 74.429688 151.671875 60.539062 165.242188 50.144531 C 178.855469 39.710938 195.730469 33.175781 213.085938 33.179688 C 226.273438 33.238281 239.234375 37.085938 250.515625 43.640625 C 261.800781 50.203125 271.40625 59.324219 278.96875 69.789062 C 293.535156 89.980469 300.605469 114.894531 300.769531 139.523438 C 300.933594 164.199219 294.554688 188.511719 284.207031 210.597656 C 270.914062 239.105469 250.605469 264.679688 224.246094 282.023438 C 197.773438 299.4375 165.058594 307.863281 133.664062 302.933594 C 114.796875 300 96.230469 291.808594 83.007812 277.527344 C 74.945312 268.722656 69.273438 258 65.894531 246.734375 C 65.894531 246.734375 65.890625 246.734375 65.890625 246.734375 C 62.507812 235.460938 61.300781 223.699219 61.59375 212.109375 C 62.203125 188.917969 68.425781 166.605469 74.226562 144.890625 C 79.886719 123.375 85.636719 101.011719 98.289062 81.742188 C 116.082031 55.011719 145.816406 37.945312 176.894531 32.027344 C 208.039062 26.089844 240.242188 30.332031 269.960938 39.898438 C 269.960938 39.898438 269.964844 39.898438 269.964844 39.898438 C 293.28125 47.28125 316.417969 58.707031 332.5625 77.894531 C 343.785156 91.40625 350.757812 107.957031 354.027344 124.945312 C 354.027344 124.945312 354.027344 124.949219 354.027344 124.949219 C 357.308594 141.957031 357.121094 159.367188 355.039062 176.292969 C 351.542969 205.589844 341.8125 235.078125 322.085938 257.542969 C 312.160156 268.796875 299.746094 277.984375 285.699219 283.535156 C 271.613281 289.097656 255.914062 290.792969 241 287.628906 C 217.863281 282.546875 198.757812 266.609375 185.164062 248.0625 C 164.785156 220.53125 154.089844 185.960938 156.171875 151.875 C 156.171875 151.875 156.171875 151.871094 156.171875 151.871094 C 158.277344 117.589844 173.539062 84.296875 198.582031 60.992188 C 214.109375 46.5 233.796875 35.832031 255.152344 33.378906 C 268.800781 31.839844 282.878906 33.839844 295.429688 39.570312 C 308.019531 45.328125 318.871094 54.90625 325.78125 66.976562 C 335.992188 85.148438 336.8125 106.8125 333.554688 126.605469 C 333.554688 126.605469 333.554688 126.609375 333.554688 126.609375 C 330.050781 148.503906 322.292969 169.332031 313.199219 189.128906 C 304.003906 209.191406 293.484375 228.402344 284.09375 247.949219 C 279.714844 257.140625 275.289062 266.835938 268.355469 275.214844 C 264.871094 279.402344 260.707031 283.160156 255.851562 285.988281 C 250.980469 288.832031 245.394531 290.605469 239.589844 290.773438 C 232.210938 290.914062 225.082031 288.453125 219.203125 284.410156 C 213.339844 280.378906 208.648438 275.027344 205 269.21875 C 197.730469 257.605469 194.164062 244.636719 189.390625 232.917969 C 182.488281 216 172.414062 200.285156 162.726562 184.289062 C 153.003906 168.3125 143.535156 151.746094 137.992188 133.433594 C 133.226562 117.949219 131.804688 100.539062 138.160156 84.972656 C 141.398438 77.167969 146.722656 70.140625 153.789062 65.230469 C 160.886719 60.304688 169.722656 57.824219 178.457031 58.828125 C 184.351562 59.558594 189.890625 61.804688 194.695312 64.96875 C 199.496094 68.132812 203.609375 72.097656 207.140625 76.390625 C 214.1875 84.980469 219.132812 94.652344 224.679688 103.378906 C 235.484375 120.351562 249.820312 135.648438 259.695312 154.324219 C 264.652344 163.699219 268.332031 173.976562 269.40625 184.773438 C 270.488281 195.617188 268.632812 206.945312 263.125 216.613281 C 256.398438 228.09375 245.335938 236.039062 233.742188 241.226562 C 222.1875 246.457031 210.066406 249.5 198.609375 253.246094 C 180.132812 259.3125 161.984375 267.675781 142.332031 272.070312 C 132.46875 274.273438 122.230469 275.390625 111.988281 274.582031 C 101.710938 273.777344 91.46875 270.890625 82.5 265.480469 C 70.738281 258.285156 61.953125 247.246094 55.957031 235.261719 C 49.9375 223.277344 46.371094 210.425781 43.410156 197.765625 C 43.410156 197.765625 43.40625 197.761719 43.40625 197.761719 C 38.046875 175.105469 34.242188 151.726562 35.945312 128.234375 C 37.640625 104.589844 45.535156 80.855469 61.296875 62.847656 C 78.878906 43.054688 104.050781 32.199219 129.003906 26.191406 C 154.078125 20.082031 179.550781 17.976562 203.941406 12.546875 C 221.449219 8.648438 238.792969 3 257.230469 0.980469 C 266.460938 -0.0234375 275.90625 -0.0351562 285.191406 1.621094 C 294.503906 3.28125 303.613281 6.730469 311.464844 12.269531 C 320.964844 19.027344 328.164062 28.574219 332.675781 39.121094 C 337.195312 49.683594 339.160156 61.125 339.199219 72.417969 C 339.238281 95.9375 331.585938 118.328125 324.417969 139.765625 C 316.648438 163.269531 308.996094 187.296875 295.257812 208.453125 C 288.355469 219.0625 279.882812 228.785156 269.703125 236.496094 C 259.484375 244.242188 247.480469 249.808594 234.710938 251.84375 C 213.367188 255.148438 191.324219 248.164062 174.675781 234.953125 C 162.9375 225.652344 153.691406 213.53125 147.167969 200.25 C 140.621094 186.917969 136.710938 172.476562 134.847656 157.925781 C 131.125 128.691406 135.3125 99.296875 140.644531 71.0625 C 142.660156 60.195312 144.988281 49.042969 149.941406 38.65625 C 154.898438 28.183594 163.058594 18.722656 174.082031 13.992188 C 182.046875 10.6875 190.855469 10.160156 199.097656 11.734375 C 207.339844 13.304688 215.019531 16.757812 221.90625 21.128906 C 235.671875 29.871094 246.589844 41.878906 258.3125 51.800781 C 270.386719 62.023438 284.097656 70.671875 297.203125 80.140625 C 310.449219 89.671875 323.300781 100.355469 332.960938 113.925781 C 343.074219 128.21875 349.046875 145.238281 350.421875 162.558594 C 351.800781 179.972656 348.585938 197.597656 341.515625 213.421875 C 330.773438 237.570312 310.324219 257.632812 285.117188 265.46875 C 266.957031 271.042969 247.15625 270.054688 229.53125 263.570312 C 211.804688 257.039062 196.347656 245.195312 184.871094 230.449219 C 170.4375 211.917969 162.230469 188.855469 161.417969 165.589844 C 160.601562 142.125 167.253906 118.65625 179.878906 99.132812 C 189.675781 83.933594 203.332031 70.980469 219.898438 63.523438 C 237.054688 55.84375 256.929688 54.585938 274.726562 60.351562 C 292.660156 66.179688 308.074219 79.167969 316.53125 95.921875 C 323.003906 108.867188 325.292969 123.402344 325.078125 137.511719 C 324.875 151.679688 322.375 165.5625 319.664062 179.09375 C 314.816406 203.421875 309.125 227.601562 299.570312 250.496094 C 289.925781 273.621094 276.101562 295.265625 257.085938 311.535156 C 240.246094 325.894531 219.792969 335.554688 198.484375 340.308594 C 176.972656 345.105469 154.632812 345.023438 133.257812 341.046875 C 120.457031 338.679688 107.820312 334.863281 96.242188 328.71875 C 84.585938 322.539062 74.109375 313.871094 66.640625 302.894531 C 55.027344 285.605469 51.695312 264.25 52.476562 244.109375 C 53.214844 223.90625 57.574219 203.980469 60.160156 184.621094 C 61.652344 173.394531 62.617188 162.042969 65.113281 150.726562 C 67.597656 139.355469 71.828125 128.078125 79.15625 118.726562 C 89.925781 105.179688 106.355469 97.222656 123.046875 94.765625 C 139.847656 92.28125 156.875 94.78125 172.761719 99.414062 C 188.785156 104.074219 204.050781 110.820312 219.078125 117.011719 C 234.265625 123.246094 249.441406 129.027344 265.1875 131.804688 C 281.292969 134.675781 298.070312 134.4375 314.679688 137.21875 C 323.050781 138.613281 331.378906 140.824219 339.164062 144.484375 C 346.996094 148.160156 354.207031 153.40625 359.660156 160.261719 C 359.660156 160.261719 359.660156 160.265625 359.660156 160.265625 C 367.136719 169.785156 370.753906 181.660156 371.789062 193.339844 C 372.851562 205.074219 371.625 216.738281 370.21875 228.042969 C 367.929688 246.820312 365.007812 265.722656 357.449219 283.230469 C 349.820312 300.980469 336.738281 316.964844 318.960938 324.738281 C 308.054688 329.433594 296.011719 330.765625 284.4375 329.648438 C 272.785156 328.527344 261.554688 325.078125 251.027344 320.539062 C 213.679688 304.410156 184.078125 274.9375 160.253906 243.882812 C 149.335938 229.753906 139.15625 214.433594 135.210938 196.773438 C 135.210938 196.773438 135.210938 196.769531 135.210938 196.769531 C 133.234375 187.855469 133.027344 178.476562 135.230469 169.558594 C 137.453125 160.5625 142.269531 152.160156 149.339844 146.109375 C 156.496094 140.070312 165.363281 136.726562 174.15625 134.875 C 182.960938 132.992188 191.914062 132.363281 200.464844 131.214844 C 215.972656 129.125 231.402344 125.203125 247.289062 124.390625 C 255.320312 123.980469 263.449219 124.410156 271.339844 126.253906 C 279.289062 128.105469 286.945312 131.476562 293.394531 136.566406 C 304.191406 145.164062 310.785156 158.054688 313.15625 171.285156 C 315.558594 184.648438 314.054688 198.328125 310.648438 211.09375 C 304.441406 234.339844 292.214844 255.40625 280.859375 275.542969 C 271 293.128906 261.113281 310.910156 245.949219 324.296875 C 238.269531 331.0625 229.300781 336.445312 219.46875 339.289062 C 209.515625 342.164062 198.707031 342.234375 188.949219 338.773438 C 188.949219 338.773438 188.945312 338.773438 188.945312 338.773438 C 178.21875 334.898438 169.503906 327.15625 162.585938 318.644531 C 155.558594 310.039062 150.003906 300.621094 143.851562 291.910156 C 132.792969 276.285156 119.851562 262.628906 111.761719 245.09375 C 107.699219 236.28125 105.144531 226.6875 105.285156 216.960938 C 105.421875 207.097656 108.574219 197.207031 114.894531 189.632812 C 122.449219 180.679688 134.003906 175.757812 145.433594 175.636719 C 157.03125 175.523438 168.289062 180.042969 176.976562 187.320312 C 190.707031 198.835938 197.890625 216.800781 197.464844 234.144531 C 197.015625 251.957031 189.039062 268.890625 177.082031 281.285156 C 172.304688 286.257812 166.832031 290.597656 160.660156 293.691406 C 154.417969 296.828125 147.457031 298.59375 140.472656 298.359375 C 132.492188 298.066406 124.792969 295.140625 118.503906 290.476562 C 112.140625 285.757812 107.203125 279.359375 103.9375 272.316406 C 97.308594 257.949219 97.511719 241.441406 101.34375 226.777344 C 105.25 211.796875 112.6875 198.097656 120.203125 185.332031 C 128.132812 171.832031 136.113281 159.328125 141.929688 145.523438 C 146.484375 134.710938 149.464844 123.84375 155.390625 113.632812 C 158.359375 108.515625 162.035156 103.78125 166.597656 100 C 171.222656 96.164062 176.789062 93.421875 182.726562 92.539062 C 189.839844 91.519531 197.078125 93.246094 203.15625 96.65625 C 209.332031 100.121094 214.390625 105.191406 218.324219 110.816406 C 226.296875 122.238281 230.125 136.050781 234.308594 148.417969 C 242.429688 172.320312 251.636719 191.523438 256.558594 214.84375 C 259.039062 226.613281 260.058594 238.441406 258.855469 249.980469 C 257.601562 262.027344 253.84375 273.570312 247.449219 283.265625 C 241.285156 292.621094 232.542969 300.089844 222.347656 303.519531 C 217.0625 305.289062 211.464844 305.929688 206.046875 305.28125 C 200.492188 304.617188 195.164062 302.574219 190.757812 299.335938 C 183.628906 294.066406 179.238281 285.96875 177.394531 277.8125 C 175.460938 269.28125 176.011719 260.507812 177.546875 252.425781 C 179.136719 244.015625 181.863281 235.667969 184.195312 228.007812 C 186.730469 219.660156 188.917969 211.78125 189.75 203.691406 C 190.8125 193.492188 189.652344 182.515625 189.074219 173.046875 C 188.386719 162.011719 188.417969 151.851562 191.242188 142.222656 C 192.765625 137.054688 195.0625 132.304688 198.136719 128.277344 C 201.4375 123.957031 205.601562 120.570312 210.203125 118.492188 C 215.214844 116.226562 220.65625 115.605469 225.578125 116.59375 C 231.039062 117.695312 235.707031 120.796875 238.597656 124.832031 C 240.617188 127.664062 241.773438 130.898438 242.230469 134.035156 C 242.730469 137.484375 242.421875 140.867188 241.652344 143.894531 C 239.8125 151.125 235.316406 156.804688 231.535156 160.554688 C 220.859375 171.152344 212.527344 172.558594 212.496094 172.46875 C 212.460938 172.378906 220.703125 170.765625 231.132812 160.152344 C 234.816406 156.394531 239.1875 150.75 240.898438 143.707031 C 241.617188 140.757812 241.890625 137.476562 241.375 134.164062 C 240.910156 131.152344 239.777344 128.058594 237.832031 125.382812 C 235.066406 121.566406 230.578125 118.644531 225.371094 117.625 C 220.675781 116.707031 215.449219 117.355469 210.679688 119.539062 C 206.277344 121.550781 202.289062 124.84375 199.125 129.03125 C 196.171875 132.933594 193.976562 137.554688 192.515625 142.597656 C 189.789062 151.992188 189.835938 161.96875 190.550781 172.953125 C 191.179688 182.375 192.386719 193.417969 191.359375 203.851562 C 190.539062 212.125 188.363281 220.125 185.847656 228.507812 C 183.542969 236.199219 180.859375 244.503906 179.335938 252.761719 C 177.878906 260.695312 177.359375 269.222656 179.261719 277.382812 C 181.078125 285.160156 185.253906 292.863281 191.941406 297.71875 C 196.058594 300.730469 201.070312 302.628906 206.289062 303.238281 C 211.382812 303.832031 216.671875 303.207031 221.675781 301.519531 C 231.335938 298.273438 239.667969 291.058594 245.601562 282.046875 C 251.753906 272.683594 255.351562 261.472656 256.550781 249.742188 C 257.703125 238.5 256.65625 226.925781 254.191406 215.34375 C 249.308594 192.386719 240.078125 173.320312 231.84375 149.261719 C 227.5625 136.816406 223.804688 123.222656 216.113281 112.375 C 212.332031 107.03125 207.558594 102.246094 201.816406 99.066406 C 196.179688 95.949219 189.519531 94.351562 183.136719 95.316406 C 177.789062 96.097656 172.699219 98.648438 168.410156 102.195312 C 164.175781 105.699219 160.726562 110.1875 157.882812 115.082031 C 152.304688 124.675781 149.210938 135.824219 144.65625 146.675781 C 138.730469 160.785156 130.714844 173.433594 122.839844 186.882812 C 115.410156 199.613281 108.109375 213.070312 104.398438 227.570312 C 100.789062 241.726562 100.566406 257.527344 106.878906 270.945312 C 109.960938 277.527344 114.570312 283.5 120.457031 287.828125 C 126.261719 292.101562 133.351562 294.792969 140.585938 295.023438 C 146.925781 295.25 153.339844 293.585938 159.148438 290.675781 C 164.902344 287.792969 170.058594 283.671875 174.625 278.921875 C 185.996094 267.058594 193.609375 250.875 193.964844 234.0625 C 194.316406 217.746094 187.507812 200.730469 174.675781 190.085938 C 166.566406 183.347656 156.085938 179.128906 145.476562 179.289062 C 135.066406 179.4375 124.445312 183.949219 117.734375 192.019531 C 112.027344 198.792969 109.1875 207.910156 109.035156 217.019531 C 108.890625 226.035156 111.34375 235.082031 115.210938 243.503906 C 122.914062 260.316406 135.753906 273.734375 147.023438 289.660156 C 153.316406 298.535156 158.832031 307.875 165.632812 316.144531 C 172.34375 324.269531 180.5 331.589844 190.285156 335.015625 C 199.128906 338.175781 209.117188 338.0625 218.351562 335.410156 C 227.5 332.78125 235.9375 327.664062 243.253906 321.234375 C 257.765625 308.515625 267.324219 291.089844 277.230469 273.5 C 288.539062 253.296875 300.609375 232.53125 306.527344 210.003906 C 309.769531 197.644531 311.226562 184.582031 308.910156 172.058594 C 306.625 159.71875 300.53125 147.714844 290.6875 139.996094 C 284.84375 135.363281 277.753906 132.285156 270.335938 130.542969 C 262.964844 128.8125 255.246094 128.429688 247.515625 128.820312 C 232.210938 129.589844 216.921875 133.519531 201.066406 135.671875 C 192.324219 136.863281 183.484375 137.484375 175.105469 139.300781 C 166.773438 141.136719 158.574219 144.164062 152.296875 149.582031 C 146.03125 154.902344 141.71875 162.519531 139.6875 170.667969 C 137.667969 178.769531 137.894531 187.445312 139.726562 195.773438 C 139.726562 195.773438 139.726562 195.777344 139.726562 195.777344 C 143.324219 212.328125 153.230469 227.011719 163.96875 241.023438 C 187.625 271.648438 216.648438 300.605469 252.933594 316.101562 C 263.148438 320.472656 273.898438 323.78125 284.894531 324.804688 C 295.796875 325.8125 307.039062 324.589844 317.015625 320.238281 C 333.355469 313.238281 345.554688 298.09375 352.894531 281.257812 C 360.152344 264.550781 362.929688 246.109375 365.230469 227.429688 C 366.59375 216.175781 367.800781 204.871094 366.753906 193.808594 C 365.695312 182.839844 362.417969 171.863281 355.667969 163.433594 C 350.824219 157.296875 344.21875 152.542969 336.984375 149.121094 C 329.769531 145.714844 321.886719 143.652344 313.832031 142.296875 C 297.832031 139.617188 281.046875 139.871094 264.28125 136.925781 C 247.902344 134.015625 232.359375 128.148438 217.085938 121.867188 C 201.960938 115.667969 186.867188 108.996094 171.289062 104.503906 C 155.855469 100.066406 139.578125 97.644531 123.839844 100.050781 C 108.285156 102.441406 93 109.757812 83.386719 122.066406 C 76.703125 130.484375 72.832031 141.035156 70.402344 151.898438 C 68.003906 162.742188 67.078125 173.941406 65.5625 185.339844 C 62.964844 205.007812 58.636719 224.769531 57.976562 244.304688 C 57.367188 263.722656 60.410156 283.980469 71.238281 299.769531 C 78.074219 309.878906 87.890625 317.9375 98.863281 323.78125 C 109.785156 329.59375 121.882812 333.210938 134.28125 335.515625 C 154.988281 339.335938 176.574219 339.414062 197.246094 334.765625 C 217.707031 330.167969 237.335938 320.898438 253.367188 307.175781 C 271.535156 291.6875 284.8125 270.757812 294.226562 248.261719 C 303.546875 225.960938 309.101562 202.152344 313.929688 177.953125 C 316.59375 164.484375 319.046875 150.953125 319.199219 137.4375 C 319.335938 124.003906 317.242188 110.378906 311.253906 98.585938 C 303.578125 83.320312 289.304688 71.339844 272.890625 66.019531 C 256.589844 60.714844 238.144531 61.914062 222.34375 69 C 207.027344 75.832031 194.242188 88.054688 184.941406 102.410156 C 184.941406 102.410156 184.941406 102.414062 184.941406 102.414062 C 173 120.898438 166.691406 143.207031 167.492188 165.375 C 168.273438 187.351562 176.070312 209.226562 189.699219 226.679688 C 200.546875 240.558594 215.101562 251.730469 231.652344 257.78125 C 248.082031 263.789062 266.566406 264.726562 283.289062 259.542969 C 306.539062 252.429688 325.6875 233.488281 335.8125 210.871094 C 342.449219 195.976562 345.476562 179.367188 344.160156 163.0625 C 342.859375 146.847656 337.25 130.882812 327.808594 117.582031 C 318.851562 104.878906 306.480469 94.699219 293.488281 85.289062 C 280.59375 75.992188 266.75 67.253906 254.203125 56.679688 C 241.972656 46.371094 231.371094 34.609375 218.492188 26.550781 C 212.089844 22.535156 205.15625 19.378906 197.917969 18.046875 C 197.917969 18.046875 197.914062 18.046875 197.914062 18.046875 C 190.714844 16.726562 183.128906 17.132812 176.570312 19.925781 C 167.382812 23.679688 160.335938 32.097656 155.753906 41.457031 C 151.195312 50.859375 149.050781 61.472656 147.003906 72.257812 C 141.785156 100.320312 137.636719 129.046875 141.3125 157.09375 C 143.125 171.046875 146.839844 184.800781 153.039062 197.355469 C 159.210938 209.851562 167.855469 221.214844 178.746094 229.800781 C 194.125 241.90625 214.472656 248.425781 233.683594 245.324219 C 245.222656 243.519531 256.234375 238.359375 265.714844 231.210938 C 275.167969 224.078125 283.113281 214.910156 289.699219 204.824219 C 302.855469 184.722656 310.242188 161.210938 318.082031 137.664062 C 325.160156 116.144531 332.6875 94.457031 332.488281 72.453125 C 332.417969 61.910156 330.628906 51.339844 326.496094 41.785156 C 322.378906 32.269531 315.941406 23.667969 307.570312 17.78125 C 300.691406 12.886719 292.484375 9.820312 283.996094 8.28125 C 275.519531 6.746094 266.714844 6.78125 257.957031 7.71875 C 240.445312 9.585938 223.355469 15.199219 205.417969 19.1875 C 180.421875 24.75 154.992188 26.859375 130.625 32.835938 C 106.480469 38.832031 82.480469 48.996094 66.453125 67.390625 C 51.84375 83.890625 44.527344 106.277344 42.824219 128.742188 C 41.144531 151.140625 44.902344 173.816406 50.148438 196.175781 C 53.113281 208.65625 56.5 220.996094 62.152344 232.132812 C 67.796875 243.210938 75.722656 253.304688 86.105469 259.527344 C 93.953125 264.308594 103.179688 266.863281 112.542969 267.632812 C 121.898438 268.394531 131.445312 267.324219 140.816406 265.253906 C 159.507812 261.125 177.429688 252.816406 196.429688 246.585938 C 208.199219 242.710938 220.082031 239.757812 230.835938 234.835938 C 241.511719 229.882812 251.515625 222.894531 257.027344 213.101562 C 261.742188 204.996094 263.289062 195.070312 262.390625 185.457031 C 261.488281 175.835938 258.0625 166.429688 253.449219 157.617188 C 244.246094 140.027344 230.003906 124.914062 218.707031 107.191406 C 212.894531 98.089844 208.113281 88.652344 201.671875 80.914062 C 198.460938 77.046875 194.875 73.558594 190.8125 70.917969 C 186.757812 68.289062 182.234375 66.417969 177.613281 65.890625 C 170.820312 65.039062 163.617188 67.121094 157.824219 71.09375 C 152.015625 75.070312 147.535156 81.0625 144.730469 87.722656 C 139.035156 101.015625 140.550781 116.816406 144.824219 131.378906 C 149.992188 148.660156 159.222656 164.671875 168.84375 180.574219 C 178.5 196.453125 188.746094 212.496094 196.027344 230.199219 C 201.074219 242.453125 204.457031 255.046875 211.074219 265.371094 C 214.363281 270.527344 218.382812 275.179688 223.25 278.460938 C 228.09375 281.71875 233.8125 283.761719 239.410156 283.574219 C 243.816406 283.488281 248.265625 282.035156 252.242188 279.753906 C 256.226562 277.460938 259.753906 274.246094 262.828125 270.589844 C 269.003906 263.285156 273.101562 254.09375 277.585938 244.824219 C 287.082031 225.042969 297.578125 205.867188 306.621094 186.113281 C 315.523438 166.621094 323.085938 146.414062 326.386719 125.46875 C 329.269531 106.605469 328.734375 86.519531 319.46875 70.589844 C 319.46875 70.589844 319.464844 70.589844 319.464844 70.589844 C 313.402344 59.9375 303.644531 51.363281 292.398438 46.203125 C 281.167969 41.046875 268.367188 39.257812 255.964844 40.636719 C 236.515625 42.757812 218.21875 52.792969 203.558594 66.359375 C 179.960938 88.269531 165.488281 119.925781 163.496094 152.328125 C 161.496094 184.570312 171.726562 217.527344 191.082031 243.679688 C 204.113281 261.117188 221.765625 276.109375 242.539062 280.410156 C 255.871094 283.28125 270.152344 281.699219 282.996094 276.65625 C 295.828125 271.617188 307.292969 263.089844 316.539062 252.640625 C 335.042969 231.832031 344.164062 203.683594 347.675781 175.398438 C 349.652344 159.011719 349.867188 142.375 346.734375 126.367188 C 343.609375 110.414062 337.164062 94.976562 326.851562 82.664062 C 312.234375 64.964844 290.246094 54.320312 267.691406 47.003906 C 238.8125 37.800781 207.832031 33.636719 178.304688 39.367188 C 148.960938 45.070312 120.835938 61.074219 104.527344 85.878906 C 92.664062 103.652344 87.25 125.277344 81.472656 146.820312 C 75.714844 168.617188 69.578125 190.351562 69.097656 212.296875 C 68.84375 223.246094 69.949219 234.222656 73.082031 244.5625 C 73.082031 244.5625 73.082031 244.566406 73.082031 244.566406 C 76.210938 254.878906 81.332031 264.625 88.539062 272.441406 C 100.199219 285.25 117.3125 292.65625 134.84375 295.496094 C 164.105469 300.191406 195.050781 292.136719 220.113281 275.71875 C 245.132812 259.335938 264.542969 234.796875 277.371094 207.402344 C 287.285156 186.132812 293.421875 162.90625 293.214844 139.585938 C 293.003906 116.355469 286.410156 92.902344 272.84375 74.230469 C 265.816406 64.546875 256.984375 56.128906 246.722656 50.195312 C 236.484375 44.273438 224.777344 40.769531 213.0625 40.757812 C 197.65625 40.664062 182.320312 46.683594 169.835938 56.171875 C 157.347656 65.664062 147.597656 78.6875 140.378906 92.929688 C 130.109375 113.375 124.96875 136.875 129.019531 159.105469 C 131.015625 170.210938 135.222656 180.941406 141.621094 190.140625 C 148.003906 199.320312 156.585938 207.027344 166.527344 211.972656 C 182.777344 220.203125 202.363281 220.691406 220.988281 217.738281 C 220.988281 217.738281 220.992188 217.738281 220.992188 217.738281 C 234.140625 215.566406 247.035156 211.707031 258.261719 205.023438 C 269.445312 198.359375 279.105469 188.847656 284.464844 177.253906 C 291.914062 161.5 291.003906 142.160156 284.097656 125.792969 C 277.175781 109.378906 264.335938 95.660156 249.386719 85.335938 C 241.375 79.84375 232.761719 75.269531 223.640625 72.460938 C 214.539062 69.660156 204.894531 68.542969 195.640625 69.910156 C 186.539062 71.214844 177.753906 74.910156 170.128906 80.242188 C 162.503906 85.570312 156.023438 92.582031 150.90625 100.484375 C 140.652344 116.25 136.160156 135.503906 135.273438 154.722656 C 134.382812 175.054688 137.75 195.609375 145.152344 214.597656 C 148.425781 222.992188 152.507812 231.089844 157.347656 238.679688 C 163.382812 248.140625 170.589844 256.808594 178.878906 264.285156 C 194.433594 278.25 213.996094 288.371094 234.414062 289.285156 C 251.488281 290.144531 268.820312 284.550781 282.757812 274.507812 C 282.757812 274.507812 282.761719 274.507812 282.761719 274.507812 C 296.746094 264.441406 307.425781 249.871094 313.675781 233.710938 C 324.878906 204.84375 321.394531 170.871094 306.621094 143.566406 C 300.710938 132.699219 293.109375 122.75 283.6875 115.054688 C 274.265625 107.363281 262.988281 101.847656 251.152344 100.132812 C 251.152344 100.132812 251.148438 100.132812 251.148438 100.132812 C 233.074219 97.375 214.042969 103.714844 199.070312 114.769531 C 184.019531 125.894531 172.742188 141.808594 164.289062 158.898438 C 154.214844 179.449219 148.054688 202.132812 149.246094 224.632812 C 150.4375 247.121094 159.214844 269.605469 175.359375 284.796875 C 187.109375 295.953125 202.570312 303.113281 218.644531 305.746094 C 238.054688 308.886719 258.691406 305.363281 275.269531 295.109375 C 291.859375 284.867188 304.410156 267.714844 308.089844 248.734375 C 311.355469 232.527344 308.210938 215.332031 303.054688 199.035156 C 297.824219 182.695312 290.367188 166.832031 284.710938 150.019531 C 280.480469 137.496094 277.449219 124.941406 271.703125 113.976562 C 268.839844 108.492188 265.367188 103.386719 261.0625 99.242188 C 256.761719 95.105469 251.640625 91.828125 246.101562 90.242188 C 240.753906 88.664062 234.898438 88.625 229.265625 89.722656 C 223.613281 90.828125 218.148438 93.152344 213.042969 96.160156 C 202.800781 102.167969 194.207031 111.121094 185.378906 120.050781 C 171.21875 134.460938 156.996094 148.5625 144.523438 164.007812 C 132.226562 179.257812 121.609375 195.890625 115.492188 214.113281 C 107.453125 237.914062 107.15625 264.3125 114.65625 288.195312 C 122.171875 312.160156 137.550781 333.636719 157.75 348.390625 C 165.796875 354.253906 174.550781 359.097656 183.867188 362.046875 C 193.183594 364.992188 203.09375 366.113281 212.566406 364.617188 C 225.988281 362.589844 238.480469 355.265625 248.378906 345.574219 C 258.3125 335.832031 265.734375 323.566406 271.621094 310.640625 C 282.535156 286.382812 287.984375 259.117188 282.351562 233.679688 C 278.183594 214.335938 267.777344 196.566406 254.945312 181.113281 C 242.054688 165.625 226.535156 152.289062 210.824219 139.175781 C 203.328125 132.949219 195.921875 126.855469 187.8125 122.210938 C 179.703125 117.59375 170.84375 114.273438 161.902344 114.023438 C 150.796875 113.585938 139.605469 117.90625 130.363281 124.609375 C 121.082031 131.355469 113.660156 140.652344 107.484375 150.695312 C 101.304688 160.78125 96.375 171.765625 91.265625 182.785156 C 86.167969 193.824219 80.84375 204.976562 73.890625 215.335938 C 67.285156 225.117188 59.472656 233.820312 51.664062 242.226562 C 43.832031 250.679688 35.972656 258.894531 29.183594 267.800781 C 22.40625 276.710938 16.605469 286.316406 13.347656 296.695312 C 10.105469 307.0625 9.300781 318.296875 12.359375 328.398438 C 12.359375 328.398438 12.359375 328.402344 12.359375 328.402344 C 14.472656 335.554688 18.488281 342.179688 23.667969 347.664062 C 28.863281 353.160156 35.289062 357.523438 42.261719 360.667969 C 53.539062 365.769531 66.289062 367.546875 78.820312 366.832031 C 91.394531 366.105469 103.824219 362.820312 115.730469 358.195312 C 139.558594 348.945312 161.371094 334.050781 184.550781 321.671875 C 210.96875 307.554688 238.695312 296.871094 264.363281 282.953125 C 290.125 268.917969 314.402344 251.242188 329.617188 227.011719 C 346.160156 200.878906 351.207031 167.671875 343.554688 137.867188 C 338.84375 119.425781 329.339844 102.304688 317.109375 87.609375 C 304.691406 72.699219 289.484375 60.171875 272.835938 50.179688 C 248.207031 35.449219 220.289062 25.859375 192.003906 25.464844 C 163.628906 25.066406 134.746094 34.230469 113.949219 52.980469 C 94.617188 70.242188 82.773438 95.019531 77.03125 120.554688 C 71.273438 146.257812 71.460938 173.117188 73.117188 199.664062 C 73.882812 211.5625 74.921875 223.320312 77.714844 234.570312 C 80.527344 245.828125 85.054688 256.667969 92.15625 265.433594 C 103.753906 279.964844 122.207031 288.441406 140.90625 290.679688 C 159.746094 292.925781 179.089844 289.078125 197.136719 282.40625 C 219.003906 274.253906 239.335938 261.773438 254.917969 244.804688 C 270.558594 227.769531 281.390625 206.089844 283.71875 183.375 C 285.859375 163.152344 281.273438 142.445312 272.832031 123.777344 C 264.339844 105.007812 251.886719 88.125 238.046875 72.65625 C 228.992188 62.589844 219.386719 53.121094 208.140625 46.394531 C 196.886719 39.6875 183.847656 35.605469 171.242188 37.007812 C 163.160156 37.839844 155.289062 40.882812 148.320312 45.296875 C 148.320312 45.296875 148.316406 45.296875 148.316406 45.296875 C 141.328125 49.726562 135.222656 55.605469 130.003906 62.1875 C 119.507812 75.378906 112.777344 91.457031 106.359375 107.582031 C 96.289062 133.078125 87.085938 158.730469 82.222656 185.230469 C 77.347656 211.882812 76.875 239.457031 84.109375 265.078125 C 87.316406 276.417969 91.964844 287.324219 98.75 296.652344 C 105.550781 305.992188 114.511719 313.828125 124.941406 318.207031 C 135.253906 322.59375 146.976562 323.574219 158.144531 321.753906 C 169.359375 319.925781 180.097656 315.234375 189.640625 308.855469 C 208.84375 296.070312 222.878906 276.46875 234.867188 256.242188 C 250.207031 230.09375 262.675781 201.851562 263.960938 172.355469 C 264.628906 157.542969 262.496094 142.589844 256.878906 129.082031 C 251.242188 115.53125 242.070312 103.390625 230.171875 95.148438 C 216.003906 85.242188 198.144531 81.074219 180.699219 81.453125 C 163.132812 81.84375 145.785156 86.796875 129.46875 93.769531 C 116.125 99.507812 103.417969 106.609375 92.476562 115.792969 C 81.496094 125.015625 72.25 136.339844 66.585938 149.257812 C 60.089844 163.996094 58.324219 180.765625 61.1875 196.578125 C 64.0625 212.484375 71.613281 227.492188 82.335938 239.527344 C 98.628906 257.925781 121.992188 269.085938 145.824219 276.113281 C 161.121094 280.558594 176.847656 283.457031 192.339844 282.300781 C 207.871094 281.125 223.304688 275.816406 234.527344 265.5625 C 248.121094 253.335938 254.976562 234.363281 254.910156 215.929688 C 254.84375 197.3125 248.007812 179.015625 237.914062 163.203125 C 232.28125 154.433594 225.640625 146.351562 217.730469 139.871094 C 209.792969 133.375 200.570312 128.433594 190.742188 126.273438 C 179.472656 123.785156 167.316406 124.964844 157.144531 130.089844 C 146.945312 135.214844 138.664062 144.394531 135.246094 155.128906 C 133.144531 161.628906 132.765625 168.703125 133.753906 175.558594 C 134.746094 182.441406 137.15625 189.136719 140.441406 195.371094 C 147.011719 207.898438 157.230469 218.398438 167.890625 228.257812 C 176.273438 235.945312 184.890625 243.222656 194.671875 248.148438 C 204.472656 253.0625 215.574219 255.726562 225.949219 253.753906 C 232.019531 252.640625 237.824219 250.003906 242.625 246.164062 C 247.441406 242.316406 251.289062 237.230469 253.652344 231.558594 C 256.027344 225.878906 256.9375 219.5625 256.242188 213.46875 C 255.546875 207.355469 253.238281 201.410156 249.625 196.460938 C 243.945312 188.621094 234.859375 183.320312 225.269531 181.441406 C 215.609375 179.542969 205.324219 181.0625 196.195312 184.996094 C 187.4375 188.773438 179.667969 194.808594 173.371094 202.054688 C 167.039062 209.335938 162.179688 217.890625 158.625 226.929688 C 154.175781 238.417969 151.78125 250.863281 154.355469 262.425781 C 155.621094 268.226562 158.066406 273.769531 161.710938 278.300781 C 165.355469 282.839844 170.210938 286.4375 175.628906 288.222656 C 181.386719 290.167969 187.851562 290.070312 193.808594 288.386719 C 199.796875 286.695312 205.332031 283.339844 210.035156 279.09375 C 219.523438 270.585938 225.347656 258.398438 229.800781 245.988281 C 236.671875 226.382812 240.269531 205.21875 234.863281 185.875 C 232.34375 176.832031 227.929688 168.257812 221.195312 162.175781 C 217.828125 159.117188 213.925781 156.660156 209.714844 155.160156 C 205.5 153.65625 200.953125 153.070312 196.589844 153.632812 C 191.300781 154.289062 186.199219 156.664062 181.988281 160.078125 C 177.753906 163.507812 174.394531 168.054688 171.992188 173.042969 C 167.121094 183.058594 166.367188 194.851562 167.296875 206.292969 C 168.292969 217.558594 170.9375 228.703125 176.6875 238.015625 C 182.445312 247.328125 191.46875 254.902344 201.839844 257.09375 C 208.097656 258.46875 214.789062 257.929688 220.867188 255.789062 C 226.972656 253.636719 232.503906 249.832031 236.90625 245.035156 C 245.785156 235.425781 249.8125 221.726562 249.339844 208.523438 C 248.957031 198.640625 246.136719 188.859375 241.175781 180.382812 C 236.191406 171.855469 229.023438 164.617188 220.578125 159.640625 C 211.375 154.222656 200.582031 151.46875 190.066406 152.21875 C 179.492188 152.964844 169.132812 157.269531 161.511719 164.449219 C 153.84375 171.660156 148.902344 181.851562 148.386719 192.234375 C 147.851562 202.671875 151.832031 213.402344 159.21875 220.601562 C 167.195312 228.46875 179.160156 232.097656 190.277344 230.707031 C 201.515625 229.320312 212.027344 222.910156 219.003906 213.976562 C 224.652344 206.757812 228.109375 197.863281 229.34375 188.75 C 230.582031 179.570312 229.566406 170.109375 226.886719 161.214844 C 223.699219 150.703125 218.144531 140.914062 210.480469 133.273438 C 202.769531 125.585938 192.886719 120.046875 182.34375 118.03125 C 172.730469 116.179688 162.554688 117.242188 153.65625 121.121094 C 144.699219 125.019531 136.988281 131.792969 132.109375 140.15625 C 127.773438 147.542969 125.632812 156.179688 125.363281 164.796875 C 125.097656 173.476562 126.75 182.195312 129.59375 190.460938 C 135.308594 207.117188 145.988281 221.851562 156.699219 236.082031 C 156.699219 236.082031 156.703125 236.082031 156.703125 236.082031 C 162.988281 244.367188 169.265625 252.484375 177.308594 258.246094 C 181.335938 261.144531 185.75 263.457031 190.414062 264.738281 C 195.085938 266.015625 200.03125 266.304688 204.636719 265.238281 C 212.296875 263.535156 219.019531 257.972656 222.832031 251.03125 C 226.695312 244.015625 227.710938 235.5 226.320312 227.535156 C 224.921875 219.5 221.066406 211.933594 215.910156 205.523438 C 210.710938 199.058594 204.132812 193.726562 197.046875 189.285156 C 187.804688 183.527344 177.660156 179.269531 167.117188 177.78125 C 156.496094 176.28125 145.433594 177.597656 136.082031 182.359375 C 128.203125 186.347656 121.554688 192.746094 117.335938 200.417969 C 113.078125 208.144531 111.257812 217.210938 112.234375 225.902344 C 113.210938 234.664062 117.027344 243.097656 122.933594 249.53125 C 128.882812 256.023438 136.992188 260.519531 145.570312 262.082031 C 153.9375 263.636719 162.746094 262.40625 170.890625 259.609375 C 170.890625 259.609375 170.890625 259.605469 170.890625 259.605469 C 179.105469 256.773438 186.746094 252.28125 193.976562 247.277344 C 203.199219 240.820312 211.859375 233.417969 216.4375 223.742188 C 218.753906 218.886719 220.050781 213.542969 219.761719 208.308594 C 219.472656 203.0625 217.609375 197.859375 214.238281 194.003906 C 210.167969 189.285156 203.78125 186.5625 197.574219 186.714844 C 191.308594 186.847656 185.101562 189.890625 181.03125 194.632812 C 176.910156 199.410156 174.875 205.992188 175.402344 212.261719 C 175.921875 218.589844 179.039062 224.703125 183.726562 228.953125 C 189.28125 234.035156 197.078125 236.492188 204.667969 236.382812 C 212.351562 236.269531 219.925781 233.554688 226.496094 229.445312 C 233.5625 224.996094 239.554688 218.863281 243.441406 211.628906 C 247.363281 204.332031 249.15625 195.882812 248.179688 187.792969 C 247.203125 179.628906 243.386719 171.789062 237.429688 166.339844 C 231.417969 160.832031 223.160156 157.738281 215.171875 158.277344 C 208.085938 158.703125 201.277344 161.925781 195.421875 166.203125 C 190.078125 170.148438 185.453125 175.027344 182.121094 180.644531 C 178.761719 186.308594 176.699219 192.730469 176.433594 199.195312 C 176.160156 205.714844 177.710938 212.316406 181.046875 217.789062 C 184.410156 223.3125 189.613281 227.730469 195.597656 229.847656 C 201.035156 231.789062 207.136719 231.851562 212.613281 230.132812 C 218.144531 228.402344 223.09375 224.84375 226.558594 220.238281 C 230.0625 215.59375 232.089844 209.851562 232.378906 204.074219 C 232.671875 198.242188 231.199219 192.335938 228.3125 187.304688 C 223.339844 178.515625 214.15625 172.632812 204.703125 168.628906 C 195.039062 164.574219 184.648438 162.21875 174.660156 158.496094 C 164.429688 154.675781 154.972656 149.605469 145.046875 146.65625 C 140.011719 145.15625 134.878906 144.179688 129.765625 144.167969 C 124.613281 144.167969 119.476562 145.117188 114.972656 147.324219 C 108.570312 150.425781 103.484375 156.054688 100.570312 162.515625 C 97.613281 169.074219 96.84375 176.546875 97.882812 183.636719 C 98.9375 190.832031 101.863281 197.699219 105.882812 203.714844 C 109.964844 209.824219 115.207031 215.101562 120.957031 219.609375 C 125.542969 223.164062 130.441406 226.261719 135.8125 227.371094 C 138.511719 227.941406 141.296875 228.03125 143.917969 227.46875 C 146.546875 226.90625 149.042969 225.699219 150.941406 223.898438 C 153.535156 221.507812 155.039062 217.976562 155.875 214.363281 C 156.707031 210.703125 156.828125 206.796875 157.101562 202.867188 C 157.355469 198.882812 157.800781 194.789062 159.246094 190.875 C 160.691406 186.902344 163.382812 183.234375 167.25 181.171875 C 170.238281 179.628906 173.683594 179.214844 176.90625 179.820312 C 180.144531 180.429688 183.117188 181.980469 185.53125 184.101562 C 190.371094 188.398438 192.917969 194.597656 193.875 200.675781 C 194.863281 206.800781 194.535156 212.972656 194.410156 218.847656 C 194.308594 224.855469 194.414062 230.757812 196.152344 236.179688 C 197.875 241.632812 201.222656 246.527344 205.550781 250.140625 C 209.949219 253.816406 215.378906 256.183594 220.96875 256.992188 C 226.652344 257.820312 232.523438 257.039062 237.753906 254.886719 C 243.082031 252.695312 247.765625 249.070312 251.253906 244.601562 C 255.730469 238.882812 258.234375 231.75 258.699219 224.632812 C 259.179688 217.335938 257.546875 210.011719 254.414062 203.554688 C 247.941406 190.152344 235.066406 180.796875 221.625 176.230469 C 210.222656 172.382812 198.035156 171.667969 187.066406 174.816406 C 175.539062 178.125 165.554688 185.777344 160.265625 195.765625 C 157.507812 200.964844 155.996094 206.738281 156.039062 212.433594 C 156.078125 218.292969 157.773438 224.066406 160.929688 228.765625 C 165.734375 235.960938 173.902344 240.433594 182.09375 241.535156 C 190.75 242.703125 199.519531 240.3125 206.601562 235.898438 C 214.089844 231.234375 219.820312 224.320312 223.671875 216.914062 C 227.777344 209.015625 229.886719 200.367188 230.734375 192.054688 C 232.105469 178.410156 229.953125 165.367188 223.386719 155.339844 C 219.785156 149.820312 214.980469 145.40625 209.566406 142.636719 C 203.671875 139.625 197.132812 138.605469 191.199219 139.609375 C 183.644531 140.882812 177.273438 145.417969 173.722656 151.078125 C 169.550781 157.730469 169.257812 165.722656 171.644531 171.757812 C 173.335938 176.046875 176.277344 179.464844 179.546875 181.738281 C 183.445312 184.445312 187.832031 185.589844 191.691406 185.664062 C 196.742188 185.761719 200.980469 184.128906 204.015625 182.195312 C 211.304688 177.550781 212.429688 172.4375 212.496094 172.46875 Z M 212.496094 172.46875 " fill-opacity="1" fill-rule="nonzero"/></svg>